<?xml version="1.0" encoding="utf-8"?>
<!-- Generator: Adobe Illustrator 17.0.0, SVG Export Plug-In . SVG Version: 6.00 Build 0)  -->
<!DOCTYPE svg PUBLIC "-//W3C//DTD SVG 1.1//EN" "http://www.w3.org/Graphics/SVG/1.1/DTD/svg11.dtd">
<svg version="1.1" id="Layer_1" xmlns="http://www.w3.org/2000/svg" xmlns:xlink="http://www.w3.org/1999/xlink" x="0px" y="0px"
	 width="854.038px" height="188.791px" viewBox="0 0 854.038 188.791" enable-background="new 0 0 854.038 188.791"
	 xml:space="preserve">
<g>
	<g id="Mark">
		<path fill="#F78E1E" d="M165.631,94.08c6.976-7.59,14.021-18.395,20.602-28.388c-4.355-13.91-11.814-26.445-21.564-36.8
			c-8.588,32.904-31.95,64.438-32.284,65.175c-0.001,0.003-0.003,0.007-0.004,0.008c0,0.001,0.005,0.009,0.006,0.01
			c0.212,0.57,24.055,32.033,32.488,65.189c9.814-10.49,17.283-23.197,21.574-37.292C180.101,112.456,173.026,101.945,165.631,94.08
			z"/>
		<path fill="#EE3524" d="M40.991,172.502c-6.949-4.827-13.224-10.555-18.658-17.016c16.401-14.033,34.611-30.079,43.025-42.747
			c-21.639-0.17-42.116,0.271-63.503,0.238C0.641,106.904,0,100.624,0,94.194c0-5.866,0.533-11.606,1.548-17.179
			c21.394-0.171,42.27-0.335,63.811-0.504c-9.373-14.111-26.894-28.562-43.704-42.8c5.296-6.44,11.421-12.172,18.211-17.036
			c33.311,25.186,51.859,49.268,69.138,77.515C94.889,119.323,77.459,143.053,40.991,172.502z M123.31,84.74
			c0.308,0.002,23.172-42.735,21.867-71.736c-8.889-5.475-18.745-9.528-29.252-11.849c1.359,12.118,1.182,24.316-0.684,36.448
			C104.23,25.08,94.771,12.493,80.798,0c-7.661,1.169-15.02,3.255-21.966,6.134C91.331,34.089,123.031,84.738,123.31,84.74z
			 M59.535,182.541c7.646,3.098,15.786,5.231,24.269,6.25c12.949-12.937,21.898-25.98,33.302-38.941
			c1.888,12.303,2.083,24.674,0.656,36.957c10.475-2.533,20.275-6.793,29.079-12.468c-0.94-33.605-21.43-71.626-21.726-71.617
			C124.878,102.725,95.397,149.658,59.535,182.541z"/>
	</g>
	<path id="Logotype" d="M339.354,41.778h19.857l-0.346,1.825c-5.289,27.938-15.324,61.007-28.254,93.116l-0.388,0.964h-22.312
		l-21.296-65.988l-18.233,65.988h-25.033l-32.014-95.905h21.684l20.058,63.772l3.454,11.285l2.48-8.807l17.854-66.25h19.854
		l21.361,66.571l2.893,9.371c8.581-27.186,14.535-51.646,18.174-74.644L339.354,41.778z M447.283,69.705v67.978h-17.172
		l-1.366-9.432c-12.132,7.642-21.996,10.928-32.623,10.928c-22.618,0-32.742-13.65-32.742-27.178
		c0-9.691,5.386-32.231,55.278-32.231h8.862v-7.444c0-11.59-8.118-16.989-25.548-16.989c-11.048,0-21.534,2.408-28.384,4.429
		l-1.476,0.435l-3.652-12.375l1.316-0.514c8.666-3.386,24.675-7.03,39.348-7.03C435.158,40.281,447.283,49.63,447.283,69.705z
		 M384.877,109.194c0,8.956,6.625,14.742,16.88,14.742c6.832,0,16.186-3.294,25.764-9.059v-21.55h-9.296
		C388.667,93.328,384.877,101.807,384.877,109.194z M522.794,43.079c-3.956,25.286-10.606,49.771-19.78,72.836l-6.304-16.645
		l-22.704-57.493h-21.997l34.701,82.613c2.96,7.011,2.52,13.991-1.236,19.656c-4.784,7.213-14.323,11.519-25.516,11.519
		c-2.11,0-5.093-0.216-7.598-0.549l-1.742-0.232v12.66l0.891,0.413c3.521,1.637,8.734,2.575,14.3,2.575
		c8.728,0,22.227-3.983,36.969-22.959c16.491-21.226,30.584-56.149,41.887-103.802l0.449-1.894h-22.116L522.794,43.079z
		 M614.043,41.778h-23.836V28.345c0-9.398,3.821-13.059,13.63-13.059c4.109,0,10.433,1.325,14.979,2.566l1.358,0.37l4.69-12.632
		l-1.375-0.565c-2.022-0.832-12.695-4.981-24.204-4.981c-18.599,0-28.842,10.716-28.842,30.173v11.561h-17.768v14.495h17.768v81.41
		h19.763v-81.41h23.836V41.778z M700.666,69.705v67.978h-17.173l-1.365-9.431c-12.132,7.641-21.996,10.927-32.623,10.927
		c-22.618,0-32.742-13.65-32.742-27.178c0-9.691,5.387-32.231,55.277-32.231h8.862v-7.444c0-11.59-8.117-16.989-25.547-16.989
		c-11.048,0-21.534,2.408-28.385,4.429l-1.477,0.435l-3.651-12.375l1.315-0.514c8.666-3.386,24.675-7.03,39.348-7.03
		C688.54,40.281,700.666,49.63,700.666,69.705z M638.259,109.194c0,8.956,6.626,14.742,16.88,14.742
		c6.832,0,16.185-3.294,25.764-9.059v-21.55h-9.295C642.049,93.328,638.259,101.807,638.259,109.194z M758.486,40.281
		c-8.673,0-15.223,5.06-25.688,16.32l-1.526-14.823h-17.229v95.905h19.763V73.689c9.867-10.316,17.44-15.546,22.514-15.546
		c2.091,0,5.215,0.32,7.714,1.219l1.823,0.656l2.107-17.976l-1.216-0.382C763.789,40.732,761.087,40.281,758.486,40.281z
		 M849.953,118.088l4.268,11.553l-1.284,0.599c-12.182,5.682-26.319,8.939-38.788,8.939c-29.468,0-43.793-15.317-43.793-46.829
		c0-33.456,15.783-51.882,44.443-51.882c13.359,0,23.04,3.42,29.594,10.455c7.848,8.424,11.003,21.827,9.646,40.974l-0.102,1.43
		h-62.951v1.081c0,24.095,15.307,29.153,28.148,29.153c13.93,0,25.192-3.472,29.388-4.964L849.953,118.088z M791.075,79.77h43.42
		v-2.579c0-10.482-3.643-22.977-20.996-22.977C800.905,54.214,792.225,64.187,791.075,79.77z"/>
</g>
</svg>
