<svg xmlns="http://www.w3.org/2000/svg" viewBox="1328.544 185.97 133.505 129.918"><defs><style>.a{fill:#9e9e9e;}</style></defs><path class="a" d="M12.329,30.035a15.406,15.406,0,0,1,3.687-.89c2.543-.254,5.086-.509,7.5-.763-1.144-2.289-1.78-5.213-3.56-6.993-4.832-5.086-5.722-11.062-4.832-17.42.254-1.526,1.907-2.8,2.924-4.069a16.493,16.493,0,0,1,1.78,4.069c.254,2.162,0,4.45.127,6.612a8.516,8.516,0,0,0,1.272,2.67,13.919,13.919,0,0,0,1.144-2.924c.509-6.993,2.8-9.536,8.138-7.756,2.034.636,3.433,3.052,5.213,4.323a2.393,2.393,0,0,0,2.289-.127C40.938,1.68,53.4.536,58.485,5.367,68.148,14.4,74.379,25.839,80.864,37.282c5.086,8.9,5.213,18.437,8.01,27.719,1.907,6.485-7.248,17.674-13.987,17.674-2.8,0-3.306.636-4.2,3.687-4.577,16.148-11.825,17.292-23.4,12.079a37.775,37.775,0,0,1-11.316-7.629C24.79,79.242,13.347,67.8,3.174,55.338c-7.12-8.519-1.4-22.506,9.155-25.3m65.864,44.63c.763-2.543,3.052-5.976,2.162-7.5-6.1-10.3-12.461-20.471-19.454-30.135-3.942-5.34-9.791-9.155-13.859-14.368-6.23-7.756-6.612-8.265-11.062.254-4.323,8.138-8.9,13.1-19.2,12.588C8.388,35.121,4.7,44.276,10.041,51.015c5.595,7.248,12.715,13.605,18.183,20.98,6.23,8.519,14.241,14.749,23.014,20.09,6.993,4.2,8.519,3.179,11.444-5.086,4.577-13.478,4.577-11.825,15.512-12.334M62.935,21.9c-3.306-3.687-6.23-7.756-9.918-10.808-1.526-1.4-4.7-.89-7.12-1.272,1.144,1.526,2.289,3.179,3.56,4.7,1.144,1.4,2.67,2.416,3.815,3.687,5.595,5.976,11.062,11.952,16.657,17.8.509.509,1.144.89,1.653,1.4-.127-.89,0-1.78-.509-2.416-2.289-4.2-4.959-8.265-8.138-13.1m-32.8-9.663a14.128,14.128,0,0,0-.89-2.034,9.119,9.119,0,0,0-.89,3.179c.127,2.8.381,5.722.636,8.519A39.465,39.465,0,0,0,30.13,12.234Z" transform="matrix(0.545, 0.839, -0.839, 0.545, 1413.422, 186.011)"/></svg>