<svg xmlns="http://www.w3.org/2000/svg" viewBox="346 364 156.249 132.763"><defs><style>.a{fill:#9e9e9e;}</style></defs><path class="a" d="M105.9,100.4c-4.6,2.5-7.5-1.3-10.5-3.5-10.1-7.2-20.1-14.7-30-22.2-9.8-7.5-19.6-15-29.3-22.6-6.3-5-12.5-10.1-18.4-15.6A169.021,169.021,0,0,1,3.5,21.4a15.526,15.526,0,0,1-2-16.8C2.9,1.4,8.9-.9,12.8.4A49.815,49.815,0,0,1,29,9.8C43,21.4,57.4,32.5,71.4,44.2,77.3,49.1,82.5,54.9,88,60.3c3.1,3,6.1,6,9.1,9.1,3.6,3.7,6.8,7.8,10.5,11.4,3.5,3.4,7.5,6.4,11.3,9.5a1.911,1.911,0,0,0,1.9.3c5.6-3.3,10.5-.6,14.2,2.8,5.1,4.8,10.4,10.2,13.3,16.4,2.5,5.6,4.9,11.3,7.6,16.8.7,1.3-.1,4.1-1.2,5.3-.9,1-3.5,1.1-5,.6-6-1.9-12-4.2-17.9-6.3-.6-.2-1.1-.8-1.6-.8-9.4,1.3-14.1-5.3-18.4-11.7-2.3-4-3.9-8.5-5.9-13.3m29.6.5,2.3,2.3c.2-.4.6-1,.5-1a11.352,11.352,0,0,1-2.8-2.3c-3.4-2.1-6.8-4.2-10.2-6.1-.4-.2-1.4.5-2.2.8a5.715,5.715,0,0,0,1.6,1.1c3.5,1.6,7.2,3.2,10.8,5.2m1.9,8.6a57.177,57.177,0,0,0,3.7,4.6,46,46,0,0,0,4.7,4.1c-.9-1.6-1.8-3.3-2.7-4.9-.1-.3.1-.7,0-.9a6.8,6.8,0,0,0-5.7-3.8c-6-3.7-11.9-7.4-17.9-11-1.8-1.1-3.6-1.4-5.1,1-1.4,2.3-.9,3.8,1,5.1,6.8,4.3,13.6,8.6,20.5,12.8.3.2.8,0,1.3-.1-.3-.4-.4-1-.8-1.3-2.1-1.5-4.1-3-6.3-4.4-3.8-2.3-7.8-4.4-11.5-6.9-1.1-.7-1.5-2.5-2.2-3.8,1.4.1,2.8.1,4.1.2a4.594,4.594,0,0,1,1.6.7c5.1,2.7,10.2,5.4,15.3,8.6M101.1,94.2c1.4-.8,2.9-1.5,4.3-2.4,2.9-1.8,2.7-3.6.1-5.7a76.223,76.223,0,0,1-6.3-6.4c-5.7-6.3-11-13-17.1-18.7-9.6-8.7-19.8-16.7-29.7-25-.5-.4-1.1-.8-1.7-1.2a5.537,5.537,0,0,0-.2,1.8c.6,4.7-1.4,8.6-4.2,12.1-1.9,2.4-1,3.7.9,5.1,10.5,8,21,16,31.5,23.9C86,83,93.3,88.3,101.1,94.2M40.4,26.9c-5.2-4.6-10.2-9.5-15.8-13.7A73.485,73.485,0,0,0,11.5,5.8c-3.1-1.6-6.3.4-5.7,3.6.8,3.9,2.2,8.4,4.9,11.2,7.5,8.1,15.7,15.5,23.7,23,1.7,1.6,4.4,4.3,5.6,3.9,2-.7,3.4-3.5,4.5-5.8,1.3-2.6,3-5.9,2.4-8.3-.6-2.3-3.9-4-6.5-6.5m92.7,93.6,12.3,4.8c.5.2,1,.8,1.5.9a6.154,6.154,0,0,0,1.8-.3c-.4-.4-.6-1.1-1.1-1.3-3.7-1.7-7.5-3.5-11.3-5-5.3-2.1-10.7-4.1-16.1-6.1-.5-.2-1.1-.3-1.6-.5a15.054,15.054,0,0,0,1,1.7C122.6,119.1,127,120.5,133.1,120.5Z" transform="translate(346.086 363.97)"/></svg>