<svg xmlns="http://www.w3.org/2000/svg" viewBox="153.457 963.476 606.25 712.278"><defs><style>.a{fill:#424242;}</style></defs><g transform="translate(153.457 963.476)"><path class="a" d="M507.327,176.55c-1.845.63-3.879,1.253-5.7.548s-2.86-3.411-1.354-4.648A394.177,394.177,0,0,0,571.7,143.782a6.814,6.814,0,0,1,7.422.878c.766,2.486-2.069,4.478-4.447,5.531Q541.6,164.837,507.327,176.55Z" transform="translate(27 7.732)"/><path class="a" d="M129.948,75.617c5.6,5.637,15.218,8.939,15.805,16.866a3.566,3.566,0,0,1-1.006,3.114c-1.925,1.522-4.471-.871-5.735-2.975l-4.381-7.3c-.146,1.484-1.944,2.341-3.4,2.029a7.3,7.3,0,0,1-3.607-2.52,52.072,52.072,0,0,1-12.981-27.2c1.284-1.2,3.461-.879,4.823.232a10.927,10.927,0,0,1,2.793,4.408C124.275,67.029,126.3,71.952,129.948,75.617Z" transform="translate(6.196 3.074)"/><path class="a" d="M462.373,46.252a22.588,22.588,0,0,1-4.859,5.662L434.32,73.547c-3.755,3.5-7.636,7.085-12.428,8.929-2.314-2.591.378-6.518,2.933-8.871L448.613,51.7c3.836-3.533,8.9-7.332,13.76-5.448Z" transform="translate(22.755 2.473)"/><path class="a" d="M240.435,35.99l5.751-27.552c.453-2.172,2.693-4.941,4.194-3.307a84.8,84.8,0,0,1-6.309,39.82c-1.084,2.575-3.706,5.579-6.072,4.092C238.625,44.661,239.53,40.324,240.435,35.99Z" transform="translate(12.864 0.251)"/><path class="a" d="M360.1,13.942c1.166,3.222-.428,6.732-2.05,9.75a227.481,227.481,0,0,1-12.614,20.726c-2.852,4.168-7.172,8.757-12.046,7.432-1.082-3.807,2.538-7.129,5.435-9.825,8.168-7.6,13.1-17.967,17.833-28.068Z" transform="translate(18.009 0.754)"/><path class="a" d="M45.135,143.53a36.856,36.856,0,0,1,20.679-1.156,4.445,4.445,0,0,1-3.842,5.356l5.624,4.111c-2.485,3.163-7.572,1.531-10.883-.753s-7.288-5.113-10.96-3.472A6.387,6.387,0,0,1,45.135,143.53Z" transform="translate(2.434 7.643)"/><path class="a" d="M36.132,138.576c1.972-.264,2.778,2.953,1.308,4.293s-3.77,1.115-5.67.527-3.829-1.464-5.794-1.151c-.41-2.15,1.624-4.145,3.78-4.524s4.329.391,6.382,1.15Z" transform="translate(1.401 7.438)"/><path class="a" d="M342.911,34.964l-3.335.724c-.309-2.568-.6-5.282.446-7.649s3.938-4.123,6.268-3a12.838,12.838,0,0,1-3.681,9.264Z" transform="translate(18.338 1.335)"/><path class="a" d="M367.26,2.591a11.262,11.262,0,0,1-2.417,4.646c-1.259,1.235-3.389,1.773-4.8.718A13.628,13.628,0,0,1,362.784.012L366.991,0a3.464,3.464,0,0,1,.489,2.63Z" transform="translate(19.46)"/><path class="a" d="M3.829,139.007l5.608.1a6.5,6.5,0,0,1-8.679,3.857,3.961,3.961,0,0,1-.591-3.46,5.154,5.154,0,0,1,3.646-.427Z" transform="translate(0 7.508)"/><path class="a" d="M470.75,39.458l-2.417-.583a3.248,3.248,0,0,1,1.052-4.256,5.606,5.606,0,0,1,4.674-.527,3.743,3.743,0,0,1-3.285,5Z" transform="translate(25.29 1.828)"/><path class="a" d="M431.008,633.146c11.515,4,12.375,23.469,1.257,28.464,9.625,4.843,8.784,20.114,1.022,27.588s-19.228,9.235-29.911,10.634c-59.822,7.834-121.9,15.5-179.47-2.539-5.046-1.581-11.194-5.576-9.364-10.537,2.242-6.076-.669-12.67-2.418-18.906s-1.529-14.42,4.22-17.4c-10.283-2.662-11.085-20.333-1.085-23.915-10.616.141-14.695-17.873-5.053-22.319,6.349-2.927,7.673-11.282,7.569-18.272-.475-31.919-12.589-62.37-24.525-91.977L132.9,344.275c-11.99-29.739-24.07-59.8-29.06-91.471s-2.333-65.578,13.728-93.331c14.164-24.477,37.765-42.454,63.453-54.28s53.572-18,81.351-23.3c29.428-5.616,59.272-10.361,89.206-9.135a154.19,154.19,0,0,1,98.368,41.225,151.874,151.874,0,0,1,46.807,95.758c1.827,19.962-.382,40.057-2.9,59.944-4.119,32.526-9.116,65.132-19.387,96.267-11.105,33.662-28.265,65.257-37.027,99.6-9.805,38.435-8.7,78.762-5.79,118.321.842,11.438,1.78,23.279-2.1,34.073-1.934,5.386-3.949,13.328,1.457,15.2M362.581,409.609c4.524-7.98,3.037-17.87,1.417-26.9L359.8,359.3c-2.723,3.054-1.254,7.793.053,11.67a77.29,77.29,0,0,1,2.729,38.636M396.609,435.6l-6.785,88.907,38.987-79.754c11.7-23.928,23.524-48.245,28.209-74.464l-21.984,53.222c10.245-47.707,38.385-90.1,48.7-137.794A193.423,193.423,0,0,0,470.571,165.1c-5.889-12.824-13.306-25.131-23.4-35-12.925-12.638-29.666-20.719-46.819-26.424A217.135,217.135,0,0,0,301.518,94.8a241.472,241.472,0,0,1,85.353,18.023c-6.842,2.606-14.475.663-21.551-1.217C318.841,99.265,270,90.482,222.808,99.713S130.132,139.446,114.72,185c-16.44,48.592,3.529,101.2,23.229,148.569l18.306,44.012C186.378,450,216.748,523.288,228.84,600.788a124.414,124.414,0,0,0,32.777-7.384l-5.752-49.144c-1.9-16.231-3.809-32.515-7.78-48.367-4.655-18.585-12.094-36.372-17-54.893a208.991,208.991,0,0,1-6.805-61.113c.388-10.473,1.905-21.7,9-29.418s21.519-9.21,27.259-.441a28.884,28.884,0,0,1,53.33.794,26.364,26.364,0,0,1,45.77-6.436c2.541,3.4,6.775,4.961,10.516,6.967,13.768,7.384,22.224,22.288,25.519,37.561s2.122,31.11.933,46.688M265.5,354.52A97.732,97.732,0,0,1,284.417,415.5c-.292,8.321-4.444,18.975-12.731,18.172-5.6-.542-9.034-6.3-11.088-11.537a100.7,100.7,0,0,1-3.025-64c-1.755-5.52-9.768-6.719-14.56-3.465s-6.947,9.166-8.324,14.792c-8.434,34.465,1.685,70.554,13.322,104.073s25.072,67.683,23.328,103.121c-.314,6.372,5.332,11.755,11.459,13.531s12.66.867,19.013.291c28.389-2.572,56.895,1.854,85.056,6.267a680.942,680.942,0,0,1-1.747-84.091c1.77-43.1,7.6-86.727-.753-129.049-2.309-11.7-8.512-25.559-20.43-25.949a97.159,97.159,0,0,1,6.01,47.4c-.631,5.077-1.766,10.326-5,14.291s-9.1,6.188-13.649,3.842c-4.415-2.278-6.027-7.716-6.821-12.621A97.223,97.223,0,0,1,347,368.328c2.294-7.975-2.674-17.321-10.568-19.881s-17.4,2.092-20.224,9.9a109.882,109.882,0,0,1,14.216,46.515c.479,6.6.267,13.59-3.081,19.3s-10.716,9.514-16.794,6.9c-4.135-1.78-6.7-5.947-8.509-10.068a60.078,60.078,0,0,1,2.5-52.626c5.084-9.106-1.644-21.717-11.667-24.6s-21.124,2.412-27.372,10.763m53.864,240.751a31.911,31.911,0,0,0-9.371,0c-2.761.552-5.384,1.836-8.2,1.958a379.553,379.553,0,0,0-93.5,15.953c5.04,4.434,11.867,6.122,18.432,7.52a458.763,458.763,0,0,0,185.025,1.119c4.871-.976,10.515-2.7,12.113-7.4,1.091-3.209.88-8.129,4.256-8.435L319.364,595.271M223.7,682.6c-1.375.827-2.788,2.308-2.244,3.817a3.878,3.878,0,0,0,2.127,1.87c34.606,17.339,75.382,15.2,113.965,12.118,22.674-1.809,45.354-3.806,67.831-7.3,7.613-1.184,16-3.024,20.436-9.324s.416-17.8-7.219-16.76l-122.368,16.6c-12.144,1.647-24.543,3.289-36.581.993-12.117-2.311-25.374-8.366-35.947-2.01m3.914-28.337a29.081,29.081,0,0,1-5.523,9.711c8.115,8.056,20.754,8.793,32.187,9.042,51.088,1.116,103.384,2.057,151.82-14.228-3.445-7.053-13.1-7.614-20.942-7.229q-75.98,3.725-152.088.41c-4.354-.19-9.35-.139-12.215,3.145a10.793,10.793,0,0,1,6.761-.851M422.7,593.553c.467,2.191,1.218,4.693,3.294,5.537a263.767,263.767,0,0,1,10.7-153.855l-33.764,64.9c-4.026,7.738-8.1,15.6-9.881,24.135-3.46,16.544,1.988,33.507,7.368,49.529,1.31,3.9,2.715,7.957,5.654,10.837s7.908,4.139,11.208,1.681a269.507,269.507,0,0,1,1.207-111.068c.64-2.873,4.169-6.319,5.625-3.762A254.919,254.919,0,0,0,422.7,593.553M378.648,633.27c-48.1,9.628-97.657.551-146.55-3.423-5.126-.417-10.916-.557-14.656,2.973s-2,11.792,3.12,11.361l43.243-3.632c-1.019,3.444,4.059,5.143,7.65,5.069,50.215-1.043,100.946-2.153,149.626-14.515-13.466-5.015-28.343-.653-42.433,2.167m-115.471-269.4c-5.1,12.044-3.634,25.8-1.052,38.618,1.712,8.5,4.088,17.314,10.037,23.624,3.383-1.712,5.352-5.463,5.9-9.215s-.114-7.562-.772-11.3c-2.574-14.6-5.381-29.755-14.111-41.731M253.853,91.093a606.615,606.615,0,0,1,102.833-1.135q2.943.218,5.885.455c-14.531-6.756-30.942-8.116-46.963-8.457-20.97-.446-42.509.8-61.755,9.137m157.564,6.619c7.836,4.35,13.979,12.061,22.727,14.015-12.9-16.956-35.2-23.121-55.881-28.251l-16.939-4.2c-5.6-1.389-11.391-2.787-17.075-1.813l53.52,15.214c4.676,1.329,9.4,2.678,13.649,5.037M353.476,370.643a83.272,83.272,0,0,0-3.287,33.535,30.31,30.31,0,0,0,1.963,8.663c.644,1.517,2.255,3.181,3.661,2.32a3.119,3.119,0,0,0,1.117-2.248,83.828,83.828,0,0,0-3.455-42.271M483.432,310.41a655.356,655.356,0,0,1-31.142,92.222c-.717,1.7-1.3,4,.164,5.121,13.316-31.466,26.772-63.435,30.978-97.343M406.78,649.895l5.937,6.169a37.014,37.014,0,0,1,18.89-9.127A21.921,21.921,0,0,1,417.134,659.3c.769,1.442,2.91,1.062,4.436.476,4.427-1.7,9.145-3.627,11.726-7.6s1.494-10.579-3.089-11.8a34.84,34.84,0,0,1-23.428,9.518M313.207,378.533a50.247,50.247,0,0,0,3.359,38.091,17.393,17.393,0,0,0,3.354,4.747c1.685-2.49.5-5.825-.59-8.628a90.633,90.633,0,0,1-6.122-34.21M259.447,532.318l6.984,57.257a6.023,6.023,0,0,0,2.217,3.948c-1.947-20.564-3.913-41.237-9.2-61.205M306,388.968c.391-2.857,1.006-5.741.621-8.6-.122-.909-.847-2.064-1.658-1.637-1.254,7.292-2.375,14.688-1.8,22.065s2.989,14.824,8.012,20.257A56.112,56.112,0,0,1,306,388.968M424.932,636.554l-26.259,6.214c-1.408.333-2.988.8-3.643,2.086a42.085,42.085,0,0,0,29.9-8.3m-142.1,43.1a87.214,87.214,0,0,0-28.064-1.892c-1.463.139-3.123.437-3.894,1.688a101.934,101.934,0,0,0,31.958.2M480.056,164.892l7.451,34.209,1.456,6.687a103.613,103.613,0,0,0-8.907-40.9M354.271,355.3c1.9-3.968-2.05-8.129-5.571-10.766-3.947-2.956-8.761-6.076-13.45-4.551A52.9,52.9,0,0,1,354.271,355.3m14.651,291.418-46.6-.143c-3.112-.01-6.227-.019-9.331.194,1.556,1.774,4.251,1.825,6.609,1.739l49.321-1.791m-50.273-268.3a95.549,95.549,0,0,0,4.375,27.864c.438,1.4,1.247,3.047,2.711,3.069l-7.086-30.933m74.076,211.709a11.032,11.032,0,0,0,1.589,3.7,6.311,6.311,0,0,0,3.05,2.218l-5.7-24.766a45.112,45.112,0,0,0,1.059,18.845m31.39-35.339a54.131,54.131,0,0,0,.007-20.169,86.239,86.239,0,0,0-.007,20.169m52.842-393.166a2.232,2.232,0,0,0-1.117-3.068,1.76,1.76,0,0,0,1.058,3Z" transform="translate(5.49 3.922)"/></g></svg>