<svg xmlns="http://www.w3.org/2000/svg" viewBox="1465 422 101.07 133.176"><defs><style>.a{fill:#9e9e9e;}</style></defs><g transform="translate(1464.996 422.005)"><path class="a" d="M34.7,10.4C39.2,6.7,41.8.9,48,.2A46.429,46.429,0,0,1,70.7,4c4.1,1.7,7.9,4,12.1,5.2,6.7,1.9,10.4,6.8,14.3,12,7.6,10.1,2.6,19.6-1,29C90.1,66,83.5,81.6,76.9,97.1c-4.2,9.7-8.5,19.4-13.4,28.8-3.7,6.9-6.9,8.7-16.6,6.2-7.1-1.8-14.5-2.6-21.3-5-5.2-1.9-9.7-5.8-14.5-8.8-.8-.5-1.5-1-2.2-1.5C.8,111.9-2.2,105,1.7,95.4c4-9.9,6.5-20.2,9.6-30.4s7.9-19.9,12.1-29.8c3.5-8.3,7.4-16.4,11.3-24.8M91.3,49.3c1.6-4.7,3.3-9.4,4.7-14.2,1.5-5.1-2.3-8.4-4.9-11.8-2.4-3.3-5.4-6.6-8.8-8.5-5.5-3-11.6-5-17.5-7.2-5.4-2.1-10.9-4-16.7-2-7.2,2.5-9.6,9.5-13.4,15.2a5.869,5.869,0,0,0-.6,2c.6-.4,1.5-.7,1.6-1.2.8-3.2,3.2-3.9,5.8-3.2C47.6,20,53.7,22,59.8,23.7c10.6,3,19.8,10,31.2,11.2,2.4.3,3.9,1.9,2.2,4.8a32.87,32.87,0,0,0-2.3,6.2c-4.5,11.8-9,23.6-13.4,35.5a6.017,6.017,0,0,0,0,1.9c.4-.4,1.1-.8,1.3-1.4C83,71.4,87.2,60.8,91.3,49.3M63.1,110c-4.9,3.2-10.5,5-16,3.6-8.3-2-16.3-5.1-24.4-7.7a33.323,33.323,0,0,0-6-1.6c-6-.4-8.5-2.5-9.5-8.4-.1-.4-.3-.8-.4-1.2a1.794,1.794,0,0,0-.5.7c-2.2,4.7-.3,12.1,4,15.2,3.9,2.8,7.9,5.4,11.9,8.1,1.6,1.1,3.4,3.3,3.3-1.2,0-3.1,1.9-5.7,5.3-5.5,2.4.2,5.8,1.2,6.8,3a4.254,4.254,0,0,1-3.1,6.5c-.5.1-1,1-1.1,1.6,0,.4.8,1,1.3,1.1,5.8,1.3,11.6,2.8,17.5,3.7a5.776,5.776,0,0,0,4.6-2.3c3.1-4.9,5.7-10,8.5-15.1a19.659,19.659,0,0,0,1-3.2c-.9.8-1.8,1.5-3.2,2.7M41.2,97.6c-.6,1.8-.8,3.9-1.8,5.4-.6,1.1-2.3,1.5-3.5,2.2,1.4.6,2.8,1.3,4.3,1.8,1.3.4,2.6.6,3.9,1.1,5.2,2,10,1.4,13.9-2.6a78.95,78.95,0,0,0,8.5-10.6c.8-1.2.6-3.1.8-4.7a23.944,23.944,0,0,1-2.1,3.4c-.5.6-1.6.8-2.2,1.4-1.5,1.4-2.9,2.9-4.4,4.3-2,1.8-3.9,4.1-6.3,5.2-2.6,1.3-5.8,1.5-8.7,2.1.2-3,.4-6,.5-9,0-.9-.1-1.9-.1-2.8a36.322,36.322,0,0,0-2.8,2.8m1.9-7.7c5.9-3.7,11.8-7.4,17.8-11.1a4.128,4.128,0,0,1,2.2-.4c1.7,0,4.8-3.2,4.3-4.8a1.84,1.84,0,0,0-1.3,0c-3.4,1.7-6.8,3.6-10.2,5.3-5.1,2.7-10.2,5.2-15.2,8.2-1.9,1.1-3.3,3.1-4.8,4.7-.2.3.2,1.1.3,1.7a16.965,16.965,0,0,1,1.4-1,36.177,36.177,0,0,1,5.5-2.6M16.8,63.7c-1.3,4.6-2.6,9.1-3.8,13.7-.2.6.3,1.3.5,2a8.469,8.469,0,0,1,.4-1.7c1.3-4.1,2.5-8.2,4-12.2,4.3-11.4,8.8-22.8,13.2-34.1a32,32,0,0,0,.7-3.3,25.432,25.432,0,0,0-1.6,2.8c-4.3,10.7-8.6,21.5-13.4,32.8m45.9,5.7c.3-.7.6-1.3.9-2a11.793,11.793,0,0,0-2.7.6c-6.8,3.1-13.6,6.2-20.3,9.6-3.4,1.7-6.7,3.8-9.9,5.8-.5.3-.7,1.1-1,1.6a11.484,11.484,0,0,0,1.8.1,17.594,17.594,0,0,0,2-.9c9.5-4.8,19.1-9.5,29.2-14.8m-22-29.6c-2.5,3.8-5,7.5-7.4,11.3-.6,1-.5,2.3-.7,3.5a30.627,30.627,0,0,0,2.9-2.1c.3-.2.2-.9.4-1.3,1.2-2.5,2.5-5,3.7-7.5,1-2,2-3.9,2.9-5.9,1.5-3.3,2.8-6.3,7.4-6.2,2.4.1,4.9-1.1,7.3-1.8a1.392,1.392,0,0,0,.5-1.1c-.4-.4-1-.8-1.4-.7-1.5.5-3.1,1.9-4.5,1.7-6.7-.7-9.4,3.5-11.1,10.1M30.2,69.4c-1.9,1.2-3.8,2.4-5.6,3.8a13.709,13.709,0,0,0-1.7,2.3c.8-.3,1.6-.5,2.4-.8,4-1.4,6.8-6,11.9-4.8a.743.743,0,0,0,.6-.6c.3-3.5,2.8-3,5.2-3.4,1.4-.2,2.5-2.2,3.7-3.5.2-.2.2-.7.3-1a28.755,28.755,0,0,0-4.2,1.1c-4.1,2.1-8.1,4.3-12.6,6.9m54-28.2c-1.5,1-3.1,1.8-4.5,2.9a56.247,56.247,0,0,0-4.4,4.1c1.2.5,2.4,1.4,3.7,1.5,2.9.2,8.3-6.7,7.5-9.7-.2-.7-1.5-1.4-2.4-1.7-.6-.2-1.5.2-2.2.3a22.562,22.562,0,0,0,2.3,2.6M59.3,90.9a7.5,7.5,0,0,0,2-1,24.963,24.963,0,0,0,2.3-2.3,16.551,16.551,0,0,0-3.2.3c-2.1.7-4.2,1.5-6.2,2.3-2.8,1.2-4.7,3-4,6.4l.3,1.8c.4-.4,1.2-.7,1.3-1.1.8-3.9,4.4-4.4,7.5-6.4m8.6-59.2c-3.7.9-7.5,1.7-11.2,2.7-.7.2-1.1,1.3-1.7,2a8.1,8.1,0,0,0,2.2,0c4-.9,8.1-1.9,12.1-2.9a3.1,3.1,0,0,0-1.4-1.8M50.7,43.1a36.031,36.031,0,0,0-5.8,2c-1,.5-1.5,1.8-2.2,2.8,0,0,.5.7.7.6,3.2-1.2,6.4-2.3,9.5-3.6A43.607,43.607,0,0,0,57,42.5a48.194,48.194,0,0,1-6.3.6M67,51.7c-2,2.6-4,5.3-6,7.9a11.318,11.318,0,0,1-1,1.3,8.6,8.6,0,0,0,1.6-.1c5-1.1,5.7-5.4,6.8-9.4.3-1.1.5-2.2.7-3.3A24.89,24.89,0,0,1,67,51.7M14,93.3c-.2-3.3-.4-6.6-.7-9.8L12.1,94a6.054,6.054,0,0,0,0,1.9c.1.6.3,1.2.4,1.7A7.494,7.494,0,0,0,13,96a8.268,8.268,0,0,1,1-2.7m14.8-3.4c-.5,2-1,4-1.4,6,0,.1.6.4,1,.7.7-1.5,1.4-3,2.1-4.6a23.348,23.348,0,0,0,.7-2.5,5.945,5.945,0,0,0-2.4.4m-2,12.5c1.6.3,3.3,1,4.8.8.8-.1,1.3-1.8,1.9-2.8.1-.2-.1-.6-.2-.9a27.363,27.363,0,0,0-6.5,2.9M63.6,45.5c-1.8.9-3.7,1.7-5.5,2.7a1.909,1.909,0,0,0-.6,1.6c.1.4,1.3,1,1.4.9a66.873,66.873,0,0,0,4.7-5.2m-9,18.7,3.3-2.4c-.9-.3-2.2-1.2-2.8-.9a15.18,15.18,0,0,0-3.4,3.3c-.3.4.1,1.2.1,1.8a24.021,24.021,0,0,0,2.8-1.8M69.8,80.4c-.3,2.2-.6,4.4-.9,6.7.9-2.1,1.7-4.3,2.6-6.4.1-.1.3-.2.3-.3.1-1.2.1-2.3.1-3.5a26.407,26.407,0,0,1-2.1,3.5m1-16.2c.3-.3.8-.6,1-1,.4-.8.7-1.7,1.1-2.6a9.037,9.037,0,0,0-2.6,1.3,57.966,57.966,0,0,0-3.4,5.2c-.1.2.1.8.2.8.4.1,1.2.2,1.4,0,.7-1,1.2-2.2,2.3-3.7M51.7,51.7c-.6,0-1.4-.3-1.8,0a25.029,25.029,0,0,0-3.4,3.1c-.2.2.3,1,.5,1.6,1.2-.9,2.4-1.7,3.6-2.6a2.838,2.838,0,0,0,1.1-2.1M64.1,39.3c-.8.4-1.5.9-2.3,1.3,1,.2,2.1.7,2.9.5A22,22,0,0,0,69.1,39s-.1-.6-.2-.6a42.192,42.192,0,0,1-4.8.9M19.7,95.2l-1.8,3.9c.6-.1,1.8,0,1.9-.2a8.908,8.908,0,0,0-.1-3.7m19.1-64c.9-.6,1.9-1.3,2.8-1.9-.2-.1-.6-.5-.7-.4a16.855,16.855,0,0,0-2.8,1.2,2.41,2.41,0,0,0-1,1,19.752,19.752,0,0,0-.8,2.6c.7-.8,1.4-1.4,2.5-2.5m-6.7,87.9c0-.8.1-1.6.1-2.4a15.583,15.583,0,0,0-2,1.6,2.6,2.6,0,0,0,1.9.8M28.8,64.2,30,59.7s-.5-.2-.8-.3c-.3,1.3-.6,2.6-.9,3.8,0,.2,0,.3.5,1m44.4-9.1a5.7,5.7,0,0,0,2.2.4c.3,0,.5-.9.7-1.4a3.382,3.382,0,0,0-2.9,1M35.4,76.6V74.7a27.5,27.5,0,0,0-2.8,1.9c-.2.1,0,.6,0,.9a10.026,10.026,0,0,1,2.8-.9M22.1,87.1a16.443,16.443,0,0,0-1.4,2.2c.5.2.9.5,1.4.7.3-1,.6-2,0-2.9M47.9,37.4a12.1,12.1,0,0,0,.1,1.9c.7-.9,1.4-1.8,2-2.7a5.071,5.071,0,0,0-2.1.8M58.4,55.6l1.3-1.3c-.5-.2-1.2-.6-1.3-.5a26.5,26.5,0,0,0-2.1,2.6,15.864,15.864,0,0,0,2.1-.8M24,82.3c1.1-.8,2.2-1.5,3.3-2.3-.2-.2-.5-.6-.5-.5-1,.7-1.9,1.3-2.9,2C23.7,81.6,23.6,81.7,24,82.3Z"/><path class="a" d="M74.1,16.4c-1.5,2.3-2.7,4.4-4.5,5.7-1.1.9-3.1.6-4.7.8a14.29,14.29,0,0,1,.7-3.7c1.5-3.6,3.4-6.8,8.2-5.6C74.1,13.7,74,15.1,74.1,16.4Z"/></g></svg>