<svg xmlns="http://www.w3.org/2000/svg" viewBox="171 533 125.181 127.305"><defs><style>.a{fill:#9e9e9e;}</style></defs><g transform="translate(171.164 533.04)"><path class="a" d="M78.7,110.3a23.31,23.31,0,0,1,3.5-4c2.3-1.8,1.4,3.1,4.5,2.1,4.3-1.4,1.7,3,2.5,4.6a10.462,10.462,0,0,1,.4,1.7,6.894,6.894,0,0,1,.7-1.5c7.9-10.8,15.9-21.4,23.5-32.3,2.6-3.8,4-8.5,5.9-12.8.2-.5-.3-1.3-.5-2a4.256,4.256,0,0,1-.4,1.7c-1.5,2.3-2.7,5.5-4.9,6.6-3.8,1.9-5,4.9-6.7,8.4C104,89.2,99.8,95,95.7,100.9c-.5.7-2.5.5-3.8.7a24.415,24.415,0,0,1,.6-3.9c2.6-8,11.2-12.7,12.2-21.7.1-1.2,2.1-2.2,3.2-3.3,2.5-2.5,5.4-4.9,7.6-7.7,3.5-4.5,2.3-7.2-2.5-10.5C100.4,46,88.1,37,75.7,28.2c-8.1-5.8-16.1-11.8-24.3-17.4C47.8,8.3,39.1,13,38.6,17.4,38,23.5,35,28.4,31.2,33c-7,8.3-14,16.5-20.9,24.8-.9,1-1.1,2.7-1.2,4.2-.1.7.8,1.5,1.3,2.3.2-.7.1-1.7.6-2.1a39.882,39.882,0,0,1,4-2.7c.4,1.2.6,2.8,1.4,3.7a5.952,5.952,0,0,0,3.7,2c4.7-.2,3.9,2.3,2.7,4.9-1.4,3.2-3.1,6.3-4.7,9.5a9,9,0,0,0-.3,1.6c.5-.3,1.1-.5,1.3-.9,1.4-2.4,2.7-5,4.2-7.3a20.962,20.962,0,0,1,3.5-3.1A19.571,19.571,0,0,1,28,73.3a27.9,27.9,0,0,1,0,4.1c-2.5,2.9-4.7,6-7.6,8.1-2,1.4-5.5,2.5-6.7-1.6-1.1-3.9-4.1-5.4-7.2-7.4C4.3,75,.2,74.1,1.3,69.9a4.068,4.068,0,0,1,2-2.6C4,67,5.1,68,6,68.5a11.782,11.782,0,0,1,1.9,1.1c0-1,.2-2.7-.2-2.9-4.3-1.6-3.3-7.6-7.8-9.3-.3-.1.5-4.9,1.6-7.1C9,35.5,19.6,23.1,29.2,10c1.9-2.5,3.4-5.6,5.8-7.5,6.5-5.3,12.6-1.2,18,2.3,11.9,7.5,23.3,15.8,35.2,23.4,4.8,3,10.5,4.6,15.5,7.5,4.8,2.7,9.2,6.2,13.6,9.5a12.94,12.94,0,0,1,3.3,3.3c1.5,2.7,3.3,5.5,3.8,8.4,2.9,15.2-4.9,26.9-13.2,38.3-4.9,6.6-9.7,13.3-14.9,19.5-1.8,2.2-4.9,3.3-7.4,4.9a8.518,8.518,0,0,0-2.5,1.7c-4.8,6.6-7.5,7.5-13.9,3.8-.7-.4-.8-3.8-.1-4.4,3.4-2.7,6-5.6,6.3-10.4M18.5,38.9c1.2-2.5,2.5-5,3.7-7.5.3-.6,0-1.5-.1-2.2a13.65,13.65,0,0,0-1.7,1.7C17,36,13.6,41.1,10.3,46.3c-1.6,2.5-3.2,5-4.7,7.6-.3.4-.2,1.1-.3,1.6.4-.3,1-.5,1.3-.9,4.1-5,8-9.9,11.9-15.7M32.4,15.5c2.9-2.9,5.8-5.7,8.6-8.6a10.382,10.382,0,0,0,1.2-1.7c-.7,0-1.9-.4-2.2-.1-3.1,3.5-6,7.2-9,10.8a2.649,2.649,0,0,0,1.4-.4M30,25.5c.9-1.6,1.8-3.3,2.7-4.9-1.3,1.5-2.7,2.9-4,4.4-.1.1-.3.2-.3.3-.4,1.4-.7,2.8-1,4.2a16.218,16.218,0,0,0,2.6-4M13.7,70.4c-.3,0-.8-.1-1,.1L10,74.4a13.185,13.185,0,0,0,3.7-4m66.4,51.1c1-2.1,2.1-4.3,3.1-6.4-1.1,1.6-2.2,3.1-3.3,4.7a2.82,2.82,0,0,0,.2,1.7m22.5-80.7a24.259,24.259,0,0,0,2,1.4c.1,0,.4-.4.6-.6a3.537,3.537,0,0,0-2.6-.8m5.7,3.8,2.3,2.3a7.364,7.364,0,0,0,.6-.5A5.763,5.763,0,0,0,108.3,44.6Z"/><path class="a" d="M73,107.2a15.846,15.846,0,0,1,1.5-3.8c.6-.9,1.8-1.3,2.8-2a6.948,6.948,0,0,1,1.4,2.5,54.637,54.637,0,0,1,.1,5.8,60.843,60.843,0,0,1-5.2,6.8c-2.1,2.1-4.3,5-7.5,1.3-.2-.2-1.2.5-1.9.6-1.6.1-3.3.1-4.9.1a28.631,28.631,0,0,1,2.4-4.2c1.5-2,3.3-3.7,4.7-5.7.4-.5-.4-1.8-.6-2.7a10.382,10.382,0,0,0-1.7,1.2A67.75,67.75,0,0,1,58,113c-.9.7-2.5.3-3.8.4a19.249,19.249,0,0,1,1.4-3.6c1.5-2.1,3.4-4,5-6.1.3-.5-.1-1.5-.1-2.2a7.837,7.837,0,0,1-1,1.5c-2.1,2.1-4.1,4.4-6.4,6.3-.8.6-2.5.1-3.8.1.5-1.1.6-2.5,1.4-3.2,3.9-3.2,5.9-6.9,5.4-12.2-.2-1.8.9-4,3.7-3.1A3.572,3.572,0,0,1,61.7,93c.3,1.2,0,2.6.1,4,0,.5.4.9.6,1.3.1-.4.4-.9.3-1.3-.4-2.4,1-2.9,2.7-2.3a5.377,5.377,0,0,1,2.1,2.9,20.819,20.819,0,0,1,.5,3.6c0,.2.9.2,1.4.3-.5-3.2,2-1.9,3.4-2.1.1,1.3.3,2.5.4,3.8a15.305,15.305,0,0,1-.2,3.6c-1.6,2.5-2.9,4.8-4.2,7.1-.3.5-.5,1.1-.8,1.7.7-.3,1.6-.4,1.9-1C70.8,112.3,71.9,109.7,73,107.2Z"/><path class="a" d="M36.7,100.5a5.663,5.663,0,0,1-1.8.3c-1.3-.2-2.6-.5-3.9-.7.6-1.1,1-2.3,1.7-3.4,1.9-2.8,4-5.4,5.8-8.2.3-.5-.2-1.5-.3-2.2a11.37,11.37,0,0,0-1.6,1.5c-.8,1.2-1.2,2.8-2.2,3.8-3.1,3.3-10.2,3.1-13.2-.5-.5-.6.1-3.2,1-3.8,3.1-2.4,6.1-4.7,5.8-9.4.6-1.3,1.8-2.4,1.7-3.5-.2-3.3,2-2.8,3.6-2.3.6.2,1.3,2.4,1,3.4-.6,1.8-1.9,2.8,1.2,1.3,1.4-.7,2.8-.4,3.2,2.3.5,3.4,3,5.9,7.2,5.3a2.454,2.454,0,0,1,2.1.9c2,5-.9,15.1-4.9,17.9-3.4,2.3-5.6,1.6-6.2-2.4,5.3-2.4,7.7-5.9,7.4-10.8a8.585,8.585,0,0,0-.3-1.7c-.5.5-1.6,1.1-1.5,1.4,1.5,5.5-3.9,7.2-5.8,10.8M31.9,82.8a11.111,11.111,0,0,1-.7,1.6,22.97,22.97,0,0,0-2.1,3.3c-.3.6.2,1.5.3,2.3,1.1-2,2.4-4,3.4-6C33,83.6,32.5,82.9,31.9,82.8Z"/><path class="a" d="M61.3,42c1-3.5.6-7.6,4.9-8.6,1.7-.4,3.6.2,5.5.4a17.8,17.8,0,0,0-2.3,3.1c-.8,1.5-1.4,3.2-2.1,4.8-.5,1.1-.8,2.2-1.3,3.3a46.794,46.794,0,0,1-2.7,5.5c-1.3,2-3.2,3.7-4.6,5.7-.8,1.2-1.9,2.6-1.8,3.9.3,4.3-2.1,6.4-5.5,8.1-1.4.7-2.1,2.6-3.2,3.9-1.1,1.2-2.3,2.4-3.4,3.6-1.3-1.4-2.9-2.2-1.5-4.9,1.7-3.4,1.8-7.5,6.8-8,.5,0,.9-2.4.9-3.7.2-3.4.8-6.3,4.9-7.2a3.129,3.129,0,0,0,1.7-2.7C57,45.7,59.1,44.1,61.3,42Z"/><path class="a" d="M95.7,64.9c-1.7,3-3.5,5.6-4.4,8.5a19.227,19.227,0,0,1-8.6,11c-1.5.9-3.2,3.8-2.8,4.9,1.7,4.2-1.9,5.3-3.7,7.3-.6.6-2.6-.1-4-.2.4-1.1.8-2.2,1.1-3.3.6-2,1.6-4,1.5-6-.2-3.4,1.4-5.3,4-6.6a11.931,11.931,0,0,0,6.8-8.8c1.2-5.3,3.9-10.3,9.9-12.5,1.3-.5,2.3-2.3,3.2-3.7,1.3-2.1,2.8-2.5,4.4-.7.6.7.8,2.7.3,3.2C101.1,60.3,98.4,62.4,95.7,64.9Z"/><path class="a" d="M75.8,42.2a15.613,15.613,0,0,1,4.8-.4c-.1,2,.3,4.3-.5,6-2,4.4-3.8,9.4-7.2,12.6a34.464,34.464,0,0,0-9,13.9c-1.3,3.4-6.3,4.9-7.2,9.3-.1.4-2,.7-2.9.5-.4-.1-.8-1.4-.9-2.1-.4-3.6.3-6.5,4.1-8.4a5.949,5.949,0,0,0,3.6-6.5c-.4-3.3.9-5.9,4.6-6.8a4.7,4.7,0,0,0,2.5-1.9C70.5,53.2,73.2,47.9,75.8,42.2Z"/><path class="a" d="M81.6,68C80.1,74.8,77,79.7,70.2,81.5c-.6.1-.6,2-1.1,3-.8,1.9-1.4,4-2.6,5.5-.6.8-2.5.5-3.8.7.1-1,.3-1.9.4-2.9a17.745,17.745,0,0,0,.2-3.2c-.3-3.9.8-7,5-8,5.9-1.4,6.8-6.4,8.5-10.9.5-1.5,1.2-3.5,2.4-4.2,3.9-2.1,5.5-5.4,6.2-9.4.5-2.9,2.3-4,4.7-3,.7.3.6,3,.5,4.6C90,59.9,84.9,63.1,81.6,68Z"/><path class="a" d="M39.5,45.1c-3.5,4.7-7.1,8.9-10.7,13a2.937,2.937,0,0,1-2.6.2c-.5-.2-1.1-1.7-.8-2.1,1.4-2.5,3.1-4.9,4.7-7.3A48.018,48.018,0,0,1,34,43.6c1.6-1.9,3.6-3.5,5.2-5.3a3.852,3.852,0,0,0,1.3-2.7c-.4-3.9,1.2-6.8,3.9-9.4,1.5-1.4,2.1-3.7,3.5-5.1,1-1,2.9-1.3,4.3-1.9.1,1.2.3,2.5.3,3.7,0,.9-.1,2.1-.7,2.5-4.4,3.3-5.1,8.2-6.6,13.1C44.6,41,41.5,42.6,39.5,45.1Z"/><path class="a" d="M97.6,85c-7.9,1.8-7.7,1.9-8.5,9.3-.3,2.6-2.2,5.1-3.7,7.5-.3.5-1.8.7-2.5.4a2.74,2.74,0,0,1-1.3-2.2,88.447,88.447,0,0,1,3.9-13.6c.8-2,3.3-4.7,5.1-4.7,7.2-.2,7.3-5.9,9.1-10.5,1-2.5,1.5-5.2,3-7.3.8-1.1,3.2-1.1,4.9-1.6a17.544,17.544,0,0,1-.3,4,116.39,116.39,0,0,1-4.9,12.8C101.4,81.2,99.4,82.8,97.6,85Z"/><path class="a" d="M46.2,44.1c2.8-5.5,5.6-10.5,8.4-15.5A3.291,3.291,0,0,1,56.3,27a40.478,40.478,0,0,1,4.8-.9c-.2,1.4,0,3.1-.7,4.2-2,3.3-4.7,6.3-6.6,9.7-2.5,4.6-4.1,9.8-6.9,14.2-2.6,4-6.2,7.4-9.5,10.9a3.772,3.772,0,0,1-2.6.5c-.5-.9-1-2.4-.6-3.1,1-1.8,2.6-3.3,3.9-5,1.1-1.4,3.3-3,3.1-4.3C40.7,48.8,44,47.1,46.2,44.1Z"/><path class="a" d="M50.1,90.9a24.959,24.959,0,0,1,2.7-3.8c.7,1.2,1.9,2.3,2,3.6.6,9.1-1.3,12.7-8,15.5a7.692,7.692,0,0,1-3-.1c.3-.9.4-2,1-2.6C48.2,100.2,50.7,96.5,50.1,90.9Z"/></g></svg>