<svg xmlns="http://www.w3.org/2000/svg" viewBox="544 206 103.392 103.369"><defs><style>.a{fill:#9e9e9e;}</style></defs><g transform="translate(543.966 205.963)"><path class="a" d="M8.3,75.8C5.7,69.7,2.5,64,1.2,57.9-.3,50.6-1,43,3.2,35.9c2.7-4.6,11.4-4.2,14.5-.7,1.5,1.7,4.3,3.6,6,3.2,2.1-.5,4.3-3,5.2-5.1,1.8-4,2.5-8.5,4-12.7,3-7.6,7.9-14,15.2-18,6.6-3.6,14-3,20.6-.7A72.11,72.11,0,0,1,87.4,12c5.7,4.2,10.2,9.8,11.5,17.4,1,6,2.9,11.8,3.9,17.8,1.5,8.5.2,16.5-2.8,24.9C97.1,80,91.7,85.2,86.9,91c-5.5,6.6-12.6,11.1-21.9,11a70.6,70.6,0,0,0-9.1,1.1c-12.7,1.7-23.1-3.9-32.4-11.4-5.6-4.5-10-10.4-15.2-15.9M93.1,29.7a10.819,10.819,0,0,0,0,1.8c.1.8.4,1.6.6,2.5.4-.1,1.2-.3,1.2-.4a7.267,7.267,0,0,0-.4-2.5c-.3-.7-.9-1.3-1.4-2.4-2-3.3-4-6.6-6.1-9.9-.3-.4-.9-.6-1.3-.9,0,.4-.3,1-.1,1.3,2.4,3.4,4.9,6.7,7.5,10.5m-7.2-.4-3.3-4.8C71.1,8.7,61.2,6.9,45.6,14.3a16.644,16.644,0,0,0-6.9,6.5C36.3,25.9,35,31.6,32.8,37,29.4,45.4,19.6,47.2,14,40.5c-2.5-3-6.4-3.2-6.8-.2-.6,4.9-1.3,10.3-.1,14.9,1.3,4.8,5,9,7.5,13.5C19.3,77,23.5,85.7,32,91c9.9,6.1,20,10.3,31.5,3.4a135.592,135.592,0,0,1,16.8-9,14.8,14.8,0,0,0,8.8-10.1c1.6-5.9,3.3-11.7,4.7-17.6a23.792,23.792,0,0,0,.5-6.5c-.3-8-5.2-14.3-8.4-21.9M53.4,5.4c-1,.6-2.1,1.1-3.1,1.7,1.1-.2,2.2-.5,3.3-.7,1-.2,2.1-.3,3.1-.5a8.107,8.107,0,0,0,1.8-1,13.636,13.636,0,0,0-1.7-.4C56,4.6,55.2,5.1,53.4,5.4Z"/><path class="a" d="M52.9,17.8c3,.9,5.4,2.2,8,2.6,6.4,1,6.3,6.1,5.1,10-1,3-4.4,6-7.5,7.3a10.185,10.185,0,0,1-12-3c-2.2-2.5-1.7-10.4.8-13.4,1.3-1.6,3.4-2.4,5.6-3.5m.5,5.7c-.8,1.9-2.3,3.8-2.2,5.7.1,1.4,2.4,3.8,3.5,3.6,2.4-.3,4.5-2,6.8-3.1-1-1.6-1.7-3.5-3-4.8C57.5,24,55.8,24,53.4,23.5Z"/><path class="a" d="M62.3,74.9c3.4-1,6.5-2.4,9.7-2.5,5.8-.3,8.5,4.6,5.9,9.9-3.6,7.5-12.5,8.6-17.2,1.8-2.1-2.9-2.4-6.5,1.6-9.2M73,78.5c-.6-.5-1.3-1.5-1.8-1.3a23.486,23.486,0,0,0-5.7,2.3,8.017,8.017,0,0,0,.9,3,28.859,28.859,0,0,0,5.8-1.4C72.7,80.8,72.8,79.9,73,78.5Z"/><path class="a" d="M73.2,52.4c6.5-4,13.5-2.6,17,3.2A5.905,5.905,0,0,1,91,59c-.2,3.1-5.2,6.4-9.3,6.5-4.4.1-9.5-3.3-9.6-6.7a31.827,31.827,0,0,1,1.1-6.4M83,59.8c.7-.6,1.4-1.1,2.2-1.7a56.981,56.981,0,0,0-5.4-3c-.4-.2-1.4,1.2-2.1,1.9A23.428,23.428,0,0,0,83,59.8Z"/><path class="a" d="M68.9,42.9c-.7-4.6-2.6-9.7,3.1-12a10.794,10.794,0,0,1,7.3-.2c3.1,1.2,4.5,4.8,3,7.4A26.685,26.685,0,0,1,74.5,46c-.7.5-3.5-1.9-5.6-3.1m7.9-5.5c-.5-.8-1-1.5-1.6-2.3-.4,1.4-.9,2.7-1.3,4.1-.1.4.3.9.5,1.4A7.051,7.051,0,0,0,76.8,37.4Z"/><path class="a" d="M32.9,76.1c-1.2,3.9-4.1,5.6-7.1,4.6A11.332,11.332,0,0,1,19.7,75c-1.4-3,1-5.5,3.7-6.4,4.6-1.7,9.4,2.2,9.5,7.5m-6.7-2.4-.3-.3h-.3c.4.9.7,1.8,1.1,2.6,0,.1.9-.3,1.3-.5C27.6,75,27.1,74.6,26.2,73.7Z"/><path class="a" d="M52.9,90.4c-1.8,1.9-3.4,4-5.4,4.6-3.4,1-6.2-.7-7-4.2-1-4.5,1.7-8.5,5.7-9,2.8-.3,6.4,3,6.6,6.2a8.555,8.555,0,0,1,.1,2.4M45.3,88a18.661,18.661,0,0,1-.7,2.2,21.053,21.053,0,0,1,2.5-.2A3.55,3.55,0,0,0,45.3,88Z"/><path class="a" d="M12.8,58.9c-.3-3.9,1-5.8,4.7-5.8,2.7,0,5.3,1,4.6,3.7a10.666,10.666,0,0,1-4.8,6.5C15.8,64.2,12.5,62.8,12.8,58.9Z"/></g></svg>