<svg xmlns="http://www.w3.org/2000/svg" viewBox="1607 634 89.388 106.826"><defs><style>.a{fill:#9e9e9e;}</style></defs><path class="a" d="M3.1,79.1C-.8,77.6-.3,74.9.9,72.3a63.591,63.591,0,0,1,4.7-8.5c4.5-6.4,2.1-13.3,1.8-20C7.2,39.5,5.9,35.2,6.3,31c.1-1.9,2.6-4.1,4.6-5.3a87.251,87.251,0,0,1,10.8-4.9c5.5-2.3,5.6-7.6,7.2-12.2.8-2.2,2.2-4.6-1.3-5.9.8-1,1.7-2.9,2.2-2.8C33.9.7,38,1.6,42,2.8,50,5,57.7,8,66.3,5.7c2.1-.6,4.4-.2,6.7-.1,3,.2,4,2.1,3.7,4.8-.1.7-.8,1.3-.9,2-.9,4.9-.3,5.7,4.7,5.5,10-.5,10.2,1.5,7.3,10.3-4.1,12.4-8.1,25-13.3,37-3.7,8.5-3.7,17-3.5,25.7.1,3.8-1.8,4.9-4.7,5.3-5.5.8-11.1.8-16.4,2.2A114.865,114.865,0,0,0,30,105.5c-5.2,2.4-8.5,1.4-9.7-4.2-.1-.6-.1-1.2-.2-1.8-2.7-9.4-2.7-9.4-13.7-11.7C2.6,87,2,85.2,4.5,82.2c1.2-1.6,3.4-3.2-1.4-3.1M29.4,23.7c-2.7,7.5-5.3,15-8.2,22.4a94.662,94.662,0,0,1-5.4,11.1Q11.9,64.25,7.7,71c-1.9,3.2-1.2,4.4,2.6,4.2,10.8-.6,21.6-.3,31.8,3.9,4.3,1.8,6.3.1,7.8-3.5,2.6-6.1,5.4-12.1,7.6-18.4,5-14.4,10.5-28.6,13-43.9.7-4.3-1.2-3.5-3-3.1-10.7,2.2-20.8.2-30.5-4.1-2.2-1-1.9-.6-2.4,1.2-1.6,5.5-1,11.4-5.2,16.4m42.5,6.2a36.992,36.992,0,0,1-1,5.8c-4.9,13.6-9.2,27.4-15,40.5C52,84.9,50.3,86.5,40.6,84c-9-2.3-18-5-27.5-3.8-1.2.1-2.2,1.1-3.3,1.7.9,1,1.7,2.6,2.7,2.9a61.271,61.271,0,0,0,8.6,1.1c3.5.3,7.1.2,10.6,1,9.2,2.2,17.7,8,27.8,4.7a3.617,3.617,0,0,1,2.3,0c4.2,2.2,4-1.9,4.1-3.5.5-4.8-.8-9.9.5-14.3C70.8,59.5,76,45.4,81,31.2c.9-2.5,2.1-4.8,3.2-7.3-2.4-.7-5.3-.9-7.1-2.4-2.6-2.2-2.3-1.3-2.6,1.2-.1,2.4-1.4,4.6-2.6,7.2M16.5,43.3c1.6-4.2,3.2-8.5,4.8-12.7.7-1.9,1.1-3.8,1.6-5.7-1.5.9-2.9,1.8-4.4,2.7a13.041,13.041,0,0,1-3.1,1.6c-3.8,1.1-3.9,4-3.6,7,.2,2.4.7,4.8.9,7.2.2,3,.3,5.9.4,8.9a73.4,73.4,0,0,1,3.4-9m22.4,54,2.4-1.8a27.179,27.179,0,0,0-2.5-1.1c-2.9-1-5.8-1.9-8.8-2.9-2.1-.7-4.2-1.3-6.3-1.9.5,2,1,4,1.4,6.1.2.9-.3,2.1.1,2.8.9,1.4,1.2,3.9,4.2,1.9C31.8,98.8,35,98.3,38.9,97.3Z" transform="translate(1606.968 634.104)"/></svg>