<svg xmlns="http://www.w3.org/2000/svg" viewBox="1301.731 667.621 110.536 165.454"><defs><style>.a{fill:#9e9e9e;}</style></defs><path class="a" d="M101.8,39.7c7.6,3.8,14.8,7.6,21.9,11.5.8.4,1.9.9,2.1,1.6,2.1,5.9,7.6,8.4,12,12,4.6,3.7,9,7.6,13.4,11.5.6.5,1,2.3.7,2.5-1.1.8-2.6,1.9-3.9,1.8-8.9-.7-17.8-1.5-26.7-2.8-3.2-.5-6.3-2.3-9.3-3.7C95.7,66.2,79.4,58.3,63.2,50.2,50.8,44,38.6,37.5,26.2,31.1,19.4,27.6,12.7,24,5.8,20.6c-6.4-3.1-7.6-9-3.1-16.1C5.1.8,10.2-1.6,13.5,1c3.7,2.8,8,2.5,11.8,4.4,8.3,4.4,17,8,25.7,11.6,8.1,3.4,16.6,6,24.7,9.6,7.5,3.4,14.7,7.5,22,11.4a23.067,23.067,0,0,0,4.1,1.7M64.5,44l-3.6-1.2c.1.2.1.6.2.6a14.162,14.162,0,0,1,3.4,1.5c1.1.5,2.1,1,3.2,1.4.1,0,.3-.4.5-.5-1.1-.4-2.2-.9-3.3-1.3-.1,0-.2,0-.4-.5M57.8,33.5c-8.4-3.7-16.7-7.3-25-11-1.8-.8-3.8-2.8-4.9.2a4.991,4.991,0,0,0,1.7,4.4c8,4.4,16.2,8.5,24.4,12.6.4.2,1.2-.2,1.8-.3-.5-.3-1-.7-1.6-1C47.1,34.8,40,31.2,32.9,27.5A10.958,10.958,0,0,1,30.1,25c1.3,0,2.7-.5,3.8,0,8.5,3.6,17.1,7.1,25.5,11.1,10.6,5.1,20.9,10.8,31.5,16,7.7,3.7,15.7,6.8,23.2,10.7,3.1,1.6,4.8,2.7,6.8-1.2,2-4-.2-5.2-3.1-6.6-4.5-2.1-9-4.3-13.5-6.5C95,44,85.8,39.2,76.4,35,63.7,29.3,50.8,23.9,37.9,18.4,36,17.6,34,17,32,16.3c1.9,1.4,3.7,3.3,5.8,4.2C52.3,26.7,67,32.4,81.3,38.9c12.2,5.5,24,11.9,35.9,18.1,1.1.6,1.7,2.2,2.5,3.4-1.5.3-3.3,1.3-4.5.8a104.993,104.993,0,0,1-10.8-4.9C89.1,48.9,73.7,41.4,57.8,33.5M8.6,15.8c1.5-.9,3.3-1.5,4.5-2.7,1-1.1,2.1-3.4,1.5-4.3A8.736,8.736,0,0,0,10,5.5c-.5-.2-2,1.9-2.8,3-1.8,2.6-1.5,4.9,1.4,7.3M131.4,72.7c3-4.1-.5-6.1-2.8-8.4-.1-.2-1,.1-1,.2-.3,4.1-3.1,5.8-6.5,7.1-.5.2-.7.9-1.1,1.3.3.1.5.3.8.3a78.859,78.859,0,0,0,10.6-.5M107.5,66l7.5,3c-2.4-1.5-4.8-3.1-7.2-4.6-.3-.2-.4-.6-.7-.6-2.7-.9-5.4-1.7-8.1-2.5,2.6,1.3,5.3,2.8,8.5,4.7M25.8,16.8a6.117,6.117,0,0,0,.5-1.2c.3-1.4.5-2.8.8-4.2-.7,1.1-1.3,2.2-2,3.4-.5.9-1.1,1.7-1.7,2.6-.8,1.4-1.6,2.8-2.3,4.3,1.4-1.1,2.9-2.2,4.2-3.4.2-.2,0-.7.5-1.5M21.5,9.6c-.1-.1-.2-.3-.3-.3h-.3c-2.1,2.7-4.3,5.5-6.3,8.3a5.822,5.822,0,0,0-.3,1.9c.5-.1,1.3-.1,1.6-.5a70.693,70.693,0,0,0,5.6-9.4M72.6,48.3c-.2.3-.3.5-.5.8,2.3,1,4.6,2.1,6.9,3,.2.1.5-.3.7-.4-1.8-.9-3.7-1.8-5.5-2.7-.2-.2-.4-.5-1.6-.7m21,10.5c.4-.1.8-.2,1.3-.3-1.2-.5-2.4-1.1-3.6-1.6-.2-.1-.5.4-.8.6A7.656,7.656,0,0,0,93.6,58.8Z" transform="matrix(-0.208, 0.978, -0.978, -0.208, 1412.179, 684.377)"/></svg>