<svg xmlns="http://www.w3.org/2000/svg" viewBox="884.886 202.172 154.033 149.601"><defs><style>.a{fill:#9e9e9e;}</style></defs><g transform="matrix(0.454, 0.891, -0.891, 0.454, 989.93, 202.215)"><path class="a" d="M91,102.7l-.6.6c-10.6,10.6-12.4,11-24.3,2.5-2.9-2.1-3.9-2.9-6.1,1s-6,7.1-9.6,9.8a7.941,7.941,0,0,1-7,.8c-6.5-3.3-12.6-7.2-18.8-11a71.917,71.917,0,0,1-8.6-5.8,122.4,122.4,0,0,1-13-12C0,85.2.4,80.7,1.7,76.4c.6-2.1,1.6-4.1-.8-6.4-1.2-1.2-.1-4.7.2-7.2.1-.6,1.1-1.1,1.6-1.7,1.5-2.1,4-4.1,4.1-6.3.1-1.6-2.9-3.4-4.6-5a7.964,7.964,0,0,1-.3-10.7c4.5-5.5,9.3-10.7,13.4-16.4C18.6,18,21,12.8,23.9,8c3-4.9,5.2-5.5,10-2,3.4,2.5,5.3,1.1,7.2-1.8C44.5-1,47.2-1.2,52.5,2.3c1.5,1,4,.7,6.1.9,4.1.3,7.9-.5,12.1,1.6,12.2,6,21.4,16.1,32.8,23.2,5.1,3.2,5.5,8.6,2,16.1a124.3,124.3,0,0,1-6.4,11.2c-1.2,2-1.4,3.4,1.1,4.6,6.9,3.2,8.7,6.3,5.6,13.3-4.2,10-9.6,19.5-14.8,29.5m-22.2-2.6c1.9-4.8,3.7-9.6,5.8-14.3,1.1-2.6,2.5-5,3.8-7.5-.3-.1-.8-.3-.9-.2-2.3,2.2-4.8,4.2-6.6,6.7-1.2,1.7-1.1,4.3-2.2,6.2-.6,1-2.4,1.3-3.6,1.9-.3-1-1.2-2.2-.9-3,1.5-5.4,1.9-11.5,8.1-14.2.8-.4,2.1-.8,2.2-1.3a25.621,25.621,0,0,1,9.4-17.1c.3-.3-1-2.5-1.5-3.8a7.277,7.277,0,0,0-2,1.9C77.5,61,75.2,67,71.8,72.3c-3.3,5-10.6,7.7-9.2,15.7.1.4-2.7,1.4-4.2,2.1a17.611,17.611,0,0,1-.6-3.8c.3-2.2.9-4.4,1.4-6.6.2-.9.5-1.9.7-2.8a11.206,11.206,0,0,0-2.5,2.3c-1.6,3-3.1,6-4.5,9.1a2.928,2.928,0,0,0,.5,2.6c5.1,3.3,10.2,6.4,15.4,10.1,8.3,6.1,13.6,6.3,17.6-.7,5.2-9,9.5-18.6,13.8-28,1.7-3.8-1.3-9.1-5.1-9.8-.4-.1-1.1.8-1.6,1.3C89.3,68.1,89,74.6,83.8,79c-4.7,3.9-7,11.2-9.1,17.4-1.2,3.6-2.8,4.3-5.9,3.7m-35.3,5.7a73.932,73.932,0,0,0,7.6,4.7c6.9,3.3,8.2,2.8,12.5-3.8.2-.3.5-.4.7-.7,3.6-5.2,3.5-5-1.5-8.7-2-1.5-3.4-3.9-4.9-5.9-.4-.5-.3-1.4-.5-2.2-.2.7-.1,1.6-.6,2-1.2,1.3-2.7,2.5-4,3.7-.2-1.7-1.1-3.6-.6-4.9,2.2-5.6,4.4-11.4,7.6-16.4,6-9.3,13-17.8,18.9-27.1,2.7-4.2,5.6-3.7,9-2.4A24.6,24.6,0,0,1,83,47.4c2.6,1.8,5.2,3.6,7.8,5.5,1.5-2.6,3-5.2,4.6-7.8.4-.8,1.2-1.5,1.3-2.3.2-2.1,1-5.3,0-6.3C91,31.4,85,26.8,79,22.3a59.922,59.922,0,0,0-10.3-6.2c-1.5-.7-4.5-1-5.4,0A161.4,161.4,0,0,0,50.7,30.9c-5.9,7.7-11,16-17.3,23.3-8,9.3-15.1,19.1-19.2,30.8-1,2.9-1.8,5.2.9,7.3,5.9,4.3,11.9,8.6,18.4,13.5M33,11.7c-2.6-2.5-4.4-2.4-6,1.2C22.3,23.5,14.5,31.8,7.2,40.5c-.9,1.1-1.8,3.6-1.3,4.2,1.5,1.8,4.5,4.5,5.7,4,6.3-2.6,3.4,2.6,3.5,4.2.1,1.3-1.6,2.8-2.6,4.1-2.2,2.9-4.5,5.7-6.7,8.7-.3.4.1,1.5.2,2.2a14,14,0,0,1,1-1.6C17,52.9,27,39.5,36.8,26c6.2-8.6,6-8.8-3.8-14.3M28.2,48c-4.5,5.5-9.4,10.6-13.4,16.4a105.95,105.95,0,0,0-8.4,16c-.5,1.1.9,3,1.5,4.5.6-1,1.1-2.1,1.7-3.1C13.1,75.2,16,68.2,20.2,62c5.1-7.6,11.3-14.5,17.1-21.6L62.5,9.8a13.709,13.709,0,0,1,2.3-1.7,17.745,17.745,0,0,0-3.2-.2,3.521,3.521,0,0,0-1.9,1c-3.8,3.8-8.1,7.2-11.3,11.5C41.5,29.2,35.2,38.5,28.2,48M66,66.6c-.7,1.6-1.4,3.3-2,4.9a11.764,11.764,0,0,0-.7,2c.8-.2,1.8-.2,2.3-.8,2.3-2.4,2.5-5.7,3.6-8.5C71,59.7,75,55.9,78,51.8c.3-.3.7-.9.6-1.1-1.8-2.4-4.7-2.3-6.5.1-2.9,3.9-6,7.6-8.7,11.7-4.5,6.8-8.8,13.8-13.1,20.8-.3.5-.1,1.3-.2,1.9a7.993,7.993,0,0,0,1.3-1.3c3.2-5,6.6-10,9.3-15.2C62,66.4,63.3,66,66,66.6m21.4-6.2c-.3.7-.5,1.6-1,1.9-4.3,2.2-5.5,6-5.6,10.5a4.707,4.707,0,0,1-.4,1.6c.6-.3,1.4-.5,1.6-1,2.6-4.6,5.2-9.2,7.7-13.8.2-.4-.3-1.3-.5-1.9a15.389,15.389,0,0,1-1.8,2.7M45.9,6.5a13.65,13.65,0,0,0-1.7,1.7c-1.6,2.3-.9,4.4,1,6.2a23.783,23.783,0,0,1,1.7-3.1c.2-.3.9-.2,1.1-.5.6-.9,1.1-2,1.7-3a8.559,8.559,0,0,0-3.8-1.3m31.5,8.6a7.993,7.993,0,0,0-1.3-1.3c-1.7-1-3.4-1.8-5.2-2.7,1.3,1.1,2.5,2.2,3.8,3.2A5.082,5.082,0,0,0,77.4,15.1Z"/><path class="a" d="M39.9,65.9c-2.4,2.9-4.9,5-8.6,4-.9-.2-2.4-1-2.5-1.5,0-1,.5-2.8,1.3-3.1,3.7-1.6,4.7-4.6,5.3-8.3.8-4.8,4.7-6.8,9.2-5.3,2.9,1,2.8,2.9,1.5,5C44.3,59.8,42.2,62.7,39.9,65.9Z"/><path class="a" d="M28.9,81.7c-2.9,1.7-5,.3-5.8-1.9-.5-1.3.4-4.6,1.2-4.8,2.1-.5,5.1-.5,6.4.7C33.1,77.8,30.9,79.9,28.9,81.7Z"/></g></svg>