<svg xmlns="http://www.w3.org/2000/svg" viewBox="207 206 79.051 147.645">
  <defs>
    <style>
      .cls-1 {
        fill: #9e9e9e;
      }
    </style>
  </defs>
  <path id="Path_542" data-name="Path 542" class="cls-1" d="M65.1,47.8C61.7,56.9,59,66,55.2,74.6c-4.2,9.6-9.6,18.6-14.2,28-3.7,7.4-7,14.9-10.5,22.4-3.1,6.5-6.1,13.1-9.6,19.4-2.3,4.2-9.5,4.3-15.1.2a22.075,22.075,0,0,1-5.7-7.1c-.5-.9,1-2.9,1.7-4.4,4.3-8.7,8.8-17.3,12.7-26.2s7.3-18,10.8-27c4.1-10.7,7.9-21.5,12.2-32.2,4.9-12.1,10-24.2,15.2-36.2a54.551,54.551,0,0,1,4.6-8.6c.9-1.3,3-3.2,3.9-2.9,5.5,1.9,12.6,0,16.3,6.4.7,1.2,1.8,2.9,1.5,4-2.1,6.4-4.6,12.7-7,19-2.2,6.1-4.4,12.1-6.9,18.4m-7.4,1.7c3.1-7.6,6.4-15.2,9.3-22.9.3-.7-.6-2.5-1.3-2.8A70.579,70.579,0,0,0,56.8,21a7.15,7.15,0,0,0-2.5.3,3.991,3.991,0,0,0,1.1,1.9c2.9,2.2.8,3-1.1,3.7-.7.3-1.6.1-2.1.6A9.172,9.172,0,0,0,50.5,30a13.385,13.385,0,0,0,2.3,1.3c1.9.4,4,.4,5.7,1.1,1.1.4,1.6,2,2.4,3.1-1.4.8-2.7,2.3-4.2,2.4-2.3.2-4.6-.6-6.9-.9a15.137,15.137,0,0,0-3,.2c.4,1.2.5,2.6,1.2,3.5s2,1.2,2.9,2a18.9,18.9,0,0,1,2,2.7,22.629,22.629,0,0,1-4.3,1.7c-.7.1-1.5-1-2.3-1.2a4.392,4.392,0,0,0-2.5.2c-.2,1.3-2.1,3.3,1.3,3.4a13.571,13.571,0,0,1,4.2,1.3c2.6,1,3.2,2.9.7,4.1-1.6.8-4,.1-6.1,0a28.5,28.5,0,0,1-2.9-.3,12.289,12.289,0,0,0,1.1,2.3c3,2.9,1.6,3.7-1.7,4.2a3.257,3.257,0,0,0-2.3,2.1c0,.8,1.1,1.9,2,2.5,1.2.8,2.7,1.1,4,1.9a11.584,11.584,0,0,1,2.3,2.6,19.33,19.33,0,0,1-4.6,1.6c-.8.1-1.8-.9-2.7-1.3-.4,1.2-6-4-2.5,2.1.2.4-1,2.2-1.8,2.6-4.7,2.2-2.7,3.7.4,5.4a27.289,27.289,0,0,1,4.3,3.3c1.6,1.5,1.4,2.9-.4,2.8-2.3-.1-4.6-1.2-6.9-1.8-.9-.2-2.3-.7-2.6-.3-3,3.6-2.2,7.3,2,9.9A15.228,15.228,0,0,1,34.2,97c-.8.8-1.6,2.2-2.4,2.1a23.889,23.889,0,0,1-5.1-1.3c-1.3-.4-3.2-2.7-2.9,1.2.1.6-.5,1.4-.9,2-1.9,3.2-2.7,5.9,2.3,7,.9.2,1.5,1.7,2.3,2.5-1.3.7-2.6,1.5-3.9,2.1-.4.2-1.1-.3-1.7-.5-.9-.3-1.8-.7-2.6-1a16.883,16.883,0,0,0,.8,2.4c1.4,2.3-.4,3.1-1.9,3.9a8.627,8.627,0,0,1-2.8.4,30.7,30.7,0,0,1,2.6,2.5c1.2,1.3,3.5,3.2,3.3,3.8-1.5,3.1-3.9,2.2-6,.4-3.2-2.8-1.9,2.4-3.7,2,.4,1,.4,2.4,1.1,3,1.1.9,3.8.4,2.4,3-1,1.9-2.5,2.6-4.9,1.4-.8-.4-2.7,1.1-3.9,1.9-.3.2-.1,1.7.2,1.8,2.6,1.4,5.3,3.2,8,3.4,1.1.1,2.8-3.4,3.7-5.5,4.9-10.7,9.5-21.5,14.6-32.1,4-8.2,8.8-16.1,12.7-24.4,4.2-9.5,7.8-19.3,12.2-29.5m12-31a53.857,53.857,0,0,1,2.9-5.9c1.6-2.3.5-4-1.3-4.8a22.519,22.519,0,0,0-7.6-2c-1.1-.1-2.3,1.5-3.5,2.4.8.4,1.8.7,2.7,1.2a27.55,27.55,0,0,1,2.9,1.7,17.555,17.555,0,0,1-3.1,3c-.7.3-1.9-.6-2.9-.6a8.086,8.086,0,0,0-2.5.8c.6.7,1,1.8,1.7,2A54.642,54.642,0,0,0,69.7,18.5Z" transform="translate(207 206.032)"/>
</svg>
