<svg xmlns="http://www.w3.org/2000/svg" viewBox="1000 1936.012 1057 494.975"><defs><style>.a{fill:#424242;}</style></defs><g transform="translate(1000 1936.012)"><path class="a" d="M33.636,173.072c9.867-2.691,18.986-5.232,28.1-7.923,1.046-.3,2.392-1.2,3.289-.9a32.141,32.141,0,0,0,23.77-2.99c.9-.448,3.289.747,4.335,1.943,5.83,6.727,24.218,7.774,30.347,1.495.747-.747.747-1.943,1.046-2.99-1.345-.449-2.84-1.345-4.186-1.2-6.877.149-13.9.6-20.78.747a11.391,11.391,0,0,1-2.99-.9c.9-.747,1.794-1.794,2.84-1.943,7.475-1.2,15.1-1.943,22.723-3.139,1.943-.3,3.737-1.495,5.531-2.242-2.093-.9-4.186-2.392-6.279-2.392-8.82-.15-17.491.448-26.311.149C90,150.5,84.913,149,79.83,147.957c-1.046-.3-2.99-1.495-2.84-1.794a8.8,8.8,0,0,1,2.242-4.186c9.867-8.073,21.826-11.511,34.085-13.3,18.089-2.84,36.327-4.933,54.416-7.624,3.588-.6,7.026-2.242,10.614-3.289,1.794-.6,4.485-1.644,5.382-.9,6.727,5.98,13.006,1.046,19.584,0,16.295-2.392,32.291-5.531,49.184-5.83,13.753-.3,28.7,2.84,42.9-4.335,7.026-3.588,16.743-1.644,25.264-1.943a4.5,4.5,0,0,1,2.84,1.943c2.093,3.139,4.186,6.129,5.98,9.418,2.84,5.232,6.578,9.119,13.3,7.923C355.8,121.8,368.8,119.4,381.957,117.46c6.129-.9,12.408-.6,18.537-.9,16.594-.9,33.188-3.887,49.483-2.392,14.351,1.345,30.2-3.139,43.2,7.026,1.495,1.2,3.438,2.84,3.438,4.335,0,1.345-1.794,3.289-3.289,4.335-3.139,2.093-6.428,3.588-9.717,5.382,3.737.3,7.475.448,11.212,1.046,8.82,1.345,17.939,2.242,26.46,4.634,6.279,1.794,10.166,2.242,13.006-4.634a60.553,60.553,0,0,1,24.517-28.4c15.846-9.418,31.244-6.877,46.194,2.541,1.794,1.2,4.036,2.093,5.083,3.737,8.82,14.052,21.677,10.166,34.384,8.222,4.784-.747,9.717.3,14.65,0,8.222-.448,16.295-1.2,24.517-1.943,7.923-.747,15.846-2.093,23.62-2.093,3.737,0,5.83,0,8.073-3.588,5.83-9.568,12.259-18.986,18.687-28.1,3.737-5.382,14.949-8.521,21.228-7.026,2.392.6,5.083.448,7.475.6-.747-1.943-2.093-3.737-2.093-5.681-.3-7.325-1.2-14.8,0-21.976,2.691-16,13.454-24.966,28.852-27.208,11.81-1.794,22.873,1.2,34.085,7.026,18.388,9.418,25.713,27.656,37.673,41.858,10.166,11.96,17.042,26.759,33.487,31.992,8.82,13.9,19.285,4.335,29.45,2.392,10.465-1.943,20.929-3.887,31.394-5.382a201.381,201.381,0,0,1,23.321-1.495c2.691,0,5.531,1.794,8.222,2.691-2.84,1.495-6.129,4.485-8.521,4.036-11.212-2.541-21.527,1.794-32.291,3.289-7.475,1.046-15.1,2.093-22.574,3.438-1.345.3-2.541,1.644-3.737,2.392,1.495.6,2.84,1.345,4.485,1.943.6.15,1.495-.149,2.242,0,2.99.15,6.129.3,9.119.448-2.84,1.345-5.83,4.036-8.521,3.887-4.485-.149-8.97-2.242-13.454-3.438a15.215,15.215,0,0,0-4.485.15c.6,1.495.747,3.438,1.794,4.485,6.129,5.382,12.109,8.82,20.78,3.887,4.933-2.691,11.511-2.242,17.341-3.289a9.811,9.811,0,0,0,4.485-1.794c2.093-1.644,3.737-5.083,5.83-5.382,5.83-.747,11.959-.448,17.939-.149.748,0,2.242,2.392,2.093,3.289s-1.943,2.093-3.139,2.392c-13.753,3.139-27.358,5.98-41.111,9.119-1.794.448-3.289,2.093-4.784,3.139a34.763,34.763,0,0,0,5.382,1.2c6.578.6,13.155,1.345,19.883,1.495,4.485,0,9.119-1.2,13.6-1.2,1.495,0,2.99,1.644,4.634,2.541-1.345,1.046-2.541,2.84-4.036,3.139-2.392.6-4.933,0-7.475.149-1.495.15-4.036.9-4.335,1.794-1.943,7.325-6.279,4.036-10.315,2.691-5.382-1.943-10.764-4.186-16.145-5.98-2.093-.747-4.485-.747-6.727-1.2,1.046,2.242,1.644,4.784,3.139,6.578,4.933,5.83,10.465,10.913,15.1,16.893,8.372,10.913,16.145,22.275,24.367,33.188,6.727,8.82,12.856,17.939,21.677,25.414,14.2,12.109,26.161,26.909,39.466,40.064,6.129,5.98,13.454,10.913,20.032,16.295,3.438,2.84,8.073,5.083,7.325,10.913a17.208,17.208,0,0,1-.9,2.541,13.255,13.255,0,0,1-2.542-1.2c-7.475-5.98-15.248-11.511-22.275-17.939-7.774-7.026-14.949-14.5-22.125-21.976-5.98-6.129-11.511-12.707-17.64-18.836-.9-.9-2.99-.747-4.485-1.046.6,1.345.9,2.99,1.943,4.036,10.614,12.857,21.677,25.414,32.141,38.27,8.671,10.764,16.893,21.826,25.414,32.739,2.242,2.84,4.634,5.531,6.877,8.372,1.495,1.794,3.438,3.588,4.036,5.83.747,2.242.149,4.933.149,7.475a46.932,46.932,0,0,1-4.634-4.784c-6.877-8.82-13.753-17.79-20.63-26.61-14.65-18.687-31.394-36.028-43.2-56.21-10.614-18.238-26.61-31.693-37.224-49.483-1.644-2.691-5.382-4.036-7.624-6.428-11.511-11.81-22.873-23.919-34.384-35.729-5.681-5.681-12.408-10.465-17.64-16.594-8.97-10.166-18.986-20.182-25.265-31.992-4.335-8.073-9.867-12.856-16.743-17.192-2.242-1.345-4.933-2.242-7.026,1.495-1.346,2.541-4.485,4.186-6.877,5.98-3.438,2.541-7.176,4.186-11.81,2.541-1.2-.448-2.691,0-4.186,0,1.2,3.289,1.794,6.877,3.588,9.717,1.644,2.392,4.036,6.578,8.073,2.541a40.845,40.845,0,0,0,4.784-6.279c6.279-8.82,10.614-9.418,18.537-1.794,1.495,1.345,2.392,3.438,3.588,5.232-2.541-.149-5.681.6-7.475-.6-4.634-2.99-7.774-2.99-10.465,2.242-.6,1.2-1.345,2.392-2.093,3.588-5.98,8.82-10.614,9.568-17.64,1.495-5.382-6.428-9.568-5.083-15.846-1.345-7.624,4.634-10.614,11.063-11.362,19.285-.448,4.784,3.887,7.475,9.269,5.681,4.335-1.495,7.923-1.794,11.96,1.644,3.289,2.84,8.521,3.438,12.558,5.531,1.495.747,2.392,2.84,3.588,4.485-1.794.3-3.887,1.495-5.531.9-5.083-1.644-9.867-3.887-14.8-5.681-1.495-.6-3.737-1.2-5.083-.448-6.279,3.438-12.258.6-18.089-1.046-4.634-1.345-6.129-5.98-3.737-10.016,5.083-8.372,4.485-20.331,15.547-24.966.747-.3.747-2.242,1.046-3.438a22.3,22.3,0,0,1-3.139-.3c-1.345-.3-2.542-.747-3.737-1.046,1.046-1.046,1.943-2.691,3.289-3.289,1.495-.6,3.438,0,5.083,0s3.438.3,4.784-.149c8.222-3.289,15.248-8.521,25.414-8.372,8.073,0,9.568-7.325,3.438-12.856-6.428-5.681-13.305-10.764-20.182-16-7.923-5.98-10.913-13.155-1.345-20.032.448-.448.149-3.438-.6-3.887-13.006-6.578-37.822-4.186-44.1,13.006a10.7,10.7,0,0,0,.748,7.475c2.242,4.036,5.531,7.624,8.222,11.511,1.495,2.242,2.691,6.129,4.485,6.428,4.485.6,9.119-.149,13.753-.747a53.765,53.765,0,0,0,6.578-1.794c.15,1.2,1.047,2.84.6,3.438-1.943,2.093-4.036,4.784-6.578,5.382-8.671,1.943-17.939,2.242-26.46,4.933-6.578,2.093-12.558,1.943-19.135,1.495-11.063-.6-15.846,7.923-21.228,16.594-13.6,22.125-27.507,44.1-42.755,65.179-7.624,10.614-18.836,18.537-27.656,28.254-17.939,19.883-35.281,40.214-52.921,60.246-4.933,5.531-10.465,10.614-15.7,15.846-1.794,1.794-3.887,4.186.149,4.784,6.578.9,2.84,2.99.9,4.634-16.444,14.5-32.889,28.852-49.333,43.353-1.495,1.345-3.289,2.541-4.186,4.335-1.2,2.093-1.644,4.634-2.392,7.026,1.645-1.2,3.139-2.392,4.784-3.588,1.794-1.2,3.438-2.84,5.382-3.139,2.242-.3,4.634.747,6.877,1.2l-4.036,4.485c-.149.15-.448.15-.6.3-2.242,2.84-4.634,5.531-6.279,8.671-.3.747,2.99,4.335,3.139,4.186a38.332,38.332,0,0,0,8.372-6.279c5.382-5.83,10.166-12.258,15.547-18.089,1.345-1.495,4.335-1.345,6.428-2.093a27.906,27.906,0,0,1-2.392,5.232c-3.588,4.784-7.325,9.418-11.063,14.052-.448.6-1.644,1.345-1.495,1.495,3.289,5.382-1.047,8.372-3.737,11.661,1.345,1.046,2.99,3.289,4.036,2.99,2.84-.747,5.531-2.392,8.073-3.737a69.881,69.881,0,0,1,7.325-4.036c1.046-.448,2.691.6,4.036.9a10.991,10.991,0,0,1-1.794,2.541c-2.392,2.093-5.083,3.737-7.176,5.98-1.047,1.046-1.2,2.99-1.794,4.634,1.644.3,3.588,1.2,5.083.747,5.98-1.644,11.81-4.036,17.79-5.531,1.794-.448,4.036.6,6.129.9a49.552,49.552,0,0,1-4.036,3.887c-.9.747-2.093.9-3.139,1.495-3.588,2.691-7.026,5.531-10.614,8.222,3.737,2.242,7.624,4.485,11.362,6.877,4.485,2.99,8.073.9,11.66-1.794,4.036-2.99,7.774-6.279,12.109-8.82,1.794-1.046,4.335-.747,6.578-1.046-1.345,1.794-2.541,3.737-4.036,5.382-4.634,4.933-8.671,10.764-14.2,14.052-4.186,2.541-11.212,3.737-15.547,1.943-9.568-3.887-17.939-10.614-27.357-15.1-21.677-10.315-41.559-23.022-59.05-39.616-15.4-14.65-34.533-24.069-52.771-34.832-15.547-9.119-29.9-20.331-45-30.347-10.764-7.026-21.677-13.9-32.739-20.182-9.418-5.382-19.434-9.867-28.852-15.1-11.362-6.279-23.172-12.259-33.636-19.883-18.687-13.6-36.776-11.362-53.519.6-16.145,11.511-31.693,23.77-46.941,36.477-15.4,12.557-29.749,26.46-45.3,38.868-11.362,9.119-24.218,16.145-35.879,24.816-17.042,12.707-33.786,25.862-50.23,39.317C56.509,371.45,35.879,388.941,15.1,406.133c-3.139,2.541-7.176,4.186-10.913,6.129-1.346.448-2.84,0-4.186,0,.3-1.345.3-3.289,1.046-4.036,5.98-5.232,12.109-10.465,18.238-15.4,14.5-11.661,29.151-23.321,43.8-34.832,13.9-10.913,28.4-21.228,41.559-32.889s24.816-24.966,37.523-37.075c8.073-7.774,16.594-14.949,25.115-22.125,7.325-6.129,14.949-11.96,22.424-18.089,5.232-4.335,10.315-8.82,15.4-13.454,1.2-1.046,1.794-2.84,2.691-4.335-2.093,0-4.485-.6-6.129.3-4.186,2.541-8.073,5.83-12.109,8.671-5.382,3.737-10.614,2.84-16.295.15-5.232-2.392-10.764-4.036-16.145-6.129-6.129-2.242-11.511-5.232-10.016-13.454a19.031,19.031,0,0,0-.149-8.222c-.747-2.541-2.093-5.681-4.186-6.877-1.495-.9-4.933.6-7.026,1.794-5.232,2.84-10.166,6.578-15.547,9.269s-11.81,4.933-16.444-.15c-4.036-4.634-1.345-10.315,1.345-15.248.9-1.644.747-3.887,1.046-5.83-2.392-.3-4.784-.9-7.176-.747-3.289.3-6.428,1.495-9.568,1.943-10.614,1.644-21.378,3.139-31.992,4.485-10.016,1.2-20.032,2.84-30.2,2.691-4.335,0-10.166-2.99-12.408-6.578-1.495-2.093,1.345-8.671,4.036-11.661,3.887-4.485,9.269-7.624,14.8-11.362m587.512,8.222c-1.495-.9-2.99-1.644-4.485-2.541a43.634,43.634,0,0,1,3.139-4.186c4.634-4.933,13.6-4.634,15.547-13.006.149-.448,5.98-.6,6.129,0,1.345,4.933,4.186,3.438,7.624,2.84,2.84-.448,5.98.9,9.119,1.2,2.093.3,4.933.9,6.129-.15,2.541-2.392,4.485-5.681,6.279-8.671.15-.3-2.242-2.99-3.139-2.84-2.99.6-5.681,2.093-8.671,2.99-2.84.9-5.83,1.495-8.82,2.242,0-.747-.3-1.943.149-2.392a30.557,30.557,0,0,1,4.186-3.139c-1.943-.9-3.887-2.541-5.83-2.691-2.691-.15-5.531,1.345-8.372,1.2-2.691-.15-5.382-1.345-8.073-1.943,1.644-1.794,2.99-3.887,4.933-5.232,4.485-3.289,9.418-6.129,13.9-9.568,1.2-.9,1.2-3.289,1.644-4.933-1.943-.448-3.737-1.345-5.681-1.2a68.628,68.628,0,0,0-13.454,2.392c-2.242.6-5.083,2.242-5.83,4.186-1.345,3.139-1.2,7.026-1.644,10.465-2.392,18.388-11.362,35.43-37.673,37.374-4.335.3-8.671-1.2-13.155-1.345-8.97-.448-16.594-3.289-22.873-9.867-2.242-2.392-5.83-4.036-9.119-4.933-1.943-.449-4.485,1.2-6.877,1.794,1.047,1.794,1.943,3.737,3.139,5.382a25.3,25.3,0,0,0,4.186,4.784c5.531,4.485,10.465,10.315,16.743,12.857,11.511,4.784,23.321,3.139,34.234-3.438,1.644-.9,3.737-1.046,5.531-1.644a45.6,45.6,0,0,1-2.84,6.129,9.791,9.791,0,0,1-2.691,2.242c-17.64,10.614-39.167,8.372-53.07-9.119-3.887-4.784-5.382-3.887-8.671-.449-5.232,5.681-11.81,8.671-19.733,8.073-9.867-.747-19.733-.747-29.45-1.644-8.97-.747-15.846,2.84-22.873,8.372-5.083,4.036-12.557,8.222-18.089,7.325-10.016-1.644-19.584-4.335-29.9-4.036-6.428.15-11.212,1.495-15.4,6.578-7.026,8.222-16.743,11.212-27.208,11.661a47,47,0,0,0-5.98,1.2c1.345,1.644,2.541,3.588,4.186,4.634,17.79,11.511,35.879,22.873,53.668,34.533,13.006,8.372,26.012,16.743,38.719,25.713,13.454,9.418,27.357,18.238,39.317,29.3,12.857,11.81,37.374,4.186,40.513-12.707.448-2.392-.149-4.933.3-7.325,2.84-13.3,5.98-26.46,8.671-39.766,2.242-11.511,3.887-23.321,6.129-34.832.448-1.943,2.84-3.438,4.335-5.083.448,1.644,1.495,3.438,1.345,4.933-.747,7.624-1.345,15.248-2.99,22.723-3.737,17.042-7.923,34.085-11.81,51.127-.3,1.046.6,2.541,1.495,3.289.3.3,2.242-.3,2.84-1.046,9.717-11.96,19.434-23.77,28.7-36.028a22.771,22.771,0,0,0,4.036-11.661c.6-9.568.15-19.135.15-28.7a12.948,12.948,0,0,1,.9-4.784c.3-.6,1.495-.9,2.392-1.495a8.194,8.194,0,0,1,1.2,2.242c.6,8.97,1.047,17.939,1.5,27.058a22.306,22.306,0,0,0,.3,3.139,10.646,10.646,0,0,0,2.542-1.644c3.737-4.634,6.877-9.867,11.212-13.9,4.485-4.186,4.634-7.774,1.495-12.557a76.763,76.763,0,0,1-5.083-9.867c-.3-.747.9-2.242,1.345-3.438,1.047.6,2.392,1.046,2.99,1.943,1.794,2.691,3.887,5.382,5.083,8.372,2.392,5.98,4.634,3.737,7.475.448,12.408-14.052,24.966-27.955,37.374-42.008,1.943-2.093,3.588-4.335,5.531-6.578a76.474,76.474,0,0,0-8.372.449c-6.727.9-13.3,1.794-19.883,3.139-1.645.3-2.84,2.541-4.186,3.887a42.086,42.086,0,0,0,6.129.3c3.289-.3,6.578-1.046,9.867-1.345.9,0,1.943,1.2,2.84,1.943-.747.9-1.345,2.242-2.242,2.392-7.475,1.2-14.95,4.186-23.022.9M512.765,144.668a10.488,10.488,0,0,0-2.392-1.495c-5.83-.15-11.661.448-17.341-.449-10.614-1.794-20.78-4.485-31.394.3-1.644.747-4.335-.449-6.578-.747,1.644-1.2,3.438-2.392,5.083-3.737,1.345-1.046,2.541-2.242,3.887-3.438-1.644-.9-3.139-2.392-4.784-2.392a260.361,260.361,0,0,0-26.46,0c-14.949.9-29.45,3.139-43.951,7.923-12.857,4.186-27.058,3.588-40.662,5.531-13.9,2.093-27.806,4.634-41.559,7.176-12.259,2.093-24.367,4.634-36.626,6.578-2.691.448-6.129-2.093-8.671-1.495-20.032,5.681-39.915,11.81-59.8,17.79-6.129,1.794-11.661,6.578-18.537,2.84-.747-.449-2.541.9-3.737,1.495a35.759,35.759,0,0,1,1.943,3.139c1.2,3.438,3.588,7.176,3.139,10.465-.6,4.933-3.139,9.568-4.784,14.351a39.074,39.074,0,0,0-.9,4.036c1.644.15,3.438.9,4.933.6,4.186-1.2,8.222-3.139,12.408-4.335,1.794-.448,4.036.15,6.129.3-.6,1.943-1.2,3.737-1.794,5.681-.6,1.644-2.392,3.588-2.093,5.083.448,2.691,14.8,5.83,17.042,3.887,17.491-15.7,38.121-26.012,59.8-34.234,4.036-1.495,9.269-2.392,13.454-1.345,12.408,3.139,23.919,6.129,37.673,3.438,14.2-2.84,27.955-5.232,40.363-12.856a23.592,23.592,0,0,1,7.026-2.691c.9-.15,2.242.747,2.99,1.495.3.3-.448,2.093-1.046,2.541-5.98,3.887-9.568,12.259-19.135,9.568-2.093-.6-4.784,1.345-7.176,1.943-5.98,1.794-11.96,3.588-17.939,5.232a38.492,38.492,0,0,1-5.98,1.2c1.943,1.345,3.887,3.139,5.98,3.887a14.214,14.214,0,0,0,7.026.747c7.774-1.644,15.4-4.186,23.321-5.531,13.9-2.392,28.254-3.139,42.008-6.727,9.867-2.541,20.78-3.289,28.852-11.511,3.737-3.737,9.418-5.98,14.8-7.325,9.717-2.691,19.733-4.186,29.6-6.279,1.345-.3,2.392-1.345,3.588-1.943-1.2-.747-2.392-2.093-3.737-2.392-1.495-.3-3.289.3-4.933.6-7.475,1.2-14.949,2.691-22.424,3.737-10.764,1.644-21.677,2.392-32.291,4.634-10.315,2.242-20.481,5.83-30.8,8.671-1.794.449-3.737-.3-5.681-.448,1.495-.747,2.99-1.644,4.634-2.392,1.495-.6,3.139-.9,4.634-1.495,16.594-7.624,33.487-14.2,52.173-14.949,6.279-.3,12.408-1.046,18.687-1.644,9.717-.9,19.733-5.232,27.806,4.335a5.208,5.208,0,0,0,3.588,1.794c8.521.149,17.042.149,25.713.149,8.97,0,11.212-2.093,12.109-11.96.6-7.026-6.279-3.289-8.97-5.83-1.495-1.2-4.485-1.047-8.222-1.5M275.817,131.961c-10.166-1.794-10.166-1.794-10.614-13.3,0-.747-1.794-2.392-2.392-2.242a27,27,0,0,0-5.531,2.691c-11.063,6.428-17.64,19.285-31.095,22.275-.9.15-1.345,1.943-2.093,2.99a33.642,33.642,0,0,0,3.588,1.2,35.247,35.247,0,0,0,4.186.6c-.747,1.2-1.345,2.99-2.541,3.588a108.28,108.28,0,0,1-11.81,5.83c-2.242,1.046-4.784,1.345-7.176,2.093a32.975,32.975,0,0,0,4.784-4.335c.9-1.046,1.2-2.691,1.794-4.036-1.046-.149-2.242-.6-3.139-.3-15.7,5.531-31.394,9.717-48.137,11.063-11.96,1.046-23.471,5.681-35.131,9.418-10.614,3.289-20.78,9.269-32.59,5.083-1.943-.747-4.634-1.2-6.428-.448-13.155,5.382-26.311,11.063-39.317,16.893-1.046.449-1.495,2.242-2.392,3.289,1.2.3,2.691,1.2,3.737,1.046,3.438-.747,6.578-2.242,10.016-2.84,15.248-2.691,30.646-5.083,46.044-7.475,6.877-1.046,13.753-2.242,20.63-2.84,1.495-.149,3.139,1.495,4.784,2.392a37.016,37.016,0,0,1-2.84,3.887c-.9,1.2-2.242,2.093-3.139,3.289-.747.9-1.644,2.541-1.345,2.99.9,1.046,2.392,2.242,3.438,2.093a16.772,16.772,0,0,0,6.578-1.943c10.913-5.681,21.976-10.913,32.291-17.64,4.634-2.99,8.82-4.634,14.052-4.186,6.578.6,11.96-.3,13.9-7.923.3-1.046,2.541-1.495,3.887-2.242,3.737,8.073,8.97,2.242,13.3,1.2,27.507-6.578,54.416-14.8,82.82-17.64,18.238-1.794,36.327-6.877,54.864-7.774,10.614-.449,21.677-.3,31.842-3.289,20.032-5.83,39.915-9.568,60.844-7.325,11.063,1.2,22.424.3,33.636.149a17.984,17.984,0,0,0,5.681-.747c1.2-.3,2.093-1.495,3.139-2.242-.9-1.046-1.645-2.541-2.84-2.84a31.775,31.775,0,0,0-8.372-1.495c-28.852-2.541-57.555,4.186-86.557.149-2.84-.448-6.129,2.84-9.269,4.335-2.242,1.046-4.634,2.541-7.026,2.84-7.624,1.2-15.7,4.036-22.873,2.541-16.145-3.438-30.945,4.186-46.493,3.588-1.644,0-3.438.9-5.083.747-7.475-.747-15.248-1.644-23.62-3.139m337.857-4.485c-3.737-3.737-6.877-7.923-11.063-10.913-9.568-7.026-20.331-10.764-31.842-6.129-10.913,4.485-18.388,13.155-22.574,23.919-2.99,7.624-3.887,15.547,4.186,21.677,1.943,1.495,2.093,4.933,3.139,7.475.747,1.943,1.495,4.933,2.84,5.382,8.671,3.139,17.491,8.073,26.311,8.073,17.79,0,27.955-9.568,33.487-27.806.9-2.84.747-5.83,1.047-8.82-2.84.3-5.83.9-8.671.6-2.392-.149-4.784-1.345-7.325-2.242,1.644-1.495,3.289-3.139,4.933-4.634a26.889,26.889,0,0,0,5.531-6.578M370.745,216.425c2.392-.3,4.634-.747,7.026-1.046,8.671-1.046,13.753-7.923,20.481-12.109,11.81-7.475,25.564-7.026,38.121-2.84,8.671,2.84,14.5,1.046,20.63-4.335,11.511-9.867,24.667-11.81,39.765-10.016,8.97,1.046,18.537,4.186,27.656-.6,4.036-2.093,7.475-4.335,4.784-9.269-1.943-3.588-4.335-7.475-10.315-5.232-3.289,1.345-7.325.448-11.063.448-8.82,0-18.238-2.093-26.161.6-9.568,3.139-23.321-.747-27.955,13.3-.15.6-2.093.747-3.139,1.046-9.568,1.794-19.135,3.588-28.553,5.531-11.661,2.541-23.172,5.681-34.832,7.774-13.156,2.392-26.61,4.036-39.915,6.129-1.495.3-2.84,1.495-4.335,2.242.9,1.345,1.495,2.99,2.691,4.036,7.026,6.578,14.65,9.418,25.115,4.335m322.16-65.03c1.794-2.691,3.588-5.531,5.232-8.222,1.2-1.794,2.093-3.737,3.139-5.681-2.242,1.046-4.933,1.644-6.578,3.289q-12.557,12.782-24.667,26.012c-15.547,16.893-31.095,33.786-46.493,50.977-8.372,9.418-16.295,19.135-24.368,28.7-4.784,5.83-9.119,11.96-14.052,17.64-5.382,6.428-10.913,12.557-16.594,18.836-6.578,7.176-13.3,14.351-19.883,21.527a86.814,86.814,0,0,0-6.727,8.372c-.448.747.3,2.242.448,3.438.9-.15,1.943-.15,2.541-.747,3.438-2.691,7.026-5.232,9.867-8.521,14.052-15.7,28.1-31.543,41.709-47.689,15.1-17.79,29.45-36.327,45-53.668,16.444-18.238,33.786-35.729,51.426-54.266M130.06,159.617c.9,1.046,2.093,3.289,2.691,3.139,4.186-1.345,8.073-3.737,12.259-4.485,19.883-3.737,39.765-7.026,59.8-10.614a17.2,17.2,0,0,0,3.737-1.794c-1.046-.9-1.943-1.794-2.99-2.541-3.887-2.691-8.372-4.784-11.511-8.073-13.3-13.753-22.275-11.81-36.327-1.2-9.867,7.176-18.089,16.444-27.656,25.563m195.09,57.555c7.923,4.784,15.846,9.568,23.919,14.2,16.444,9.418,33.487,18.089,49.483,28.1,22.723,14.351,44.848,29.749,67.422,44.549,3.289,2.242,7.475,3.139,11.212,4.634-2.99-2.84-5.681-6.129-9.119-8.521-14.052-9.867-28.1-19.434-42.456-28.852-17.042-11.063-34.384-21.677-51.426-32.59-9.119-5.83-18.687-10.913-26.909-17.79a106.66,106.66,0,0,0-49.782-23.919c-1.644-.3-3.438.747-5.232,1.046,1.345,1.644,2.691,4.485,4.186,4.634,11.212.9,18.687,8.97,28.7,14.5m-133.8.747c-2.541.449-5.083,1.495-7.624,1.345-3.139-.15-7.026-.15-8.97-1.943-1.644-1.495-1.794-5.681-1.2-8.372,1.046-4.634,3.289-9.119,4.485-13.753.6-2.242,0-4.634,0-7.026-2.242,0-4.634-.448-6.428.3a178.421,178.421,0,0,0-18.836,8.671c-1.345.747-1.794,3.887-1.644,5.83.15,4.036,1.644,8.222,1.046,12.109-.9,5.98,1.794,10.315,7.923,11.96,5.083,1.345,9.867,3.887,14.8,5.681,3.588,1.345,6.727,3.887,11.362,1.2,9.717-5.83,10.016-5.382,5.083-16m64.282-8.97c10.166-4.186,19.434-10.465,31.095-10.614,1.345,0,2.691-1.495,3.887-2.242a14.125,14.125,0,0,0-3.588-1.943,9.712,9.712,0,0,0-4.634,0c-8.073,2.541-16.444,4.784-24.218,8.222-22.424,9.867-39.765,26.61-57.854,42.606-13.006,11.511-26.909,21.677-40.064,33.038-7.176,6.129-13.454,13.156-20.032,19.883a25.349,25.349,0,0,0-1.495,2.093c.9.149,2.242.747,2.84.3,3.139-2.242,6.129-4.485,9.119-6.877,24.368-20.331,48.586-41.111,73.4-61.143,9.568-8.372,20.331-15.248,31.543-23.321m-8.97-92.686c-6.877,1.046-13.6,1.794-20.481,2.99-10.016,1.794-20.032,3.887-29.9,5.98-.9.149-2.392,2.093-2.093,2.541,4.634,9.269,22.275,13.9,31.244,8.073,6.727-4.335,13.3-8.97,19.733-13.753,1.2-.9,1.345-3.289,1.495-5.83m643.572,6.727c5.382,5.382,10.913,10.764,16.295,16.295,10.913,11.362,21.826,22.873,32.739,34.085,2.541,2.691,5.83,4.485,8.82,6.727-1.794-3.139-3.289-6.578-5.531-9.269-11.212-13.753-24.517-25.564-33.038-41.559-2.691-4.933-7.026-9.269-14.052-8.82-.747,0-2.392-2.093-2.093-2.541,2.392-4.933-1.495-5.98-4.335-7.923-4.485-2.99-8.82-6.279-13.305-9.269-1.345-.9-2.691-1.794-4.186-2.691.448,1.943.149,4.335,1.2,5.531,5.382,6.578,11.063,12.558,17.491,19.434M120.343,133.456c-9.717,2.242-19.434,4.485-29.3,6.727-1.345.3-2.392,1.345-3.588,2.093.9.747,1.644,2.093,2.691,2.242,9.717.6,19.434,1.2,29.151,1.495,2.99.15,6.727-1.046,9.119.3,5.382,3.139,8.521.6,11.96-2.99,3.139-3.438,6.578-6.578,9.867-10.016,1.495-1.495,2.84-3.139,4.335-4.784a55.082,55.082,0,0,0-7.026,0c-8.97,1.495-17.79,2.84-27.208,4.933m200.322-19.434c-2.093-.448-4.335-1.794-6.129-1.2-9.568,3.289-18.687,8.82-29.6,6.428a61.184,61.184,0,0,0-12.707-1.345c-1.345,0-3.588,1.943-3.588,3.289-.15,1.2,1.644,3.737,2.99,3.887,7.026,1.345,14.052,2.691,21.079,2.99s13.9-.9,20.929-1.345c4.335-.3,8.671-.448,13.155-.747-1.943-3.737-3.737-7.475-6.129-11.96M64.282,176.062c-4.933,1.046-10.016,3.438-14.65,2.691-10.913-1.794-19.135,2.093-26.161,9.717a25.152,25.152,0,0,0-2.99,5.083c2.541,1.2,4.933,2.84,7.475,3.289a27.357,27.357,0,0,0,9.867,0c2.093-.448,4.036-2.242,5.98-3.438l-3.887-3.887a5.854,5.854,0,0,0-1.495-1.2c.747-.6,1.495-1.495,2.242-1.644,6.279-1.046,12.856-1.495,18.986-3.289,4.485-1.345,8.671-4.335,12.707-6.877.6-.448.6-3.289.448-3.289-2.99-.6-5.98-1.046-8.97-1.495a5.811,5.811,0,0,1,.448,4.335m606.946-28.4c3.588-1.046,7.176-1.943,10.614-3.289,1.794-.747,3.289-2.392,4.933-3.588-1.943-1.2-3.887-2.84-5.98-3.588-11.511-4.186-21.378,1.943-31.543,5.531-1.644.6-2.84,2.541-4.335,4.036,2.242.3,4.335.9,6.578,1.046,6.129,0,12.109-.149,19.733-.149M832.682,44.507,829.094,46.3c3.588,8.222,3.289,18.238,11.661,24.218,4.634,3.289,8.97,7.026,13.6,10.465a20.077,20.077,0,0,0,4.036,1.943c-.3-1.495,0-3.438-.9-4.485-7.923-11.063-16-22.125-24.816-33.935m-287.776,310.2c-7.923-5.382-15.846-11.063-23.77-16.295-2.541-1.644-5.681-2.392-8.671-3.588,1.943,2.84,3.438,6.578,6.129,8.222,15.1,9.119,30.347,17.64,45.6,26.46a24.353,24.353,0,0,0,4.634,1.644c-.9-1.345-1.495-3.289-2.691-4.036-6.727-4.036-13.753-7.774-21.228-12.408M123.333,208.2c.6-.3,1.345-.448,1.943-.747,1.794-1.2,3.588-2.691,5.382-3.887l-6.727-.449a11.239,11.239,0,0,0-2.242,0c-2.691.449-5.232,1.046-7.923,1.644,1.794-1.943,4.036-3.588,5.382-5.83,1.794-2.84,2.84-6.279,4.036-9.418,0-.15-1.644-1.495-1.794-1.345-2.84,2.093-5.531,4.335-8.372,6.428a.9.9,0,0,0-.149.6c-1.794,4.634-3.737,9.269-5.382,14.052-.149.6,1.644,2.541,2.242,2.392a69.749,69.749,0,0,0,13.6-3.438m553.876-78.484c8.97,7.475,21.826,6.578,29-2.093.747-.9,1.794-2.541,1.495-2.99-.747-1.046-2.392-2.242-3.438-2.093a217.318,217.318,0,0,0-27.058,7.176M816.985,43.759c-.747,1.644-2.691,4.335-2.093,4.933a76.388,76.388,0,0,0,9.269,9.119c.448.3,2.84-.6,3.139-1.495,1.2-3.139-5.681-12.408-10.315-12.558M538.926,154.385c.448-3.737,1.2-7.475,1.346-11.362.149-1.495-.747-2.99-1.2-4.335-1.046,1.2-2.541,2.093-2.84,3.438-.9,4.186-.9,8.521-2.093,12.557-.9,3.289-1.943,5.98,1.943,7.774a35.059,35.059,0,0,0,2.84-8.073m233.211-88.2c-1.943-.6-3.737-1.2-5.681-1.794.9,3.438,1.495,7.176,2.84,10.465.448.9,3.289.9,5.083.9a5.788,5.788,0,0,0,.6-3.289c-.6-1.794-1.944-3.139-2.841-6.279M435.775,182.789c4.186,5.531,7.774-.15,11.661-.9,1.2-.3,2.242-1.943,3.289-2.99-1.495-.449-3.139-1.495-4.186-1.2-3.588,1.046-6.727,2.84-10.764,5.083M532.947,327.8c-1.943-.3-4.036-1.046-5.83-.6-1.644.448-3.139,2.093-4.634,3.289,2.093.9,4.186,2.392,6.129,2.392,1.495-.149,2.84-2.392,4.335-5.083m-52.323-16.444c1.495,1.2,2.691,2.84,4.335,3.737a95.513,95.513,0,0,0,8.97,3.887c-2.541-2.242-5.083-4.933-7.923-6.727A7.193,7.193,0,0,0,480.624,311.354Z" transform="translate(0 12.301)"/><path class="a" d="M638.332,347.474c-8.073.448-15.248.9-22.574,1.495-8.82.9-17.64,1.644-26.311,3.289-1.495.3-3.139,4.335-3.139,6.578,0,1.644,2.542,4.634,4.186,4.784,2.541.15,5.232-1.345,7.774-2.392,6.279-2.691,12.109-3.588,16.893,2.691,1.047,1.345,2.542,2.392,3.588,3.737,7.026,8.222,15.4,10.016,25.563,5.98,8.82-3.438,17.79-5.83,26.461.9,5.083,4.036,9.269-.747,13.6-2.392,2.541-1.046,4.634-3.139,7.325-4.036,1.943-.747,4.186-.3,6.428-.3-1.046,2.093-1.794,4.933-3.438,5.98a183.5,183.5,0,0,1-17.939,9.119,4.433,4.433,0,0,1-3.887-.3c-9.717-7.026-19.733-6.129-30.2-2.242-10.614,3.887-20.032,1.794-27.058-7.325-5.531-7.176-11.063-8.82-19.434-4.186-2.84,1.645-8.073.6-11.511-.747-4.186-1.644-6.129-.6-8.073,2.99-9.568,17.491-29.45,24.966-47.838,22.574-1.943-.3-3.588-2.242-5.232-3.438,1.794-.747,3.588-2.392,5.382-2.242,10.166.448,20.331.15,28.852-6.129,5.98-4.485,11.511-9.717,17.042-14.8.3-.3-.9-2.84-1.2-2.84-5.232.3-10.764.15-15.846,1.495-7.026,1.943-13.753,4.186-21.378,4.784-6.129.448-11.96,5.531-18.089,8.222-1.794.747-4.036.3-6.129.3,1.047-1.943,1.794-4.784,3.438-5.83,3.289-2.093,7.176-2.99,10.764-4.634,2.093-1.046,4.335-2.093,5.83-3.737a8.64,8.64,0,0,0,1.495-5.232c0-.448-2.691-1.644-4.036-1.345-7.026,1.495-14.052,3.289-21.079,5.083-.149,0-.448.448-.6.448l-8.073-1.345c2.093-1.943,3.887-4.634,6.428-5.531,5.83-2.093,12.109-3.289,18.089-5.083,8.372-2.392,14.2-13.9,10.166-21.826-6.129-11.96-6.428-22.275,3.588-32.44,6.279-6.428.448-13.454-.747-20.182-.6-3.887-2.542-7.475-3.438-11.212-.3-1.046.747-2.392,1.046-3.737,1.046.6,2.541,1.046,2.84,1.943a214.574,214.574,0,0,1,7.325,20.78c2.093,8.073-.6,14.65-6.129,21.079-2.84,3.289-5.681,8.073-2.242,13.454,6.279,9.568,3.438,20.032,3.139,30.347-.448,13.9,0,14.052,13.6,9.418a45.483,45.483,0,0,0,12.856-6.578c2.99-2.242,4.634-5.83,1.794-9.867-11.661-16.743-13.455-36.477-16.743-55.911-1.794-10.016-7.026-19.434-10.764-29.151-7.774-20.331-16.594-40.363-18.986-62.339-.149-1.2.6-2.392,1.046-3.588,1.2.747,3.139,1.2,3.438,2.093,2.242,7.475,3.887,15.4,6.428,22.723,5.531,15.4,11.511,30.646,17.341,45.895,2.093,5.382,4.036,10.764,6.279,16.145,2.691,6.578,6.727,7.624,12.408,3.139,5.98-4.784,11.362-4.933,16.145,1.046a114.826,114.826,0,0,1,13.155,20.63c6.727,13.6,10.016,19.733,28.1,20.032,20.182.3,39.167,4.335,55.761,16.893,6.578,4.933,14.8,7.624,21.826,11.96,2.691,1.644,6.279,7.176,5.681,7.923-3.887,4.784-6.877-.6-9.867-2.093-7.774-4.036-14.949-9.418-22.873-13.3-2.691-1.345-6.877.747-10.315,1.046-9.269.448-18.238.9-27.955,1.345m-37.374-27.656c-4.634-8.073-8.671-16.295-13.753-24.069-7.774-11.81-8.82-11.959-20.78-4.933-1.943,1.2-8.372.6-4.634,6.129,2.691,4.036,3.139,11.063,11.362,8.82,11.212-2.99,15.248-.448,18.687,10.764a150.537,150.537,0,0,1,4.485,19.733c.747,4.634,1.943,6.428,7.026,5.232a69.016,69.016,0,0,1,15.7-1.495c4.335,0,8.521,1.345,12.857,1.345,8.521-.15,17.042-.747,25.414-1.495,1.943-.15,3.887-1.2,5.98-1.794-1.943-1.345-3.737-3.588-5.83-3.887-10.016-1.345-20.032-1.943-30.048-3.289-9.418-1.2-19.733-.747-26.46-11.063M589,325.8c-.448-2.541-1.046-5.083-1.495-7.624-1.047-4.784-3.737-8.372-8.82-6.428-5.232,1.943-9.568,1.794-14.052-1.2-.9-.6-2.242-.15-3.438-.3a31.492,31.492,0,0,0,.9,3.588c2.392,6.129,4.485,12.557,7.624,18.388,3.588,6.877,7.325,14.351,17.192,13.754,3.588-.15,6.279.15,3.887-5.382-1.794-3.887-1.345-8.82-1.794-14.8m-17.192,33.636a41.944,41.944,0,0,0,1.345-4.634,18.309,18.309,0,0,0-1.943-.747A11.887,11.887,0,0,0,571.807,359.433Z" transform="translate(247.421 95.029)"/><path class="a" d="M233.877,284.522c-.6-10.465-4.335-19.883-3.139-30.347,1.2-9.717-1.495-20.032-2.541-30.048a11.245,11.245,0,0,1,.149-4.485c.3-1.047,1.495-1.794,2.242-2.541.748.9,1.943,1.794,2.093,2.84,1.644,10.016,3.737,20.182,4.335,30.347.449,7.923,1.2,15.4,4.335,22.873,1.2,2.84-1.046,6.877-1.2,10.465q-.224,12.109,0,24.218c0,.6,1.345,1.644,2.242,1.794,5.382.6,12.258-2.242,14.65,5.83,2.392,8.222,1.2,16-2.242,23.62a53.727,53.727,0,0,0-1.794,5.232c1.943-.6,3.887-1.047,5.681-1.794a10.789,10.789,0,0,0,3.588-2.093c5.083-4.186,8.372-3.139,12.259,2.242a51.4,51.4,0,0,0,11.96,11.511c1.943,1.345,6.428.747,8.671-.6,9.119-5.382,23.022-5.083,31.095,1.047,3.139,2.392,6.877,3.887,10.315,5.83,1.644.9,3.139,1.794,4.784,2.691-2.242,1.046-4.784,3.438-6.727,2.99-3.289-.748-6.428-2.84-9.119-4.933-7.774-6.129-20.032-7.325-28.7-2.242-1.046.6-1.794,1.495-2.84,2.242a18,18,0,0,0,3.588,2.242c16.743,4.036,33.487,8.521,50.379,11.81a210.805,210.805,0,0,0,34.832,4.036c4.784.15,9.568-4.036,14.351-6.129a89.625,89.625,0,0,1,11.212-3.737c1.046-.3,2.392.6,3.588.9-.747,1.2-1.2,2.84-2.242,3.438-14.949,7.774-29.749,13.9-47.39,9.418-21.378-5.382-43.054-8.97-64.581-14.052-11.063-2.541-22.125-5.232-31.842-11.66-3.139-2.093-7.475-2.242-11.362-3.139a18.119,18.119,0,0,1-12.857-10.614,21.485,21.485,0,0,0-2.691-3.737c-.9,2.242-2.99,4.784-2.392,6.578.9,2.84,3.438,5.083,5.531,7.325,4.335,4.784,4.036,9.568-1.794,12.259-8.82,3.887-17.192,9.269-27.806,3.588-2.84-1.495-8.222,1.943-12.408,3.289a17.993,17.993,0,0,0-3.588,2.242c-.3-1.495-1.046-3.139-.9-4.634a22.731,22.731,0,0,1,1.495-6.877c.6-1.345,1.943-2.392,2.99-3.438.448,1.2.6,2.84,1.495,3.438a4.578,4.578,0,0,0,3.887.6c2.84-1.046,5.232-3.139,8.073-3.887,1.644-.448,5.232.15,5.681,1.2,1.943,5.083,5.83,4.485,8.82,2.541,4.186-2.84,6.727-7.624,4.186-12.557-1.794-3.588-5.531-6.279-8.372-9.269a14.468,14.468,0,0,0-2.84-2.242c1.2-.747,2.242-1.943,3.438-2.242,1.943-.3,4.036.149,5.98-.15,6.279-.9,8.372-5.083,5.382-10.465-4.335-8.073-4.186-16.444-2.99-25.264a159.453,159.453,0,0,0,1.047-17.491m18.388,33.337a60.909,60.909,0,0,0-8.671-2.093c-.9,0-3.139,3.289-2.84,3.588,4.784,5.98,4.186,13.006,4.335,19.883,0,1.046,1.943,2.242,3.139,3.289.9-1.2,2.541-2.392,2.691-3.737.448-6.428.747-13.006,1.345-20.929m13.454,28.4c-1.345,1.2-2.541,2.392-3.887,3.588.747.6,1.495,1.046,2.242,1.644,1.046-1.644,2.093-3.139,2.99-4.784.149-.3-.448-.747-1.345-.448m-25.414,14.949c-.747-1.644-1.345-3.438-2.093-5.083-.747,1.047-1.644,2.093-2.392,3.139A7.788,7.788,0,0,0,240.305,361.212Z" transform="translate(96.804 107.452)"/><path class="a" d="M66.409,314.68a46.819,46.819,0,0,0-5.98-6.129c2.99-.747,6.428-.9,9.119-2.392,10.315-5.83,20.78-11.661,30.347-18.537,8.97-6.578,16.743-14.8,25.414-21.826,1.495-1.345,4.335-1.046,6.428-1.495-.747,1.495-1.2,3.438-2.392,4.634-7.176,6.428-14.5,12.707-21.826,18.986-.747.6-1.644.9-2.392,1.495-1.943,1.794-3.737,3.588-5.681,5.382,2.392-.448,5.083-.448,7.026-1.495,6.279-3.737,12.109-8.073,18.238-11.96A27.164,27.164,0,0,1,128.9,279.4c-.448,1.495-.3,3.588-1.2,4.335-9.269,8.222-9.418,20.63-13.9,30.945-2.691,5.98-.3,7.774,5.681,7.774,6.877,0,13.753.448,20.481,1.046,5.531.448,8.222,3.737,7.176,9.418-1.2,6.129,2.093,8.97,6.727,12.109,5.083,3.289,9.418,7.774,13.6,12.109,1.345,1.495,1.046,4.634,1.495,7.026-2.242-1.2-4.784-1.943-6.578-3.588-4.036-3.588-7.774-7.624-11.661-11.362a4.772,4.772,0,0,0-2.392-1.345c-8.222-1.2-8.372-7.475-6.578-12.857,1.644-4.933-1.495-5.382-3.887-6.578-1.644-.747-3.737-.6-5.531-.9-1.794-.15-3.737-.3-5.531-.448a26.5,26.5,0,0,1,2.242,4.634c1.644,6.279,3.289,12.557,4.634,18.986,0,.3-1.345,1.495-1.794,1.345-1.345-.3-3.289-.9-3.588-1.943a35.513,35.513,0,0,1-1.943-8.97c-.747-8.073-3.289-9.867-11.063-7.176-11.212,3.737-13.6,1.644-11.511-10.166.3-1.345-.3-2.84-.448-4.335-1.495.448-3.289.448-4.485,1.345-5.382,3.438-10.465,7.325-15.7,10.764-1.046.747-2.691.747-4.036,1.046,0-1.495-.448-3.438.149-4.485,4.634-7.325,9.418-14.5,14.052-21.826a27.848,27.848,0,0,0,2.541-6.129c-2.093.747-4.335,1.2-6.129,2.392-5.531,3.737-11.212,7.176-16,11.81A17.431,17.431,0,0,0,69.4,324.4c-.747,9.568-6.877,14.8-16.145,12.857a108.676,108.676,0,0,1-11.511-2.99c-.9-.3-1.495-1.644-2.242-2.392.9-.6,1.943-1.943,2.84-1.943,3.289.15,6.727.3,9.867,1.495,6.727,2.691,8.222-1.047,9.568-6.428,1.046-3.439,3.139-6.428,4.634-10.315m46.343-12.707c.3-2.242.6-4.335.9-6.578-1.2,0-2.84-.3-3.438.3-6.578,6.877-13.006,13.753-19.285,20.78-.448.448-.149,1.644-.149,2.541.6,0,1.495.3,1.943,0,6.877-5.083,17.79-4.634,20.032-17.042m-5.232,27.656c2.242-.448,4.485-.9,6.727-1.2-.9-1.2-1.943-2.541-2.84-3.737A10.671,10.671,0,0,0,107.52,329.629Z" transform="translate(19.55 130.813)"/><path class="a" d="M477.035,308.326c-7.176-15.1-10.315-30.347-8.82-46.343.449-5.681,5.681-7.624,10.465-8.97.747-.149,2.392.15,2.541.6.3,1.046.449,2.84-.3,3.438-14.65,14.5-4.186,29.151-.3,43.652.448,1.794,1.794,3.289,2.242,5.083,1.943,7.475,10.764,11.81,17.491,8.073,1.345-.747,2.093-2.392,3.139-3.588-1.495-.6-2.99-1.345-4.485-1.943-1.794-.6-3.438-1.2-5.232-1.794a28.9,28.9,0,0,1,3.289-4.186c4.933-4.634,10.016-9.269,15.248-13.754a12.766,12.766,0,0,1,5.531-2.691c1.345-.3,2.99.9,4.634,1.345-.747,1.2-1.2,2.84-2.242,3.588-4.485,3.438-9.119,6.727-13.9,9.717-3.139,2.093-3.139,3.737-.3,6.129a57.6,57.6,0,0,1,5.232,5.232c-2.242,1.794-4.335,3.887-6.877,5.083a13.077,13.077,0,0,1-6.727,1.495c-3.588-.3-4.335.9-4.485,4.485-.149,5.681-3.737,7.624-8.97,5.232-3.588-1.644-7.774-3.139-10.166-5.98-3.588-4.335-7.774-3.737-12.109-3.438a4.823,4.823,0,0,0-2.99,3.139c-.448,3.887.149,7.923-.149,11.96-.6,6.578-4.784,9.418-10.913,7.176-10.465-3.887-20.182-.6-29.3,3.887-5.98,2.84-9.717,2.392-14.65-2.242-3.438-3.289-8.97-4.335-13.753-5.98-1.047-.3-2.84,1.2-4.335,1.943-1.345.747-2.691,1.644-4.036,2.392.149-1.495-.3-3.289.3-4.485,2.541-5.232,5.382-9.867,11.96-4.485a4.013,4.013,0,0,0,3.887.149c3.438-2.99,4.933-3.289,7.325,1.2,2.84,5.382,7.176,7.026,12.408,5.98,4.485-.9,8.372-4.036,12.856-4.933,6.279-1.2,12.857-2.541,18.986-1.495,3.887.6,3.438-.3,3.438-2.691v-2.99c0-14.5,0-14.5,15.1-14.65,3.289,0,7.923,2.392,8.97-4.335m3.737,13.454a18.234,18.234,0,0,0,2.541,1.047,36.346,36.346,0,0,0,4.036,0c-.6-1.2-.747-2.99-1.794-3.438-1.943-1.046-4.335-1.2-6.428-1.794A17.778,17.778,0,0,0,480.773,321.78Z" transform="translate(188.961 125.207)"/><path class="a" d="M195.18,195.965c1.644,7.774,2.99,14.949,4.933,21.826.149.6,3.289.3,5.083.6,1.644.3,3.289.9,4.933,1.345-.9,1.495-1.495,3.588-2.84,4.485-6.279,4.186-10.016,2.99-12.109-4.485-2.242-7.923-3.588-16-5.382-23.919a18.563,18.563,0,0,0-2.392-4.485,27.421,27.421,0,0,0-2.691,4.485c-1.2,3.289-2.093,6.578-2.99,9.867-1.495,4.933-4.036,5.382-8.073,2.242-1.345-1.046-3.289-1.046-5.083-1.495.3,1.495.6,2.99.9,4.634.6,4.186,1.046,8.521,1.794,12.707,1.644,8.671-4.036,11.362-10.614,13.006-1.2.3-2.691-.9-4.036-1.345.6-1.2.9-3.289,1.644-3.438,11.063-2.392,7.325-10.614,7.026-17.341-.15-2.99-1.345-5.98-1.345-9.119-.15-7.624-1.495-8.372-8.97-6.428-3.289.9-6.727.449-10.166.6,2.84-2.093,5.531-4.784,8.671-6.279,9.418-4.335,10.913-3.588,17.491,5.232,1.345,1.794,4.036,2.691,5.98,4.036.449-3.737,1.345-7.475,1.345-11.212,0-1.644-2.093-3.139-3.289-4.784,2.242-1.046,4.485-2.392,6.877-2.99a72.045,72.045,0,0,1,12.258-2.691c2.093-.3,4.335.9,6.578,1.345-1.2,1.345-1.943,3.438-3.438,4.036C192.19,188.789,192.788,191.63,195.18,195.965Z" transform="translate(71.667 89.569)"/><path class="a" d="M571.419,136.347c-2.392-3.139-4.485-6.428-7.325-7.774-3.438-1.644-7.774-1.644-11.661-2.392-1.644-.3-3.289-.9-4.933-1.345,1.644-1.644,3.289-4.784,4.784-4.634,7.026.747,14.65.9,20.63,4.036,8.372,4.186,5.232,13.753,3.887,20.182-1.495,6.578,1.346,5.531,4.784,5.382,21.378-.9,21.976-1.2,29.9,18.687,4.186,10.465,12.707,15.4,20.63,21.677,1.345,1.046,2.99,1.644,4.036,2.84.747.9.9,2.392,1.346,3.588-1.794.448-4.036,1.794-5.083,1.2-12.408-7.026-23.172-15.547-28.1-29.749-4.186-11.96-10.315-15.248-22.125-11.81-7.026,1.943-10.614-.6-10.764-7.923C571.27,144.569,571.419,140.832,571.419,136.347Z" transform="translate(270.98 59.49)"/><path class="a" d="M679.325,242.915c-5.232-7.475-13.454-7.325-20.63-9.119a19.185,19.185,0,0,1-13.454-10.913c-2.541-5.531-5.98-9.867-13.305-8.82-1.345.15-2.99-1.2-4.335-1.794,1.2-1.345,2.242-3.289,3.737-3.887,5.382-2.392,13.9.448,16.145,6.129,3.887,9.867,10.614,14.2,21.228,15.1,9.119.747,16,7.325,19.733,15.248,7.475,15.547,19.135,22.424,36.028,22.125,3.139,0,6.279,2.541,9.418,4.186a9.923,9.923,0,0,1-.9,2.99c-9.568-1.345-19.434-2.093-28.7-4.634-10.016-2.84-16-10.913-20.481-20.032C682.913,246.951,681.119,245.307,679.325,242.915Z" transform="translate(310.625 102.715)"/><path class="a" d="M517.042,98.692a129.642,129.642,0,0,1-12.707,6.578c-6.877,2.99-3.588,6.578-.747,10.166.149.3,1.046,0,1.345.3,2.242,2.242,4.335,4.634,6.578,6.877-2.99,1.345-5.83,2.99-8.97,3.887a20.154,20.154,0,0,1-7.325.9c-7.624-.6-9.867-4.634-6.129-11.661q8.745-16.594,18.388-32.739c4.335-7.325,11.661-6.578,16,.9,1.943,3.438,4.036,6.727,6.129,10.166,3.139,5.083.6,10.614-5.083,10.913-.6,0-1.794-1.644-1.943-2.691a13.5,13.5,0,0,1,.6-4.186,22.394,22.394,0,0,0-6.129.6m1.2-8.671c1.2-1.345,2.242-2.691,3.438-4.036a55.479,55.479,0,0,0-8.222-3.289c-.9-.15-2.242,1.794-3.438,2.691l6.279,3.139c.448.149.747.448,1.943,1.495m-23.172,30.646c1.794-.747,3.588-1.345,5.382-2.093-1.047-1.495-2.093-2.99-2.99-4.485A15.047,15.047,0,0,0,495.066,120.667Z" transform="translate(241.192 38.544)"/><path class="a" d="M392.522,92.686c0,4.036.15,7.176-.149,10.465-.149,1.046-1.2,1.943-1.794,2.99-.9-.747-2.392-1.495-2.541-2.242-.747-5.531-2.242-11.212-1.345-16.444,3.438-19.285,7.176-38.569,11.96-57.7,2.242-8.97,6.727-17.491,10.614-26.161.6-1.495,2.84-2.392,4.335-3.588.3,1.943,1.345,4.036.9,5.531-3.588,11.362-8.222,22.574-11.212,34.085-3.737,13.753-6.129,27.806-9.119,41.709A79.7,79.7,0,0,0,392.522,92.686Z" transform="translate(191.252)"/><path class="a" d="M369.815,70.924a183.516,183.516,0,0,1-6.279-55.313,29.65,29.65,0,0,1,1.495-8.222c.448-1.345,2.093-2.242,3.139-3.289.9,1.495,2.84,3.289,2.541,4.634C367.125,27.571,370.563,46.108,374,64.5c1.794,9.717,5.083,19.285,7.176,29,.448,1.794-1.495,4.186-2.242,6.279-1.2-1.495-2.99-2.84-3.438-4.485C373.553,87.219,371.908,79.146,369.815,70.924Z" transform="translate(179.874 2.029)"/><path class="a" d="M429.49,33.248c-6.877,17.341-13.155,34.234-19.883,51.127a48.094,48.094,0,0,1-6.877,11.212c-1.046,1.2-3.887.9-5.83,1.345a36.988,36.988,0,0,1,.9-4.335c8.372-19.883,16.743-39.765,25.414-59.5a71.358,71.358,0,0,1,7.475-12.558c1.046-1.345,3.438-1.794,5.232-2.541-.3,1.644-.15,3.588-.9,5.083A98.408,98.408,0,0,1,429.49,33.248Z" transform="translate(196.442 8.909)"/><path class="a" d="M372.916,86.41c1.046,4.335,7.325,7.325,2.093,12.109-2.242-2.84-4.634-5.681-6.877-8.671-7.923-10.614-16.145-21.079-23.471-32.141-4.634-6.877-8.073-14.5-11.511-21.976-.6-1.345.747-3.737,1.046-5.531,1.345.747,3.588,1.2,3.887,2.093C344.362,53.671,361.7,67.723,372.916,86.41Z" transform="translate(164.815 14.947)"/><path class="a" d="M427.842,78.382c-4.335,4.335-8.372,8.521-12.557,12.408-1.046.9-2.99.9-4.485,1.2.15-1.495-.15-3.588.6-4.485,5.083-5.98,10.166-11.81,15.7-17.341,6.727-6.727,13.9-13.006,20.929-19.434a75.235,75.235,0,0,1,7.774-6.279c1.345-.9,3.289-.747,5.083-1.046-.6,1.644-.747,3.887-1.794,4.933C448.921,58.349,438.606,68.067,427.842,78.382Z" transform="translate(203.322 21.48)"/><path class="a" d="M648.011,112.642c3.139-5.531,8.073-5.681,13.006-5.531.747,0,1.495,1.2,2.392,1.794a12.4,12.4,0,0,1-2.242,2.541c-1.644,1.345-3.438,2.392-5.232,3.588,2.242.3,4.335,1.046,6.578,1.046,9.418,0,18.836-.3,28.255,0,1.794,0,3.438,2.541,5.232,3.887-1.943.6-3.887,1.794-5.83,1.794-3.588,0-7.026-1.046-10.614-1.345-2.99-.3-6.129,0-9.269,0H658.177c-3.887,0-7.774-.3-11.661-.3-1.943,0-4.036.6-5.83.149-1.495-.448-2.84-1.943-4.186-2.99,1.495-.9,2.84-2.242,4.335-2.84C643.078,113.688,645.32,113.389,648.011,112.642Z" transform="translate(315.03 52.998)"/><path class="a" d="M426.7,91.738c3.438-8.521,10.764-12.109,18.089-16.145C454.207,70.51,463.177,64.68,472.3,59.3c1.345-.747,3.139-.448,4.784-.6-.747,1.644-1.047,4.036-2.392,4.933-8.671,5.531-17.64,10.913-26.46,16.444-5.083,3.289-10.016,7.026-15.1,10.315C431.334,91.439,429.092,91.589,426.7,91.738Z" transform="translate(211.191 29.053)"/><path class="a" d="M357.527,89.018c-11.661-5.98-22.723-11.81-33.487-18.089-1.644-.9-1.943-4.036-2.84-6.129,2.093.3,4.335-.149,6.129.747,11.661,6.129,23.321,12.408,34.683,18.986,2.392,1.495,4.036,4.335,5.98,6.578C364.7,90.513,361.414,89.766,357.527,89.018Z" transform="translate(158.975 32.072)"/><path class="a" d="M507.5,125.033c-.747.747-1.2,1.046-1.345,1.495-1.495,2.691-3.139,5.531-4.634,8.222,2.541-.9,4.933-1.794,7.475-2.541,1.2-.448,2.541-.747,3.737-1.2-.3,1.495,0,3.438-.9,4.485-3.438,3.887-7.774,6.279-12.557,2.84-4.485-3.289-4.036-7.923-.449-11.96,2.093-2.392,4.186-5.232,6.877-6.578,1.794-.9,4.634.448,7.026.747C511.087,121.894,509.442,123.388,507.5,125.033Z" transform="translate(245.503 59.144)"/><path class="a" d="M48.407,321.522c-5.681,4.036-8.671,0-11.511-3.289-1.046-1.2-.9-3.289-1.2-4.933,1.345.6,2.691,1.345,4.036,1.943,2.093.747,4.485,1.2,6.279,2.392C47.361,318.084,47.959,319.878,48.407,321.522Z" transform="translate(17.669 155.065)"/><path class="a" d="M565.7,83.037a10.4,10.4,0,0,1,2.242-3.737l1.495,1.495A17.662,17.662,0,0,1,565.7,83.037Z" transform="translate(279.988 39.249)"/><path class="a" d="M364.742,165.994c-9.119,9.717-17.939,18.986-26.759,28.1-1.2,1.2-3.289,1.495-5.083,2.093.3-1.644.3-3.438.747-5.083a8.678,8.678,0,0,1,1.495-3.139C346.5,175.412,358.015,163,369.526,150.6c1.046-1.046,1.943-2.691,3.139-2.99,1.644-.6,3.588-.15,5.531-.3-.747,1.345-1.2,2.84-2.093,4.186C372.516,156.128,368.779,160.911,364.742,165.994Z" transform="translate(164.766 72.897)"/><path class="a" d="M349.9,151.445c3.289-.448,5.83-.9,8.372-1.345-2.093,1.943-3.737,4.335-6.129,5.681-8.222,5.083-16.594,9.867-25.115,14.5-1.644.9-3.737.9-5.531,1.345.6-1.644.9-4.186,2.093-4.933C331.965,161.462,340.486,156.528,349.9,151.445Z" transform="translate(159.124 74.291)"/><path class="a" d="M229.307,126.318c-4.933-8.372-11.511-2.392-17.192-2.99-2.392-.3-5.083.3-7.026-.6-1.644-.9-2.242-3.588-3.289-5.531,1.644.448,3.139.9,4.784,1.2a2.547,2.547,0,0,0,1.495,0c10.465-1.495,20.78-2.99,31.244-4.335,3.289-.448,6.279-.448,4.186,4.933-1.794,4.634.449,7.624,5.83,6.877,13.3-2.093,26.61-4.335,39.765-6.428,1.644-.3,3.289-1.046,4.784-.9s2.84,1.345,4.335,1.943c-1.046,1.046-1.794,2.84-2.99,2.99-6.428,1.495-13.006,2.691-19.584,3.737-9.717,1.644-19.584,2.84-29.151,5.083-2.541.6-4.186,4.933-6.428,7.475-.449.6-1.644.448-2.541.6,0-.9-.3-2.093.15-2.541,4.784-4.784,1.794-5.531-2.84-6.428C232.895,131.251,231.4,128.56,229.307,126.318Z" transform="translate(99.879 56.364)"/></g></svg>