<svg xmlns="http://www.w3.org/2000/svg" viewBox="1081 317.369 249.873 320.155"><defs><style>.a{fill:#424242;}</style></defs><g transform="translate(1081 317.369)"><path class="a" d="M40.989,31.539c2.642,1.136,2.525-.455,2.469-2.187a23.307,23.307,0,0,1,2.921-12c.675-1.253.614-2.939,1.387-4.094A22.126,22.126,0,0,1,52.4,7.84,38.578,38.578,0,0,1,66.75.864C75.261-1.187,83.919.2,89.978,7.326c1.777,2.09,4.143,3.668,4.6,6.609.237,1.514.184,3.079.493,4.573a7.119,7.119,0,0,0,1.266,2.053l.655-.478c-.2-.125-.537-.225-.563-.379-.126-.736-.507-1.731-.178-2.188,1.357-1.885,2.612-4.156,4.5-5.279,4.134-2.455,8.447-4.58,13.661-4.124a17.078,17.078,0,0,1,10.805,5.36,2.146,2.146,0,0,1,.31.667c.062-.258.139-.514.185-.776,1.1-6.294,8.409-11.983,14.445-12.14a21.41,21.41,0,0,1,15.973,6.243c2.092,1.991,3.288,4.963,4.727,7.58.629,1.144.786,1.1,1.9.369a13.134,13.134,0,0,1,5.762-2.411,41.168,41.168,0,0,1,10.664.42,30.806,30.806,0,0,1,9.617,3.428c2.336,1.345,4.046,3.809,5.962,5.843a39.8,39.8,0,0,1,3.43,4.083,20.977,20.977,0,0,1,4.229,12.3c.008,2.878-.377,5.76-.3,8.633.016.628,1.127,1.492,1.909,1.793,3.926,1.508,7.878,2.928,10.955,5.973,1.9,1.882,3.856,3.717,5.66,5.69a19.525,19.525,0,0,1,4.767,9.69,42.794,42.794,0,0,1,.84,9.438A34.22,34.22,0,0,1,222,95.567c-1.793,3.286-3.407,6.62-6.277,9.1a29.279,29.279,0,0,1-4.135,2.866,4.071,4.071,0,0,0-2.33,3.925c.086,2.057-.032,4.122.029,6.18.2,6.786-2.8,12.388-6.387,17.825-4.085,6.187-10.356,10.013-15.638,14.913-3.545,3.289-7.546,4.317-12.043,4.45a5.344,5.344,0,0,1-2.777-.45c-2.3-1.39-3.764-.087-4.867,1.526a54.024,54.024,0,0,1-13.892,13.668c-7.148,4.988-14.727,9.27-23.41,11.384a44.541,44.541,0,0,1-14.658,1.54c-5.6-.514-11.118-1.581-15.66-5.4-.8-.676-1.7-.677-2.649.341A23.879,23.879,0,0,1,87,184.416c-5.657,1.772-11.231,3.848-16.958,5.345a37.4,37.4,0,0,1-15.449.485c-3.012-.482-6.242-.338-9.016-1.4-4.949-1.9-9.544-4.407-11.61-10.051-1.31-3.58-2.3-7.058-2.062-10.876.1-1.576-.439-2.4-2.418-2.486-4.5-.191-8.451-2.342-12-4.871-5.6-3.986-9.377-9.4-12.089-15.8C2.71,138.409,1.722,131.792.864,125.118a79.7,79.7,0,0,1-.818-13.491c.291-6.819,2.148-13.3,7.181-18.267a16.9,16.9,0,0,1,5.867-3.233c1.339-.512,1.745-.864.932-2.086-3.5-5.26-3.52-11.244-2.882-17.083a73.559,73.559,0,0,1,5.448-20.732c2.256-5.322,5.119-10.326,9.52-14.133a24.874,24.874,0,0,1,7.806-4.732c2.062-.72,4.625,0,7.072.179M219.935,64.685l-.694-1.438c-.053.182-.207.424-.141.534a13.738,13.738,0,0,1,.835,1.33c.853,3.466,1.94,6.895,2.487,10.408a87.634,87.634,0,0,1,.5,9.39c.032.692.085,1.383.129,2.074.1-.614.2-1.227.3-1.841a13.78,13.78,0,0,0,.4-2.8,88.293,88.293,0,0,0-.931-11.122c-.413-2.209-1.882-4.221-2.877-6.535M194.783,34.843a32.92,32.92,0,0,0-10.7-13.61c-3.412-2.508-7.238-4.266-11.684-3.64-2.393.337-4.751.962-7.15,1.213-1.287.135-2.157.164-2.078,1.817.026.53-.677,1.1-1.046,1.644-.389-.4-.763-.822-1.171-1.206-.5-.466-1.037-1.3-1.529-1.284-2.3.1-2.938-1.577-3.892-3.1-1.272-2.035-2.4-4.365-4.188-5.831-3.818-3.125-8.4-3.819-13.222-2.642-4.076.995-7.808,2.4-10.117,6.366-1.348,2.317-3.168,2.247-5.391.6a27.015,27.015,0,0,0-5.3-3.132,6.777,6.777,0,0,0-4.259-.654c-8.6,2.776-14.467,8.927-19.335,16.229-.31.465-.958.7-1.448,1.05a6.272,6.272,0,0,1-.621-1.636,3.952,3.952,0,0,1,.392-1.523c1.61-4.6,1.76-9.55-1.13-13.268C86.205,6.176,80.106,2.007,71.673,2.594a27.923,27.923,0,0,0-17.8,7.911,24.994,24.994,0,0,0-7.822,20.126,3.42,3.42,0,0,0,1.381,2.533c1.629.781,1.153,1.334.216,2.191a.981.981,0,0,0-.23.875c.621,1.379,1.4,2.691,1.929,4.1.141.38-.425,1.023-.667,1.546a5.041,5.041,0,0,1-1.531-.81c-1.357-1.528-2.494-3.268-3.939-4.7C38.271,31.468,31.1,33.8,27.4,38.178a24.722,24.722,0,0,0-5.883,12.065C20.378,56.963,17.054,63.21,16.6,70.125c-.421,6.472-1.817,13.026,1.575,19.235,1.053,1.927.294,3.994-1.6,4.48-3.814.977-5.749,3.766-7.224,7.005A44.582,44.582,0,0,0,5.071,119.53c.006,3.694-.218,7.405.067,11.077a46.15,46.15,0,0,0,1.7,9.511,33.483,33.483,0,0,0,5.867,11.643,31.565,31.565,0,0,0,13.465,10.274,7.33,7.33,0,0,0,3.906.42c2.7-.581,4.122.175,4.392,3.018.488,5.145,3.264,9.155,6.825,12.434a23.961,23.961,0,0,0,11.071,6.081c3.747.8,7.541,1.414,11.339,1.938,1.178.163,2.5-.565,3.641-.324,5.918,1.255,11.289-.275,16.181-3.356,4.745-2.989,9.386-6.211,12.761-10.885.335-.464,1.309-.466,1.986-.682-.088.629-.141,1.267-.28,1.885a1.718,1.718,0,0,1-.462.864c-2.478,2.228-4.983,4.427-7.469,6.647a13.131,13.131,0,0,0-.954,1.05c.485-.094,1.108-.028,1.432-.308,1.8-1.552,3.53-3.179,5.27-4.8,2.79-2.6,3.751-2.552,6.779-.23a18.384,18.384,0,0,0,4.971,2.883c5.208,1.811,10.651,1.982,16.111,1.754a9.253,9.253,0,0,0,1.192-.2c-.406-.214-.808-.605-1.219-.614-2.556-.057-5.12.07-7.67-.066a24.1,24.1,0,0,1-4.541-.852c-.411-.1-.71-.649-1.061-.991.467-.226.94-.656,1.4-.645,3.069.078,6.135.249,9.2.4.412.02.822.068,1.233.11,2.455.246,4.968.94,7.351.63a29,29,0,0,0,9.132-2.554A47.328,47.328,0,0,0,153.873,164c3.558-4.2,7.038-8.476,10.675-12.611a3.735,3.735,0,0,1,4.571-1.193,17.747,17.747,0,0,0,6.764,1.575c5.486-.163,9.883-3.024,13.133-7.224a140.95,140.95,0,0,0,17.16-28.255c1.2-2.654,1.985-5.662.467-8.625-.27-.526-.518-1.064-.776-1.6a20.86,20.86,0,0,0,2.134-.04,5.534,5.534,0,0,0,2.572-.523c1.7-1.3,3.22-2.844,4.809-4.293a16.817,16.817,0,0,0,5.374-12.467c.192-6.353,0-12.744-1.767-18.873-.914-3.177-2.105-6.828-4.394-8.937a24.934,24.934,0,0,0-16.077-6.263c-1.624-.074-2.312-.988-2.042-2.612a37.5,37.5,0,0,0,.814-6.038,26.87,26.87,0,0,0-2.508-11.177m2.345-4.9c-1.506-2.074-2.96-4.187-4.526-6.215-5.239-6.784-18.465-11.618-27.66-7.422a6.983,6.983,0,0,0-.854.546,3.037,3.037,0,0,0,1.1.279c1.725-.261,3.442-.581,5.156-.907,4.841-.921,9.563-.543,13.618,2.366a40.633,40.633,0,0,1,8.148,7.371,46.265,46.265,0,0,1,5.865,10.062c1.6,3.593,1.664,7.585,1.512,11.516a8.72,8.72,0,0,0,.219,1.568,11.018,11.018,0,0,0,.185-1.411c.017-2.864.34-5.777-.081-8.578a56.437,56.437,0,0,0-2.682-9.177M38.964,181.709c3.181,2.157,6.024,4.451,10.171,5.347a80.035,80.035,0,0,0,16.79,1.464,2.835,2.835,0,0,0,.968-.222,6.218,6.218,0,0,0,.813-.441,4.437,4.437,0,0,0-.777-.173c-3.464-.152-6.964-.038-10.383-.509a33.305,33.305,0,0,1-8.8-2.334c-5.03-2.213-9.693-5.079-12.2-10.369-.081-.171-.292-.28-.443-.418-.03.242-.167.543-.072.718,1.219,2.252,2.471,4.486,3.928,6.937M157.693,15.659c.284.449.549.913.861,1.342a4.326,4.326,0,0,0,.61.576,4.244,4.244,0,0,0-.2-.774c-1.419-3.057-2.782-6.115-5.484-8.374-5.141-4.3-10.794-6.522-17.364-3.988-2.249.868-4.15,2.648-6.182,4.052-.2.138-.2.564-.293.856.242-.015.575.068.713-.06,2.384-2.2,5.36-2.759,8.421-3.329a17.966,17.966,0,0,1,13.86,2.866c2.447,1.629,3.549,4.135,5.057,6.832M9.122,96.446a12.036,12.036,0,0,1,6.06-4.274c.206-.058.367-.275.548-.419-.255-.141-.6-.467-.752-.394-1.953.937-4.328,1.507-5.728,2.99-4.31,4.566-6.283,10.319-6.688,16.514-.26,3.975-.054,7.982-.037,11.974a3.01,3.01,0,0,0,.259.836,5.3,5.3,0,0,0,.15-.786c.15-3.555.1-7.131.475-10.661a34.534,34.534,0,0,1,5.711-15.78m188.645,39.861c-1.406,1.833-2.824,3.656-4.206,5.507a3.568,3.568,0,0,0-.352,1.019,6.1,6.1,0,0,0,.748-.6c1.516-1.64,3.013-3.3,4.527-4.941,4.578-4.966,6.871-11.13,9.073-17.338.081-.229-.053-.535-.086-.805-.251.176-.632.3-.73.538a36.225,36.225,0,0,1-1.56,4.038c-2.331,4.16-4.791,8.249-7.415,12.578M15.73,62.98c.853-2.913,1.747-5.815,2.538-8.744.336-1.243.455-2.544.672-3.819-.452,1.153-.966,2.286-1.344,3.463-2.817,8.765-5.608,17.539-3.994,26.961.061.356.176.7.266,1.054a9.893,9.893,0,0,0,.15-1.213c.02-5.871-.354-11.774,1.712-17.7M201.817,52.961a5.011,5.011,0,0,0,1.1.414,15.952,15.952,0,0,1,8.936,3.573c.243.215.729.155,1.1.223a3.71,3.71,0,0,0-.593-.891c-3.3-2.72-7.289-3.926-11.32-4.962-.556-.143-1.326.547-2,.851a23.372,23.372,0,0,0,2.771.793M163.662,157.2c1.1-1.244,2.219-2.476,3.295-3.742a4.176,4.176,0,0,0,.472-1.017c-.392.155-.912.2-1.156.483-1.2,1.4-2.272,2.9-3.49,4.279-1.8,2.039-3.7,4-5.537,6.009a2.745,2.745,0,0,0-.349.866,3.587,3.587,0,0,0,.745-.445,84.208,84.208,0,0,0,6.02-6.432M98.435,18.217a29.22,29.22,0,0,1,9.32-6.774,4.935,4.935,0,0,0,.791-.593,3.416,3.416,0,0,0-1.144.131,36.768,36.768,0,0,0-6.068,3.265C100.009,15.266,99.239,17.009,98.435,18.217Z" transform="translate(0 0)"/><path class="a" d="M394.943,432.532c-7.877-.335-14.118-3.3-17.655-10.633a9.769,9.769,0,0,1-.016-8.763c1.43-3.019,1.591-3.188-1.147-4.675-3.521-1.912-4.926-7.673-4.723-11.844.324-6.676,5.455-8.83,9.5-12.125a8.3,8.3,0,0,1,6.874-1.607,1.956,1.956,0,0,0,1.67-.842c1.788-6.138,10.7-8.652,15.634-7.673,1.787.355,3.39,2.142,4.839,3.524,1.044,1,1.573,1.139,2.6.017,3.2-3.488,7.55-4.3,11.983-4.986,4.815-.747,8.9,1.013,13.147,2.935,5.753,2.6,6.391,8.512,4.787,13.377a4.824,4.824,0,0,0,.413,3.463,13.911,13.911,0,0,1-1.4,15.536,48.235,48.235,0,0,0-2.92,4.317c-3.1,4.57-7.763,6.734-12.842,8.117-3.505.954-7,.87-10.184-1.247a2.84,2.84,0,0,0-2.473.553c-4.131,5.618-9.231,9.971-15.981,12.134-.636.2-1.333.214-2.109.421m12.043-52.544a33.857,33.857,0,0,0-5.586-.325c-4.241.429-7.384,2.867-9.993,6.091a1.765,1.765,0,0,1-2.5.528,4.861,4.861,0,0,0-4.78-.113c-2.344,1.367-4.757,2.635-7,4.151a7.159,7.159,0,0,0-2.4,2.81c-2.266,4.954-.87,13.154,5.854,14.781,1,.243,1.613.915,1.225,1.878A11.937,11.937,0,0,0,382.159,420c1.957,4.015,7.509,7.327,11.84,6.634,2.351-.376,4.65-1.089,6.966-1.674,6.145-1.551,10.916-4.468,11.632-11.54.033-.325,1.04-.666,1.632-.762.231-.037.784.558.823.907a5.377,5.377,0,0,0,4.1,5.014,10.621,10.621,0,0,0,10.5-2.541,32.589,32.589,0,0,0,8.919-12.669c1.1-2.872,2.4-5.9,1.534-8.932-.519-1.824-2.365-3.25-3.517-4.922a12.723,12.723,0,0,1-1.009-2.316c.961.131,1.928.229,2.881.408.459.086,1.184.569,1.281.452.4-.483.986-1.277.823-1.689-.951-2.412-1.877-4.872-4.442-6.185-3.638-1.862-7.542-1.579-11.439-1.739-4.448-.182-7.82,1.349-10.233,5.12-.943,1.474-2.688,1.7-3.629.667-1.216-1.339-2.418-2.689-3.839-4.248M384.818,427.31a18.83,18.83,0,0,0,2.638,1.326c2.129.694,4.382,1.944,6.437,1.705,2.854-.333,5.6-1.768,8.337-2.853a9.561,9.561,0,0,0,2.076-1.58c-.791.254-1.6.468-2.371.769-5.7,2.219-11.346,2.789-16.92-.417a13.9,13.9,0,0,0-2.168-.816c.586.551,1.172,1.1,1.971,1.866M435.124,377c-1.214-.5-2.408-1.358-3.644-1.424a59.335,59.335,0,0,0-10.914.041,10.26,10.26,0,0,0-7.71,5.35,3.742,3.742,0,0,0-.183,1.293,7.078,7.078,0,0,1,.714-.839c1.592-1.382,2.99-3.278,4.845-4.016,5.682-2.26,11.484-1.7,17.184.3a4.256,4.256,0,0,0,.95.109,11.768,11.768,0,0,1-1.241-.815m-35.171.64c1.871,0,3.742.006,5.613-.009a1.867,1.867,0,0,0,.556-.192,2.339,2.339,0,0,0-.433-.444,3.128,3.128,0,0,0-1.229-.609c-4.711-.231-8.987.738-12.129,4.629a2.1,2.1,0,0,0-.221.72c.2-.089.407-.167.6-.268,2.343-1.2,4.685-2.409,7.24-3.827m39.221,29.416-.213.55c.129.042.348.153.376.117a13.568,13.568,0,0,0,3.024-9.167c-.007-.133-.177-.257-.271-.385-.048.122-.1.241-.143.366-.854,2.768-1.707,5.536-2.772,8.518m-59.9,13.855.853.362c-.426-1.588-.849-3.177-1.284-4.763a2.48,2.48,0,0,0-.242-.468c-.06.187-.2.39-.167.558.261,1.3.556,2.591.84,4.311m55.848-7.247.828-1.3a1.351,1.351,0,0,0-.283-.076A5.326,5.326,0,0,0,435.124,413.668Z" transform="translate(-213.057 -213.84)"/><path class="a" d="M492.234,554.342c-.462-1.025-1.154-1.961-1.106-2.858.122-2.292-.725-3.092-2.985-2.819-2.131.257-4.046-1.6-4.263-4.726-.232-3.332-.291-6.678,1.152-9.936,1.312-2.962,4.256-5.345,7.541-5.345,2.832,0,2.9-.06,3.179-2.987.185-1.909,2.722-4.185,5.323-4.678a10.166,10.166,0,0,1,9.554,3.257c1.426,1.479,2.38,1.474,3.918.37a6.607,6.607,0,0,1,8.946,1.343,14.5,14.5,0,0,1,3.822,7.285,22.745,22.745,0,0,1-.458,5.891c-.2,1.6-.9,3.209-.761,4.757.279,3.027-2.07,4.857-4.415,5.609a11.2,11.2,0,0,1-3.857.427c-1.405-.064-1.784.518-2.07,1.787-1.441,6.407-4.844,9.367-10.874,9.21-4.952-.129-9.875-1.4-12.645-6.585m-1.172-20.357c.753-.753,1.519-1.493,2.249-2.268a2.319,2.319,0,0,0,.308-.718,3.675,3.675,0,0,0-.764-.2c-2.154-.1-5.8,2.816-6.026,5.005a65.126,65.126,0,0,0-.415,7.7c.039,2.556,1.986,3.482,3.5,2.989.833-.272,1.343-1.411,2.147-1.929a12.758,12.758,0,0,1,2.566-.983c.028.7.043,1.409.086,2.111a8.939,8.939,0,0,0,.219,2.484c1.948,5.282,3.835,6.6,8.213,6.429,3.53-.135,8.75-5.113,9.684-8.661.106-.4.453-.952.779-1.024a1.349,1.349,0,0,1,1.2.516,6.856,6.856,0,0,1,.313,2.01,3.8,3.8,0,0,1-.063.726,2.346,2.346,0,0,1,.453-.251,15.8,15.8,0,0,1,3.238-.892c2.688-.187,4.939-2.183,4.653-4.81a34.557,34.557,0,0,0-1.656-6.535c-1.652-5.229-3.489-6.438-8.523-5.258-1.908.447-2.273-.283-2.565-1.809-.472-2.47-4.233-4.832-6.4-3.716a29.735,29.735,0,0,0-6.327,4.565c-1.98,1.816-3.57,4.051-5.431,6.007-.4.422-1.237.434-1.872.634a9.393,9.393,0,0,1,.439-2.119m8.953,22.595a8.111,8.111,0,0,1-5.455-3.732,6.771,6.771,0,0,0-.892-1,6.538,6.538,0,0,0,.521,1.446c2.55,3.893,6.45,5.3,10.827,5.609a6.96,6.96,0,0,0,7.258-4.361c.663-1.426,1.233-2.9,1.8-4.368a7.559,7.559,0,0,0,.257-1.446,9.606,9.606,0,0,0-1.086,1.2c-3.054,4.734-7.084,7.594-13.226,6.66m22.595-25.153q1.066,2.932,2.13,5.865c.087.24.151.487.226.731a4.731,4.731,0,0,0,.2-.765,12.8,12.8,0,0,0-2.937-9.163c-2.324-3-3.939-3.167-6.886-1.549-.45.247-.736.793-1.1,1.2a4.526,4.526,0,0,0,1.7.446c2.845-.474,4.884.83,6.666,3.233M501.293,522.9c-1.136.852-2.291,1.679-3.382,2.585-.136.113.07.638.117.971.2-.155.4-.312.6-.466,1.079-.818,2.154-1.639,3.24-2.448.341-.254.709-.473,1.064-.707A4.387,4.387,0,0,0,501.293,522.9Z" transform="translate(-277.521 -298.773)"/><path class="a" d="M444.519,708.6c-4.749-.031-9.548-2.68-9.893-7.946-.178-2.72-1.091-5.109-1.332-7.632-.18-1.883,1.2-3.953,2.034-5.876.34-.785,1.159-1.35,1.6-2.107.993-1.7,2.076-2.946,4.368-2.817,2.418.136,4.385-1.267,6-2.888,2.646-2.661,5.92-2.25,9.117-2.135a37.934,37.934,0,0,1,5.18.822c.383.068.922.137,1.09.4,2.04,3.162,5.153,5.812,4.963,10.067a11.508,11.508,0,0,1-2.984,6.867,2.983,2.983,0,0,0-.557,2.284c.988,3.86-1.121,6.653-5.046,6.868-1.53.084-3.011.913-4.537,1.317-.781.207-1.957.614-2.361.257-1.621-1.429-2.258.009-3.359.705a32.125,32.125,0,0,1-4.282,1.815m-3.73-12.9c-.645.5-1.248,1.338-1.944,1.424-1.736.217-1.9,1.384-1.869,2.622.059,2.806,2,4.968,4.75,6.227a4.742,4.742,0,0,0,6.082-1.555c1.452-1.831,3-2.219,4.924-.832,1.252.9,1.959.259,2.574-.861.194-.353.662-.821.971-.8a1.613,1.613,0,0,0,2.005-1.409c.372-1.68,1.119-3.328,1.186-5.01a5.594,5.594,0,0,1,1.649-4.066c.8-.826,1.647-2.576,1.284-3.361-1.159-2.506-2.812-4.918-5.9-5.347-2.328-.324-4.74-.105-7.045-.519-2.648-.475-3.694,3.072-6.363,2.257-.11-.034-.546.488-.572.775-.141,1.545-.152,3.1-.309,4.647a14.087,14.087,0,0,1-.568,2.183c-.569-.562-1.391-1.025-1.656-1.7-.648-1.662-.906-3.4.357-5,.127-.16-.018-.536-.037-.812-.2.1-.492.138-.588.3a61.915,61.915,0,0,0-3.971,6.868c-.749,1.713.551,2.712,2.545,2.53.877-.08,2.233-.673,2.5,1.446m23.661-4.9c-.651.793-1.319,1.573-1.942,2.387a3.419,3.419,0,0,0-.345.868,2.866,2.866,0,0,0,1.014-.3,6.471,6.471,0,0,0,1.471-8.01,36.748,36.748,0,0,0-2.993-4.485,4.053,4.053,0,0,0-2.319-1.478c-2.469-.317-4.973-.387-7.467-.457a5.125,5.125,0,0,0-1.663.569c.506.084,1.01.2,1.519.247,3.256.3,6.8-.194,9.4,2.306,2.233,2.151,4.9,4.333,3.325,8.357m-4.05,10.445-.409.87c.29-.017.772.064.839-.068a16.833,16.833,0,0,0,1.228-2.855c.084-.283-.4-.734-.629-1.109a4.845,4.845,0,0,1-.188.976A16.049,16.049,0,0,0,460.4,701.246Z" transform="translate(-248.564 -388.445)"/></g></svg>