<svg xmlns="http://www.w3.org/2000/svg" viewBox="421.803 639.456 164.868 169.086"><defs><style>.a{fill:#9e9e9e;}</style></defs><g transform="translate(485.845 639.479) rotate(30)"><path class="a" d="M15.4,33.8c10.8-12.2,24.4-20,38.2-27.5C68.2-1.6,83.6-1.8,99,4.2c7.7,3,12.1,9.7,14.5,17.1,2.8,8.6,4.3,17.5,1.2,26.7-2.2,6.3-2.9,13.1-5,19.4-2.4,7.3-8.5,11.7-14.6,15.7-5.2,3.5-4.9,5.1-2.7,11.1a28.994,28.994,0,0,1,.9,15.2c-1,5.4-4,10.4-6.5,15.4-.7,1.4-2.8,2.2-4.3,3.2-.9-1.2-2.1-2.3-2.5-3.7-.8-2.4-.7-5.1-1.7-7.4a88.029,88.029,0,0,0-6.9-13.3c-1.2-1.9-3.7-.9-5.1.8-3.8,4.4-8.1,7.8-13.9,9.1-1.9.4-3.8,1.2-5.7,1.1-7.5-.2-15.1.1-22.5-1.1C14.2,112.1,1.7,99.1.4,88-1.2,73.5,1.6,60.3,6.8,47.3c2-4.8,5.6-8.9,8.6-13.5M84,115.2l.3,4.2c.5-.6,1.3-1.2,1.5-1.9,2.5-9.6,3.1-19.1-1.3-28.6-.7-1.5.2-4.6,1.4-6a25.8,25.8,0,0,1,7.7-5.3c6-2.8,9.8-7.2,11.3-13.7a15.085,15.085,0,0,1,1.9-3.5c-1.1,0-2.3.3-3.1-.2-.5-.3-.6-1.9-.3-2.7,2.2-5.2,4.1-10.4,3.4-16.3-.1-.6.7-1.9,1.1-1.9,4.5.2,2.6-2.8,2.2-4.7a84.366,84.366,0,0,0-2.5-9.9c-2.4-8.3-6.6-15-15.5-17.6-.5-.1-1.1.3-1.7.5.6.4,1,.8,1.4,1.1,2.5,2,5.6,3.6,7.4,6.1,7.3,10.1,8.3,21.4,5.2,33.3-1.3,4.9-3.3,10-2.8,14.9.3,3.7-.4,5.8-2.7,7.8-3.5,3-7,6-10.7,8.8a16.821,16.821,0,0,1-3.9,1.6c.2-1.6,0-3.4.6-4.8.5-1.1,2.1-1.7,3.1-2.6,1.6-1.6,3.5-3.1,4.5-5.1,4.9-9.7,8.1-19.7,7.8-30.9-.2-7.3-1.3-14.2-5.9-20C89.5,11.3,83.7,6,75,5.9c-9.7-.2-17.8,4.6-25.7,9.4-4.1,2.5-7.8,5.7-12,8A56.942,56.942,0,0,0,9,57.5C7.5,62,6,66.7,5.8,71.4c-.2,5,0,10.4,1.9,14.9,2,4.7,6.2,8.5,9.4,12.7,4.3,5.8,18.1,10.3,24.7,7.7,5.6-2.2,11.1-4.7,16.5-7.3,9.4-4.5,11.8-4.3,18.9,2.4A20.221,20.221,0,0,1,84,115.2M61,103.8c-.2-.4-.6-1.2-.7-1.1-4.7,2.1-9.4,4.2-14,6.4-.4.2-.9.4-1.3.6.4.1.9.4,1.3.3C51,108.1,55.8,106.1,61,103.8Z"/><path class="a" d="M61.3,63.4c5.6-.2,5.8-.1,2.9,4.6a51.276,51.276,0,0,1-7.4,9.3c-3.2,3.2-8.2,1.6-11-3.4A170.9,170.9,0,0,1,38,58.5a6.455,6.455,0,0,1,0-5.1,19.624,19.624,0,0,1,4.7-5.7c1.1-1,2.9-1.3,4.4-1.9-.1,1.7-.2,3.3-.4,5,0,.3-.3.5-.5.8-2.2,3.4-1.9,9.5.7,12a3.1,3.1,0,0,0,1.7-.9c1.7-2.3,3-4.9,4.9-7,.9-.9,2.8-.9,4.2-1.3.1,1.2.7,2.7.2,3.5a66.76,66.76,0,0,1-6,8c-1.4,1.7-2.5,3.4-1.1,5.3,1.2,1.6,2.8,4.5,4.7,0C56.7,68.5,59.1,66.2,61.3,63.4Z"/><path class="a" d="M58.2,42.1c0,2.8-.7,5,3.1,2.4,4.4-3.1,9.6-6.2,15.4-3.3,3.5,1.7,6.4,4.1,6.3,8.7-.1,4.2-3.5,9.7-7.8,10.9-3,.8-6.7,1.9-8.9-1.6-.9-1.5-.8-3.6-1.1-5.4,1.5.5,3.4.5,4.5,1.5,2.9,2.7,4.9,1.1,6.6-1.2,2-2.6,1.4-5.2-.9-7.1-2.6-2-5.4-2.8-8.4,0a10.438,10.438,0,0,1-5.5,2.6c-2.5.2-6.8.2-7.3-1a13.518,13.518,0,0,1-.3-9.1c1.2-3.7,3.9-6.8,8.7-5.9a12.664,12.664,0,0,1,3.1,1.5,26.078,26.078,0,0,1-2.4,2.3A53.411,53.411,0,0,0,58.2,42.1Z"/><path class="a" d="M33.3,64.1c4.8,7.8,9.6,15.1,14.3,22.6.6.9.2,2.3.2,3.5-1.4,0-3.3.6-4.1-.1A36.933,36.933,0,0,1,37,82.5c-1.9-3.3-4.4-4.1-7.9-4.1a38.3,38.3,0,0,1-8.2-1c-.8-.2-1.3-1.4-2-2.1.8-.5,1.7-1.5,2.5-1.6,2.7-.2,5.4-.1,8.1-.1a12.816,12.816,0,0,1,2.7.5c-.6-.9-1.2-1.7-1.7-2.6a27.327,27.327,0,0,1-3-5.9c-.3-1.3.6-2.9,1-4.4A19.825,19.825,0,0,1,33.3,64.1Z"/><path class="a" d="M80.4,32.4a77.856,77.856,0,0,1-6.2-7.3c-.8-1.2-.3-3.1-.3-4.8,1.4.4,3.2.3,4.1,1.2,4.1,4.1,8,8.3,11.7,12.7.9,1.1.6,3.1.8,4.7-1.4-.2-3.2,0-4.2-.7A63.993,63.993,0,0,1,80.4,32.4Z"/><path class="a" d="M90.6,47.9c.7-1.3,1.3-2.4,2.1-2.8.7-.3,2.5.4,2.5.8.1,1.1-.3,3.1-.8,3.2A6.045,6.045,0,0,1,90.6,47.9Z"/></g></svg>