<svg xmlns="http://www.w3.org/2000/svg" viewBox="1386 4653.426 60 60.148"><defs><style>.a{fill:#fff;}</style></defs><path class="a" d="M49.914,27.928c-2.365,0-4.78-.075-7.17.025-1.17.05-1.494-.349-1.444-1.469.1-1.768,0-3.56.025-5.352.05-2.191,1.07-3.311,3.211-3.46,1.568-.1,3.162-.1,4.73-.1.822,0,1.22-.224,1.22-1.12-.05-1.942.025-3.909-.05-5.85-.025-.349-.473-1-.747-1.021-3.585-.075-7.22-.772-10.73.548a9.845,9.845,0,0,0-6.622,8.688,66.01,66.01,0,0,0-.249,7.693c0,1.195-.373,1.494-1.494,1.444-1.743-.075-3.485.025-5.228-.05-.846-.025-1.07.3-1.07,1.1.025,2.191.025,4.406,0,6.6-.025.822.3,1.1,1.1,1.07,1.867-.05,3.734.025,5.6-.025.822-.025,1.07.274,1.07,1.07q-.037,10.643,0,21.285c0,.8-.224,1.12-1.046,1.12-6.722-.025-13.443.1-20.165-.05A11.158,11.158,0,0,1,0,48.616C.049,36.243-.026,23.9.024,11.522.049,4.7,4.9.046,11.724.046,23.9.046,36.047.17,48.2,0A11.631,11.631,0,0,1,60,11.7c-.224,12.273-.2,24.547,0,36.845a11.455,11.455,0,0,1-11.3,11.551c-2.066.025-4.158-.025-6.224.025-.846.025-1.17-.224-1.17-1.12.025-7.045.025-14.116,0-21.161,0-.946.349-1.22,1.245-1.195,1.817.05,3.66.05,5.477-.025.373-.025,1-.4,1.021-.672.373-2.49.672-5,.971-7.518C50.038,28.3,49.964,28.177,49.914,27.928Z" transform="translate(1386.002 4653.431)"/></svg>