<svg xmlns="http://www.w3.org/2000/svg" viewBox="8787.646 976.547 65.006 65.166"><defs><style>.a{fill:#6b625e;}</style></defs><path class="a" d="M54.078,30.259c-2.562,0-5.179-.081-7.768.027-1.268.054-1.618-.378-1.564-1.591.108-1.915,0-3.857.027-5.8.054-2.374,1.16-3.587,3.479-3.749,1.7-.108,3.425-.108,5.125-.108.89,0,1.322-.243,1.322-1.214-.054-2.1.027-4.235-.054-6.338-.027-.378-.512-1.079-.809-1.106-3.884-.081-7.822-.836-11.625.593a10.666,10.666,0,0,0-7.175,9.413,71.515,71.515,0,0,0-.27,8.334c0,1.295-.4,1.618-1.618,1.564-1.888-.081-3.776.027-5.664-.054-.917-.027-1.16.324-1.16,1.187.027,2.374.027,4.774,0,7.148-.027.89.324,1.187,1.187,1.16,2.023-.054,4.046.027,6.069-.027.89-.027,1.16.3,1.16,1.16q-.04,11.531,0,23.061c0,.863-.243,1.214-1.133,1.214-7.282-.027-14.565.108-21.847-.054A12.089,12.089,0,0,1,0,52.672C.053,39.267-.028,25.889.026,12.484.053,5.094,5.312.05,12.7.05,25.892.05,39.054.185,52.216,0A12.6,12.6,0,0,1,65,12.673c-.243,13.3-.216,26.594,0,39.918A12.411,12.411,0,0,1,52.756,65.106c-2.239.027-4.5-.027-6.743.027-.917.027-1.268-.243-1.268-1.214.027-7.633.027-15.293,0-22.926,0-1.025.378-1.322,1.349-1.295,1.969.054,3.965.054,5.934-.027.4-.027,1.079-.432,1.106-.728.4-2.7.728-5.421,1.052-8.146C54.212,30.663,54.131,30.528,54.078,30.259Z" transform="translate(8787.648 976.552)"/></svg>