<svg xmlns="http://www.w3.org/2000/svg" viewBox="8986.995 976.085 65.005 64.968"><defs><style>.a{fill:#6b625e;}</style></defs><g transform="translate(8986.995 976.085)"><path class="a" d="M32.441,64.838c-5.006,0-10.04.325-14.992-.054-9.282-.7-16.128-5.953-16.994-16.02-.649-7.6-.406-15.29-.46-22.948a79.315,79.315,0,0,1,.433-9.823C1.375,8.145,6.111,2.3,14.418.785A44.745,44.745,0,0,1,22.483,0c8.2,0,16.4,0,24.6.3,5.872.189,10.96,2.381,14.451,7.442a19.436,19.436,0,0,1,3.274,10.852c.189,7.794.135,15.587.189,23.381a33.182,33.182,0,0,1-1.38,11.068c-2.138,6.332-6.6,10.31-13.125,11.23m-18.05-5.412c4.384,0,8.741.108,13.125-.027,4.952-.162,9.471-1.57,11.663-6.549a18.806,18.806,0,0,0,1.515-6.792c.244-5.9.244-11.8.189-17.7-.027-3.6-.135-7.2-.46-10.8a10.9,10.9,0,0,0-8.9-10.2,27.3,27.3,0,0,0-5.737-.731c-8.876.027-17.752,0-26.628.379A10.467,10.467,0,0,0,7.22,13.693a21.074,21.074,0,0,0-1.11,6.359c-.189,6.386-.216,12.8-.162,19.186a93.817,93.817,0,0,0,.622,9.553,10.668,10.668,0,0,0,4.14,7.334c2.544,2.03,5.548,2.571,8.605,2.679C23.7,58.966,28.084,58.858,32.441,58.858Z" transform="translate(0.007)"/><path class="a" d="M58.2,74.751c-.6-8.795,7.55-16.724,16.588-16.751a16.859,16.859,0,1,1-.027,33.718C65.076,91.637,57.58,83.3,58.2,74.751Zm27.3.108c.352-5.358-4.6-10.689-10.419-10.716A10.7,10.7,0,1,0,74.9,85.548C81.232,85.548,85.859,79.865,85.507,74.859Z" transform="translate(-42.424 -42.304)"/><path class="a" d="M177.228,45.158a3.7,3.7,0,0,1-3.924,3.951,3.751,3.751,0,0,1-4.005-3.9,3.966,3.966,0,1,1,7.929-.054Z" transform="translate(-123.483 -29.977)"/></g></svg>