<svg xmlns="http://www.w3.org/2000/svg" viewBox="1570 4653 60 59.966"><defs><style>.a{fill:#fff;}</style></defs><g transform="translate(1570.007 4653)"><path class="a" d="M29.943,59.846c-4.621,0-9.267.3-13.838-.05C7.538,59.147,1.219,54.3.419,45.01-.18,37.991.045,30.9-.005,23.829a73.208,73.208,0,0,1,.4-9.067C1.269,7.518,5.64,2.123,13.308.724A41.3,41.3,0,0,1,20.751,0c7.568,0,15.136,0,22.7.275,5.42.175,10.116,2.2,13.338,6.869A17.939,17.939,0,0,1,59.816,17.16c.175,7.194.125,14.387.175,21.581a30.627,30.627,0,0,1-1.274,10.216C56.744,54.8,52.622,58.472,46.6,59.322m-16.66-5c4.046,0,8.068.1,12.114-.025,4.571-.15,8.742-1.449,10.765-6.045a17.358,17.358,0,0,0,1.4-6.269c.225-5.445.225-10.89.175-16.335-.025-3.322-.125-6.644-.425-9.966a10.063,10.063,0,0,0-8.218-9.417,25.2,25.2,0,0,0-5.3-.674c-8.193.025-16.385,0-24.578.35a9.661,9.661,0,0,0-9.217,6.694,19.451,19.451,0,0,0-1.024,5.87c-.175,5.895-.2,11.814-.15,17.709a86.594,86.594,0,0,0,.574,8.817A9.846,9.846,0,0,0,9.886,51.8a12.919,12.919,0,0,0,7.943,2.473C21.875,54.426,25.921,54.326,29.943,54.326Z" transform="translate(0)"/><path class="a" d="M58.2,73.461C57.65,65.343,65.169,58.025,73.511,58a15.561,15.561,0,1,1-.025,31.122C64.544,89.047,57.625,81.354,58.2,73.461Zm25.2.1c.325-4.946-4.246-9.866-9.616-9.891a9.879,9.879,0,1,0-.175,19.757C79.456,83.427,83.727,78.182,83.4,73.561Z" transform="translate(-43.643 -43.513)"/><path class="a" d="M176.618,44.846A3.415,3.415,0,0,1,173,48.493a3.462,3.462,0,0,1-3.7-3.6,3.661,3.661,0,1,1,7.318-.05Z" transform="translate(-127.017 -30.833)"/></g></svg>