<svg xmlns="http://www.w3.org/2000/svg" viewBox="6226.575 226.515 178.925 593.261"><defs><style>.a{stroke:#424242;}</style></defs><path class="a" d="M15.458,117.764c-.907-8.349-1.784-16.362-2.728-24.367-.866-7.334-1.687-14.677-2.746-21.985C9.014,64.719,7.7,58.077,6.636,51.4c-.767-4.8-1.283-9.648-2.08-14.445-1-6.02-2.292-11.993-3.225-18.022C.81,15.565.753,12.128.507,8.723A14.233,14.233,0,0,0,.479,6.688C-.4,2.78-.421,2.829,3.5,2.844c8.2.031,16.4-.165,24.59.063,6.958.194,13.9.985,20.856,1.247,3.179.12,6.385-.616,9.574-.58,9.992.115,19.987.712,29.972.564,12.736-.189,25.477-.618,38.041-3.25C129.964.17,133.616.582,137.1.063c2.71-.4,3.4,1.2,4.064,3.084a5.5,5.5,0,0,1,.078,1.668c.228,12.824.584,25.647.633,38.471.03,7.95-.233,15.912-.68,23.851-.469,8.342-.927,16.717-2.084,24.98-1.683,12.009-4.044,23.922-6.015,35.893a336.526,336.526,0,0,1-12.656,51.86c-2.174,6.526-2.747,13.57-4.436,20.281-.913,3.628-2.881,6.98-3.956,10.581a224.724,224.724,0,0,1-13.731,35.782c-4.681,9.428-10.158,18.46-15.246,27.687-2.133,3.869-4.193,7.778-6.249,11.689a4.145,4.145,0,0,0,.3,4.99c1.417,2.045,1.707,4.948,2.211,7.53.945,4.847,1.977,9.706,2.435,14.61.452,4.844.2,9.751.347,14.627a9.22,9.22,0,0,0,.7,3.776c6.58,13.036,14.77,25.1,23.258,36.91a185.592,185.592,0,0,0,17.536,20.931A154.424,154.424,0,0,1,147.323,421.3c3.371,5.976,7.32,11.682,10.119,17.91a246.714,246.714,0,0,1,8.907,23.836c3.392,10.272,4.431,21.023,5.457,31.725.873,9.1,1.455,18.239,2.066,27.367.739,11.045,1.272,22.106,2.094,33.144.453,6.081,1.416,12.122,1.971,18.2.5,5.517-2.026,9.451-7.137,12.192-1.594.855-2.682,2.771-4.312,3.409a32.3,32.3,0,0,1-8.049,1.873,130.266,130.266,0,0,1-16.426,1.319c-10.468-.135-20.936-.68-31.389-1.313-7.325-.443-14.611-1.657-21.936-1.907a137.779,137.779,0,0,1-26.93-3.445,19.953,19.953,0,0,0-4.069-.047,4.906,4.906,0,0,1-4.8-4.773c.111-3.536.755-7.083.569-10.593-.247-4.65-1.172-9.261-1.616-13.906a73.813,73.813,0,0,1-.141-7.956c.014-1.065.451-2.127.457-3.191.041-7.818.376-15.657-.079-23.449-.436-7.47-1.748-14.888-2.6-22.336-.525-4.563-.953-9.138-1.366-13.713q-1.392-15.411-2.72-30.827-.4-4.613-.679-9.236-.713-12.124-1.363-24.252c-.474-8.876-.907-17.754-1.366-26.631-.447-8.651-.841-17.305-1.376-25.951-.606-9.808-1.223-19.617-2.059-29.407-.734-8.591-1.675-17.167-2.71-25.728-1.249-10.328-2.775-20.623-4.02-30.951-.644-5.342-.814-10.739-1.425-16.086-.775-6.778-1.839-13.523-2.668-20.3-.558-4.558-1.032-9.133-1.356-13.713-.54-7.625-.811-15.269-1.413-22.888-.786-9.945-1.776-19.875-2.694-29.809-.433-4.686-.816-9.38-1.377-14.052-.827-6.886-1.845-13.749-2.675-20.634-.369-3.062-.457-6.156-.708-9.233-.438-5.366-.886-10.731-1.379-16.092-.055-.6-.43-1.171-.657-2.1m82.613,122.39c1.473-2.861,2.958-5.715,4.394-8.595.1-.2-.168-.579-.265-.875-.158.125-.391.217-.464.38-1.347,3.025-2.674,6.058-4.345,9.089a38.162,38.162,0,0,0-2.29,3.715,7.6,7.6,0,0,0-.3,2.4,6.139,6.139,0,0,0,1.3-1.471,41.115,41.115,0,0,1,1.976-4.649m1.7-21.418c.453-.833.88-1.681,1.364-2.5,7.537-12.7,11.96-26.779,17.556-40.323,2.679-6.484,4.286-13.44,6.032-20.271,2.077-8.126,4.042-16.3,5.572-24.54,1.478-7.966,2.329-16.047,3.478-24.075,1.346-9.411,3.093-18.783,3.973-28.237.918-9.854,1.326-19.784,1.386-29.684.082-13.5-.357-27.009-.629-40.513a17.159,17.159,0,0,0-.72-4.459,2.163,2.163,0,0,0-1.642-1.223,91.482,91.482,0,0,0-9.554.7c-5.317.754-10.572,2.209-15.9,2.532-9.669.585-19.379.857-29.064.716C64.012,6.612,46.395,7.8,28.789,5.726c-7.712-.909-15.621-.2-23.438-.072-.72.012-2.039,1.175-2.028,1.784A72.088,72.088,0,0,0,4.1,16.946C4.8,21.6,5.851,26.2,6.6,30.853c.994,6.182,1.794,12.4,2.76,18.583,1.078,6.906,2.332,13.785,3.354,20.7.81,5.478,1.336,11,2.078,16.488,1.087,8.036,2.332,16.051,3.363,24.094.8,6.275,1.406,12.576,2.06,18.87.926,8.915,1.881,17.827,2.7,26.752.566,6.148.921,12.315,1.385,18.472.207,2.741.409,5.483.684,8.217.886,8.805,1.874,17.6,2.683,26.414.4,4.31.331,8.663.741,12.971.8,8.361,1.8,16.7,2.679,25.054.5,4.793.852,9.6,1.383,14.392.852,7.676,1.792,15.343,2.708,23.012.438,3.667.606,7.407,1.517,10.955.323,1.256,2.366,2.41,3.857,2.9a4.025,4.025,0,0,0,3.386-1.207,28.346,28.346,0,0,0,3.865-5.849c.43-.838.042-2.1.027-3.163-.627.576-1.216,1.2-1.892,1.715-.742.562-1.565,1.018-2.352,1.519a22.052,22.052,0,0,1,.448-3.008c1.546-5.36,3.408-10.644,4.675-16.067,1.507-6.452,2.436-13.037,3.771-19.532,1.627-7.919,3.533-15.782,5.1-23.713,1.31-6.635,2.3-13.332,3.436-20s2.283-13.337,3.393-20.01c.618-3.719,1.155-7.452,1.755-11.174.993-6.158,2.581-12.287,2.867-18.476.366-7.924-.291-15.9-.542-23.849-.2-6.253-.342-12.51-.708-18.754-.282-4.808-.8-9.607-1.341-14.4-1.083-9.622-2.269-19.232-3.374-28.851-.313-2.725-.488-5.466-.731-8.2-.438-4.917-.92-9.831-1.265-14.755-.04-.573.668-1.2,1.029-1.8.319.548.851,1.069.924,1.648.734,5.831,1.495,11.662,2.045,17.511.578,6.146.72,12.339,1.436,18.466,1.182,10.11,2.943,20.156,3.948,30.28.855,8.611,1.061,17.291,1.413,25.947.175,4.3.207,8.62-.018,12.915-.24,4.583-.755,9.159-1.342,13.714-.536,4.156-1.4,8.27-1.993,12.42-.966,6.755-1.6,13.566-2.792,20.279-1.584,8.922-3.665,17.754-5.358,26.658-1.922,10.107-3.373,20.311-5.55,30.36-1.854,8.556-4.474,16.945-6.664,25.432-.173.669.362,1.521.568,2.289.7-.4,1.9-.691,2.028-1.233,1.921-8.029,6.383-14.838,10.253-21.946,6.145-11.286,10.4-23.358,14.266-35.56,1.784-5.626,3.187-11.373,4.815-17.049a14.87,14.87,0,0,1,1.177-2.406c.28.919.965,1.934.775,2.743-1.232,5.246-2.668,10.444-4,15.667a23.847,23.847,0,0,0-.378,2.644c.707-.691,1.423-1.374,2.116-2.079a1.454,1.454,0,0,0,.285-.558c2.724-8.164,5.682-16.26,8.105-24.513a166.054,166.054,0,0,0,6.258-35.518c.452-6.568,1.73-13.08,2.64-19.616a44.459,44.459,0,0,1,.807-5.114c.168-.644,1.035-1.105,1.583-1.649.336.637.977,1.286.953,1.909-.084,2.178-.352,4.353-.633,6.519-1.114,8.6-2.294,17.189-3.371,25.792-.355,2.836-.078,5.8-.772,8.537-2.361,9.3-4.7,18.637-7.673,27.755-2.656,8.151-6.027,16.079-9.31,24.012-1.241,3-3.412,5.613-4.652,8.612a240.023,240.023,0,0,1-19.055,36.65,8.8,8.8,0,0,0-.65,2.729c.948-.538,2.184-.853,2.8-1.648,6.562-8.475,12.966-17.072,19.53-25.545,8.952-11.556,16.324-24.069,23.162-37.466m9.179,158.087c-.723-.949-1.479-1.875-2.163-2.852-8.918-12.736-17.8-25.5-26.785-38.185a6.141,6.141,0,0,0-2.932-1.768,11.119,11.119,0,0,0-12.25,2.676c-5.668,5.44-11.142,11.149-10.5,19.7.484,6.412,1.976,12.747,2.994,19.12.578,3.621,1.209,7.239,1.579,10.882.085.839-.8,1.776-1.244,2.668a7.888,7.888,0,0,1-1.355-2.267c-.992-5.161-1.881-10.342-2.756-15.525-.717-4.245-1.448-8.491-2.019-12.756-.379-2.832.262-6.053-.882-8.472-1.853-3.916-4.776-7.331-7.32-10.905-.231-.324-1.274-.528-1.453-.336a2.373,2.373,0,0,0-.541,1.668c.4,4.124,1.024,8.23,1.3,12.361.557,8.418.943,16.847,1.39,25.273.459,8.651.89,17.3,1.367,25.954.427,7.746.927,15.489,1.345,23.236.276,5.116.43,10.239.7,15.356.158,2.97.378,5.939.679,8.9.873,8.581,1.819,17.154,2.7,25.733.493,4.794.893,9.6,1.372,14.394.891,8.919,2.046,17.819,2.635,26.757.416,6.319.022,12.688.112,19.033.032,2.289.637,4.576.6,6.857-.064,4.215-.879,8.465-.528,12.629.6,7.093,2.092,14.1.7,21.286-.178.919,1.159,2.967,2.04,3.125,7.537,1.354,15.13,2.393,22.707,3.526,2.377.356,3.205-.654,3.039-3.031-.534-7.626-.921-15.262-1.395-22.892-.432-6.953-.792-13.913-1.382-20.853-.8-9.38-1.817-18.74-2.677-28.115-.323-3.524.226-7.288-.83-10.552-2.823-8.723-2.046-17.978-5.092-26.762-4.038-11.645-6.543-23.82-9.738-35.758-2.238-8.361-4.674-16.673-6.725-25.08a66.107,66.107,0,0,1-1.34-10.985c-.051-.717,1.053-1.516,1.625-2.276a10.961,10.961,0,0,1,.978,2.259c.739,3.9,1.147,7.878,2.114,11.717,2.347,9.317,4.964,18.565,7.425,27.853,2.518,9.5,4.972,19.019,7.481,28.522a18.87,18.87,0,0,0,.947,2.325,9.678,9.678,0,0,0,.379-2.724c-.589-3.925-1.211-7.852-2.025-11.735-1.417-6.761-2.573-13.616-4.582-20.206-3.345-10.975-6.392-21.962-6.9-33.489-.036-.81.69-1.654,1.061-2.482.535.911,1.41,1.775,1.542,2.74.4,2.942.1,6.028.818,8.87,2.527,10.028,5.62,19.917,8,29.978,1.6,6.786,2.4,13.765,3.473,20.671.811,5.238,1.316,10.527,2.247,15.741,1.389,7.776,3.23,15.474,4.51,23.266,1.179,7.172,1.812,14.433,2.793,21.64,1.063,7.813,2.957,15.587,3.195,23.418.263,8.676,2.28,16.844,4.146,25.19,2.559,11.441,9.344,15.77,20.374,16.171,2.631.1,5.265.338,7.875.682,4.179.552,5.862-.824,5.869-5.01a56.891,56.891,0,0,1,.03-5.776c.837-8.018,2.535-16.023,2.545-24.035.026-21.145,1.5-42.371-1.942-63.4-1.047-6.4-2.387-12.785-4.06-19.052-4.808-18.009-13.245-34.419-22.344-50.582-9.24-16.413-18.03-33.083-26.832-49.737a137.713,137.713,0,0,1-6.226-14.412c-.437-1.122.11-2.628.2-3.957.73.735,1.739,1.341,2.147,2.225,3.64,7.895,6.887,15.984,10.818,23.727,4.007,7.893,8.664,15.456,13.021,23.172,3.578,6.336,7.074,12.718,10.714,19.017,4.073,7.05,8.791,13.781,12.276,21.1,4.491,9.439,7.979,19.352,12,29.018,5.835,14.021,8.306,28.756,9.141,43.786.391,7.043.155,14.128.04,21.191-.1,6.141-.346,12.283-.675,18.416-.357,6.656-1.2,13.3-1.2,19.953,0,3.293.043,7.352,3.475,9.33,5.8,3.345,12.135,4.615,18.612,2.169a6.234,6.234,0,0,0,3.465-3.912,54.443,54.443,0,0,0,.709-11.337c-.235-7.307-.811-14.6-1.23-21.9-.052-.9.068-1.82-.019-2.718q-1.332-13.888-2.713-27.772c-.423-4.235-.761-8.485-1.384-12.692-1.261-8.517-2.677-17.012-4.055-25.512-.911-5.623-1.41-11.363-2.9-16.829-2.548-9.318-5.752-18.457-8.646-27.681-4.328-13.8-11.213-26.324-19.167-38.29-4.569-6.873-9.427-13.554-14.495-20.662m45.9,90.093a8.784,8.784,0,0,0,.009,1.359c.893,5.632,1.861,11.252,2.694,16.892.759,5.145,1.358,10.314,2.061,15.467,1.346,9.862,2.828,19.707,4.032,29.587.692,5.675,1.066,11.4,1.377,17.108q.818,15.006,1.343,30.028c.07,1.935-.5,3.886-.565,5.837-.014.407,1.067,1.305,1.347,1.2,3.942-1.5,7.578-3.429,7.762-8.378a44.14,44.14,0,0,0-.346-5.367c-.44-5.138-1.013-10.268-1.333-15.414-.75-12.064-1.346-24.137-2.077-36.2-.367-6.049-.664-12.116-1.4-18.126-1.164-9.544-2.062-19.186-4.2-28.528a142.134,142.134,0,0,0-8.69-26.952c-4.9-10.806-11.047-21.073-17.061-31.335-3.085-5.263-7.02-10.032-10.658-14.961-.4-.544-1.373-.666-2.081-.984a7.815,7.815,0,0,0,.8,2.3,110.678,110.678,0,0,1,14.554,26.271,280.952,280.952,0,0,1,12.43,40.2M45.716,304.069c-5.608-1.133-8.624,1.041-7.851,5.506.609,3.516.96,7.078,1.385,10.624.479,3.992.806,8.007,1.467,11.968.114.685,1.52,1.553,2.389,1.627a31.034,31.034,0,0,0,4.618-.474c3.86-.269,7.788-.114,11.57-.793s7.405-2.329,11.17-3.251c3.2-.784,4.93-2.666,4.776-5.816-.262-5.361-.709-10.724-1.366-16.051a44.552,44.552,0,0,0-2.029-8.3c-.758-2.316-2.161-3.615-5.024-2.563-6.874,2.526-13.838,4.807-21.106,7.527m8.5-15.979c-1.762,2.442-3.568,4.855-5.257,7.347a8.484,8.484,0,0,0-.733,2.3,9.465,9.465,0,0,0,2.743-.337,69.808,69.808,0,0,0,8.752-4.277,29.529,29.529,0,0,0,7.319-5.881,117.168,117.168,0,0,0,8.3-12.161C80.074,267.544,85,260.1,89.2,252.265c3.552-6.624,6.189-13.738,9.236-20.633,2.158-4.884,4.342-9.757,6.46-14.658a5.6,5.6,0,0,0,.124-1.829,6.359,6.359,0,0,0-1.417,1.161,44.294,44.294,0,0,0-2.46,4.074c-3.933,7.432-7.307,15.222-11.872,22.24-5.87,9.025-12.56,17.532-19.135,26.078-5,6.5-10.373,12.712-15.92,19.392m76.154,201.264a6.994,6.994,0,0,1,.657,1.759c.714,8.209,1.732,16.411,1.978,24.635.339,11.314.145,22.647.054,33.97-.034,4.211-.341,8.425-.666,12.627-.62,7.99-1.328,15.973-2.032,23.956-.181,2.049.666,2.719,2.7,2.718,2.4,0,4.792.462,7.194.591a8.842,8.842,0,0,0,2.354-.525c-.519-.672-.91-1.731-1.577-1.949-3.162-1.035-5.316-2.976-5.862-6.276A39.826,39.826,0,0,1,134.5,573c.325-8.99.9-17.97,1.3-26.957.3-6.85.481-13.7.691-20.558a150.637,150.637,0,0,0-2.778-32.835c-.944-4.963-2.532-9.806-3.894-14.685-.129-.464-.734-.794-1.118-1.187a9.054,9.054,0,0,0,.007,1.381c.542,3.508,1.108,7.012,1.668,11.2M95.352,583.526c-1.358-2.718-3.13-5.311-4-8.178-2.453-8.125-4.495-16.357-4.538-24.955a87.021,87.021,0,0,0-.677-10.236c-1.036-8.367-2.23-16.714-3.37-25.068-.438-3.208-.865-6.419-1.4-9.612-.086-.519-.695-.951-1.062-1.423a6.9,6.9,0,0,0-.241,1.589c.425,5.245.82,10.493,1.359,15.727.847,8.228,2.005,16.43,2.653,24.672.883,11.242,1.5,22.507,2.049,33.771.247,5.1.044,5.1,5.065,5.764,1.16.153,2.3.447,3.453.667.773.148,1.55.281,2.325.42a28.258,28.258,0,0,0-1.621-3.138M72.574,292.17a4.547,4.547,0,0,0,.023,1.468c.859,2.361,2.278,4.63,2.609,7.052,1.137,8.318,1.891,16.689,2.834,25.034a4.77,4.77,0,0,0,.753,1.462c.42-.459,1.187-.906,1.2-1.379a60.226,60.226,0,0,0-.018-9.164c-.687-5.771-1.684-11.508-2.669-17.239-.52-3.025-.585-6.416-4.736-7.235M49.456,337.726l-3.27-.13c.537.85,1.061,1.708,1.614,2.548,1.225,1.864,2.432,3.74,3.717,5.563a7.208,7.208,0,0,0,1.424,1.2c.264-.405.518-.816.792-1.214,1.511-2.2,3.032-4.384,4.535-6.584.469-.687.893-1.406,1.337-2.111a12.525,12.525,0,0,0-2.921-.251,67.3,67.3,0,0,1-7.228.981m25.5-53.376c1.436-2.569,2.931-5.107,4.261-7.729.305-.6.039-1.494.036-2.252a6.661,6.661,0,0,0-1.652,1.26q-4.855,7.123-9.568,14.341a5.441,5.441,0,0,0-.323,2.094c.705-.182,1.71-.129,2.066-.584,1.709-2.188,3.243-4.513,5.18-7.129m36.377-81.933c-.789,1.922-1.605,3.834-2.344,5.775a3.992,3.992,0,0,0-.009,1.364,9.859,9.859,0,0,0,.987-.9c2.927-3.462,3.86-7.663,4.4-12a5.357,5.357,0,0,0,0-.7c-.332.184-.847.289-.966.565a44.678,44.678,0,0,0-2.07,5.894M78.353,486.974c-.3.078-.879.2-.875.227.508,2.893,1.045,5.781,1.631,8.658.045.221.451.368.689.549a2.448,2.448,0,0,0,.238-.9,84.882,84.882,0,0,0-1.683-8.532m27.878-267.9a41.338,41.338,0,0,0,1.645-3.958c.121-.387-.423-.982-.662-1.482a7.181,7.181,0,0,0-1.092,1.9A8.525,8.525,0,0,0,106.231,219.076Z" transform="translate(6227 227)"/></svg>