<svg xmlns="http://www.w3.org/2000/svg" viewBox="2175.438 347.764 489.92 496.732"><defs><style>.a{fill:#424242;}</style></defs><g transform="translate(2175.438 487.416) rotate(-22)"><path class="a" d="M162.96.092c3.681-.5,6.365,1.112,8.883,3,4.971,3.722,8.831,8.151,9.017,14.832a19.773,19.773,0,0,0,.662,5.683,11.814,11.814,0,0,0,2.911,4.715c6.214,5.838,13.456,10.314,20.759,14.592,4.062,2.379,4.427,7.915,2.5,11.249-1.345,2.328-1.728,5.238-2.4,7.923-.52,2.089-.775,4.243-1.227,6.351-.617,2.877.1,3.46,3.019,3.837,3.88.5,7.694,1.512,11.535,2.312a100.159,100.159,0,0,1,24.541,8.362c7,3.5,14.058,6.927,20.8,10.873a41.849,41.849,0,0,1,8.791,7.524c5.62,5.915,11.588,11.646,16.274,18.26,4.772,6.735,8.251,14.4,12.135,21.744,1.112,2.1,2.784,1.706,4.489,1.776,1.092.045,2.459-.226,3.227.317a47.552,47.552,0,0,0,24.456,8.623c5.028.372,7.2,2.582,7.2,7.22.011,6.66-.985,7.082,7.221,5.977,8.044-1.083,16.24,1.647,21.92,10.524a23.509,23.509,0,0,1,2.256,6.2c2.591,9-.857,17.452-8.374,23.211-4.857,3.721-9.7,7.021-15.838,7.855a34.015,34.015,0,0,1-5.6-.123c-1.592-.052-3.112-.692-3.475,2.08-.586,4.468-2.016,5.22-6.675,5.608-7.3.609-14.063,3.243-20.752,5.981-2.417.989-2.557,3.565-2.855,5.833-.606,4.618-.627,9.407-1.933,13.816-1.684,5.689-4.3,11.117-6.68,16.582-2.538,5.816-6.664,10.588-10.989,15.081a125.072,125.072,0,0,1-12.557,11.373c-5.391,4.258-10.99,8.294-16.774,12a146.178,146.178,0,0,1-14.825,8.055c-5.689,2.775-11.569,5.156-17.3,7.843-.955.448-2.269,1.591-2.257,2.395.059,3.767-2.58,6.126-4.127,9.07-2.951,5.616-5.462,11.471-8.571,16.994-2.607,4.63-5.831,8.911-8.72,13.386a6.343,6.343,0,0,0-1.283,3.014,27.331,27.331,0,0,1-6.919,17.935,16.21,16.21,0,0,1-9.426,4.887c-7.759,1.006-15.144-.778-21.028-6.474a61.637,61.637,0,0,1-4.4-5.261c-.364-.441-.621-1.05-1.081-1.322-7.341-4.353-10.163-11.846-13.188-19.13-2.745-6.609-5.192-13.342-7.786-20.014-.765-1.967-1.584-3.912-2.379-5.867-1.267-3.118-4.5-3.031-6.887-3.564-7.006-1.566-13.5-4.35-19.93-7.33-5.84-2.706-11.806-5.3-17.22-8.723a67.657,67.657,0,0,1-17.447-15.415c-1.454-1.865-3.378-3.358-5.013-5.091-7.42-7.863-13.693-16.487-17.721-26.622-1.482-3.729-5.357-4.286-8.429-5.37-6.673-2.354-13.773-3.55-19.922-7.3-4.161-2.536-8.948-4.4-11.272-9.16a20.406,20.406,0,0,1-1.269-4.53c-.077-.345.28-.787.438-1.184.392.252,1.007.417,1.144.768,3,7.673,10.266,9.513,16.809,12.344,5.474,2.368,10.928,4.788,16.431,7.087a9.17,9.17,0,0,0,2.824.223,15.074,15.074,0,0,0-.365-2.45c-1.28-4.034-2.832-8-3.864-12.09-.6-2.388-1.691-3.138-3.993-2.96a7.615,7.615,0,0,1-2.616-.81c.766-.7,1.425-1.777,2.32-2.038,2.092-.61,2.755-1.285,1.934-3.658a32.68,32.68,0,0,1-1.266-8.112c-.33-4.277-.632-8.575-.566-12.859a63.157,63.157,0,0,1,1.113-9.652c.478-2.78-.795-4.462-2.983-5.7-1.275-.724-2.7-1.19-3.946-1.957-.6-.371-.943-1.169-1.4-1.773a16,16,0,0,1,2.223-1.61A4.614,4.614,0,0,1,37,187.13c5.713-.276,6.335-4.759,7.369-8.908.179-.717.419-1.419.589-2.138.544-2.31-.657-3.061-3.128-2.8a118.487,118.487,0,0,1-13.983.753c-5.084-.066-8.835,1.192-10.358,6.672-1.079,3.881-2.752,7.594-4.1,11.4a2.221,2.221,0,0,0,2.429,3.087c5.939-.738,15.317,4.075,18.166,9.355,1.093,2.025,2.89,4.047,3.006,6.145.249,4.484.047,9.088-2.235,13.249-2.117,3.86-6.093,5.036-9.674,6.748-3.641,1.741-7.519.69-11.264.5-1.4-.072-2.836-1.33-4.063-2.293-3.809-2.988-7.3-6.5-8.773-11.1-1.842-5.774-1.3-11.765,3.262-16.178,3-2.907,2.989-6.407,3.73-9.833.658-3.043.679-6.24,1.491-9.231,1.827-6.732,6.345-11.041,12.932-13.228a10.121,10.121,0,0,0,1.538-.6,16.03,16.03,0,0,1,8.609-1.928,64.935,64.935,0,0,0,12.89-1.149A4.678,4.678,0,0,0,48.41,163.1c3.534-8.767,6.411-17.829,10.41-26.369,3.1-6.617,6.462-13.236,11.51-18.811,2.558-2.825,4.115-6.555,6.666-9.388,4.29-4.766,8.9-9.26,13.607-13.626a26.611,26.611,0,0,1,6.585-4.181c2.835-1.367,5.01-.745,6.877,1.79,6.439,8.739,13.272,17.19,20.023,25.7,2.279,2.872,4.738,5.6,7.165,8.351a6.957,6.957,0,0,0,1.629,1.038c-.1-.673.014-1.516-.349-1.994-3.512-4.623-7.2-9.116-10.654-13.78-6.236-8.417-12.535-16.8-18.361-25.5-1.233-1.841-1.231-5.155-.6-7.459,1.1-3.987,2.579-8.007,6.666-10.335a9.358,9.358,0,0,0,3.159-3.7c2.576-4.778,5.163-9.569,7.356-14.528,1.853-4.19,3.125-8.634,4.75-12.929a6.549,6.549,0,0,1,1.652-2.281c1.438-1.366.573-2.03-.652-2.693-.561-.3-1.088-.669-1.63-1.006.475-.481.866-1.193,1.44-1.4a31.163,31.163,0,0,1,6.08-1.826,46.527,46.527,0,0,1,6.545-.069c4.3-.006,4.154-.018,4.466-4.154a32.6,32.6,0,0,1,1.438-6.539c.6-2.069,1.936-3.961.932-6.3a2.174,2.174,0,0,1,.2-1.94c3.937-3.818,7.015-9.037,13.7-8.516A21.5,21.5,0,0,0,162.96.092M44.967,220.883a42.152,42.152,0,0,0,.461,5.771c.913,4.261,1.894,8.523,3.163,12.689,1.175,3.858,2.112,8.021,4.288,11.3,6.252,9.414,12.782,18.682,19.791,27.542a93.07,93.07,0,0,0,14.268,14.266A194.529,194.529,0,0,0,105.9,305.569c7.481,4.729,14.6,10.251,23.512,12.25a6.217,6.217,0,0,0,1.645-.076,6.7,6.7,0,0,0-.218-1.433c-.882-2.315-1.911-4.579-2.7-6.925-.776-2.321-.694-4.043,2.4-4.963,4.914-1.461,9.649-3.527,14.44-5.39,2.457-.955,4.18-.218,4.842,2.328a30.7,30.7,0,0,1,.614,3.919c.829,6.63,3.5,12.608,6.61,18.41a2.893,2.893,0,0,0,2,1.137,68.869,68.869,0,0,0,8.388.606c9.254-.1,18.531-.033,27.745-.742,3.155-.243,7.909,1.31,9.247-3.991.071-.282.774-.528,1.205-.574,2.3-.244,4.749.022,6.874-.7,7.128-2.414,14.393-4.647,21.135-7.919,10.238-4.968,20.581-9.874,29.607-17.02,8.875-7.026,17.732-14.055,23.9-23.793,4.255-6.718,9.032-13.158,11.368-20.912,1.731-5.743,3.3-11.534,5.1-17.256,1.669-5.317,3.613-10.465,4.4-16.121.542-3.91-1.391-8.461,2.106-11.886.158-.154-.089-.719-.143-1.093a54.185,54.185,0,0,1-.961-7.026c-.041-3.291.734-6.624.442-9.873-.43-4.769-1.737-9.456-2.208-14.223-.336-3.4-2.613-4.732-5.094-5.8s-5.044-1.358-7.314,1.06a63.845,63.845,0,0,1-5.741,4.76c-.972.817-1.862,1.731-2.789,2.6,1.226.123,2.452.343,3.679.352,5.32.039,5.951.561,7.665,5.607s3.535,10.052,5.44,15.026c.824,2.151.79,4.1-.674,5.856-2.474,2.971-4.512,6.027-4.32,10.193.03.65-2.219,2.127-2.451,1.951-1.751-1.328-3.634-.1-5.291-.54-3.011-.805-4.945.633-6.839,2.547q-5.222,5.275-10.5,10.495c-1.584,1.563-2.771,1.716-4.082-.614a17.253,17.253,0,0,0-4.258-4.431,58,58,0,0,0-5.561-3.811,5.488,5.488,0,0,0-2.027-.836c-4.129-.657-4.2-.655-4.125-4.754.021-1.212.508-2.414.539-3.627.059-2.284.566-4.785-1.688-6.426-2.075-1.51-1.106-2.864-.019-4.341.83-1.128,2.221-2.33,2.221-3.5,0-5.612.949-11.307-2.11-16.671-1.888-3.311-1.049-4.373,2.487-6.3,9.729-5.3,19.4-10.7,29.1-16.07,4.121-2.281,8.162-4.721,12.377-6.81,3.88-1.922,4.671-4.216,2.123-7.995-1.584-2.349-3.438-4.517-5.021-6.867-5.112-7.584-9.58-15.672-16.846-21.557-2.125-1.721-4.373-3.3-6.627-4.851-5.324-3.668-10.435-7.746-16.093-10.805-8.15-4.407-16.679-8.121-25.1-12.008q-9.623-4.44-19.4-8.546c-2.815-1.182-5.68-.375-5.993,1.421-.5,2.9-.778,5.83-1.231,8.735-.769,4.935-1.495,9.882-2.449,14.782-.532,2.733-3.287,3.667-5.609,1.964A10.575,10.575,0,0,1,191,99.435a12.963,12.963,0,0,0-6.049-5.265,12.131,12.131,0,0,1-4.189-3.425c-.611-.754-.4-2.194-.474-3.33a2.558,2.558,0,0,1,.956-.3c.316.672.378,1.546.848,2.045a11.07,11.07,0,0,0,2.327,1.511c.2-.855.784-1.861.521-2.537a8.707,8.707,0,0,1,.633-7.645,6.846,6.846,0,0,0,.641-2.694c.03-.459-.414-1.35-.676-1.363-2.074-.1-4.417-.654-6.188.093-6.272,2.645-12.949,1.795-19.393,2.794-4.8.744-9.631,1.221-14.449,1.817-6.424.795-12.851,1.567-19.268,2.409-.893.117-2.316.39-2.481.911a3.882,3.882,0,0,0,.549,2.942,116.071,116.071,0,0,0,7.6,10.54,76.543,76.543,0,0,0,7.717,7.192c.367.327,1.052.3,1.59.432a5.234,5.234,0,0,0,.271-1.368c-.158-2.2-.574-4.408-.536-6.606.076-4.424,1.189-5.318,5.587-5.136,5.577.231,11.156.522,16.735.56a61.745,61.745,0,0,0,10.15-.668c3.514-.563,5.551.734,5.635,4.134.167,6.771.416,13.54.58,20.311.226,9.351.439,18.7.541,28.057.009.808-.9,2.357-1.292,2.329-5.541-.39-11.043,1.366-16.662-.165-3.241-.883-6.867-1.191-9.574,2.287-.592.76-3.359.719-4.436.007-1.8-1.187-3.041-3.21-4.511-4.888Q133.17,132.4,122.647,120.365c-1.954-2.243-3.886-4.514-5.68-6.885-4.684-6.186-9.224-12.483-13.993-18.6-.638-.819-2.715-1.569-3.363-1.156-4.282,2.729-8.695,5.416-12.4,8.836-3.8,3.5-6.889,7.787-10.191,11.81-3.023,3.683-6.4,7.194-8.775,11.27A182.269,182.269,0,0,0,50.467,167.1c-2.529,8.778-3.616,17.965-5.527,26.93-1.887,8.853-1.185,17.691.027,26.849M168.324,49.256c-2.234.844-4.418,2.178-6.714,2.414-3.342.344-7.053.7-10.086-.4-4.676-1.687-7.636-5.688-9.448-10.424-.888-2.32-1.677-4.846-3.209-6.7-1.637-1.984-9.263-.837-10.869,1.226a3.314,3.314,0,0,0-.767,1.458c-.869,6.873-4.831,12.517-7.551,18.622a105.332,105.332,0,0,1-10.967,18.427c-2.6,3.62-4.55,8.015-1.731,12.524,3.616,5.784,7.319,11.533,11.339,17.038,3.5,4.793,7.71,9.067,11.22,13.854,6.224,8.488,12.111,17.223,18.229,25.791,2.825,3.957,4.382,3.984,7.84.526,2.375-2.375,4.772-4.729,7.1-7.153a1.484,1.484,0,0,0,.163-1.416c-4.376-5.06-8.727-10.146-13.269-15.056-2.3-2.49-5.1-4.518-7.448-6.973-4.507-4.717-9.034-9.438-13.2-14.453a104.47,104.47,0,0,1-7.205-10.7c-1.185-1.855-.526-3.643.7-5.241a46.766,46.766,0,0,0,3.518-4.459c1.821-3.093,3.513-6.276,5.047-9.521,2.589-5.475,5.011-11.03,7.516-16.545a11.255,11.255,0,0,1,.723-1.19c.421.312,1.178.6,1.206.94a11.135,11.135,0,0,1-.082,4.385,53.057,53.057,0,0,1-3.3,6.966c-2.058,3.919-4.252,7.767-6.255,11.713-.363.716-.085,1.757-.1,2.648a18.361,18.361,0,0,0,3.562-.295c.856-.233,1.508-1.233,2.363-1.452,7.01-1.8,14.012-3.661,21.088-5.17a77.316,77.316,0,0,1,13.774-1.894c3.532-.1,7.1.953,10.648,1.484,2.228.333,4.539.774,5.454-2.145a21.555,21.555,0,0,0,.949-4.068c.339-3.121-1.9-5.088-3.688-7.074-2.91-3.228-6.135-6.17-9.152-9.305-.365-.379-.263-1.207-.377-1.827.69.2,1.563.2,2.041.639,3.483,3.17,7.084,6.246,10.25,9.715,2.458,2.694,4.98,5.71,3.782,9.9-.677,2.363-1.235,4.521,1.774,5.734.384.155.677.935.692,1.435.007.239-.707.646-1.141.728a4.761,4.761,0,0,0-4.18,4.285,28.819,28.819,0,0,1-1.333,5.1c-.82,2.223-.8,4.129,1.219,5.7,1.959,1.519,3.818,3.18,5.86,4.575s3.108.7,3.234-1.767a60.558,60.558,0,0,1,.64-8.679c1.836-9.236,3.928-18.42,5.9-27.63.542-2.534.15-4.627-2.444-6.044a32.445,32.445,0,0,1-4.266-3.383c-4.78-3.8-9.6-7.547-14.334-11.4-1.552-1.262-2.959-.654-3.3.706-1.568,6.341-6.672,9.636-11.409,13.83m-2.086,298.261c2.269-1.474,4.569-2.9,6.8-4.432a16.26,16.26,0,0,1,16.534-1.549c4.173,2.062,7.032,6.884,10.282,10.648.985,1.141,1.33,2.833,1.969,4.273a35.127,35.127,0,0,0,2.936-3.4c2.225-3.328,5.1-6.487,6.3-10.175,2.235-6.858,5.7-12.977,9.3-19.1.547-.931,1.006-1.914,1.506-2.872-1.332,0-2.664,0-4,.019-.071,0-.128.166-.213.2-2.938,1.056-5.908,2.032-8.812,3.175-3.059,1.2-6.293,2.277-6.607,6.422-.05.661-.818,1.268-1.254,1.9-.557-.61-1.509-1.166-1.6-1.84-.339-2.461-1.654-3.241-3.964-2.94-1.995.259-4,.52-6.007.589-7.263.249-14.528.424-21.793.61a29.552,29.552,0,0,1-4.463-.031c-2.029-.258-2.641.936-3.2,2.494a22.866,22.866,0,0,1-1.523,2.906,24.721,24.721,0,0,1-2.589-2.2,6.652,6.652,0,0,1-.933-1.981,3.513,3.513,0,0,0-3.432-2.454c-3.375-.236-6.711-1.01-10.078-1.44-.254-.032-1,1.008-.892,1.343,2.1,6.371,4.006,12.83,6.554,19.023,2.338,5.682,5.366,11.083,8.16,16.572.3.589,1.065.94,1.615,1.4a15.813,15.813,0,0,0,.743-2.071c.238-1.107.249-2.268.538-3.358,1.248-4.705,3.413-8.844,8.122-11.72M358.126,205.091c2.431-2.034,5.1-3.849,7.231-6.159,2.421-2.623,4.645-5.553,2.2-9.554a5.338,5.338,0,0,1-.157-3.469c1.318-6.442-1.038-11.562-6.826-14.8-8.455-4.724-16.288-2.02-24.009,1.947a4.884,4.884,0,0,0-1.943,1.805c-1.675,2.964-3.145,6.043-4.819,9.008-2.547,4.511-3.174,9.135-1.175,14,1.4,3.4,3.163,6.922,6.7,8.043,3.45,1.093,6.722,2.777,10.856,2.405a30.449,30.449,0,0,0,11.94-3.234m-33.67-5.661c-1.391-3.5-2.988-6.929-4.076-10.516a7.5,7.5,0,0,1,.255-5.177c3.078-5.8,6.289-11.517,13.544-13.281,3.653-.888,4.628-3,3.991-6.471a17.788,17.788,0,0,1-.561-3.921c.174-3.763-1.085-4.16-4.288-4.995-3.606-.94-7.4-1.267-10.9-2.481-4.93-1.71-9.632-4.071-14.509-5.952a4.475,4.475,0,0,0-3.178.574c-.315.163-.269,1.748.107,2.4,1.712,2.949,3.56,5.784,3.118,9.46a12.867,12.867,0,0,0,.258,3.257c.423,3,.863,5.989,1.353,8.973.257,1.566.773,3.1.928,4.669.539,5.458,1.584,10.968,1.224,16.377a29.22,29.22,0,0,0,.89,9.979,8.058,8.058,0,0,0,2.45,3.708c2.46,2.105,2.836,2.833.3,4.752-3.574,2.7-4.06,6.494-4.577,10.36-.21,1.57-.118,3.058,2.3,1.871a35,35,0,0,1,6.2-2.28c4.027-1.1,8.117-1.957,12.155-3.013,1.478-.386,3.876-.78,4.11-1.644.454-1.673.315-4.222-.717-5.452-3.17-3.775-6.878-7.1-10.377-11.193M177.859,20.652c-.993-2.766-2.034-5.515-2.969-8.3a12.354,12.354,0,0,0-12.016-8.658,21.03,21.03,0,0,0-4.217.588c-4.412,1-8.55,2.9-10.27,7.24a54.2,54.2,0,0,0-3.857,24.993,12.591,12.591,0,0,0,6.935,10.152c7.366,4.065,16.788,1.463,21.614-5.958a30.653,30.653,0,0,0,4.781-20.057M143.891,95.738a7.085,7.085,0,0,0-.569,1.836c-.067,2.378.486,4.908-.152,7.1-.879,3.024.862,4.15,2.646,5.684,4.105,3.529,8.287,7,12.1,10.835a84.157,84.157,0,0,1,7.946,9.734c.765,1.045,2.313,2.333.241,4.131-2.125,1.845-3.706,4.323-5.495,6.548-.854,1.062-1.291,1.542.722,2.216,4.856,1.627,9.648.682,14.468.444,1.233-.061,2.285-.6,2.091-2.294-.3-2.584-.545-5.185-.6-7.783q-.371-17.427-.587-34.856c-.03-2.712-1.07-4.05-3.848-3.9-4.081.218-8.166.577-12.247.558-5.472-.025-10.942-.354-16.71-.255m117.1,111.736.314,2.666c-.83-.422-1.671-.826-2.488-1.272s-1.6-.927-2.4-1.394c-.163.888-.356,1.771-.478,2.665a9.314,9.314,0,0,0-.01,1.487c.062,2.39,1.268,3.037,3.674,2.657,5.194-.822,10.429-1.383,15.649-2.039,3.182-.4,6.371-.74,9.548-1.178,2.52-.347,5.1-1.367,7.518-1.059,2.764.352,3.691-.4,3.522-2.915-.35-5.2-.761-10.395-1.19-15.588-.117-1.414-.46-2.809-.562-4.223-.095-1.314-.441-2.856.087-3.92,1.237-2.495.461-4.55-2.617-4.965a23.757,23.757,0,0,0-14.075,2.518c-5.417,2.779-10.552,6.139-16.067,8.687-2.948,1.362-4.113,2.545-4.578,6.112-.636,4.879-.071,8.51,4.154,11.762m-3.874-24.135c1.6,3.762,2.5,4.072,5.934,2.437,3.3-1.568,6.815-2.668,9.308-5.653a8.153,8.153,0,0,1,3.372-1.829c7.488-2.854,13.005-8.28,18.321-13.961,1.535-1.64,3.032-2.556,5.494-1.87,1.376.384,4.158.068,4.388-.6.67-1.934,1.1-4.549.285-6.26-1.207-2.534-2.966-5.335-6.531-5.3a5.317,5.317,0,0,0-2.335.789c-1.948,1.065-3.814,2.283-5.767,3.338-10.977,5.932-21.032,13.475-32.516,18.536-1.5.659-3.057,1.833-2.077,4.105a48.928,48.928,0,0,1,2.124,6.267M193.353,354.966a11.231,11.231,0,0,0-7.314-6.49c-3.161-.873-6.721-.312-10.106-.34-.225,0-.464.309-.677.5a49.11,49.11,0,0,0-5.394,4.884c-2.846,3.412-4.574,7.513-2.94,11.851,3,7.966,12.905,14.114,21.923,10.01,2.859-1.3,6-3.905,7.115-6.676a12.178,12.178,0,0,0-2.608-13.736M29.473,207.772c-1.842-3.537-3.584-6.937-8.059-8.123-6.26-1.66-10.879,1.025-14.565,5.318-2.622,3.054-4.028,6.971-2.415,11.275,4.224,11.277,14.224,12.744,21.764,4.846,3.336-3.494,3.289-8.19,3.275-13.317m42.609,78.364c7.7,7.707,15.105,15.787,25.016,20.823,5.814,2.954,11.694,5.781,17.571,8.609a4.761,4.761,0,0,0,1.808.068,7.913,7.913,0,0,0-1.232-1.212c-7.4-4.65-14.967-9.044-22.186-13.954A105.716,105.716,0,0,1,64.61,271.719c-2.627-3.909-5.489-7.663-8.308-11.439-.328-.439-1.069-.571-1.618-.845a4.922,4.922,0,0,0,.293,1.805c3.111,4.973,6.183,9.976,9.5,14.81,1.1,1.6,4.2,2.877,4.069,4.045-.342,3.084,1.892,4.022,3.536,6.041m76.577,27.115c-.795-2.549-1.583-5.1-2.386-7.646-.779-2.471-2.7-3.1-4.579-1.46-.9.781-1.633,1.746-2.546,2.5-3.864,3.205-4,3.674-1.986,8.217.26.587.558,1.162.763,1.768,2.159,6.377,6.164,9,12.6,8.242,1.7-.2,2.053-.879,1.334-2.528a84.257,84.257,0,0,1-3.2-9.1m5.065-239.264c-1.405.2-2.837.286-4.211.617-3.868.932-7.715,1.95-11.559,2.98a4.191,4.191,0,0,0-1.15.807,3.769,3.769,0,0,0,1.207.343c5.193-.368,10.408-.574,15.568-1.218,8.156-1.019,16.276-2.327,24.407-3.547a12.165,12.165,0,0,0,2.084-.7,18.845,18.845,0,0,0-1.9-1.056c-5.021-2.106-10.132-1.165-15.2-.285-2.917.507-5.774,1.363-9.254,2.062M258.309,93.355c-9.341-5.16-18.748-10.176-28.982-13.4-.456-.144-.94-.2-1.411-.3a4.056,4.056,0,0,0,.653,1.2,9.525,9.525,0,0,0,2.067,1.457c3.707,1.824,7.476,3.526,11.159,5.4,6.154,3.123,12.347,6.188,18.351,9.581,3.259,1.841,6.152,4.324,9.242,6.473a4.136,4.136,0,0,0,1.411.341c-.125-.537-.074-1.242-.4-1.586a38.947,38.947,0,0,0-12.09-9.163M304.493,246.21c.3-1.762.717-3.516.852-5.291a20.452,20.452,0,0,0-.352-3.648c-.47,1.1-.946,2.192-1.406,3.294a12.144,12.144,0,0,0-.577,1.547c-1.626,6.15-3.038,12.366-6.549,17.838-2.81,4.379-5.5,8.833-8.231,13.265a9.466,9.466,0,0,0-.592,1.432,7.725,7.725,0,0,0,1.809-.328,2.625,2.625,0,0,0,1.055-1.027c3.189-5.127,6.611-10.133,9.43-15.457,1.872-3.536,2.872-7.534,4.561-11.624m-23.837-29.8c.139-2.355.128-2.068-1.92-1.854-4.806.5-9.649.632-14.473.978a11.907,11.907,0,0,0-2.378.672,17.549,17.549,0,0,0,1.5,1.391,59.842,59.842,0,0,0,6.428,4.52,4.258,4.258,0,0,0,3.72.054c2.354-1.669,4.374-3.808,7.122-5.761m-245.82.894a73.974,73.974,0,0,0-.367-7.409c-.1-.692-1.35-1.223-2.074-1.828a13.1,13.1,0,0,0-.513,2.608c.023,4.887-.836,9.491-4.623,12.938a51.483,51.483,0,0,1-5.309,3.632c-.29.2-.39.68-.577,1.03a5.668,5.668,0,0,0,1.266.041c6.123-1.169,10.477-4.318,12.2-11.012m160.9,137.063a4.031,4.031,0,0,0,.649,1.2,21.387,21.387,0,0,0,2.048,1.462,8.269,8.269,0,0,0-.317-2.605,36.587,36.587,0,0,0-3-5.295c-3.077-4.382-7.609-6.051-12.737-6.333-.691-.038-1.423.654-2.136,1.007.527.441,1.037,1.243,1.583,1.267,6.3.281,10.512,3.822,13.911,9.292m-29.8-1.788c-1.194-1.08-2-1.04-2.831.486-2.086,3.82-3.923,7.77-3.07,12.3.166.878,1.091,1.612,1.666,2.413.418-.841,1.234-1.7,1.188-2.519a20.3,20.3,0,0,1,3.046-12.677m-34.564-41.119c1.116,2.506,2.2,5.027,3.395,7.5.119.246.908.167,1.386.239a4,4,0,0,0-.034-1.285c-.606-1.627-1.3-3.222-1.94-4.835-1.554-3.895-1.8-4.546,2.242-6.11a2.076,2.076,0,0,0,.869-1.049c.056-.115-.471-.714-.576-.675a44.527,44.527,0,0,0-6.309,2.632c-.3.167.42,2.149.967,3.589M296.448,191.682c.4,2.4.707,4.812,1.235,7.179a11.426,11.426,0,0,0,1.382,2.654c.518-.937,1.563-1.939,1.456-2.8a49.87,49.87,0,0,0-1.724-7.535,21.845,21.845,0,0,0-1.61-3.374c-.246,1.093-.492,2.185-.738,3.874m31.286-10.429c.279-.478.742-.937.792-1.437a8.973,8.973,0,0,0-.279-2.138c-.539.368-1.268.619-1.584,1.126-1.066,1.714-1.749,3.718-3.022,5.24-1.61,1.924-.508,3.742-.326,5.6.041.414.724.766,1.111,1.146a10.559,10.559,0,0,0,.617-1.331c.814-2.63,1.6-5.27,2.691-8.2M200.5,42.7a27.04,27.04,0,0,0-2.352-1.459c-.273-.137-.725.083-1.1.139.053.337-.02.821.177.987,2.1,1.775,4.225,3.534,6.416,5.2.325.247,1.039-.02,1.573-.049-.1-.534-.021-1.294-.345-1.562-1.29-1.069-2.706-1.984-4.373-3.254M25.9,170.229c1.07,1.613,4.594,2.113,6.792.943a7.228,7.228,0,0,0,.955-.727c-.356-.229-.711-.654-1.068-.655a43.6,43.6,0,0,0-6.679.44M191.565,95.738c1.119,1.49,2.168,3.043,3.415,4.417.253.279,1.25-.116,1.9-.2-.107-.534-.029-1.326-.353-1.558a20.227,20.227,0,0,0-4.966-2.658M13.085,180.062c-.5,1.454-1,2.905-1.46,4.371-.019.062.4.261.617.4.707-1.221,1.449-2.424,2.1-3.674a4.513,4.513,0,0,0,.232-1.366,3.146,3.146,0,0,0-1.49.272m163.88,198.444h-1.183c.075.277.1.762.234.8,1.322.349,2.664.627,4.006.895.04.008.146-.31.221-.476a23.071,23.071,0,0,1-3.278-1.217M40.2,189.895l1.788-.285-.178-1.086A3.309,3.309,0,0,0,40.2,189.895Z" transform="translate(0 0)"/><path class="a" d="M233.073,38.827a5.156,5.156,0,0,1-.2-1.589l.77.075A10,10,0,0,1,233.073,38.827Z" transform="translate(-94.098 -15.047)"/><path class="a" d="M271.493,464.24c-.772-5.838-1.555-11.376-2.311-16.918-.258-1.89-.336-3.811-.7-5.677-.318-1.62-1.129-3.158-1.334-4.781-.121-.956.213-2.522.872-2.907,1.309-.765,3.032-.781,4.487-1.354.686-.27,1.733-1.281,1.621-1.668-1.234-4.258.267-6.587,4.818-7.222,4.126-.575,8.244-1.208,12.37-1.778,4.486-.62,8.965-1.328,13.47-1.752,3.567-.336,4.338.665,4.866,4.668,1.444,10.945,3.2,21.823,6.859,32.309.977,2.8-.916,5.2-2.84,6.322-2.6,1.518-4.3,2.9-4.4,6.117-.089,2.666-2.1,3.729-4.6,4.2-6.889,1.307-13.725,2.907-20.639,4.048a15.44,15.44,0,0,1-6.481-.783c-3.023-.868-5.3-4.815-5.481-8.6-.064-1.315-.376-2.617-.575-4.224m35.16,5.065c-.795-4.435-1.537-8.88-2.4-13.3-1.549-7.985-3.065-15.979-4.854-23.91a5.366,5.366,0,0,0-2.948-3.448,9.7,9.7,0,0,0-5.411.329q-9.222,2.84-18.29,6.158A3.585,3.585,0,0,0,271,437.956c.147,3.419.685,6.823,1.1,10.23.786,6.52,1.479,13.055,2.433,19.551.4,2.7,1.311,5.451,4.3,6.448a12.038,12.038,0,0,0,5.031.712,129.017,129.017,0,0,0,13.371-2.2,63.169,63.169,0,0,0,9.428-3.387m-.3-45.588a50.51,50.51,0,0,0-6.045.036q-11.148,1.353-22.261,2.993c-.842.123-1.583.934-2.37,1.426a10.365,10.365,0,0,0,2.489,1.813c.6.212,1.467-.342,2.214-.556,5.306-1.519,10.452-3.437,16.169-3.475,3.38-.022,4.378,1.909,5.264,4.144a35.185,35.185,0,0,1,1.265,6.021c1.586,7.869,3.13,15.747,4.8,23.6.457,2.153,2.657,3.3,3.8,2.066,1.339-1.443,2.513-2.83,1.8-5.481-2-7.452-3.43-15.062-5.025-22.622C307.777,430.476,307.249,427.239,306.355,423.717Z" transform="translate(-107.937 -169.761)"/><path class="a" d="M97.394,342.578c1.018,1.959,1.973,2.85,4.417,2.331,7.774-1.65,15.616-3.01,23.474-4.208,3.6-.549,7.315-.359,10.962-.683,3.768-.335,5.859-3.23,5.416-6.924-.491-4.092-.766-8.209-1.231-12.3-.3-2.627-.842-5.226-1.12-7.854a7.592,7.592,0,0,1,.567-2.414c.588.567,1.522,1.044,1.7,1.718a48.739,48.739,0,0,1,1.232,6.638c.482,4.093,1.023,8.2,1.144,12.308a31.364,31.364,0,0,1-.9,8.243c-.6,2.468-2.831,3.371-5.236,3.589-4.631.42-9.29.624-13.892,1.253-3.875.53-7.667,2.051-11.53,2.191a69.743,69.743,0,0,0-12.464,1.894c-1.742.381-5.158-2.81-5.9-5.862a66.977,66.977,0,0,1-1.782-10.861c-.3-4.081-.069-8.2-.069-12.3a11.2,11.2,0,0,0-.013-1.784c-.823-5.038-.767-5.158,4.166-6.7,7.646-2.388,15.253-4.923,22.974-7.04,2.339-.641,5-.033,7.511-.135a57.693,57.693,0,0,0,6.894-.61c2.5-.407,8.478,1.88,9.871,4.153a1.872,1.872,0,0,1-.461,1.748c-1.132.408-2.547.96-3.561.61-4.628-1.6-8.6,1.144-12.884,1.633-2.6.3-5.2.561-7.8.826-.393.04-.855-.126-1.181.026-2.767,1.3-5.668.425-8.494.643a114.157,114.157,0,0,0-13.234,1.843c-.828.163-1.7,1.848-1.919,2.956a26.342,26.342,0,0,0-.083,5.147c.044,6.767.062,13.54,3.425,19.932m26.668-33.521a17.883,17.883,0,0,1,2.128-.582c2.15-.322,4.324-.506,6.459-.905.664-.124,1.231-.764,1.842-1.167a9.573,9.573,0,0,0-2.57-.874c-1.739-.078-3.49.16-5.237.175-1.152.01-2.36-.4-3.45-.175-4.257.881-8.483,1.922-12.708,2.951a15.535,15.535,0,0,0-2.222.91,7.751,7.751,0,0,0,2.605.811C115.1,309.911,119.281,309.454,124.062,309.057Z" transform="translate(-37.082 -122.44)"/><path class="a" d="M332.984,238.978c-6.274.376-11.908-3.516-12.426-8.716a15.625,15.625,0,0,1,1.641-8.614c4.668-8.462,11.548-7.387,18.14-4.075,2.453,1.232,3.837,6.929,3.158,10.045-1.262,5.786-4.866,9.321-10.512,11.36m3.874-4.767a18.887,18.887,0,0,0,1.877-1.9c3.6-4.813,3.729-10.951-2.322-13.4-3.456-1.4-6.921-1.551-9.927,1.242-2.338,2.173-3.657,6.725-2.4,9.474C326.782,235.545,331.161,238.414,336.858,234.211Z" transform="translate(-129.501 -86.925)"/><path class="a" d="M358.828,441.328c-.546-3.251-.993-6.349-1.294-9.46-.052-.541.508-1.141.786-1.714.716.35,1.895.546,2.07,1.075a45.457,45.457,0,0,1,2.361,8.8c.328,2.772.377,5.421,2.361,7.69.59.674.569,1.936.705,2.945.433,3.2.776,6.405,1.219,9.6.205,1.479-1.744,4.483-3.353,4.308-.956-.1-1.816-1.619-2.583-2.6-.24-.308.008-.966-.044-1.455C360.371,454.166,359.672,447.822,358.828,441.328Z" transform="translate(-144.468 -173.814)"/><path class="a" d="M124.65,286.835a19.455,19.455,0,0,1,4.592-1.558,6.273,6.273,0,0,1,3.258.867c.4.2.683,1.624.583,1.677a8.533,8.533,0,0,1-2.571.931c-5.011.837-10.022,1.693-15.057,2.362-1.946.259-3.959-.034-5.935.066-1.607.081-3.214.58-4.8.5-1.023-.053-2.01-.821-3.013-1.268a12.763,12.763,0,0,1,1.2-2.04,2.314,2.314,0,0,1,1.438-.759c3.71-.255,7.424-.489,11.141-.607C118.49,286.908,121.5,286.984,124.65,286.835Z" transform="translate(-41.096 -115.265)"/><path class="a" d="M436.586,265.245a22.743,22.743,0,0,1-3.129.11c.568-.754.977-1.8,1.731-2.215,4.331-2.409,8.706-4.751,13.17-6.9.688-.331,1.913.455,2.89.724-.56.617-1,1.46-1.7,1.815C445.31,260.947,441.013,263,436.586,265.245Z" transform="translate(-175.149 -103.508)"/></g></svg>