<svg xmlns="http://www.w3.org/2000/svg" viewBox="12222 574 628 840.575"><path d="M268.856,702.81c-.834-13.623-1.7-26.618-2.489-39.619-.486-8.026-.745-16.065-1.284-24.087-1.184-17.624-2.553-35.237-3.7-52.863-.586-8.99-.925-18-1.266-27-.476-12.543-.913-25.088-1.17-37.636-.027-1.3,1.279-2.62,1.967-3.931a20.863,20.863,0,0,1,2.874,3.817,46.392,46.392,0,0,1,1.86,6.107c.178-2.324.983-4.81.434-6.948-4.773-18.594-4.2-37.336-2.5-56.217.151-1.676-3.236-4.881-5.412-5.343-8.336-1.771-16.976-4.26-25.264-3.578-10.754.886-20.834-.85-31.118-2.838-4.684-.906-6.2.732-7.009,6.146-4.4,29.644-.973,59.408-2.3,89.066-.9,20.137-3.235,40.239-3.417,60.371-.131,14.48,2.878,28.962,3.357,43.48,1.215,36.824.827,73.733,3.265,110.462.663,9.987,1.356,20.124,1.685,30.177.179,5.459-2.384,11.024-2.108,16.46.4,7.835,2.477,15.571,3.36,23.4.3,2.639-.118,7.266-1.5,7.832-4.3,1.764-6.429-1.363-7.1-5.531-.247-1.523-1.111-2.982-1.175-4.492-.5-11.916-.9-23.836-1.293-35.756-.443-13.586-.837-27.174-1.258-40.761-.414-13.379-.648-26.767-1.307-40.133-.559-11.343-1.8-22.653-2.346-34-.2-4.176,1.116-8.411,1.063-12.61-.082-6.5-.7-13-1.172-19.5-.8-11.124-1.878-22.232-2.436-33.367-.659-13.158-.729-26.345-1.353-39.506-.627-13.216-1.839-26.405-2.4-39.623-.658-15.525-1.133-31.066-1.219-46.6-.055-9.832.617-19.676,1.209-29.5.383-6.357-2.971-9.671-8.547-11.023q-16.522-4.006-33.164-7.514c-6.941-1.47-13.974-2.5-20.951-3.806-6.373-1.192-12.729-2.477-19.087-3.743-12.517-2.493-24.973-5.355-37.561-7.412-15.127-2.471-30.35-4.382-45.568-6.236-2.807-.342-7.6-2.143-6.7,4.353.12.865-1.87,2.021-2.883,3.043-.655-1.135-1.927-2.3-1.871-3.4.69-13.63,2.357-27.258,2.235-40.872-.214-23.844-3.025-47.75-1.926-71.5,1.26-27.21,4.2-54.339,3.382-81.65-.214-7.153,0-14.319-.039-21.479-.093-17.688,3-34.892,7.454-51.946,2.809-10.767,4.822-21.742,7.641-32.506,2.1-8.033,4.281-16.158,7.583-23.738,4.545-10.431,9.454-20.855,15.58-30.4,5.059-7.883,13.763-11.808,23.2-11.387,16.872.753,32.793-3.711,48.973-7.185,4.962-1.065,10.325-.7,15.469-.392,9.677.58,19.316,1.778,28.992,2.387,15.7.988,31.427,1.523,47.112,2.665,4.334.316,5.8-1.952,6.876-5.073,5.361-15.505,10.583-31.059,15.967-46.556C228.959,2,230.256-.009,231.147,0c1.734.017,3.561,1.063,5.164,2,3.558,2.079,6.885,6.02,10.512,6.274,20.646,1.449,39.356,9.366,58.516,15.977,7.153,2.469,14.707,3.792,22.1,5.543,3.628.86,6.279,1.884,6.6,6.633.87,13.059,2.238,26.091,3.754,39.093.247,2.118,1.917,5.413,3.507,5.8,7.565,1.848,13.527,7.438,22.035,7.59,9.833.175,19.655,2.49,29.428,4.188,12.017,2.087,23.911,5,35.982,6.643,15.919,2.171,31.985,3.244,47.937,5.2,10.2,1.254,20.56,2.37,30.4,5.141,13.715,3.862,27.15,8.857,40.437,14.054,8.419,3.292,16.466,7.619,24.434,11.934a18.13,18.13,0,0,1,6.516,6.5c3.833,6.449,6.493,13.667,10.809,19.734,4,5.624,5.414,11.382,6.37,18.029.906,6.3,4.93,12.095,6.437,18.386,2.421,10.106,4.115,20.405,5.7,30.687,1.194,7.73,1.377,15.62,2.653,23.332,2.212,13.361,5.711,26.555,7.154,39.982,1,9.266-.91,18.807-.888,28.223.025,10.878.871,21.751,1.119,32.632.2,8.752-.5,17.555.189,26.256.735,9.237,2.64,18.382,4.045,27.565.239,1.56.618,3.1.8,4.668,1.689,14.734,3.293,29.479,5.041,44.206.777,6.547-2.769,12.645-10.488,9.749-9.786-3.671-17.885,1.7-26.786,2.124-7.074.338-14.055,2.3-21.121,3.2-17.26,2.2-34.528,4.357-51.825,6.237-10.463,1.137-20.994,1.625-31.479,2.578-21.13,1.922-42.4,1.971-63.278,7.135-7.206,1.782-15.487.046-23.145-1.025-11.5-1.608-22.952-3.764-34.313-6.2-14.114-3.029-28.034-6.995-42.189-9.782-11.691-2.3-23.592-3.573-35.425-5.112-4.708-.612-6.185,1.949-6.6,6.546-1.352,14.974-3.708,29.868-4.727,44.858-.79,11.621,0,23.342-.2,35.014-.264,15.883-1.122,31.762-1.121,47.642,0,15.952.7,31.906,1.175,47.856q.5,16.632,1.253,33.256c.764,16.545,1.693,33.082,2.468,49.627.5,10.665.629,21.35,1.318,32,1.056,16.346,3.249,32.664,3.376,49.006.067,8.575-.7,17.3-1.1,25.955-.056,1.211-2.423,2.316-3.721,3.47-.788-1.211-2.168-2.373-2.273-3.64-1.386-16.775-2.5-33.572-3.872-50.348-1.1-13.462-2.823-26.882-3.627-40.359-.846-14.186-.93-28.417-1.347-43.254M29.93,119.256c-3.753,13.035-7.987,25.956-11.114,39.139-2.772,11.689-5.95,23.649-6.1,35.525-.495,39.335-.4,78.637-3.816,117.9-1.421,16.344-.246,32.915-.22,49.382,0,1.617.332,3.233.337,4.85.032,10.179,1.086,20.505-.29,30.495-1.361,9.882,1.349,14.794,11.36,14.794,2.918,0,5.851-.185,8.752.034,9.875.746,19.762,2.5,29.6,2.245a143.8,143.8,0,0,1,34.594,3.747c14.253,3.1,28.72,5.217,43.1,7.728,6.813,1.189,13.62,2.43,20.462,3.427,10.054,1.465,20.108,3.059,30.217,3.991,9.375.864,18.834.769,28.234,1.423,3.9.271,7.715,1.531,11.6,2.1,15.345,2.245,30.689,4.52,46.069,6.5,4.3.553,9.551-1.4,12.94.435,10.813,5.851,22.723,3.4,33.955,5.373,14.394,2.525,29.408-.039,44.094,3.95,8.292,2.252,17.493,1.138,26.281,1.6,1.782.094,3.919-.082,5.259.813,6.3,4.207,13.36,3.236,20.048,2.607,2.642-.249,7.088-4,7.068-6.117-.117-12.377-1.363-24.741-2.12-37.115-.2-3.323.223-6.691-.073-10-1.578-17.661-4.5-35.3-4.639-52.965-.154-19.691,2.163-39.4,3.442-59.1.341-5.252.667-10.513,1.27-15.738,1.579-13.7,3.282-27.391,4.982-41.079,1.229-9.9,1.823-19.962,4.108-29.618,1.1-4.657-1.387-5.682-3.61-5.442-8.374.906-15.382-3.212-22.97-5.181q-29.379-7.624-58.826-14.982c-3.606-.9-5.277.927-5.061,4.764.531,9.41.326,18.893,1.4,28.232,2.083,18.04,4.739,35.918,2.575,54.245-1.418,12.008-1.221,24.227-1.39,36.356-.21,15.069-.05,15.072,15.24,15.2.208,0,.417,0,.625,0,6.944.139,10.01,3.518,9.08,10.343-2.013,14.78-3.8,29.6-6.322,44.3-2.953,17.236-6.515,34.369-9.957,51.519-1.095,5.455-5.164,6.908-10.719,6.6-10.877-.6-21.821.066-32.717-.333-3.057-.112-8.029-1.4-8.74-3.366-4.4-12.179-8.56-24.542-11.407-37.158-4.027-17.848-6.735-35.991-10.233-53.963-1.592-8.181-.031-10.434,8.235-10.434,3.544,0,7.223.573,10.579-.22,1.937-.457,4.845-3.215,4.745-4.773-.427-6.7-1.836-13.331-2.832-20-1.908-12.765-4-25.508-5.593-38.312-1.2-9.615-1.556-19.332-2.614-28.967-1.945-17.7-4.486-35.349-6.095-53.081-1.155-12.734-1.081-13.2-13.759-13.516a11.79,11.79,0,0,1-1.25-.008c-12.443-1.659-24.892-3.273-37.324-5.01q-26.285-3.673-52.536-7.582a3.959,3.959,0,0,1-2.716-2.479c-.732-5.017,1.166-7.952,6.771-7.453,5.449.485,10.917.774,16.363,1.283,8.207.767,16.493,1.149,24.586,2.589,16.815,2.99,33.514,6.626,50.288,9.855,3.44.662,6.273-.094,5.718-4.72-.6-4.983-.753-10.041-1.679-14.957-2.294-12.18-11.793-19.582-20.512-26.276-18.1-13.893-35.619-28.172-50.318-45.731a13.82,13.82,0,0,0-6.84-4.422,73.276,73.276,0,0,0-13.2-1.388c-17.578-.9-35.161-1.7-52.743-2.527-1.441-.068-2.884-.112-4.327-.12-4.906-.029-9.92-.7-14.7.081-10.441,1.7-20.688,4.7-31.157,6.081-6.149.812-10.276,3.017-13.486,8.243C66.31,78.749,63.14,87.1,57.787,89.141c-6.956,2.647-9.4,11.921-18,10.8-.29-.038-.771,1.07-1.1,1.678-2.929,5.456-5.844,10.92-8.762,17.632m585.43,297.719c0-2.5.452-5.1-.07-7.494-4.947-22.646-4.22-45.693-4.85-68.622-.435-15.833-.083-31.688-.083-47.533a28.96,28.96,0,0,0-.029-4.374c-2.875-18.6-5.108-37.344-8.916-55.757-4.177-20.2-8.6-40.51-15.235-59.979-4.749-13.922-12.416-27.728-26.172-35.094-10.615-5.684-22.49-9.063-33.911-13.174-5.642-2.031-11.785-5.347-17.233-4.611-8.226,1.11-16.115,5.075-23.995,8.207-2.856,1.135-5.053,4.065-7.931,4.981-15.63,4.977-24.566,17.42-30,31.007-7.3,18.235-9.823,38.051-11.674,57.707-.61,6.481.687,13.619-1.619,19.358-4.2,10.458-3.69,21.162-4.659,31.839-.457,5.036-.788,10.083-1.267,15.117-1.643,17.241-4.132,34.451-4.735,51.727-.466,13.369,1.78,26.812,2.071,40.239.128,5.891,2.774,9.118,7.5,11.205,11.63,5.135,23.191,10.486,35.071,14.98,18.216,6.891,36.431,13.971,55.09,19.462,29.688,8.737,59.385,17.324,88.177,28.774,1.44.572,3.645.755,4.831.033,1.43-.871,3.139-2.987,3.021-4.424-.89-10.794-2.2-21.552-3.381-33.573M331.4,148.027c.339-33.5.141-66.97-3.541-100.356-.694-6.29-3.45-8.869-8.757-10.368-6.333-1.789-12.655-3.626-18.934-5.6C290.4,28.642,280.8,24.952,270.9,22.443,260.069,19.7,249,17.838,237.96,16.016c-1.527-.252-4.424,1.533-5.043,3.047-4.518,11.048-8.425,22.345-12.906,33.409-3.661,9.039-1.313,15.7,6.152,21.734,15.534,12.549,30.611,25.663,46.064,38.315a31.3,31.3,0,0,1,11.525,19.5c1.357,8.109,1.58,16.4,2.668,24.565,1.467,11,3.479,21.936,4.88,32.947.82,6.443.659,13.007,1.376,19.469,1.5,13.5,3.347,26.953,4.921,40.441.609,5.222.568,10.529,1.338,15.721,2.349,15.827,4.929,31.62,7.462,47.419.68,4.239,2.049,9.323,6.489,9.633,6.026.421,12.241-1.169,18.29-2.34a5.073,5.073,0,0,0,3.116-3.693c.183-5.539-.457-11.1-.331-16.646.214-9.416.737-18.826,1.209-28.235.347-6.915,1.5-13.865,1.078-20.725-.64-10.354-2.754-20.613-3.487-30.966-.87-12.3-1.033-24.647-1.3-36.979-.078-3.59-.118-6.712-3.287-9.407-1.167-.992-1.548-4.991-.574-6.066,4.868-5.369,3.718-11.7,3.8-19.136m8.756,15.011c2.274,1.459,4.423,3.2,6.865,4.282,1.748.772,3.912.549,5.853.951,10.538,2.186,21,4.784,31.609,6.557,12.359,2.067,24.9,3.047,37.241,5.207,11.793,2.064,11.839,1.87,14.876-9.248,5.908-21.633,17.807-38.427,40.13-45.956,1.311-.442,2.358-1.67,3.528-2.532-1.434-.806-2.79-2.076-4.317-2.336-6.075-1.032-12.231-1.588-18.306-2.616-14.179-2.4-28.4-4.62-42.471-7.567-15.632-3.274-31.069-7.468-46.675-10.879-8.1-1.771-16.377-2.726-24.576-4.034-3.689-.589-5.2.374-5.136,4.724.293,19.566.115,39.139.155,58.709a12.246,12.246,0,0,0,1.224,4.738m129.47,260.817c-2.118-.417-4.238-.827-6.355-1.252q-15.576-3.124-31.151-6.245c-3.279-.651-4.823.257-4.477,4.087.68,7.51.942,15.058,1.32,22.594.451,8.99.475,18.025,1.52,26.943.258,2.2,3.832,5.818,5.745,5.732,12.266-.55,24.479-2.166,36.738-3.007,10.636-.73,21.314-.831,31.966-1.354,3.588-.176,7.166-.717,10.729-1.227,14.345-2.052,28.648-4.447,43.034-6.147,11.054-1.306,22.212-1.711,33.311-2.675,1.1-.1,2.1-1.3,3.151-1.985a13.041,13.041,0,0,0-3.059-1.645c-7.621-1.75-15.35-3.082-22.893-5.11-14.964-4.024-29.832-8.407-44.737-12.648-18.072-5.142-36.143-10.289-54.84-16.06M298.252,367.563c1.459,16.248,2.948,32.493,4.352,48.746.261,3.018,4.792,7.31,7.348,7.164,6.58-.376,13.243-1.154,19.75-.515,9.6.943,12.332.032,14.237-6.589,6.664-23.167,9.1-46.989,11.239-70.867.357-3.994,1.15-7.978,1.137-11.966-.01-3.024-1.985-5.776-5.112-3.389-8.871,6.772-19.453,4.467-28.789,4.214-7.571-.205-14.256,1.239-21.2,2.816-3.514.8-5.2,3.268-4.887,7.19.6,7.51.888,15.046,1.931,23.2m65.673,94.444c-2.6-.208-5.191-.474-7.792-.589a7.664,7.664,0,0,0-2.216.589c.584.584,1.091,1.552,1.764,1.685,3.083.609,6.207,1.016,9.328,1.4.4.049.859-.459,1.291-.71l-2.377-2.377M277.612,452l4.2,1.876a5.515,5.515,0,0,0,.219-1.145A8.56,8.56,0,0,0,277.612,452Z" transform="translate(12222 574)"/></svg>