<svg xmlns="http://www.w3.org/2000/svg" viewBox="4269.242 346.836 763.989 597.066"><defs><style>.a{fill:#424242;}</style></defs><g transform="matrix(0.966, 0.259, -0.259, 0.966, 4382.427, 346.204)"><path class="a" d="M640.761,187.365c3.218,4.291,6.729,8.387,9.46,12.971a195.612,195.612,0,0,1,9.168,18.043c.585,1.268-.2,3.316-.39,4.974-1.268-1.17-2.926-2.048-3.609-3.413-2.243-4.194-4.194-8.68-6.534-13.264a18.62,18.62,0,0,1-2.146-2.926c-2.438-3.316-4.779-6.339-7.217-9.363a4.706,4.706,0,0,0-1.365-.878c.1.585,0,1.268.293,1.658,2.731,3.023,5.462,5.852,8.29,9.07a33.086,33.086,0,0,0,1.951,2.731c1.755,7.607,3.316,15.312,9.558,20.773,1.853,1.658,2.536,5.169,6.437,3.706.585-.2,2.438,1.658,3.023,2.926,1.56,3.413,2.731,7.022,6.242,9.07-1.756,1.853-3.121,4.486-5.267,5.266-6.632,2.341-13.654,3.8-20.481,6.047-11.606,3.8-22.919,8.29-34.525,11.9-8.582,2.633-17.36,4.194-26.04,6.632-18.238,5.071-36.378,10.338-54.518,15.6-.975.293-2.048,1.073-3.023.878-11.8-2.341-21.846,4-32.672,6.437a6.773,6.773,0,0,0-1.268.488c-2.146.878-4.194,1.755-6.339,2.633a49.607,49.607,0,0,0,6.632-1.17c7.607-2.341,15.214-4.876,22.919-7.12,1.365-.39,3.023.2,4.486.39-.975,1.073-1.755,2.828-3.023,3.218-8.973,3.121-17.945,6.242-27.113,8.777-18.53,5.071-37.353,9.558-55.786,14.824-9.265,2.633-17.945,6.827-27.113,9.85-9.265,3.121-18.725,5.754-28.185,8.387-1.17.293-2.731-1.17-4.194-1.268a10.8,10.8,0,0,0-4.291.488c-.39.1-.2,1.658-.585,2.146-1.073,1.268-2.243,3.023-3.706,3.511-12.386,4.291-24.87,8.29-37.353,12.386C319.018,358.135,305.754,363.4,292,366.62c-13.751,3.121-27.308,7.12-40.864,10.923-5.754,1.56-11.606,2.438-17.36,4-5.852,1.56-11.508,3.8-17.36,5.267-8.485,2.048-16.97,3.8-25.552,5.364-6.534,1.17-13.166,1.853-19.7,3.023-8.582,1.463-17.262,3.023-25.747,4.876a181.031,181.031,0,0,0-22.431,5.949c-13.166,4.681-26.723,5.267-40.474,5.949a136.422,136.422,0,0,0-26.527,4.1c-10.24,2.536-20.188,6.047-30.136,9.46a88.08,88.08,0,0,0-13.166,5.949c-1.365.683-1.853,2.926-2.926,4.389a26.507,26.507,0,0,1-2.341,2.341c-.488-1.073-1.658-2.341-1.365-3.218,1.463-5.754,3.121-11.411,4.876-16.97.1-.39,1.56-.878,1.755-.78a16.176,16.176,0,0,1,2.926,4c.2.585-1.17,1.658-1.56,2.633-.2.39.1,1.073.2,1.658.488-.1.975-.1,1.268-.39,8.582-7.412,19.6-7.12,29.746-9.46,9.655-2.146,19.213-4.584,28.771-7.12,4.194-1.17,8.192-3.023,12.288-4.389a4.362,4.362,0,0,1,3.316-.1c7.8,5.266,15.312.683,22.724-.78,16.385-3.316,32.769-7.217,49.056-11.021,5.169-1.17,10.338-3.8,15.409-3.609,9.85.488,19.018-1.56,28.283-4.1,6.047-1.658,12.191-2.633,18.335-4,.585-.1,1.17-.293,1.756-.39a5.24,5.24,0,0,0-2.048-.488c-3.706.293-7.51.683-11.216,1.17a42.323,42.323,0,0,1-5.071.683,9.393,9.393,0,0,1-3.023-1.073c.683-1.268.975-3.121,2.048-3.609a26.643,26.643,0,0,1,15.994-3.121c3.706.39,7.51-.878,11.313-.78,3.8.2,7.607,1.268,11.411,1.853a6.656,6.656,0,0,0,2.243-.488,8.438,8.438,0,0,1-1.658-.683c-4.974-2.926-9.655-6.534-14.922-8.68-2.341-.975-5.949.1-8.582,1.268-7.022,3.023-14.142,5.657-19.505,11.7-1.756,1.951-4.876,3.121-7.607,3.706-5.559,1.268-11.313,1.755-16.775,3.121-8.192,2.048-16.19,4.876-24.382,7.022a109.264,109.264,0,0,1-15.995,2.536c-1.56.2-3.316-1.463-4.974-1.56a27.18,27.18,0,0,0-6.827.78c-.975.2-1.755,1.56-2.731,1.56-10.923.488-20.871,5.949-31.989,5.364-2.828-.2-3.023-1.073-2.926-3.316,0-2.243-.293-4.194,3.121-3.706a61.034,61.034,0,0,0,7.315.1h3.316a14.551,14.551,0,0,0-2.828-1.951c-5.754-3.121-8.68-8.095-9.948-14.337a49.074,49.074,0,0,0-2.536-9.168c-4.1-9.85-5.949-20.188-7.217-30.624-.975-8.875-2.633-17.75-2.731-26.625-.1-7.412,1.755-14.824,2.633-22.236.1-.488-.78-1.365-.78-1.365-3.316,1.755-8.777.78-8.973,6.827,0,.683-1.756,2.048-2.243,1.853-6.729-3.121-11.7,1.268-16.482,4.194-5.852,3.511-10.923,8.387-16.092,12.971a8.49,8.49,0,0,0-2.048,4.876c-.585,5.071.1,10.435-1.17,15.312-4.194,16.287-8.777,32.379-13.556,48.471-2.438,8.192-5.949,16.092-8,24.479C8.393,411.873,7.32,417.432,4.1,422.309a31.885,31.885,0,0,1-2.926,3.413C.884,424.357.006,422.8.3,421.529c1.268-6.144,3.023-12.093,4.194-18.238C5.857,396.464,6.93,389.637,8,382.81c1.268-8.29,2.536-16.482,3.8-24.772,1.365-9.363,2.438-18.725,4.1-28.088.488-2.828,2.438-5.462,3.8-8.192C25.46,310.64,33.36,301.277,42.138,292.5c.488-.488.878-1.268,1.365-1.365,2.633-.488,5.266-.78,7.8-1.073-1.268,1.268-2.438,2.536-3.706,3.8-1.658,1.658-3.413,3.218-5.169,4.876,1.951-1.17,3.8-2.438,5.754-3.413,8.387-4.1,16.58-8.777,25.357-11.8,6.729-2.341,10.045-6.339,11.606-12.874a110.751,110.751,0,0,1,5.559-18.628c3.218-7.607,8.095-14.532,10.923-22.236.975-2.731-1.755-6.729-2.828-10.24-.1-.2-.39-.293-.683-.488a4.725,4.725,0,0,0,0,1.658c.683,1.463,1.853,2.828,2.243,4.389.293.975-.2,2.731-.975,3.121a3.311,3.311,0,0,1-3.121-.78c-1.365-2.438-2.243-5.266-3.413-7.8a24.8,24.8,0,0,0-1.56-2.731c-.78.683-1.853,1.17-2.243,1.951-2.243,4.681-6.437,2.926-9.753,2.731-2.731-.2-3.316-2.926-3.023-5.559a4.26,4.26,0,0,0-.683-2.048c-.975.78-2.731,1.365-2.828,2.243-1.073,5.462-5.071,5.559-9.363,5.657-2.633.1-3.9-.78-3.706-3.511.1-1.17-.585-2.341-.975-3.511a7.906,7.906,0,0,0-.975-1.755c-.39.585-.78,1.073-1.17,1.658-.293.488-.488,1.073-.78,1.658-1.853,2.828-2.731,6.924-7.9,4.584-2.536-1.17-5.754-1.073-8.387-2.146-1.951-.78-3.413-2.731-5.169-4.1,1.268-1.56,2.243-3.511,3.8-4.486a83.919,83.919,0,0,1,8.875-4.486c5.754-2.828,11.508-6.047,17.457-8.582,6.924-2.828,14.141-3.316,20.676,1.268,2.536,1.756,4.681,4.291,6.924,6.437.488.39.878.878,1.365,1.268a11.341,11.341,0,0,0,.39-1.756c0-4.194-.39-8.485.1-12.679,1.951-18.14,8.485-31.209,27.405-36.67,2.243-.683,5.462,1.073,7.8,2.438.488.293-.293,3.8-1.17,5.462-2.828,5.071-5.949,9.85-8.973,14.824-.293.488-.78,1.365-.585,1.658,5.559,7.7-2.243,11.021-5.266,15.8-1.853,2.926-4.974,4.974-7.315,7.7-.683.78-1.073,2.633-.683,3.218,2.438,3.413,1.268,6.632.1,10.045a9.1,9.1,0,0,0-.2,4.584c.2.78,1.463,1.365,2.341,2.048-.2-.78-.78-1.658-.585-2.341a81.391,81.391,0,0,1,3.218-10.826c3.706-8.387,9.948-15.8,18.53-17.945,7.7-1.951,9.558-6.632,12.484-12.484,5.559-11.118,12-21.749,18.238-32.477,2.146-3.706,4.974-7.022,7.51-10.533.39-.585.683-1.17,1.073-1.755a4.044,4.044,0,0,0-1.853-.1c-7.8,2.633-13.459-.878-13.459-9.265,0-.488-.488-.975-.683-1.463a5.95,5.95,0,0,0-1.17,1.56c-.683,2.828-.878,5.852-2.146,8.387-.975,2.048-2.536,4.681-6.144,2.828-2.341-1.17-5.266-1.365-7.9-2.048-4.779-1.268-6.242-4.681-2.536-7.9s8.485-5.266,12.874-7.7c1.073-.585,2.438-.488,3.413-1.073,11.7-7.217,24.284-11.411,38.133-11.606,2.438,0,4.584,0,4.389-3.413a4.352,4.352,0,0,1,1.658-2.633,18.759,18.759,0,0,1,3.023-1.755,9.625,9.625,0,0,1,.975,2.633,3.771,3.771,0,0,1-.488,2.243c-1.073,1.853-3.511,4.681-3.121,5.266,1.658,2.048,4.291,3.413,6.534,4.974.2.1.488.2.683.293a3.319,3.319,0,0,0,.2-1.365c-.293-2.633-.488-5.266-.975-7.9-.293-1.756-1.073-3.511-1.463-5.266a10.257,10.257,0,0,1-.39-4.194c.975-4.486,1.56-9.168,3.413-13.166,4.876-10.826,10.045-21.651,18.53-30.331,11.313-11.606,24.967-15.019,40.669-11.8,1.463.293,3.706.293,4.681-.683C278.934,26.64,296.1,20.983,313.849,16.2c8-2.146,15.7-5.364,23.6-7.8,8.095-2.438,16.287-4.681,24.479-6.729a31.667,31.667,0,0,1,21.359,1.755c1.853.78,4.584-.78,6.827-.78,10.045.2,19.993.488,30.038.975,2.341.1,4.681,1.17,6.924,2.048a3.889,3.889,0,0,1,1.365,2.146c-1.365,1.268-2.828,3.316-4.291,3.413-5.169.1-10.728.39-15.6-1.073-7.51-2.243-14.629-.1-21.749.78-10.338.487-20.091,2.731-29.843,4.779-14.044,3.023-28.283,5.169-40.766,13.459-9.558,6.242-20.578,10.143-30.234,16.287-11.411,7.412-22.821,15.019-30.916,26.527-2.341,3.413-5.852,6.047-8.875,9.07a11,11,0,0,0-1.17,1.756,18.027,18.027,0,0,0,2.243.1c4.486-.878,8.973-2.341,13.459-2.633,13.849-1.073,23.114,6.144,29.746,17.457a93.882,93.882,0,0,1,6.144,12.581c.585,1.56-.2,3.706-.39,5.559a19.429,19.429,0,0,0-4.1-.39c-3.121.2-6.144.683-9.265.78-8.485.1-9.265-.683-9.948-9.168a14.439,14.439,0,0,0-.1-2.926,8.766,8.766,0,0,0-1.658-2.536,14.707,14.707,0,0,0-1.17,2.536c-1.365,4.779-4.486,6.242-9.07,5.462-2.633-.488-5.657.293-8.29,1.268-4,1.463-7.315,4.876-12.386,2.633-1.17-.488-3.608,1.17-5.266,2.243-3.316,2.341-6.729,4.1-11.021,3.706-3.609-.293-5.267,2.438-4.584,6.144.39,2.146,0,4.389,0,6.534a24.006,24.006,0,0,1-.1,4.584,7.266,7.266,0,0,1-1.463,3.706c-.293.293-2.146-.488-3.218-1.073s-2.048-1.463-3.121-2.146a13.058,13.058,0,0,1,1.56,3.609c.585,3.511.878,7.12,1.365,10.63,1.268,8.582,2.536,17.165,3.9,25.65.78,5.364,1.658,10.728,2.731,16.092.975,3.121,1.56,6.242,2.341,9.363,0,.2,1.463.293,1.755,0l19.9-19.9a5.64,5.64,0,0,1,2.926-1.17c2.926-.39,4.681-1.073,5.852-4.584.975-2.926,4.779-4.974,7.607-7.12,13.166-10.045,27.308-18.628,41.254-27.5,5.266-3.316,9.558-8.192,14.434-12.288,4.194-3.413,8.582-6.729,12.874-10.045.78-.585,1.463-1.17,2.243-1.755-1.073,0-2.438-.488-3.218-.1-2.926,1.658-5.657,3.609-8.485,5.462a17.111,17.111,0,0,1-2.341,1.073c.1-.975-.1-2.438.488-2.926,2.926-2.633,5.852-5.266,8.973-7.607,5.852-4.486,10.923-.1,15.312,2.438,9.46,5.559,18.433,12.093,27.405,18.433,2.243,1.658,2.828,1.17,4.194-.975,6.632-10.435,13.556-20.676,20.188-31.111,4.389-6.924,8.485-14.044,12.776-21.066,2.828-4.584,6.924-8.582,8.68-13.459,1.853-5.071,4.1-10.24,5.364-15.312,1.365-5.364,4.389-9.753,5.462-15.019.1-.293.78-.585.878-.585,1.365.975,1.073.78,2.146-.1,6.144-5.754,1.365-11.8.585-17.652-.39-3.218-1.365-6.339-1.658-9.558-.1-.975,1.268-2.048,1.951-3.023.878.683,2.243,1.073,2.731,1.951a139.426,139.426,0,0,1,6.924,13.751c3.8,9.363,7.7,18.628,10.63,28.283,7.51,24.577,14.434,49.251,21.651,73.828,1.365,4.779,3.413,9.363,4.681,14.142.39,1.56-.878,3.413-1.365,5.169-1.17-1.17-2.828-2.048-3.316-3.413-5.559-16.482-13.361-32.087-15.9-49.544-1.17-8-4.291-15.7-6.632-23.5-3.023-9.948-6.144-19.9-9.46-30.038-.585-1.268-.878-2.243-1.268-3.218-.1-.1-.39-.1-.683-.2.293.975.39,1.951.78,2.926.1.293.585.488.975.78,1.951,7.607,4,15.214,5.852,22.919,1.755,7.217,3.316,14.532,4.876,21.846,1.365,6.242,2.243,12.679,4,18.725,1.853,6.144,4.486,12.093,6.924,18.043,3.121,7.8,6.437,15.507,9.655,23.309,1.658,4.194,4.389,4.681,8.387,3.218,9.948-3.706,19.6-7.7,31.014-6.144,4.779.683,10.143-3.218,15.214-4.974,8-2.731,15.9-5.657,23.992-8.095,2.536-.78,5.364-.585,7.022,2.828,2.146,4.389,6.632,2.438,9.363,1.755,12.288-2.828,23.212.2,32.867,7.12a164.6,164.6,0,0,1,35.11,33.744c2.633,3.413,5.852,6.242,8.485,9.655,2.048,2.731,1.755,5.071-2.633,5.071-7.412-8.095-14.727-15.994-21.846-23.894-1.268-1.365-2.243-2.926-3.511-4.389-.2-.293-.683-.293-.975-.488,0,.488-.293.975-.1,1.268l12.288,17.262c1.853,2.536,4,4.779,5.852,7.217.39.585.1,1.755.1,2.633.39-.585.585-1.56,1.073-1.756a3.617,3.617,0,0,1,2.243.293c1.853.683,3.316,1.463,4.876,2.146M400.844,164.446l2.048,1.463c.1,0,.39-.39.683-.683a8.609,8.609,0,0,1-2.731-1.756c-7.607-5.364-15.312-10.728-23.016-16.092-1.17-.878-2.828-1.073-4.291-1.463a2.991,2.991,0,0,0-.878,1.365c1.268,1.365,2.633,2.633,4,3.9.2.2.683-.1.975,0,3.9,1.853,8,3.511,11.8,5.559a123.631,123.631,0,0,1,11.411,7.7M170.191,140.552c-6.047,8.973-12.581,17.848-18.14,27.113-3.706,6.144-6.047,13.069-9.07,19.6-1.951,4.291,1.951,3.9,4,4.974.585.293,1.951.293,2.243-.1,1.463-1.951,2.633-4.1,3.9-6.144a4.089,4.089,0,0,0,.39-1.56c-7.7-.683-4.389-5.852-3.023-8.875,3.413-7.51,7.607-14.727,11.7-21.944a121.19,121.19,0,0,1,9.07-13.069c1.951-1.951,3.9-3.8,5.754-5.852.39-.39.293-1.073.488-1.658a9.4,9.4,0,0,0-1.658,0c-4,.975-4.974,4-5.657,7.51m447.651,106.3c1.658,3.609-1.463,4.291-3.511,5.364-4.779,2.438-9.753,4.681-14.727,6.924-2.146.975-4.486,2.146-6.827,2.243-12.288.878-23.7,5.462-35.4,8.777a68.335,68.335,0,0,1-10.826,2.048c-4.1.293-8.387-.585-12.288.2-16.19,3.121-31.306,10.24-47.593,13.556-11.313,2.243-21.846,8.29-32.672,12.679-12.679,5.169-25.26,10.338-37.938,15.6a12.76,12.76,0,0,0-2.341,1.658,9.633,9.633,0,0,0,2.828.293c6.144-1.658,12.288-3.218,18.335-5.266,10.338-3.609,20.481-7.8,30.916-11.216,18.823-6.144,37.646-11.9,56.663-17.555,4.194-1.268,8.875-.683,13.166-1.755,7.022-1.755,13.849-4.291,20.871-6.144,19.31-5.169,38.718-9.948,58.029-15.214,7.412-2.048,14.629-4.779,21.846-7.217,1.56-.488,4.291-1.268,4.291-1.755-.293-4.389,2.341-9.168-1.463-13.166a8.343,8.343,0,0,1-1.268-2.828c-2.341-5.657-4.779-11.313-7.022-17.067a28.538,28.538,0,0,1-.975-5.169l3.218,3.511c.1.1.293.2.293.39,4.1,8.387,9.265,16.385,11.8,25.162,1.56,5.559,2.438,6.827,7.9,5.266,3.218-.878,2.341-1.17.975-3.023-4.486-6.242-8.777-12.679-13.166-18.92-4.584-6.437-6.827-15.019-15.7-17.652a1.537,1.537,0,0,1-.683-.683c-7.9-8.29-15.409-17.067-23.992-24.577-5.657-4.974-12.191-9.265-20.773-8.582-9.948.78-19.993.683-29.941,1.073-3.316.1-6.534.585-9.85.975-15.507,1.951-29.551,8.387-43.79,14.337-9.265,3.9-18.433,8.095-27.7,12-9.558,4.1-19.408,7.51-28.576,12.191-20.383,10.533-40.669,21.358-60.565,32.769-8.485,4.876-16.092,11.606-23.992,17.457-.488.39-.488,1.365-.78,2.048.683-.2,1.56-.1,2.048-.488,12.288-9.948,24.479-20.091,39.6-25.747,1.951-.78,4.291-.39,6.437-.585-1.365,1.658-2.731,3.413-4.194,4.974A11.369,11.369,0,0,1,396.065,245c-4.974,2.438-10.24,4.486-14.922,7.51-6.827,4.486-13.264,9.753-19.8,14.727-2.048,1.56-1.951,2.926-.293,5.169,4.1,5.559,8.973,11.021,11.021,17.36,3.316,10.24,6.924,20.286,12.093,29.648,1.755,3.121,4,4.779,8,2.146a113.016,113.016,0,0,1,15.6-8.192c13.946-6.339,28.088-12.386,42.034-18.628,7.7-3.413,15.019-7.9,22.919-10.533,11.8-3.9,24.089-6.242,35.89-10.045,11.411-3.706,22.529-8.192,34.817-7.8,2.828.1,5.754-.78,8.582-1.56,8.777-2.341,17.457-4.876,26.332-7.119,8.387-2.146,16.97-3.706,25.357-5.949,4.486-1.268,8.777-3.316,14.141-4.876m-502.754,78.51c2.243,11.216,4.291,22.529,6.924,33.744,1.951,8.387,4.291,16.775,6.924,24.869.585,1.853,3.706,4.291,5.364,4.1,8-.975,15.994-2.731,23.894-4.389,7.315-1.56,14.532-3.413,21.749-5.071,6.924-1.56,14.044-2.341,20.091-6.827,6.924-5.169,13.946-10.338,22.626-12.483,3.023-.78,2.341-2.146,1.755-4.389a105.362,105.362,0,0,1-2.926-13.361c-1.17-8-1.56-16.19-3.121-24.089-2.048-10.826-5.266-21.359-4.974-32.574.2-6.339-1.073-12.776-2.048-19.115-1.365-8.777-3.121-17.555-4.584-26.332-.683-3.8-1.951-6.534-6.534-6.144-5.169.488-10.435.683-15.7.975a16.779,16.779,0,0,1-3.121-.2c.683-1.268,1.073-2.731,2.048-3.706,4.876-4.486,11.216-2.926,16.872-3.706,4.1-.585,4.974-1.951,4.486-5.364a49.164,49.164,0,0,0-1.073-5.462c-.1-.39-1.463-.878-1.755-.683-2.828,2.341-5.462,4.779-8.192,7.12a38.4,38.4,0,0,1-4.974,3.121c-3.9,2.341-9.753,3.706-11.313,7.12-1.853,4.194-4.876,5.266-7.9,7.217-.585.39-1.073.683-1.56,1.073a6.014,6.014,0,0,0,2.243.2c3.413-1.073,6.827-2.438,10.338-3.316,3.706-.975,7.412-1.658,11.216-2.341.39-.1.975.488,1.365.878.1.1-.293.878-.585,1.073-2.828,1.658-5.852,4.779-8.68,4.584-8.582-.585-15.312,4.194-22.626,6.827-8.973,3.218-17.262,8.387-25.845,12.776-8.875,4.584-17.652,9.168-26.43,13.849a2.568,2.568,0,0,0-1.463,1.755c.39,5.266.78,10.63,1.56,15.9.878,5.559,2.146,11.118,3.218,16.677.78,4.779,1.755,9.753,2.731,15.7M389.14,199.556c6.534-4.584,12.874-9.558,19.7-13.654,6.242-3.8,6.437-3.511,1.56-8.973a2.6,2.6,0,0,0-1.073-.975c-8.973-5.266-17.945-10.728-27.113-15.8-6.534-3.609-13.751-6.242-20.091-10.24-9.948-6.339-19.505-13.361-29.161-20.286-2.731-1.951-4.876-1.756-7.119.488-2.438,2.536-4.876,5.169-7.51,7.51-4.486,3.8-9.363,7.217-13.849,11.118-5.266,4.584-10.143,9.655-15.507,14.141-2.146,1.755-5.266,2.438-7.51,4-9.363,6.534-18.725,13.069-27.8,19.993-8.582,6.534-16.872,13.459-25.26,20.286-.975.78-2.146,2.341-2.048,3.511a120.72,120.72,0,0,0,1.951,13.264c.1.585,2.536,1.56,3.316,1.17,8-3.9,16.385-4.584,24.967-3.023,7.607,1.463,15.117,3.511,22.724,5.071,10.435,2.243,21.554,1.268,31.306,6.827,6.047,3.413,13.849,3.511,18.238,10.24.683.975,3.413,2.341,5.949-.1,10.728-10.533,21.066-21.456,34.817-28.673,7.119-3.609,12.679-10.143,19.505-15.9M264.793,247.832c-4.681-1.658-9.363-3.316-14.044-4.876-3.023-.975-6.047-1.951-9.07-2.633-2.341-.585-4.876-.878-7.315-1.268-2.536-.39-2.341.78-1.951,2.828,1.658,7.412,3.218,14.922,4.486,22.529,1.268,7.315,1.658,14.824,3.218,22.139,1.853,8.875,4.681,17.555,6.534,26.43a119.3,119.3,0,0,0,11.118,31.4c1.755,3.316,2.926,6.924,4.584,10.24.975,1.951,4.584,2.243,3.121,5.754-.2.39,1.853,2.633,2.438,2.438,5.852-1.658,12.386,0,17.75-4.1,13.264-9.948,29.453-12.581,44.96-15.9,13.166-2.828,25.942-5.949,38.328-11.021,4.291-1.755,4.194-3.9,1.658-7.315-8.582-11.7-18.823-21.651-29.453-31.5-12-11.216-25.845-19.408-39.889-27.308-11.508-6.632-23.7-12-36.475-17.848m-154.581-3.413c-.683,3.609-1.365,7.217-1.951,10.923a18.629,18.629,0,0,0,.2,4c1.463-.585,3.121-.975,4.291-1.951,1.56-1.268,2.341-3.706,3.9-4.486,10.045-5.169,20.091-10.24,30.331-14.922,7.607-3.511,15.6-6.242,23.212-9.753a179.628,179.628,0,0,0,17.067-9.265c4.876-3.023,8.29-8.777,15.214-8.192.293,0,1.17-1.853,1.17-2.828.1-9.168.1-18.335.1-27.405,0-10.435.293-20.773-.1-31.209-.2-4-.488-9.363-3.023-11.606-3.218-2.926-3.8-5.949-4.681-9.46-.2-.683-.293-1.463-.488-2.146a18.44,18.44,0,0,0-.488,2.243c-.39,6.534-3.218,8.68-9.85,7.51-1.268-.2-3.218-.1-4,.683a119.785,119.785,0,0,0-10.728,12.581c-6.144,8.973-12.874,17.75-15.8,28.478-.39,1.463.488,3.316.878,4.974.683-.975,1.365-2.048,1.951-3.023.488-.78.878-1.56,1.365-2.341,3.218-4.681,6.632-9.168,9.655-14.044,4.876-7.7,9.265-15.7,14.141-23.309.78-1.268,3.218-1.463,4.876-2.146-.2,1.56-.1,3.316-.78,4.584-4,7.022-8,13.946-12.386,20.676-4.486,6.827-9.655,13.166-14.337,19.9-2.828,4.1-7.022,8.192-7.607,12.679-.78,5.657-4,9.558-6.632,13.946-2.633,4.486-6.534,4.389-10.435.975a2.279,2.279,0,0,0-2.048-.488c-.39.2-.683,1.17-.78,1.853-.2.878,0,1.951-.39,2.731-5.559,12.191-11.216,24.284-16.872,36.378-.488,1.073-1.755,1.853-2.633,2.828a17.567,17.567,0,0,1-.585-3.121c-.1-1.755-.488-3.706.2-5.266,3.609-8.777,7.217-17.457,11.411-25.942,1.56-3.121-1.658-2.633-1.853-4.194-.975.39-2.438.488-2.828,1.17-1.951,3.8-3.511,7.9-8.68,8.387.585,4.291,1.463,8.485,1.56,12.776.293,1.755-.975,3.8-1.56,6.827m280.879-28.283c-4.486,3.8-8.68,7.9-13.361,11.313-11.216,8.29-18.628,19.9-26.625,30.916-.585.78-.488,1.951-.78,2.926.878-.39,2.048-.585,2.633-1.268,11.411-11.606,25.26-19.505,39.6-26.918,10.338-5.364,20.481-10.923,30.721-16.482,7.022-3.8,13.751-8.29,21.066-11.606,18.628-8.387,37.548-16.092,56.273-24.382,18.53-8.095,37.353-15.019,58.029-13.751,7.9.488,15.8-3.316,23.8-.1.488.2,1.17-.293,1.755-.39-.2-.2-.293-.488-.585-.683-5.852-3.511-11.411-7.7-17.653-10.435-6.437-2.828-13.556-4.291-20.481-5.949-4.974-1.17-9.655-3.8-15.214-1.365-13.654,5.852-27.7,10.923-41.157,17.067-16.287,7.412-32.282,15.409-48.374,23.309-1.463.683-2.633,2.243-3.8,3.413-1.073,1.073-2.633,3.316-2.828,3.218-6.047-3.609-10.24,1.658-14.337,3.706-9.85,4.779-18.92,11.216-28.673,17.457m24.87-79.485c3.023,7.217,6.047,14.337,8.875,21.651,1.658,4.194,2.828,8.582,4.291,12.874,1.658,4.584,4.194,5.559,8.29,2.536,8-5.852,15.9-11.8,23.6-17.945.78-.683,1.463-2.536,1.073-3.413a14.852,14.852,0,0,0-3.121-4c-.78-.78-2.243-1.268-2.536-2.243-5.657-17.652-11.118-35.3-16.58-52.957-1.17-3.8-1.56-7.8-3.023-11.411a81.779,81.779,0,0,0-6.047-11.118c-.39-.585-2.243-1.073-2.536-.78-7.119,7.51-14.239,15.019-20.871,22.919-1.853,2.243-3.413,5.852-3.023,8.485.78,4.876,3.413,9.363,4.974,14.141,2.146,6.827,4.1,13.849,6.632,21.261M237,68.869c.878.1,2.146.488,2.633.1a2.679,2.679,0,0,0,.585-2.536c-1.658-2.633-3.8-4.876-5.364-7.607-.78-1.268-.39-3.218-.585-4.876,1.755.293,4.194.1,5.169,1.073,2.146,2.341,3.608,5.266,5.266,8,.293.488.488.975.78,1.463a9.315,9.315,0,0,0,1.17-1.56c2.633-5.266,5.169-10.533,7.8-15.8.975-1.853.878-2.926-1.658-3.218-11.8-1.17-21.846,3.023-30.038,10.923-8.29,8.095-12.971,18.725-17.555,29.161a30.361,30.361,0,0,0-2.341,12.093c0,5.754,1.073,11.508,1.853,17.165.2,1.658,1.268,3.121,1.951,4.681,1.463-1.073,3.316-1.853,4.389-3.218.585-.683,0-2.341-.1-3.511-.78-8.875-2.243-12,5.364-17.262,2.633-1.755,3.121-3.706.585-6.242-.975-1.073-1.073-3.023-1.463-4.584,1.755-.39,3.511-.975,5.266-1.268.585-.1,1.463.975,2.048.878,2.146-.683,4.584-1.17,6.144-2.633.78-.683.293-3.218-.2-4.779-1.073-3.413-2.731-6.729-3.511-10.24-.488-2.146-.585-5.462,3.413-2.731,2.828,2.048,5.267,4.1,8.387,6.534m179.451,96.552c1.658,1.365,3.413,2.731,5.169,4.1.293.2.878.1,1.268.2-.1-.39-.1-.683-.2-1.073-1.365-4-2.536-8-4.291-11.9-6.729-14.727-12.679-29.648-15.6-45.643-.39-1.951-.975-3.8-1.463-5.754a55.7,55.7,0,0,0-3.706,4.681c-5.559,8.095-11.021,16.19-16.58,24.284-2.341,3.413-3.218,5.852,1.658,8.29s9.07,6.339,13.654,9.46c6.534,4.389,13.069,8.582,20.091,13.361M373.536,309.762c-1.56-2.536-2.926-5.364-4.876-7.7-4.291-5.266-8.777-10.435-13.459-15.409a31.8,31.8,0,0,0-8-6.437c-1.17-.585-3.609,1.755-5.364,1.56-1.17-.1-2.146-2.341-3.023-3.706-.488-.878-1.17-2.438-.78-2.926,3.413-4.291,0-5.754-2.828-7.8-5.462-3.8-10.923-7.7-15.995-11.9-4.779-4-9.948-6.437-16.287-6.729a136.61,136.61,0,0,1-15.312-1.853c-4.681-.78-9.265-1.951-13.946-2.828a3.6,3.6,0,0,0-1.658.488c.39.2.878.293,1.268.488,14.239,4.779,27.015,12.483,40.084,19.7a168.2,168.2,0,0,1,24.577,16.775c7.607,6.144,14.337,13.264,21.358,20.188,4.389,4.389,8.387,9.168,12.874,13.654,1.268,1.268,3.316,1.755,4.974,2.633-.585-1.365-1.073-2.633-1.756-4a37.133,37.133,0,0,1-1.853-4.194M248.213,88.862a62.876,62.876,0,0,0-26.82,20.968c-1.268,1.658-2.536,3.413-3.706,5.071,1.658-.585,3.316-1.17,4.876-1.658.488-.1.975.1,1.463,0,4-.683,8.485-.78,7.12-7.022a3.031,3.031,0,0,1,.975-2.438,24.308,24.308,0,0,1,3.023-2.243c.585.975,1.268,1.951,1.756,2.926s.683,2.633,1.365,2.828c6.144,1.755,8.387-.1,8.485-6.437a9.712,9.712,0,0,1,.1-2.926c.2-.878.78-2.048,1.463-2.146.683-.2,1.755.585,2.341,1.17,1.073,1.268,1.951,2.731,3.023,4,.585.78,1.17,1.755,1.951,1.951,4.681,1.268,10.143-1.268,12.581-5.754a25.414,25.414,0,0,1,1.658-2.731c1.463-2.146,3.218-2.243,4.389,0a36.591,36.591,0,0,1,3.609,9.168c.78,4.291,2.243,6.242,7.022,5.754,5.169-.585,5.266-.2,2.828-4.486C284.1,98.42,280.3,91.983,273.278,88.862c-8.095-3.609-16.385-3.023-25.065,0m49.739-62.418c-7.607,3.609-15.507,6.632-22.724,10.826-9.168,5.462-17.067,12.484-21.651,22.529-3.023,6.534-6.534,12.484-13.459,15.7-1.268.585-2.926,1.951-2.926,2.926-.293,6.827-6.827,7.51-10.338,11.216-.293.39-.878.488-1.365.78,4.486,4.291-.78,4.681-2.633,6.047-3.023,2.341-7.412,3.511-7.217,8.485a9.249,9.249,0,0,0,.488,2.243c.78-.488,1.755-.683,2.341-1.365,2.048-2.536,3.8-5.266,5.949-7.7,6.047-7.022,15.019-10.435,19.505-19.8,4-8.485,11.606-15.6,18.238-22.626,4.974-5.169,11.021-9.265,16.58-13.751,2.828-2.243,5.266-5.266,8.387-6.729,9.07-4.291,18.433-7.9,27.7-11.9a10.442,10.442,0,0,0,2.146-1.463c-.878-.1-1.951-.585-2.731-.39-5.364,1.463-10.631,3.023-16.287,4.974m-35.6,203.345c-4.389-.78-8.777-2.341-13.069-2.243-6.144.1-12.288,1.268-18.433,2.048-.293,0-.78,1.56-.585,1.658a11.745,11.745,0,0,0,3.8,1.951c3.121.488,6.242.488,9.363,1.073,6.339,1.17,12.483,3.511,18.823,3.706A117.707,117.707,0,0,1,292,242.76a17.41,17.41,0,0,0,2.243.2,5.93,5.93,0,0,1-.878-1.756c-.293-1.17-.39-2.438-.585-3.609a16.293,16.293,0,0,1,3.8.585c2.633,1.17,4.974,2.828,7.7,3.8,5.754,2.146,11.7,3.9,17.457,5.949a5.532,5.532,0,0,1,2.146,1.56,7.81,7.81,0,0,1,.975,2.243c.488-.683,1.365-1.268,1.463-1.951.1-.878-.1-2.243-.683-2.633a62.41,62.41,0,0,0-8-4.194c-6.144-2.731-12.288-5.949-18.725-7.607-5.949-1.56-12.386-1.365-18.628-2.146-5.949-.878-11.7-1.951-17.945-3.413M119.965,374.13a7.334,7.334,0,0,0,0-1.463c-1.463-12.191-10.631-20.578-15.214-31.209,0,0-1.17.2-1.268.488-1.365,3.511-2.633,7.022-3.706,10.63-.39,1.365-.683,3.218-.1,4.389,3.218,6.339,6.729,12.483,10.24,18.628.293.488.975.585,1.56.975a8.151,8.151,0,0,0,.78-1.951c.39-2.341.488-4.681,1.073-6.924.2-.78,1.463-1.463,2.341-1.853.293-.1,1.463.78,1.463,1.073-.488,5.852-1.073,11.7-1.56,17.555-.1,1.56-2.828,3.9.683,4.584a9.838,9.838,0,0,0,6.047-.878c.878-.488.975-3.121.683-4.584-.878-2.926-2.048-5.657-3.023-9.46m76.071-253.571c.293-.683,1.073-1.56.878-1.951-1.365-2.536-13.459-7.7-16.287-6.924-6.437,1.755-12.776,4.291-19.31,5.266-4.779.78-4.779,3.413-4.1,6.437.39,1.658,2.341,3.023,3.706,4.486.975-1.365,2.048-2.731,3.023-4.194.293-.488.2-1.268.585-1.658a36.254,36.254,0,0,1,3.609-2.926c.293,1.365,1.17,2.926.878,4.194-.683,2.536,1.56,4.974,2.243,4.389,3.8-3.218,10.045-1.951,12.679-7.217.683-1.268,2.243-2.146,3.413-3.218a26.039,26.039,0,0,0,2.146,4,4.716,4.716,0,0,0,2.048,1.17,10.067,10.067,0,0,0,3.316.683,7.422,7.422,0,0,0,1.17-2.536m397.912,33.159c.39-.78.683-2.243,1.268-2.341,3.609-.78,8.485,4.291,7.9,7.8a2.362,2.362,0,0,0,.878,1.755c1.17,1.268,2.341,2.536,3.609,3.706,1.853,1.658,3.8,3.218,5.657,4.779a58.641,58.641,0,0,1-2.731-5.559c-3.609-9.948-11.313-16.385-19.31-22.529-1.853-1.463-4.389-1.951-6.534-2.828-6.144-2.536-12.484-.39-18.725-.878-2.048-.2-4.1.293-6.144.39l6.144,1.463a4.8,4.8,0,0,1,1.658.585c6.534,3.511,13.069,6.924,19.408,10.728,2.341,1.365,4.389,3.511,6.534,5.266a20.74,20.74,0,0,0,.39-2.341M111.675,182.488c-1.17-.78-2.536-1.365-3.316-2.438a27.068,27.068,0,0,1-2.048-4.876c1.463-.488,3.316-1.755,4.194-1.268,4.194,2.536,5.852-.488,7.412-3.121,1.268-2.146,1.951-4.681,3.023-7.022a13.448,13.448,0,0,1,1.658-2.438,16.294,16.294,0,0,0-3.9.683c-8,3.706-13.849,8.387-16.872,18.043-2.633,8.29-3.023,16.287-4.1,24.479-.293,2.243,1.073,4.681,1.853,6.924a14.647,14.647,0,0,0,1.463,2.243,7.315,7.315,0,0,0-.2-2.926c-2.731-7.022-1.268-12.288,4.681-16.482a8.307,8.307,0,0,0,1.658-1.56,5.786,5.786,0,0,1-2.243-.488c-1.268-.585-2.341-1.463-3.511-2.146.975-1.365,1.658-3.413,2.926-3.9,1.56-.585,3.706.39,5.559.39a14.379,14.379,0,0,0,3.413-.78,14.921,14.921,0,0,0-1.658-3.316M228.22,250.27c-1.17-7.315-1.756-14.727-3.609-21.846-.683-2.633-4.194-4.584-6.534-6.729-.1-.1-1.463.683-1.463.975.39,2.536.39,5.364,1.463,7.607,1.853,3.8,4.681,7.12,6.632,10.826.78,1.463,1.268,4.291.39,5.169-2.341,2.438-2.633-.975-3.8-1.951a18.018,18.018,0,0,1-1.365-1.365,9.249,9.249,0,0,0-.488,2.243c.293,3.413.585,6.827.975,10.338.39,3.706,1.17,7.119,5.657,8,.78.2,2.146,1.56,1.951,2.048-.585,2.731,1.17,3.8,2.926,5.071.585.39,1.073.975,1.658,1.463a9.863,9.863,0,0,0,.39-2.243c-1.365-6.437-2.828-12.776-4.779-19.6M554.45,144.453c-.78.293-1.658.488-2.438.78a8.558,8.558,0,0,0,2.048,1.17c6.632,1.658,13.556,2.633,19.8,5.169,4.876,1.951,8.973,5.852,13.166,9.07a9.912,9.912,0,0,1,2.926,4c.78,2.146,9.07,9.168,11.313,9.07.488,0,1.17-.1,1.268-.39,1.658-4,3.8-.1,4.291.39,9.07,8.777,18.238,17.457,26.82,26.723,4.1,4.486,7.022,9.948,10.338,15.019a18.749,18.749,0,0,1,1.365,2.828c.1-1.268.683-2.828.2-3.706a104.34,104.34,0,0,0-6.729-10.338c-4.389-5.852-8.29-12.386-13.751-17.165-11.021-9.558-21.749-19.408-34.72-26.527-11.313-6.339-20.871-15.9-35.89-16.092M439.367,76.184c.488-.975,1.073-1.951,1.56-2.926.585.975,1.56,1.853,1.853,2.926,1.56,5.852,3.023,11.8,4.486,17.652a10.167,10.167,0,0,0,.975,1.755,14.531,14.531,0,0,0,.39-1.755c-.975-6.242-1.463-12.679-3.023-18.725-2.926-11.411-6.437-22.626-9.655-33.94a16.259,16.259,0,0,0-.78-1.951A21.892,21.892,0,0,1,434,41.269a13.062,13.062,0,0,0-1.951,12.484c2.341,7.217,4.486,14.532,7.315,22.431M107.286,310.737c-.683-2.438-.878-5.169-2.048-7.412-1.17-2.146-3.316-3.9-4.974-5.754-.878,1.853-1.853,3.706-2.633,5.559-.975,2.146-2.048,4.389-2.828,6.632a5.17,5.17,0,0,0,.2,3.218c2.341,4.486,4.876,8.973,7.51,13.459a2.931,2.931,0,0,0,1.853.78c2.926-4.876,5.852-9.655,2.926-16.482M527.629,143.965c.878-3.121-1.951-1.463-2.243-1.365a97.3,97.3,0,0,0-10.63,3.609c-9.948,4.194-19.6,9.168-29.843,12.679-14.629,5.071-27.6,12.874-40.376,21.359a9.344,9.344,0,0,0-1.756,1.658,11.6,11.6,0,0,0,2.633-.683c6.339-3.413,12.581-7.315,19.115-10.435q24.284-11.411,48.764-22.236c4.389-1.853,9.168-2.731,14.336-4.584M115.576,212.722c1.073-1.365,2.146-2.731,3.121-4.1,2.731-3.9,4-3.8,6.242.39.39.683,1.365,1.17,2.048,1.755a7.628,7.628,0,0,0,1.463-2.146,30.48,30.48,0,0,0,.39-4.194c.2-1.756.488-3.609.78-5.364,1.951,1.073,4,2.048,5.949,3.316.683.488.78,1.755,1.463,2.243,1.073.78,3.023,1.951,3.609,1.56a20.131,20.131,0,0,0,4.779-5.169c.39-.585-1.073-3.218-1.853-3.316-5.364-.39-11.508-2.243-15.8-.2-7.412,3.511-12.484,10.63-16.19,18.14a5.665,5.665,0,0,0,.1,2.536c.585-.293,1.365-.488,1.658-.975a17.33,17.33,0,0,1,2.243-4.486m118.008,98.5a35.779,35.779,0,0,1-1.073,4.876c-1.268,3.121-.878,5.462,2.341,7.119a12.084,12.084,0,0,1,2.731,2.731c1.073,1.17,2.048,2.341,3.121,3.511,1.073-2.048,3.218-4.194,2.926-5.949-1.755-9.07-4.1-18.043-6.339-27.015a24.807,24.807,0,0,0-1.56-3.706,43.2,43.2,0,0,0-.585,4.974c0,.78.878,1.658.975,2.438a8.989,8.989,0,0,1,0,3.609,55.938,55.938,0,0,1-2.536,7.412m-12.191-7.315c-.683-8-1.17-15.994-1.951-23.992-1.17-11.508-2.536-22.919-3.9-34.427-.2-1.463-.1-2.828-.293-4.291l-5.559-36.573c-.2-1.365-.585-2.731-.878-4,0-.1-.683-.1-.975-.1a23.1,23.1,0,0,1,.878,3.511c.2,1.951,0,3.9,0,5.852,0,3.121-.293,6.339.2,9.363,1.365,9.07,3.121,18.14,4.681,27.113.488,3.218.683,6.534.975,9.85,1.268,13.459,2.536,26.82,3.9,40.181.293,3.218,1.268,6.242,1.951,9.46a4.838,4.838,0,0,0,.975-1.951m-158.97-94.6c1.17,1.756,2.243,3.609,3.413,5.364,1.755-1.853,3.609-3.706,5.364-5.462,1.853-1.755,3.706-3.511,5.462-5.266,1.073,1.951,2.243,4,3.218,5.949.2.39-.2,1.073.1,1.463.878,1.268,2.146,3.609,2.633,3.413A8.737,8.737,0,0,0,87,211.649a4.05,4.05,0,0,0,.1-3.8c-3.706-4.194-8.192-7.7-14.141-6.827-4.779.683-9.363,2.438-14.044,3.8a17.888,17.888,0,0,0-2.341,1.268,22.107,22.107,0,0,1,2.438.585,8.969,8.969,0,0,1,3.413,2.633m153.118-16.58c-.683-5.071-1.268-10.143-1.951-15.214-1.268-10.533-2.536-20.968-3.9-31.5-.293-2.146-.878-4.194-1.268-6.242h-.293c.2,2.146.488,4.194.683,6.339v.975c.683,11.7,1.268,23.5,1.951,35.207.293,4.584-.78,10.338,1.56,13.264,2.828,3.511,3.511,7.9,2.828,10.24-2.048,7.315,3.609,9.363,7.022,12.971.1.1.78-.293,1.17-.488-.878-1.17-1.756-3.413-2.633-3.413-2.633,0-3.023-1.853-2.146-3.023,2.438-3.316.293-6.047-.585-8.973a86.583,86.583,0,0,1-2.438-10.143M20.487,333.168c-.585,3.511-1.073,7.022-1.755,10.435-1.951,10.24-4.1,20.383-6.047,30.526-.293,1.365.2,2.828.293,4.194.488-1.365,1.17-2.633,1.56-4,2.341-9.07,4.486-18.238,6.924-27.308,1.073-4.194,3.8-8.387,3.511-12.483a21.4,21.4,0,0,1,2.536-11.411,8.074,8.074,0,0,0,.683-2.633,2.892,2.892,0,0,0-.683-1.463c-.1-.1-1.073.2-1.17.488-1.658,4.291-6.924,7.022-5.852,13.654M390.6,205.9c-6.729,5.754-13.556,11.216-20.091,17.262-4.779,4.389-8.973,9.46-13.361,14.239a22.906,22.906,0,0,0-1.853,2.438,13.188,13.188,0,0,0,3.316-1.073,13.86,13.86,0,0,0,2.438-2.341c4.1-4.389,7.8-9.363,12.386-13.166,10.338-8.387,21.066-16.287,31.794-24.187,4.681-3.413,9.655-6.437,14.434-9.655a11.857,11.857,0,0,0,1.463-1.658c-.78-.1-1.755-.585-2.243-.293-9.07,6.047-18.238,12.191-28.283,18.433M90.706,340c1.268,2.341,2.536,4.779,3.9,7.12a15.192,15.192,0,0,0,1.56,1.951,13.793,13.793,0,0,0,1.268-2.341c1.073-3.316,2.146-6.534,3.121-9.85a3.891,3.891,0,0,0,.1-2.341c-2.438-4.876-4.974-9.655-7.51-14.434-.2-.39-.683-.683-.975-1.073-.2.39-.39.683-.585,1.073-.975,3.8-2.048,7.607-2.926,11.411a5.754,5.754,0,0,0,.293,2.828A44.483,44.483,0,0,1,90.706,340m11.216,46.326c.488.1.975.1,1.268.39,1.658,1.658,3.9,4.291,5.754,1.853,1.365-1.853,2.731-5.657-1.56-7.51a6.581,6.581,0,0,1-2.146-2.438c-2.341-4.1-4.584-8.192-6.924-12.191a2.746,2.746,0,0,0-1.853-.78c-2.926,3.511-3.511,10.728-.878,14.434,1.658,2.048,3.9,3.8,6.339,6.242M121.915,257.1c-4.389,3.413-8.875,6.827-13.166,10.338-.683.488-.78,1.755-1.17,2.633A24.937,24.937,0,0,0,109.919,269q22.968-13.166,45.935-26.43c2.146-1.268,4.1-2.731,6.047-4.1.39-.2.585-.683.878-.975-.585,0-1.17-.293-1.658-.1-5.852,2.536-11.9,5.071-17.652,7.9-7.12,3.608-14.044,7.51-21.554,11.8M230.171,276.6c-3.316-.975-4.876-3.511-5.949-6.632-.293-.683-1.365-1.17-2.048-1.658-.2.293-.585.585-.488.78,1.463,6.632,2.731,13.361,4.681,19.9.585,1.853,3.218,3.218,4.876,4.779.878-1.853,2.731-3.706,2.536-5.462-.293-3.9,2.926-9.07-3.609-11.7M94.12,255.634a131.3,131.3,0,0,0-4.974,12.971c-.39,1.463,1.073,3.413,1.658,5.169a13.6,13.6,0,0,0,2.633-2.048c1.463-1.755,2.536-3.9,4.1-5.559.683-.683,2.146-.585,3.316-.878a12.346,12.346,0,0,1,.39,2.536c-.1,1.17-.683,2.341-.683,3.511,0,.585.975,1.073,1.463,1.658.488-.585,1.268-1.17,1.365-1.755.2-1.853-.2-3.706.1-5.462.683-4.486-4.974-9.363-9.363-10.143M338.914,125.923c8.777,6.144,17.457,12.288,26.235,18.433a35.033,35.033,0,0,0,3.316,1.658c-.1-1.755,1.56-3.609-.878-5.071-9.558-5.559-18.92-11.313-28.478-16.872-1.17-.683-2.926-.585-4.389-.878a18.3,18.3,0,0,0,4.194,2.731M83.88,327.317c.293,5.462.488,10.923.878,16.385,0,.585,1.073,1.073,1.56,1.658.1-.585.39-1.17.2-1.658-3.706-8.777-1.17-17.555,1.463-25.747,1.463-4.486.293-7.315-1.658-10.533-1.17-1.951-2.536-3.8-3.8-5.754-.293-.39-.683-.683-.975-1.073-.2.488-.683,1.073-.585,1.463.585,2.048,1.658,4,1.853,6.047.488,6.047.683,12.093,1.073,19.213m6.339-36.573c-3.023,3.8-3.609,8-1.365,12.386.488.878,1.658,1.463,2.438,2.146.488-.78.975-1.56,1.365-2.341,1.073-2.341,1.56-5.169,3.218-6.924,2.341-2.341,1.951-4.584.585-6.729a45.818,45.818,0,0,0-4.389-5.364,66.859,66.859,0,0,1-1.853,6.827M454,112.269c-1.073-2.341-2.048-4.681-3.121-7.022-.293-.585-.683-1.073-.975-1.56a6.123,6.123,0,0,0-.293,1.853c1.56,4.681,3.121,9.363,4.876,13.946,3.9,10.338,7.7,20.773,11.8,31.111.293.78,1.56,1.073,2.438,1.658,0-.878.39-1.853.1-2.633-1.56-4-3.511-7.9-5.071-12-3.218-8.29-6.242-16.677-9.753-25.357M237.973,335.119c-2.048-2.341-4-4.779-6.242-7.12-.683-.683-1.853-.78-2.828-1.17-.2.78-.488,1.658-.683,2.438-.975,4.681,1.268,8.387,4.1,11.7,1.17,1.365,3.121,1.951,4.681,2.926.1-2.828,4.1-4.974.975-8.777m13.166,15.117c1.951-.488,3.609-1.17,1.463-3.316a53.324,53.324,0,0,0-4.974-4.389c-2.341-1.951-4.779-4.194-5.559,1.268-.293,1.853-1.56,4-1.073,5.462,2.146,5.559,5.852,1.853,10.143.975M106.311,243.443c.293-2.243.78-4.584.878-6.827.1-.78-.488-1.658-.683-2.438-.683.293-1.756.488-2.146,1.073-1.951,3.218-4.1,6.339-5.364,9.85-.585,1.658.293,4.1,1.17,5.754.585,1.268,2.341,1.951,3.609,2.828.488-1.853,1.073-3.706,1.463-5.657a27.321,27.321,0,0,1,1.073-4.584M343.79,241.98a74.977,74.977,0,0,0-5.657,6.827c-.39.585.78,2.146,1.17,3.316a12.562,12.562,0,0,0,1.658-1.56c.878-1.073,1.365-2.828,2.438-3.218,5.754-2.146,6.339-8.777,10.728-11.9.39-.293.39-1.268.585-1.951a5.724,5.724,0,0,0-1.951.585c-2.926,2.341-5.657,4.876-8.973,7.9m6.339,26.82-1.365-1.365c-.2.39-.585.78-.488,1.073.293,1.17.39,2.536,1.17,3.413,4.876,5.754,9.948,11.411,15.019,17.067,1.365,1.56,2.731,2.926,4.1,4.486-.975-2.048-1.463-4.291-2.828-5.949-4.974-6.339-10.143-12.288-15.6-18.725M225.294,303.91c.293.683.975,1.365.878,2.048-.2,1.951-.878,4-.78,5.852.1,1.463,1.17,2.828,1.853,4.291A16.982,16.982,0,0,0,229.2,312.4c.585-3.023.78-6.144,1.073-9.265.1-.683.293-1.658,0-2.048-1.755-2.146-3.609-4.194-5.462-6.242.2,2.438.39,4.779.585,7.217a5.673,5.673,0,0,0-.1,1.853M93.145,361.939c2.341-5.559-2.048-9.46-3.413-14.141-.1-.293-.975-.585-1.17-.488-.39.39-.878,1.073-.78,1.365,2.438,5.267-1.17,11.606,2.828,16.58a16.956,16.956,0,0,0,1.268,1.463,9.842,9.842,0,0,0,.683-1.463,13.16,13.16,0,0,1,.585-3.316M472.039,154.693c-3.218,1.951-6.534,3.9-9.753,5.852-.39.2-.683.683-.975.975.585.1,1.17.39,1.658.2,9.85-4.291,19.7-8.68,29.648-12.971.585-.293,1.17-.683,1.755-.975-.78-.1-1.658-.488-2.243-.293-6.632,2.146-13.166,4.389-20.091,7.217M112.162,335.119c-.683-2.341-1.268-4.681-1.951-6.924a10.712,10.712,0,0,0-.878-1.365c-.39.39-.878.683-1.073,1.17-1.268,3.609-1.463,6.924.878,10.435,1.756,2.731,2.633,5.949,4,8.973a8.235,8.235,0,0,0,1.463,1.755,4.756,4.756,0,0,0,.39-2.243c-.878-3.609-1.853-7.217-2.828-11.8m148.729,27.8c-.488-.975-1.073-1.853-1.463-2.828-2.048-5.852-2.341-5.754-8.192-4.1-3.8.975-1.268,2.536-.488,3.316a57.785,57.785,0,0,0,7.315,5.559c1.17.585,3.316,1.658,2.828-1.951M99,274.164c-3.609.39-4.194,2.341-2.536,5.267,1.853,3.218,3.8,6.437,5.754,9.655a10.838,10.838,0,0,1,.683,1.56,11.793,11.793,0,0,0,.488-1.755c.878-5.364-1.073-9.948-4.389-14.727m213.585,79.973c2.341-.683,4.681-1.268,6.924-1.951.78-.2,1.463-.293,2.243-.488a8.362,8.362,0,0,0-2.633-.488c-9.753.975-18.53,5.266-27.5,8.777a3.247,3.247,0,0,0-.975.585c.585.1,1.268.488,1.755.293,6.534-2.243,12.874-4.486,20.188-6.729M349.154,10.352c-.878.2-1.853.293-2.731.488-1.658.488-3.316.975-4.974,1.56a38.567,38.567,0,0,0,5.852-.293c7.315-1.365,14.727-2.828,22.041-4.194,1.073-.2,2.146-.293,3.218-.488-.1-.39-.2-1.268-.293-1.268a11.85,11.85,0,0,0-3.218,0c-6.534,1.17-12.971,2.438-19.9,4.194m78.022,50.714c-.975-.585-1.853-3.316-3.023.1-.975,2.828-2.633,5.364-3.8,8.095a40.963,40.963,0,0,0-1.658,4.876c1.365-1.268,3.706-2.341,3.9-3.8.585-3.511,7.51-3.218,4.584-9.265M231.146,346.822c-.975-.683-1.951-1.365-2.926-2.146-.683-.585-1.268-1.268-1.853-1.853a12.839,12.839,0,0,0,.878,2.926c1.17,2.048,3.218,3.9,3.8,6.144.683,3.121,2.146,4.389,5.169,4.194.683,0,1.463.1,2.146.1.1,0,.2-.878.2-.975-.78-.293-1.56-.488-2.341-.78s-1.756-.585-2.048-1.17c-1.073-1.951-1.755-4-3.023-6.437m7.8,13.654c.293.488.488,1.365.878,1.365,2.048.2,4.486-.878,4.194,3.121-.2,1.951,6.437,3.9,8.095,2.731.293-.2.293-1.56.2-1.56-4.876-.78-7.022-7.51-13.361-5.657m157.019-34.135c-2.926,1.17-5.852,2.243-8.777,3.413a5.793,5.793,0,0,0-.78.39c.293.2.683.585.975.585a23.583,23.583,0,0,0,3.511-.975c6.144-1.951,12.386-3.9,18.53-5.852.683-.2,1.463-.293,2.243-.488a8.891,8.891,0,0,0-2.633-.488,117.7,117.7,0,0,0-13.069,3.413M85.83,290.256c.975-2.926,2.048-5.949,3.023-8.875a4.06,4.06,0,0,0,0-2.633c-.2-.585-1.073-1.073-1.658-1.56a26.289,26.289,0,0,1-.39,2.731c-.975,3.511-2.048,6.924-2.926,10.338a10.485,10.485,0,0,0,.1,3.023,14,14,0,0,1,1.853-3.023M215.054,131.774c-.2-3.023-.293-6.144-.488-9.168,0-.585-.683-1.463-1.073-1.463a2.215,2.215,0,0,0-1.755.878c-1.853,2.828-.585,7.7,3.316,9.753M54.134,207.846c-3.023,1.658-6.047,3.316-9.168,4.876a14.813,14.813,0,0,1-1.951.585,9.716,9.716,0,0,0,2.341,1.365c5.266.683,7.412-3.218,8.777-6.827m488.613-66.319c1.853,0,3.609.1,5.461,0,.585,0,1.073-.488,1.56-.683-.683-.39-1.268-1.073-1.951-1.17a43.2,43.2,0,0,0-7.022-.878,25.258,25.258,0,0,0-5.266,1.073c1.17.293,2.341.683,3.511.975.975.2,1.853.39,3.706.683M336.476,259.048c-.683-1.365-1.17-2.926-2.146-3.9-.488-.488-2.146.293-3.218.488,1.463,1.853,3.023,3.609,4.584,5.364.1.1,1.073-.78,1.658-1.17-.2-.1-.293-.2-.878-.78M202.863,123.484c-.683-.1-1.268-.293-1.951-.39,0,2.146-.1,4.194.1,6.339.1.78.878,1.56,1.365,2.341.488-.878,1.365-1.658,1.463-2.633a21.529,21.529,0,0,0-.975-5.657m-57.541,2.926c-.2-.78-.488-1.658-.683-2.438-2.341,1.17-4.681,2.341-7.022,3.609-.1,0,.39,1.17.39,1.17a68.45,68.45,0,0,0,7.315-2.341m197.493,134.1c-.683-.585-1.365-1.268-2.048-1.853-.2,1.658-.878,3.413-.488,4.974.2.585,2.633.585,4,.78a17.994,17.994,0,0,0-1.463-3.9m2.438-5.364c.975.488,1.268,4.486,3.023.39.78-1.853,2.438-3.413,3.706-5.169a6.22,6.22,0,0,0,.78-1.365c-.585.1-1.268-.1-1.56.293a82.191,82.191,0,0,0-5.949,5.852M244.8,330.243c0,1.463-.293,3.023.1,4.291.293.878,1.658,1.463,2.633,1.951.1.1,1.17-.878,1.073-.975a19.193,19.193,0,0,0-3.8-5.266M421.325,177.124c-1.56-1.073-3.121-2.048-4.681-3.121a47.848,47.848,0,0,0,3.8,4.974c.878.78,2.341.878,3.608,1.365-.878-.975-1.56-1.853-2.731-3.218m236.992,60.467c-.2-.1-.488-.2-.683-.293-.1,0-.293.293-.293.293a44.974,44.974,0,0,0,2.146,4.974,9.9,9.9,0,0,0,2.341,2.146c-.293-.878-.585-1.853-.975-2.731a47.6,47.6,0,0,0-2.536-4.389M552.987,133.237c-1.755-.2-3.511-.293-5.267-.488-.1,0-.293.39-.39.585,1.365.1,2.828.2,4.194.293.293.1.585.1,1.463-.39M436.441,186.39c.1-.2.2-.488.293-.683,0-.1-.293-.293-.293-.293a32.268,32.268,0,0,0-3.218,1.463c-.1.1.1.78.2,1.268.683-.488,1.658-.878,3.023-1.755m-94.114,88.262-.585,2.341,2.048-.878c-.39-.683-.683-1.365-1.463-1.463m310.137-43.887c.2.78.39,1.658.585,2.438.39-.1.78-.293,1.268-.39-.488-.878-.975-1.755-1.853-2.048M330.136,349.26c.39-.2.878-.488,1.268-.683a25.951,25.951,0,0,0-2.731-.293,6.2,6.2,0,0,0-1.755.585,25.525,25.525,0,0,0,3.218.39m-140.927-220.9a12.14,12.14,0,0,1-.975,1.951,12.915,12.915,0,0,0,1.951-1.17C190.282,129.043,189.892,128.263,189.209,128.361Z" transform="translate(0 0)"/><path d="M227.195,196.395c-.975-3.511,1.853-4.876,3.9-6.437,8.777-6.632,17.36-13.556,26.527-19.6,12.776-8.485,23.894-19.213,37.938-25.845,7.119-3.413,13.166-8.973,19.8-13.459a20.231,20.231,0,0,1,3.121-1.853c.488-.2,1.268.1,1.853.1-.1.683,0,1.56-.39,1.951-3.218,3.413-6.242,7.217-9.948,9.85-6.534,4.681-13.751,8.387-20.383,12.874-9.655,6.437-19.31,13.069-28.771,19.993-9.753,7.12-19.213,14.727-28.966,21.944C230.706,196.59,228.95,196.2,227.195,196.395Z" transform="translate(-5.607 -3.178)"/><path d="M44.465,324.355a46.833,46.833,0,0,1-5.462,4.1,12,12,0,0,1-3.8.78c.293-1.463.1-3.413.975-4.194a91.964,91.964,0,0,1,9.07-7.217c4.779-3.316,9.655-6.437,14.434-9.655a5.5,5.5,0,0,1,1.951-1.073c2.146-.2,4.291-.2,6.437-.293-1.17,1.463-2.146,3.218-3.609,4.194C58.021,315.48,51.39,319.771,44.465,324.355Z" transform="translate(-0.864 -7.571)"/><path d="M643.15,249.23a52.422,52.422,0,0,1,7.51-2.536c1.56-.39,3.218-.1,4.876-.2-.683,1.658-.878,4.1-2.048,4.779a40.543,40.543,0,0,1-9.655,3.413,3.934,3.934,0,0,1-2.633-1.268A22.3,22.3,0,0,1,643.15,249.23Z" transform="translate(-15.848 -6.08)"/><path d="M123.2,253.34c.78-6.924,4.876-11.9,9.363-16.58a11.734,11.734,0,0,1,2.633-1.56c-.1,1.268.293,2.828-.293,3.9a39.545,39.545,0,0,1-4.389,6.437A78.75,78.75,0,0,1,123.2,253.34Z" transform="translate(-3.04 -5.801)"/><path d="M440.584,77.765c-.585.2-.878.293-1.17.2-1.17-.2-2.243-.39-3.414-.585.293-.293.683-.975.975-.975A15.494,15.494,0,0,1,440.584,77.765Z" transform="translate(-10.774 -1.874)"/></g></svg>