<svg xmlns="http://www.w3.org/2000/svg" viewBox="3193.145 353.813 473.853 472.869"><defs><style>.a{fill:#424242;}</style></defs><g transform="translate(3193.145 480.41) rotate(-20)"><path class="a" d="M248.752,97.27a23.755,23.755,0,0,0,5.587,1.427c7.179.4,14.377.472,21.549.946,3.91.258,6.568,2.353,7.662,6.4a44.352,44.352,0,0,1,.972,20.066c-.5,2.684.391,5.631.678,8.456.549,5.385,1.323,10.758,1.6,16.156.141,2.766,1.386,2.7,3.143,1.927,7.033-3.1,13.161-1.286,19.571,2.378,4.082,2.334,9.129,2.978,13.74,4.391.994.3,2.26.374,2.913,1.034,3.644,3.683,7.686,3.311,12.441,2.53,5.242-.861,11.175-1.484,16,.162a29.454,29.454,0,0,1,12.935,9.721c3.671,4.782,2.959,11.324.932,16.828-2.321,6.3-5.592,12.392-12.27,15.384a19.615,19.615,0,0,1-15.323.391,16.576,16.576,0,0,0-3.949-.459c-.022,1.322-.392,2.76,0,3.943.954,2.854.4,4.574-2.394,6.15-7.2,4.053-13.964,8.944-21.371,12.535-3.911,1.9-8.787,1.861-13.254,2.518a39,39,0,0,1-5.47.044c-4.1.016-4.894.983-4.2,4.973.869,4.982,2.011,9.944,2.456,14.966.6,6.736.67,13.52.91,20.285.141,3.988-1.965,6.518-5.784,6.893-8.077.792-16.186,1.5-24.294,1.684-12.21.276-24.43.064-36.646.09a14.132,14.132,0,0,0-2.355.4c.393.678.737,1.391,1.188,2.028,1.465,2.068,2.652,4.485,4.534,6.07,2.72,2.291,2.36,5.3,1.715,7.676-2.7,9.928-5.86,19.733-9.018,29.529-.392,1.216-1.644,2.822-2.723,3.02-2.988.549-3.157,2.143-2.442,4.448,4.108,13.244,1.06,21.909-10.621,29.418-3.838,2.467-7.728,5.533-12,6.484-7.2,1.6-12.386-2.795-17.038-8.013-7.01-7.862-6.072-16.491-3.312-25.481.838-2.73.087-4.114-3.012-4.231-7.521-.283-7.183-.5-10.134-7.51-3.828-9.088-8.3-17.9-12.384-26.887a10.915,10.915,0,0,1-1.323-5.288c.381-3.446-1.415-3.664-3.857-3.237-9.418,1.646-18.8,3.528-28.248,4.977a148.643,148.643,0,0,1-17.83,1.66,91.492,91.492,0,0,1-14.8-.861c-2.528-.334-4.623-1.722-4.545-5.162.2-8.841-.04-17.692.1-26.536.112-7.047.667-14.09.694-21.135a5.536,5.536,0,0,0-2.294-4.241c-7.712-3.822-15.7-7.15-24.524-6.758-2.891.129-4.347-1.347-5.914-3.081-1.081-1.2-1.953-2.579-3.016-3.792-1.97-2.248-3.95-2.388-6.364-.359-8.587,7.216-23.629,6.791-31.81-.761-6.885-6.355-7.413-16.049-1.314-23.366,3.447-4.135,6.239-9.314,12.084-10.253a88.336,88.336,0,0,1,14.7-.652c1.883.016,2.582-.259,2.155-2.142a8.846,8.846,0,0,1,5.941-10.521c6.42-2.085,12.764-4.421,19.075-6.824,5.454-2.077,10.771-4.514,16.238-6.555,2.482-.927,3.645-2.1,3.544-4.961-.233-6.639.145-13.3-.137-19.938-.271-6.379-1.26-12.727-1.562-19.106-.256-5.412,3.282-7.92,8.769-7.605,2.952.17,5.962-1.122,8.977-1.494,3.563-.44,7.162-.585,10.743-.883,7.555-.629,15.12-1.169,22.659-1.949,5.695-.59,11.337-1.752,17.039-2.186,5.312-.4,7.686-2.116,8.816-8.091,1.95-10.312,5.851-20.254,8.911-30.359.606-2,1.773-4.117,1.533-6.037-.644-5.15,3.123-5.312,6.265-6.11,4.755-1.209,4.94-1.23,2.063-4.833-4.5-5.634-5.562-11.728-4.051-18.741C171.511,12.574,180.789,3.081,196.792.176c5.126-.931,9.158,1.989,12.673,4.879,10.887,8.952,16.517,23.993,10.128,39.249a11.118,11.118,0,0,0-.882,3.815c-.02.567.949,1.72,1.347,1.668,7.5-.98,9.938,3.72,11.206,9.785,2.506,11.988,8.361,22.437,14.876,32.6.973,1.518,1.609,3.253,2.611,5.1m30.125,46.136c-.983-11.668-2.052-23.33-2.906-35.008-.332-4.532-1.006-5.509-5.522-5.426-13.223.242-26.449.432-39.666.879-6.38.216-12.339-2.137-18.83-2-9.711.206-19.443.793-29.266-.176-8-.79-16.106,3.49-24.467,1.335-.644-.166-1.477.42-2.225.644-5.725,1.707-11.255,4.12-17.506,3.6-2.79-.23-5.661.441-8.489.762-14.748,1.673-29.485,3.461-44.25,4.971-3.058.313-4.751,1.2-4.464,4.41.81,9.061,1.576,18.128,2.544,27.173,1,9.376,2.616,18.7,3.227,28.1.554,8.529.117,17.122.117,25.687,0,3.418-.129,6.845.1,10.247.05.73,1.407,1.37,2.161,2.051,1.492-1.909,4.091-3.71,4.29-5.746.975-9.977,1.414-20.012,1.835-30.035.267-6.343.294-6.489,6.945-5.367a6.327,6.327,0,0,0,2.1,0c7.458-1.3,14.951-2.445,22.348-4.034,5.363-1.152,9.107-.129,9.6,4.285a275.174,275.174,0,0,1,1.757,28.691c.012,1.863-3.074,4.806-5.241,5.4-4.625,1.276-9.592,1.285-14.4,1.937a34.455,34.455,0,0,0-4.533,1.234,22.1,22.1,0,0,0,1.839,4.279c1.465,2.1,2.575,4.025-.171,5.826-8.826,5.79-17.741,11.447-26.491,17.348-1.59,1.073-3.378,2.912-3.684,4.643a182.7,182.7,0,0,0-2.579,20.416c-.421,6.762.151,13.582-.187,20.353-.19,3.808,1.351,4.464,4.611,4.275,11.415-.663,22.851-1,34.258-1.777,8.515-.577,17.008-1.546,25.483-2.57a4.862,4.862,0,0,0,3.42-2.442,63.262,63.262,0,0,0,2.757-10.227,173.59,173.59,0,0,0,2.762-17.362c.329-3.762-.708-7.629-.587-11.431.043-1.343,1.486-3.492,2.666-3.791a89.115,89.115,0,0,1,11.9-1.821c5.926-.667,11.953-.755,17.786-1.876,9.459-1.816,18.871-3.7,28.554-3.122,1.032.061,2.662,1.061,2.878,1.913a91.517,91.517,0,0,1,1.785,10.227q1.352,10,2.521,20.015c.274,2.367.24,4.6-2.647,5.772-1.238.5-3.132,2.591-2.962,2.867,1.632,2.641,2.16,7.011,5.965,7.006,6.367-.007,12.736-.942,19.1-1.545,3.628-.344,7.266-.672,10.862-1.242,7.489-1.185,14.937-2.635,22.437-3.739,2.4-.353,4.9.042,7.362.1-.088-2.471-.114-4.947-.273-7.413q-1.231-19.066-2.528-38.127c-.378-5.49-1.274-6.449-5.732-5.99a65.082,65.082,0,0,0-8.689,1.388c-6.87,1.669-13.848,3.111-20.464,5.517-2.951,1.073-3.337-.739-3.746-1.957a20.66,20.66,0,0,1-.916-6.771,69.532,69.532,0,0,0-3.967-24.492c-1.2-3.373.324-7.825,3.349-8.8,2.159-.693,4.682-.3,7.043-.3s3.357-.891,2.473-3.3c-.448-1.221-.844-2.465-1.192-3.718-1.119-4.025,1.384-6.564,5.512-7.454a210.609,210.609,0,0,0,20.3-5.868c1.111-.36,1.907-1.978,2.65-3.142,2.978-4.663,1.265-9.9,1.284-15.3M163.011,73.044c-1.787,6.843-3.641,13.669-5.3,20.543-.3,1.234-.132,3.64.411,3.831,2.218.784,4.792,1.53,6.985,1.079,1.482-.3,3.279-2.466,3.649-4.09.779-3.421.656-7.041,1.043-10.564a2.755,2.755,0,0,1,1.243-1.871,2.134,2.134,0,0,1,2,.349c3.416,3.837,7.073,7.53,9.972,11.738,2.932,4.256,5.364,5.549,10.475,4.175a18.54,18.54,0,0,1,4.648-.318C204,97.882,209.85,97.9,215.7,97.9c1.312,0,2.628.067,3.935-.018,1.386-.091,2.974.042,4.09-.594,1.412-.805,2.317-2.45,3.657-3.442,1.787-1.323,3.781-2.366,5.687-3.529.241,1.947.61,3.889.694,5.843.138,3.174,1.221,4.6,4.681,3.53,1.175-.362,2.806.786,4,.445.928-.265,2.332-2.169,2.1-2.659a82.931,82.931,0,0,0-4.939-8.492,98.893,98.893,0,0,1-11.744-27.158c-.947-3.447-1.233-7.985-6.018-8.173-3.791-.148-7.667.778-11.44,1.548-4.1.838-8.146,2.944-12.184,2.868a51.027,51.027,0,0,1-15.1-3.014c-5.04-1.706-9.253.427-13.666,1.694-1,.287-1.734,2.235-2.184,3.556-1.384,4.069-2.572,8.206-4.257,12.737m13.9,253.219c.38-.1,1.034-.108,1.1-.311,2.862-8.657,10.034-12.214,17.964-12.887,6.494-.551,12.631,2.411,16.814,8.217,1.012,1.4,2.85,2.213,4.308,3.3,1.07-1.447,2.6-2.746,3.121-4.369,1.471-4.608,1.847-9.672,3.892-13.966,3.892-8.169,5.138-15.341-1.926-22.709-2.225-2.321-3.806-3.926-6.965-3.623-3.249.312-6.517.466-9.751.883a3.818,3.818,0,0,0-2.884,5.239c1.436,3.617,2.847,7.259,3.954,10.984.347,1.168.083,3.5-.591,3.809-2.211,1.028-2.692-1-3.364-2.635-1.872-4.558-4-9.013-5.768-13.61-.892-2.323-2.25-3.238-4.635-2.989-3.107.324-6.218.646-9.335.839-8.011.5-8.012.467-8.043,8.363a4.1,4.1,0,0,1-.023,1.255c-.26.755-.65,1.465-.986,2.193-.787-.442-1.985-.7-2.282-1.362a15.334,15.334,0,0,1-1.666-5.585c-.074-2.656-1.158-3.443-3.567-3.174-2.827.317-5.7.364-8.484.894-5.725,1.09-6.8,3.212-4.892,9.072a30.593,30.593,0,0,0,1.385,3.635c3.446,7.276,7.288,14.389,10.3,21.84,2.671,6.615,4.68,8.242,12.325,6.7M288.568,212.925c1.252.7,2.554,1.331,3.742,2.129,1.065.715,2.423,1.454,2.828,2.5.212.548-1.316,1.809-2.116,2.7-.751.832-1.673,1.524-2.34,2.412a10.857,10.857,0,0,0-1.025,2.306c.958.282,2.046,1.011,2.854.777,9.131-2.644,18.259-5.311,27.3-8.25a58.066,58.066,0,0,0,9.906-4.5c4.577-2.52,5.19-7.442.107-13.388-6.436-7.53-8.616-15.409-4.908-24.718,1.98-4.973,1.715-5.262-3.383-7.085-5-1.789-10.373-3.171-14.68-6.072a18.389,18.389,0,0,0-12.21-3.139c-7.021.455-10.285,4.962-8.6,11.7.75,3,3.3,4.26,6.344,3.473,3.822-.987,7.7-1.8,11.588-2.467.669-.116,1.523.839,2.292,1.3-.424.666-.7,1.685-1.3,1.932-1.8.743-3.744,1.109-5.583,1.761-2.911,1.032-7.106-.485-8.564,3.339-1.685,4.421-3.847,8.709-3.206,13.884.761,6.136.675,12.377.956,19.415M44.2,196.072c1.42,5.811,2.858,11.411,1.047,17.655-1.343,4.632,4.633,12.369,8.9,12.13,7.668-.429,14.157,2.931,20.962,5.371,3.669,1.316,4.55.885,4.447-3.043-.164-6.241-.563-12.476-.8-18.715-.314-8.151-.554-16.306-.876-24.457a3.466,3.466,0,0,0-.679-2.207c-2.734-2.584-2.013-4.6.029-7.46,1.2-1.678.446-4.745.571-7.187a29.311,29.311,0,0,0-5.455,1.415c-9.9,4.685-19.917,9.028-30.806,10.888-2.382.407-2.9,1.306-1.843,3.6a106.881,106.881,0,0,1,4.5,12.009m115.444,42.976c0,2.668-.4,5.413.093,7.987.759,3.961-.5,9.127,5.173,10.732a20.947,20.947,0,0,0,5.453,1.018c2.658.016,3.069,1.527,2.721,3.512-.314,1.788-1.037,3.5-1.48,5.271a8.026,8.026,0,0,0,0,1.977,12.084,12.084,0,0,0,2.276-.095c4.225-.971,8.391-2.3,12.661-2.943,5.647-.856,5.68-.635,3.765-6.067-2.333-6.615-1.547-8.48,4.953-11.7,1.747-.865,3.583-1.574,5.25-2.569,2.819-1.681,4.763-1.031,6.346,1.769,2.515,4.447,5.078,8.874,7.825,13.18.745,1.168,2.223,1.87,3.364,2.785.476-1.315,1.365-2.635,1.349-3.945-.042-3.4-.427-6.8-.775-10.183-.511-4.969-1.019-9.942-1.744-14.881-.158-1.073-1.185-2.84-1.887-2.878a84.024,84.024,0,0,0-14.306-.035c-9.008,1.066-17.954,2.67-26.913,4.132-4.582.747-9.135,1.669-14.123,2.933M173.966,25.855c.007,5.395-.236,10.719,2.284,15.872,4.185,8.557,17.77,7.993,24.011,4.654a25.678,25.678,0,0,0,12.4-29.225,16.094,16.094,0,0,0-20.6-11.179c-9.671,3.075-15.9,9.035-18.09,19.877m101.54,188.334c2.711.183,4.754-.527,4.623-3.761-.24-5.924-.593-11.844-.815-17.769-.139-3.71-1.26-4.635-4.9-3.471-4.7,1.506-9.461,2.927-14,4.852-4.094,1.737-5.687-.637-7.221-3.522-.421-.792-.483-1.772-.881-2.58-1.935-3.93-5.649-2.517-8.5-2.219-2.584.27-2.79,3.082-2.42,5.374,1.358,8.414,3.157,16.778,4.044,25.238.459,4.379,2.177,4.047,5.334,3.273,7.929-1.943,15.921-3.626,24.731-5.414M21.866,224.3a16.783,16.783,0,0,1,3.012-.815c5.324-.442,9.013-3.543,12.616-7.132,3.945-3.93,4.594-8.26,3.4-13.5-2.3-10.044-6.615-13.379-15.464-12.077-4.079.6-8.116,2.771-11.736,4.954-8.647,5.212-10.151,8.938-6.683,18.765,2.41,6.83,8.312,8.276,14.86,9.8m326.109-58.143c-7.587-1.394-14.085,5.178-15.126,11.185-.721,4.154.19,8.835,1.328,13.02,3.146,11.579,15.377,14.854,22.515,9.995,6.766-4.606,9.373-13,6.872-20.973-.272-.868-.565-1.73-.841-2.6-1.737-5.457-7.994-10.241-14.747-10.631M134.361,190.173c-.281-3.674-.664-7.343-.812-11.022-.129-3.209-2.018-4.056-4.7-3.7-7.827,1.049-15.692,1.947-23.422,3.5-2.49.5-6.772-.6-7.207,3.571-.658,6.3-.672,12.671-.936,19.012-.13,3.115,1.648,2.278,3.2,1.405,2.174-1.223,4.28-2.573,6.374-3.932,2.486-1.614,4.242-1.311,5.671,1.513.547,1.081,2.036,2.444,3.038,2.4a85.852,85.852,0,0,0,10.328-1.387c9.357-1.571,8.545-.575,8.463-9.258,0-.421,0-.842,0-2.106m74.154,144.095a43.176,43.176,0,0,0-3.833-4.616c-5.563-5.121-11.416-1.046-15.839,1.159-9.805,4.888-11.11,22.9-2.718,29.754,2.619,2.139,5.661,5.129,9.87,2.782,2.59-1.444,5.269-2.734,7.808-4.261a6.068,6.068,0,0,0,2.592-2.566c2.658-7.044,5.548-14.111,2.121-22.252M98.127,224.722c3.5-2.377,6.913-4.9,10.528-7.087,3.14-1.9,5.081-3.6,2.211-7.434-1.437-1.921-1.834-4.62-2.7-6.967-2.526,1.006-5.078,1.955-7.572,3.035-2.354,1.02-3.99,2.413-2.538,5.377.23.47-.321,1.626-.846,2.057-.344.282-1.378-.009-1.953-.32-3.239-1.75-7.628.221-8.048,3.834-.441,3.789-.6,7.612-.878,11.42-.2,2.766.619,3.246,2.986,1.6,2.683-1.862,5.583-3.411,8.81-5.518M199.246,273.6c1.714,1.264,3.3,3.3,5.171,3.608,2.7.44,5.607-.571,8.431-.61,3.593-.049,3.89-1.535,2.423-4.327-2.531-4.818-4.909-9.718-7.48-14.515a24.323,24.323,0,0,0-3.565-5.217c-2.986-3.168-6.053-.762-8.757.547-2.349,1.137-2.7,3.362-1.585,5.953,1.946,4.5,3.591,9.139,5.362,14.561m55.194-94.8c.7,3.217,1.277,6.47,2.189,9.626.252.872,1.5,1.456,2.3,2.171a12.736,12.736,0,0,1,1.011-2.188c1.1-1.558,2.031-3.495,3.552-4.441a14.152,14.152,0,0,1,6.9-2.45c6.105-.024,9.751-2.09,9.477-8.752a13.173,13.173,0,0,1,.263-1.565c.4-4.706-.89-5.684-5.455-4.22-5.327,1.709-10.574,4.176-16.032,4.821-5.007.592-6.194,2.175-4.207,7m33.285,88.9c-.159,3.184-1.409,4.676-5.017,4.753-5.951.126-11.888.989-17.826,1.593a5.508,5.508,0,0,0-1.595.734c.5.589.915,1.555,1.516,1.689a12.255,12.255,0,0,0,3.77.062c5.385-.52,10.753-1.385,16.147-1.578,4.172-.149,5.826-1.909,5.534-5.892-.847-11.579-1.656-23.161-2.593-34.732-.069-.852-1.051-1.629-1.608-2.442a6.88,6.88,0,0,0-.814,2.336q.749,15.864,1.676,31.719c.018.32.529.611.809,1.758m-119.657-4.213a59.683,59.683,0,0,0-7.187-2.881c-2.8-.742-3.827.646-3.863,3.6a48.5,48.5,0,0,1-1.339,9.907c-.581,2.595-.379,4.722,2.21,5.756,2.754,1.1,8.033-.961,8.444-3.239.735-4.071,1.172-8.2,1.734-13.141m-44.24,22.33q-19.4.843-38.793,1.711a8.289,8.289,0,0,0-2.076.667c.616.612,1.2,1.71,1.852,1.758,5.616.414,11.254.971,16.868.827a158.314,158.314,0,0,0,17.364-1.636c9.1-1.246,18.171-2.748,27.243-4.215.565-.091,1.028-.812,1.538-1.239a5.273,5.273,0,0,0-1.513-.38c-4.367.243-8.746.4-13.091.869-2.875.308-5.7,1.075-9.393,1.637M215.256,45.236c1.4-4.608,3.039-9.166,4.082-13.854.339-1.525-.866-3.394-1.365-5.106-.555,1.194-1.13,2.379-1.651,3.588a4.722,4.722,0,0,0-.221,1.17c-1.608,10.863-11.969,20.221-22.623,20.579-1.137.038-2.247.873-3.369,1.338,1.27.658,2.517,1.8,3.816,1.867,2.249.109,4.525-.608,6.8-.7,6.269-.267,10.89-3.163,14.531-8.877m-20.645,278.5c3.746.094,7.492.246,11.238.249a19.02,19.02,0,0,0,3.467-.628c-.666-.974-1.11-2.336-2.032-2.863-9.432-5.391-15.32-5.087-24.027,2.922-.845.777-.871,2.446-1.277,3.7a19.486,19.486,0,0,0,3.752-.453c2.714-.863,5.361-1.938,8.878-2.927m-8.427-53.087c-4.26.562-8.53,1.056-12.768,1.75a2.686,2.686,0,0,0-1.861,1.673,2.9,2.9,0,0,0,1.146,2.351,6.8,6.8,0,0,0,3.373.928c5.521.09,11.052.179,16.563-.076,1.114-.051,2.159-1.593,3.237-2.447-1.124-1.393-1.988-3.345-3.445-4.023-1.5-.7-3.578-.155-6.245-.155M124.671,169.528c-1.6.194-3.2.344-4.793.588q-8.867,1.366-17.723,2.8c-1.078.176-2.125.545-3.186.825,1.106.844,2.163,2.306,3.328,2.4a28.771,28.771,0,0,0,6.77-.724c6.276-1.029,12.561-2.027,18.8-3.261,1.673-.331,4.795,1.195,4.479-2.221-.055-.593-3.848-.873-5.929-1.2-.253-.04-.6.518-1.745.8M83.8,182.589c0-2.245.034-4.491-.03-6.734-.012-.429-.41-.848-.63-1.272-.456.254-1.2.417-1.313.781a9.728,9.728,0,0,0-.53,3.142c.24,10.968.5,21.937.871,32.9.041,1.206.819,2.387,1.255,3.58.407-1.235,1.183-2.476,1.161-3.7-.173-9.286-.5-18.569-.784-28.7m128.927,161.79c-.392,2.358-.809,4.712-1.162,7.076-.127.845-.1,1.713-.145,2.571.717-.63,1.752-1.119,2.1-1.911,3.125-7.106,3.878-14.28.01-21.386-.425-.782-1.4-1.264-2.121-1.885a11.6,11.6,0,0,0-.333,2.784c.483,3.978,1.089,7.94,1.651,12.751m-37.077,4.213,1.188,2.03q.249-.872.5-1.744c1.4-4.884,2.844-9.758,4.181-14.66a12.458,12.458,0,0,0,.1-2.9c-1.147.641-2.847,1-3.347,1.972-2.318,4.507-3.057,9.4-2.622,15.3m152.1-169.8c-2.177,3.366-1.458,12.1,1.3,14.718a2.113,2.113,0,0,0,1.854.365c.373-.149.7-1.128.594-1.646a73.486,73.486,0,0,0-3.751-13.438M173.123,89.054c1.281,2.949,2.492,5.934,3.952,8.792.143.281,2.417.088,2.682-.418,1.055-2.013-3.967-8.794-6.635-8.373m108.7,25.28c-.294-2.26-.532-4.529-.926-6.771-.079-.452-.747-.8-1.143-1.2a4.2,4.2,0,0,0-.433,1.415c.231,3.109.434,6.227.861,9.312a27.927,27.927,0,0,0,1.342,4.4c.368-.127,1.064-.294,1.054-.376-.2-1.707-.493-3.4-.749-5.1-.041-.274-.006-.559-.006-1.682m3.371,75.839-1.532-3.792a19.675,19.675,0,0,0-.954,3.421,17,17,0,0,0,.038,4.98c.245,1.208,1.216,2.269,1.864,3.4.195-1.138.472-2.269.562-3.414.1-1.242.022-2.5.022-4.591m38.762-26.122c-3.541-1.545-7.073-3.111-10.642-4.589-.245-.1-.764.457-1.156.708.333.31.613.774,1.006.907a74.4,74.4,0,0,0,10.791,2.973m-39.6,61.514,1.089.421c.447-2.42.959-4.832,1.262-7.271.039-.317-1.008-1.08-1.541-1.069s-1.543.746-1.524,1.125c.1,1.99.45,3.968.715,6.793m-201.817.421a40.1,40.1,0,0,0,1.2-5.2,10.65,10.65,0,0,0-.679-3.223,15.619,15.619,0,0,0-.9,3.038,18,18,0,0,0,.381,5.388M83.8,168.264l-1.189-3.717c-.446,1.309-.906,2.613-1.327,3.93a1.136,1.136,0,0,0,.008.826c.393.641.872,1.228,1.318,1.836a9.729,9.729,0,0,0,1.19-2.876M271.293,184.7c-1.275.281-2.577.479-3.814.879a6.338,6.338,0,0,0-1.6,1.166c.254.3.617.888.746.841,2.232-.819,4.435-1.716,6.645-2.6a9.818,9.818,0,0,0-1.975-.29m12.64-10.112c-.276,1.129-.579,2.253-.774,3.4-.015.089.732.308,1.125.467a13.111,13.111,0,0,0-.351-3.862M83.8,229.778l-1.042-1.264a12.592,12.592,0,0,0-.566,2.9c.009.4.87.773,1.344,1.159.088-.65.176-1.3.265-2.793M283.09,155.2c.306-1.1.669-2.186.871-3.3.041-.227-.525-.564-.812-.851-.16.974-.329,1.947-.475,2.924C282.636,154.236,282.669,154.511,283.09,155.2Z" transform="translate(0)"/><path class="a" d="M247.64,132.556c.351,4.083.306,7.972.667,11.823,1.023,10.914,2.337,21.8,3.244,32.723.214,2.583-.959,5.257-4.249,5.317-2.4.044-4.841-.85-7.224-.7a84.559,84.559,0,0,0-11.535,1.592c-4.223.862-6.368-.63-6.391-4.918-.012-2.246.087-4.5-.046-6.735A10.312,10.312,0,0,0,221.19,169c-.523.847-1.095,1.668-1.56,2.545-1.707,3.22-3.545,6.386-5.019,9.712-1.521,3.435-3.509,3.171-6.171,1.452q-8.787-5.674-17.695-11.161c-2.892-1.779-2.833-4.055-1.261-6.5,5.2-8.1,10.593-16.09,15.671-24.271a9.106,9.106,0,0,0,1.07-5.682c-.443-3.05,1.434-3.193,3.161-2.769,3.782.928,7.394,2.938,11.192,3.307,3.7.36,7.607-.509,11.315-1.328a65.773,65.773,0,0,0,9.587-3.253c2.361-.922,4.3-.692,6.16,1.506m-49.506,38.13c3.585,2.528,7.18,5.041,10.75,7.59,2.066,1.475,3.084.372,4.153-1.388,5.522-9.091,11.166-18.109,16.62-27.241.464-.777.264-2.819-.336-3.225-4.458-3.016-9.053-5.838-13.693-8.57-2.322-1.367-3.877-.434-5.332,1.841-4.56,7.129-9.352,14.111-14.1,21.12-3.785,5.589-3.8,5.7,1.936,9.873M244.9,153.412c0-4.622.007-9.244,0-13.867-.009-4.58-.694-4.982-5.415-3.488-2.979.943-6.01,1.718-9,2.621-1.112.336-2.179.822-3.267,1.24.868.594,1.693,1.265,2.61,1.769,6.4,3.517,6.831,6.07,1.868,11.446a6.132,6.132,0,0,0-.877.9c-1.783,3.04-4.333,5.914-5.088,9.2-.887,3.858-.189,8.076-.214,12.138-.018,2.887,1.58,3.894,4.22,3.742,4.786-.275,9.584-.893,14.354-.725,3.237.114,3.653-1.091,3.369-3.752-.648-6.061-1.129-12.14-1.741-18.205C245.641,155.685,245.182,154.978,244.9,153.412Z" transform="translate(-29.645 -20.539)"/><path class="a" d="M264.408,150.294a53.53,53.53,0,0,1-.134-6.929c.121-1.113,1.17-2.125,1.8-3.183,1.13,1.122,3.27,2.284,3.227,3.358-.275,6.842,3.293,13.576.434,20.511-.656,1.592-.1,3.652-.329,5.468-.084.658-.839,1.23-1.288,1.841-.675-.689-1.858-1.321-1.944-2.078C265.469,163.107,264.969,156.908,264.408,150.294Z" transform="translate(-41.567 -22.057)"/><path class="a" d="M309.37,270.877c-.772-.935-1.721-1.64-1.76-2.392-.026-.5,1.189-1.44,1.94-1.549,3.7-.536,7.711,1.1,11.122-1.687.186-.152,1.369.446,1.59.925.291.629.4,1.913.043,2.172-1.466,1.067-3.054,2.342-4.75,2.627A34.874,34.874,0,0,1,309.37,270.877Z" transform="translate(-48.4 -41.731)"/></g></svg>