<svg xmlns="http://www.w3.org/2000/svg" viewBox="7469.504 226.5 154.437 593.279"><defs><style>.a{fill:#424242;stroke:#424242;}</style></defs><path class="a" d="M5,47.752C4.174,43.562,3.022,39.822,2.592,36,1.565,26.892.908,17.742.034,8.616-.178,6.4.593,5.251,2.839,4.889c4.614-.745,9.176-1.955,13.814-2.368,6.585-.587,13.218-.682,19.833-.891,10.181-.322,20.365-.554,30.547-.838C76.529.526,86.024.063,95.521.029,102.682,0,109.845.7,117.008.734,122.247.762,127.486.122,132.73,0c5.419-.123,8.408,3.384,7.342,8.757a186.912,186.912,0,0,0-3.336,38.18c.094,10.866-.819,21.742-.664,32.6.213,14.878.929,29.752,1.6,44.621.354,7.881,1.2,15.739,1.583,23.62.659,13.633,1.044,27.279,1.713,40.911.353,7.2,1.517,14.373,1.522,21.559.012,16.635-.413,33.271-.757,49.9-.12,5.793-.286,11.6-.854,17.363-.891,9.038-2.176,18.037-3.211,27.061a17.834,17.834,0,0,0,.022,5.341c1.179,6.072,2.592,12.1,3.857,18.156a16.084,16.084,0,0,1,.2,3.212c.019,5.4-.076,10.8.026,16.2.218,11.556.126,23.139.912,34.659.92,13.465,2.637,26.876,4.015,40.31.54,5.265,1.317,10.516,1.6,15.794.458,8.663.5,17.347.9,26.013.421,8.977.64,17.994,1.7,26.9,2.739,22.945,1.034,45.956,1.594,68.929a32.639,32.639,0,0,0,.8,5.013c.883,4.8-1.51,8.712-3.943,12.334-.942,1.4-3.537,1.892-5.483,2.389-6.969,1.778-14.151,2.886-20.929,5.2-6.192,2.11-12.789,2.574-18.712,4.589a48.216,48.216,0,0,1-16.979,2.645c-5.565-.115-11.122-.615-16.687-.752-3.346-.082-4.059-2.84-5.92-4.6-1.338-1.266-4.816-.067-7.275-.418-1.819-.26-3.5-1.386-5.3-1.878-3.078-.837-6.331-1.158-9.288-2.28-4.085-1.551-9.63-1.632-10.687-7.185a28.6,28.6,0,0,1,.226-10.475c2.526-13.185,5.518-26.281,8.074-39.461,2.643-13.632,4.92-27.335,7.468-40.986,3.232-17.317,6.281-34.677,10-51.893,1.848-8.565,5.119-16.815,7.542-25.266C71.857,384.509,83.8,364.423,94.095,343.6c1.557-3.15,2.72-5.887,2.464-9.483a47.422,47.422,0,0,1,.757-10.763c1.445-9.009-3.359-16.054-7.021-23.478-5.9-11.97-12.155-23.783-17.63-35.946-3.794-8.429-6.715-17.272-9.687-26.044-3.064-9.045-5.582-18.273-8.576-27.342-7.056-21.37-14.244-42.7-21.4-64.033-5.737-17.117-12.1-34.053-17.062-51.391-4.209-14.708-6.8-29.878-10.136-44.838-.163-.73-.535-1.413-.809-2.53M106.741,5.736c-5.511-.275-11.024-.8-16.533-.765-8.124.048-16.243.554-24.367.751-13.474.327-26.96.35-40.423.933a146.874,146.874,0,0,0-18.726,2.5c-1.17.2-2.927,1.969-2.927,3.014a34.681,34.681,0,0,0,1.282,8.88c2.091,7.807,1.447,15.966,3.874,23.828,2.767,8.964,3.8,18.446,6.026,27.6,2.469,10.162,5.307,20.24,8.222,30.286,1.663,5.731,3.929,11.284,5.687,16.99,2.329,7.56,4.17,15.278,6.712,22.761,1.733,5.1,4.348,9.9,6.492,14.87,2.965,6.87,5.45,13.981,8.866,20.615,7.235,14.052,15.088,27.785,22.411,41.793,8.3,15.873,14.755,32.542,20.646,49.438,3.512,10.072,7.121,20.11,10.711,30.154a24.2,24.2,0,0,0,1.435,3.108c.119.225.557.282.848.416a1.972,1.972,0,0,0,.163-.748c-1.282-6.054-2.537-12.115-3.894-18.153-2.94-13.084-6.548-26.043-6.831-39.6-.092-4.42-.668-8.83-.76-13.249-.135-6.5-.088-13,.032-19.494.015-.823.938-1.629,1.44-2.442.6.88,1.664,1.733,1.717,2.645.659,11.3.955,22.618,1.8,33.9a157.06,157.06,0,0,0,2.8,18.589c1.265,6.4,3.4,12.636,4.423,19.06,1.252,7.826,1.771,15.771,2.561,23.669.26,2.6,1.435,3.238,4.007,2.7,6.672-1.389,9.77-8.184,9.914-14.317.152-6.465-.323-12.957-.769-19.42-.354-5.136-.83-10.288-1.693-15.358-1.432-8.416-3.194-16.777-4.863-25.152q-3.031-15.208-6.148-30.4c-1.748-8.463-3.814-16.867-5.313-25.372-1.41-8-2.335-16.09-3.344-24.157-1.178-9.418-2.234-18.852-3.3-28.284-.344-3.036-.484-6.095-.85-9.127-.772-6.391-1.706-12.764-2.364-19.166-.085-.827,1.071-1.781,1.652-2.677.792.822,2.136,1.56,2.277,2.482.522,3.417.545,6.907.941,10.348,1.324,11.516,2.458,23.065,4.2,34.519,1.036,6.8.368,13.8,3.048,20.464,1.376,3.42,1.112,7.473,1.82,11.2,1.544,8.126,3.2,16.232,4.877,24.331,2.174,10.485,4.683,20.908,6.558,31.444,2,11.244,3.457,22.573,5.688,33.8,1.368,6.885,1.148,14.075,1.827,21.11.7,7.221,1.608,14.421,2.462,21.626a11.48,11.48,0,0,0,.64,2.056c.6-.735,1.643-1.414,1.746-2.214.939-7.331,2.018-14.664,2.464-22.033.582-9.614.625-19.26.9-28.892.015-.549.009-1.1,0-1.647-.128-9.191.287-18.431-.542-27.558-.8-8.771-3.552-17.372-4.237-26.142a357.146,357.146,0,0,1-.866-35.882c.26-11.476,2.093-22.925,2.2-34.4.116-12.669-1.051-25.346-1.466-38.026-.41-12.51-.724-25.028-.8-37.544-.041-7.022.516-14.047.761-21.072.3-8.58.47-17.166.877-25.741.136-2.876-.8-3.881-3.693-3.716-7.154.408-14.32.593-22.305.868M37.951,574.591a28.334,28.334,0,0,0,4.1,2.024c5.235,1.636,10.547,3.03,15.769,4.7,3.524,1.13,6.361,0,7.257-3.877,2.121-9.18,3.859-18.448,5.845-27.661,1.9-8.811,3.384-17.762,6.054-26.34,1.994-6.407,3.633-12.707,3.841-19.406.162-5.244.394-10.494.855-15.718a59.76,59.76,0,0,1,1.643-8.372,2,2,0,0,1,1.353-1.252c.6-.067,1.712.347,1.814.752a16.71,16.71,0,0,1,.783,5.382c-.235,2.688-1.282,5.308-1.479,7.994-.934,12.694-1.631,25.4-2.556,38.1-.325,4.457-.879,8.916-1.649,13.318-1.808,10.345-3.822,20.653-5.72,30.982-.49,2.669,3.813,10.87,6.309,11.217,4.506.625,9.175,1.266,13.619.691,2.666-.345,7.513-.2,6.485-5.783a35.382,35.382,0,0,1-.06-6.308c0-7.186-.2-14.379.045-21.558.377-11.174,1.243-22.332,1.557-33.507.452-16.082.557-32.174.883-48.26.2-9.91.531-19.818.819-29.726.019-.651-.065-1.556.307-1.9a17.9,17.9,0,0,1,2.917-1.843,8.511,8.511,0,0,1,.841,2.649c-.19,6.067-.575,12.128-.764,18.2-.33,10.594-.877,21.194-.748,31.784.12,9.8.745,19.615,1.644,29.378.645,7,2.174,13.917,3.19,20.887,1.172,8.047,1.668,16.242,3.535,24.117.984,4.148.5,10.072,6.777,11.531.084.019.109,2.109-.425,2.635-1.8,1.769-6.52.383-7.384-2.1a115.307,115.307,0,0,1-6.626-34.334c-.148-4.558-.49-9.112-.843-13.66a6.81,6.81,0,0,0-.979-2.109,7.866,7.866,0,0,0-.6,2.084c-.034,17.3.007,34.6-.064,51.9-.01,2.472,1.759,3,3.236,2.764a100.153,100.153,0,0,0,12.412-2.8c6.469-1.9,12.828-4.174,19.283-6.127,3.158-.956,4.547-2.463,4.777-6.117,1.076-17.082-2.4-33.891-2.628-50.881-.1-7.577-.282-15.168-.849-22.721-.894-11.917-2.414-23.79-3.16-35.714-.662-10.571-.6-21.186-.912-31.78-.524-17.759-.826-35.53-1.748-53.269-.492-9.462-2.059-18.87-3.25-28.288-.089-.7-1.057-1.294-1.616-1.937-.426.573-1.1,1.092-1.239,1.727-1.818,8.457-3.62,16.919-5.286,25.407-.508,2.586-.458,5.277-.892,7.882-1.3,7.819-2.292,15.726-4.23,23.39-1.387,5.485-4.052,10.656-6.292,15.9-.292.684-1.413,1.134-2.244,1.392-.229.071-1.1-.912-1.157-1.464-.37-3.721-1.179-7.523-.758-11.173,1.017-8.808,3.1-17.506,3.883-26.326.93-10.416,3.843-20.282,6.691-30.216a22.882,22.882,0,0,0,.459-3.2c-1.132.564-2.736.831-3.312,1.746a90.6,90.6,0,0,0-6.133,11.036c-3.115,6.94-5.832,14.059-8.818,21.058-3.335,7.818-7.52,15.362-9.992,23.437-2.785,9.1-3.96,18.679-6.038,28-2.576,11.559-4.865,23.135-4.909,35.048a17.069,17.069,0,0,1-.982,5.349c-.2.584-1.5.842-2.34,1.091a2.551,2.551,0,0,1-.719-1.45c.223-7.3,0-14.667.923-21.884,1.066-8.316,3.169-16.5,4.805-24.743,1.386-6.98,2.291-14.1,4.259-20.907,1.75-6.058,4.5-11.853,7.1-17.634,6.4-14.238,12.985-28.4,19.426-42.618a1.83,1.83,0,0,0-.722-1.612c-3.042-.666-6.107-1.271-9.193-1.681-2.576-.342-4.737-.157-6.128,2.914-3.249,7.177-7.029,14.111-10.452,21.212-4.522,9.38-9.733,18.535-13.165,28.308-5.57,15.86-10.235,32.06-14.69,48.279-2.393,8.714-3.595,17.759-5.256,26.669-1.357,7.278-2.626,14.574-3.883,21.87q-1.823,10.585-3.539,21.188c-.987,6.052-1.764,12.142-2.922,18.16-1.018,5.3-2.437,10.513-3.675,15.767-1.65,7.005-3.525,13.97-4.808,21.042-.4,2.209-1.578,5.417,2.336,7.289m41.6-329.12c-1.356-3.278-2.519-6.654-4.1-9.819-7.218-14.433-14.551-28.809-21.86-43.2a20.422,20.422,0,0,0-1.36-2.047,12.751,12.751,0,0,0,.339,2.512c4.44,12.969,8.812,25.964,13.421,38.873,4.092,11.462,8.147,22.953,12.791,34.2,4.112,9.953,8.89,19.64,13.614,29.327a177.294,177.294,0,0,0,9.026,16.329c1.069,1.708,3.442,2.615,5.265,3.82.227.15.736-.128,1.114-.208a8.71,8.71,0,0,1-.524-.875c-3.617-7.964-7.582-15.792-10.76-23.928-5.766-14.76-11.062-29.7-16.966-44.983m43.663,93.093c3.032-.275,6.059-.677,9.1-.787,2.9-.105,5.11-1.636,5.16-4.2a31.082,31.082,0,0,0-1.712-10.308c-.853-2.536-2.542-4.728-6.263-3.739a87.571,87.571,0,0,1-13.733,2.459c-2.7.271-5.515-.384-8.262-.742-2.9-.378-3.9,1.319-3.578,3.652a68.382,68.382,0,0,0,2.3,10.53,4.173,4.173,0,0,0,2.985,2.218c4.373.5,8.787.644,14.01.919M143.4,421.358a2.8,2.8,0,0,0-.585-.224c-.062-.01-.232.192-.229.293.263,8.114.912,16.236.737,24.34-.386,17.895,1.444,35.608,3.261,53.361.908,8.872.621,17.863.963,26.8a60.184,60.184,0,0,0,.8,6.241c.151,1.047.38,2.083.574,3.124a30.088,30.088,0,0,0,.223-3.6q-1.192-22.116-2.452-44.229c-.553-9.92-1.14-19.837-1.638-29.76-.594-11.837-1.109-23.678-1.658-36.342m-28.01-23.891c-.549,3.337-1.131,6.67-1.617,10.017a6.087,6.087,0,0,0,.348,1.9c.423-.625,1.109-1.2,1.23-1.883,1.706-9.591,3.3-19.2,4.993-28.794q1.886-10.718,3.935-21.407c.781-4.04,1.79-8.037,2.6-12.071a2.1,2.1,0,0,0-.582-1.664c-.267-.249-1.015.019-1.548.056.09.565.216,1.127.262,1.7a10.878,10.878,0,0,1,.173,3.568c-1.729,6.262-4.105,12.383-5.347,18.731-1.878,9.6-3.005,19.347-4.451,29.855m21.42-228.2c0-4.383.081-8.768-.052-13.146a14.639,14.639,0,0,0-1.082-3.641,19.6,19.6,0,0,0-.489,3.281c.236,13.719.4,27.442.859,41.155.18,5.4,1.031,10.778,1.6,16.164a19.181,19.181,0,0,0,.386,1.892,7.443,7.443,0,0,0,.407-1.841c-.239-6.6-.6-13.193-.783-19.793-.218-7.884-.294-15.773-.843-24.071m-60.963,383.9c1.1-6.8,2.209-13.6,3.267-20.414.067-.429-.27-.92-.419-1.382a8.233,8.233,0,0,0-.37,1.078c-1.382,6.961-2.911,13.9-4.087,20.895-1.534,9.127-2.733,18.31-4.183,27.453-.624,3.937,1.394,6.491,5.5,6.543a3.557,3.557,0,0,0,1.078-.355c-.185-.151-.373-.3-.553-.453-5.233-4.556-3.75-10.291-2.827-15.948.9-5.525,1.734-11.061,2.6-17.416M126.1,309.317l-.635-2.883a6.136,6.136,0,0,0-1.023,1.273c-2.321,5.354-6.784,6.916-12.141,6.984a8.909,8.909,0,0,0-1.835.411c.651.406,1.354,1.224,1.945,1.149,3.2-.4,6.535-.621,9.509-1.737,1.7-.638,2.807-2.863,4.182-5.2m12.357,37.9-1.117-3.589c-.177,1.2-.421,2.393-.5,3.6-.028.448.38.91.526,1.385.3.984.561,1.981.838,2.973.083-1.181.166-2.363.248-4.368m-37.9-12.357.577,1.07.214-3.575c-.29.037-.8.01-.833.122A3.963,3.963,0,0,0,100.562,334.856Z" transform="translate(7470 227)"/></svg>