<svg xmlns="http://www.w3.org/2000/svg" viewBox="4503 2572 875 876.002"><g transform="translate(4482.9 2558.511)"><g transform="translate(20.1 26.603)"><path d="M224.632,160.613c17.372,13.22,32.45,29.828,51.789,39.989,15.624,8.3,33.542,11.909,48.839,20.868,16.28,9.615,28.626,24.692,40.426,39.442q34.253,42.283,68.4,84.676c31.466-25.567,75.935-27.315,111.335-46.981,42.611-23.6,66.757-69.6,99.644-105.435C684.83,149.8,737.821,121.061,789.718,93.2c7.976,20.978-7.211,44.468-26.331,56.268s-41.846,16.28-61.84,26.55c-60.2,30.92-84.239,106.527-139.633,145.314-31.357,21.961-70.363,30.265-103.14,50.04-25.567,15.405-46.544,37.257-67.194,58.89-43.922,45.889-90.357,97.459-93.853,160.829-1.311,24.365,3.933,48.839,2.731,73.2-1.748,33.761-15.843,65.555-29.718,96.475-12.237,27.1-24.365,54.3-36.6,81.4-6.009,13.439-13,27.861-26,34.963-13,6.993-33.433,1.2-35.072-13.439,41.081-53.974,83.364-110.679,95.383-177.327,10.817-60.311-3.715-125.866,22.726-181.151,26.987-56.6,90.9-88.609,117.672-145.314q-39.169-46.872-78.339-93.635c-9.068-10.817-18.465-21.961-30.92-28.735-12.237-6.665-26.331-8.741-39.442-13.439-23.928-8.741-43.376-26.331-64.572-40.535A262.014,262.014,0,0,0,22.613,140.728c-.874-8.959-1.639-17.918-2.513-26.878,71.127.874,147.718,3.715,204.532,46.763m81.289,70.363c10.6,6.228,18.683,15.733,26.659,25.02q39.825,46.872,79.759,93.853c2.4,2.841,4.917,6.009,5.026,9.724.109,3.278-1.857,6.337-3.715,9.068a448.233,448.233,0,0,1-54.739,66.32c-17.154,17.044-35.946,32.887-49.385,53.1C260.141,562.138,297.289,666.7,259.6,747.332c-19.885,42.5-59.327,74.951-72.876,119.966,4.37,5.354,13.111,5.135,18.9,1.42s9.4-10.052,12.674-16.17c36.055-65.446,73.094-134.388,73.2-209.121,0-21.961-3.169-44.031-.656-65.883,5.791-51.024,41.081-93.088,74.952-131.875,26.987-30.92,54.739-62.387,90.575-82.49,31.794-17.809,68.724-25.785,98.77-46.544,52.226-36.055,75.388-104.779,129.253-138.431,31.248-19.448,71.455-26,95.711-53.755,5.463-6.118,8.413-18.137.546-20.65-29.391,26.768-68.833,39.989-100.081,64.681-50.04,39.442-76.263,105.544-131.766,136.683-38.241,21.524-86.424,23.6-120.731,50.915C389.394,298.716,347,238.186,282.758,212.292c-34.089-13.767-59.983-42.392-92-60.529-43.485-24.474-95.274-27.97-145.1-30.92-8.3-.437-19.994,2.076-19.339,10.38,51.789,2.076,105.872,4.7,151.1,30.046,30.811,17.154,56.159,44.25,89.483,56.05C279.917,221.907,294.012,224.092,305.921,230.975Z" transform="translate(-20.1 -19.222)"/><path d="M704.121,195.646c3.606-8.085,7.1-16.061,10.707-24.146,1.2-2.731,3.059-5.9,6.118-5.9,2.95,0,4.7,3.059,5.9,5.681,2.841,6.118,5.572,12.237,8.413,18.355,1.639-2.185,1.748-5.135,2.513-7.757.656-2.622,2.513-5.463,5.244-5.572,2.622-.109,4.589,2.185,6.009,4.261a216.363,216.363,0,0,1,18.9,32.231c1.2,2.513,2.076,6.228-.328,7.648a7.133,7.133,0,0,1-2.622.656c-20.322,1.639-40.535,3.387-60.857,5.026-11.035.874-22.07,1.857-33.215,2.731-.656-6.337,2.95-12.346,6.337-17.7,5.026-7.976,10.161-15.843,15.187-23.818,1.2-1.857,2.513-3.824,4.589-4.37,2.732-.765,5.572,1.42,6.556,4.043s.874,5.9.546,8.631m-1.748,20.978H726.41c3.824,0,7.539,0,11.363.109a302.225,302.225,0,0,0-17.044-37.913c-6.119,12.674-12.237,25.239-18.356,37.8m43.813-5.463a5.914,5.914,0,0,0,2.513,2.4c2.513.983,5.9-1.2,7.867.656A42.177,42.177,0,0,0,744.11,190.4c-3.387,2.076-4.48,6.665-3.606,10.489.983,3.715,3.278,7.1,5.681,10.27m-49.057-16.28a78.522,78.522,0,0,1-12.893,22.07,2.547,2.547,0,0,0,.219,3.5c6.665-.765,10.161-8.085,12.565-14.313C698.549,202.529,699.751,197.831,697.129,194.881Z" transform="translate(40.149 -12.519)"/><path d="M637.324,57.514c5.791-8.3,12.456-17.044,22.18-19.667,3.824,14.2,7.539,28.407,11.363,42.611.437,1.748.983,3.715.328,5.463-.546,1.748-2.622,3.169-4.261,2.294-10.489-5.244-22.617,2.185-34.089,4.48-7.43,1.53-15.733.874-22.07,5.026-5.791,3.715-12.893,4.48-19.667,5.135-11.035,1.093-22.18,2.076-33.215,3.169-2.622.219-5.463.437-7.757-.765s-3.715-4.589-2.076-6.665a267.223,267.223,0,0,0,34.307-53.537,5.452,5.452,0,0,1,1.2-1.857c1.639-1.42,4.48-.328,5.681,1.53,1.093,1.967,1.093,4.261,1.2,6.556a41.082,41.082,0,0,0,5.354,18.137c6.774-12.893,13.548-25.894,20.213-38.787,1.2-2.294,2.841-4.917,5.463-5.135,3.278-.219,5.244,3.387,6.446,6.446,2.95,8.631,6.119,17.154,9.4,25.567M623.558,41.89c-.546-1.53-1.42-3.5-3.059-3.387-6.118,11.363-12.128,22.726-18.028,34.2a12.8,12.8,0,0,0,4.152,16.061c6.118-1.2,12.346-2.294,18.465-3.5,3.5-.656,7.539-1.748,8.85-5.026.983-2.4.219-5.026-.546-7.539-3.168-10.161-6.556-20.431-9.833-30.811m-63.916,56.05a279.53,279.53,0,0,0,31.576-3.715c2.185-.328,4.589-.983,5.572-2.95,1.093-2.294-.546-4.917-2.076-6.993a55.454,55.454,0,0,1-9.178-23.709L559.641,97.939M660.159,77.071c1.2-1.311.874-3.278.546-5.026-1.639-7.1-3.169-14.313-4.807-21.415-.219-1.093-1.857-.437-2.513.437-3.059,3.5-6.009,6.993-9.068,10.489-1.639,1.857-3.278,3.824-3.715,6.118-.874,3.933,1.748,7.976,5.354,9.833s7.867,1.639,11.8.765A5.552,5.552,0,0,0,660.159,77.071Z" transform="translate(28.717 -25.491)"/><path d="M245.818,793.639c6.665-3.933,9.287-12.128,13.876-18.246a31.191,31.191,0,0,1,28.735-11.909c2.95.437,6.118,1.53,7.648,4.043,1.53,2.622,0,6.774-2.95,6.774-6.993,0-11.035,10.38-5.9,15.187,5.681-2.95,8.631-9.287,12.783-14.094a32.355,32.355,0,0,1,24.911-11.035c3.605.109,7.757,1.093,9.615,4.152s-.328,8.3-3.933,7.757a6.379,6.379,0,1,0-1.311,12.674c5.463.219,8.631-5.791,11.581-10.38A35.652,35.652,0,0,1,370.81,762.5a6.606,6.606,0,0,1,3.824.874c2.622,1.967,1.42,6.228-.983,8.522-2.294,2.294-5.572,3.824-6.993,6.774-1.53,2.95.765,7.648,3.824,6.555,3.824-1.42,7.43,4.261,5.354,7.757S368.3,796.7,364.91,794.4s-5.026-6.446-5.791-10.489a32.042,32.042,0,0,1-.219-10.707,37.925,37.925,0,0,0-14.968,16.061c-3.606,7.539-14.2,10.817-21.524,6.556s-9.724-15.078-4.917-21.961c-7.32,1.42-11.8,8.522-16.28,14.422s-12.128,11.472-18.9,8.3c-4.261-1.967-6.446-7.1-6.446-11.8s1.857-9.287,3.606-13.657c-9.4,3.169-14.75,12.674-20.65,20.759-5.9,7.976-15.3,15.733-24.8,12.674-.874-2.731,1.093-5.681,3.5-7.211C240.464,795.824,243.3,795.169,245.818,793.639Z" transform="translate(-0.314 42.746)"/><g transform="translate(300.994 740.893)"><path d="M324.008,736.082c4.48,8.631-1.967,21.633-12.346,22.944-5.791.765-9.724-1.53-13.876-4.152-1.2-.765-1.42-3.5-1.53-5.354-.656-10.707-1.311-21.415.546-32.231.437-2.294-.219-5.026,1.967-6.337,2.95-1.748,6.337-4.261,9.506-4.152,6.228.109,12.237,6.774,10.27,14.094-.437,1.748-1.639,3.387-1.967,5.135a5.561,5.561,0,0,0,.874,3.933c1.967,2.076,4.261,3.933,6.556,6.118m-18.465-.218c-1.42,1.093-4.7-.328-4.37,3.278.328,3.933.219,7.867.765,11.691.219,1.311,1.639,3.387,2.513,3.387a32.938,32.938,0,0,0,9.833-.656,8.617,8.617,0,0,0,4.917-3.606c3.059-5.135,2.4-10.161-1.639-14.531a6.746,6.746,0,0,0-4.589-1.967c-2.294.219-4.7,1.42-7.43,2.4m2.294-24.8c-2.076,1.53-5.572,2.731-5.9,4.589-.983,4.589-.437,9.4-.437,14.2,0,.328.874,1.093,1.311.983,5.9-.437,9.833-3.5,11.472-8.959C315.486,718.272,313.192,710.843,307.838,711.061Z" transform="translate(-295.587 -703.304)"/><path d="M383.509,803.755a32.841,32.841,0,0,1,1.857-3.933c1.639.983,3.715,1.42,3.387,4.043-.328,2.95-.656,5.9-.874,8.85-.109.765-.109,1.53-.219,2.294a10.208,10.208,0,0,0,1.967-1.748c1.639-2.294,3.168-4.7,4.7-6.993,4.48-6.774,8.741-13.657,13.548-20.213,5.354-7.43,8.631-15.733,11.909-24.146a88.273,88.273,0,0,0,5.9-27.97c.109-1.42-.546-2.841-.437-4.261a13.252,13.252,0,0,1,1.2-3.278,15.434,15.434,0,0,1,3.169,2.731c.437.656.109,1.967.109,2.95a94.465,94.465,0,0,1-5.9,29.5,151.247,151.247,0,0,1-13.111,27.1c-4.7,7.648-10.052,14.859-15.187,22.289-1.311,1.857-2.95,3.606-4.37,5.354a4.163,4.163,0,0,0-.328,1.093c.437-.109.765-.109,1.2-.219,3.278-1.42,6.556-3.059,9.943-4.152a9.925,9.925,0,0,1,5.354-.219c2.513.656,2.622,2.076.109,3.387a5.126,5.126,0,0,1-.983.656c-6.118,2.076-12.346,4.261-18.574,6.228-3.278,1.093-4.48-.109-4.48-3.606C383.509,814.353,383.509,809.218,383.509,803.755Z" transform="translate(-287.457 -701.489)"/><path d="M324.513,731.928c-.546-6.118.328-11.8,4.043-16.717,1.967-2.622,4.152-5.572,7.757-4.7a15.646,15.646,0,0,1,7.648,4.261c1.967,2.076.546,6.665-1.42,9.068-3.168,3.715-7.43,4.917-12.018,5.026-1.967,0-2.185.656-1.53,2.185.546,1.311.983,2.731,1.639,4.043,1.748,3.606,5.463,3.824,7.867.546a7.954,7.954,0,0,1,1.857-1.967,1.9,1.9,0,0,1,1.53.109c.328.109.765.874.656,1.093-1.093,1.857-1.967,4.043-3.606,5.463-4.589,3.933-11.035,1.857-13.111-3.824a45.969,45.969,0,0,1-1.311-4.589m13.767-9.833c2.841-1.2,2.622-3.387,1.639-5.572-1.093-2.4-3.169-2.622-5.135-1.42a16.764,16.764,0,0,0-4.7,4.043c-.765,1.2-.546,3.059-.765,4.589,1.42-.109,2.841-.109,4.152-.328A35.9,35.9,0,0,0,338.279,722.095Z" transform="translate(-292.923 -702.975)"/><path d="M363.956,736.453c.328,3.278.546,6.228,4.043,7.648.219.109.328,1.53.109,1.639-.983.437-2.294,1.2-3.168.874-3.824-1.311-4.807-4.589-5.135-8.3a9.4,9.4,0,0,0-.109-1.748c-.328.437-.765.874-1.093,1.311-1.857,2.185-3.933,4.589-7.1,3.5-2.95-.983-4.589-3.387-4.7-6.774a26.482,26.482,0,0,1,8.413-21.087c2.622-2.622,4.7-.656,6.446.765a5.759,5.759,0,0,1,1.639,4.37c-.437,5.9-1.093,11.8.656,17.809m-6.228-3.606c.546-4.589,1.2-9.178,1.639-13.767.109-.765-.546-1.53-.874-2.294-.656.328-1.639.328-2.076.874-1.639,2.076-4.7,3.059-4.48,6.665.219,3.169-.765,6.446-.983,9.724,0,.983.765,2.622,1.53,2.732.983.219,2.294-.437,3.278-1.093C356.526,735.142,356.854,734.159,357.728,732.848Z" transform="translate(-290.848 -702.802)"/><path d="M401.661,725.561c-4.043,3.387-4.807,7.976-5.135,12.783a17.134,17.134,0,0,1-1.42,5.135c-.219.656-1.311.874-2.076,1.42-.546-.874-1.53-1.748-1.53-2.513.219-3.715.874-7.43.983-11.254.328-6.993.437-14.094.656-21.087a17.257,17.257,0,0,1,.546-4.7c.219-.656,1.093-1.2,1.748-1.748.656.874,1.857,1.748,1.748,2.622-.109,6.009-.546,12.018-.874,18.137a3.873,3.873,0,0,0,.328,1.2c.219-.219.656-.437.765-.656,3.933-5.354,9.506-4.807,12.565,1.311,2.841,5.682,2.294,11.472.546,17.263-.219.765-1.748,1.093-2.731,1.639-.328-.983-.983-2.076-.765-2.95a24.962,24.962,0,0,0-.874-14.422C405.485,725.78,404.174,724.359,401.661,725.561Z" transform="translate(-286.707 -703.6)"/><path d="M373.092,740.661c-5.244-10.707-.437-18.246,4.917-24.583,2.622-3.059,8.194-2.622,10.707.328a1.184,1.184,0,0,1,0,1.2c-.546.546-1.53,1.42-1.857,1.311a6.406,6.406,0,0,0-8.3,1.748c-2.076,2.841-4.043,6.665-4.152,10.052-.109,3.059,2.185,6.337,3.933,9.068.437.546,3.715,0,5.026-.874,1.857-1.42,3.059-3.715,4.7-5.463a5.291,5.291,0,0,1,1.967-.765c.109.656.437,1.53.219,1.967a55.882,55.882,0,0,1-4.48,6.774C381.723,746.124,377.462,745.905,373.092,740.661Z" transform="translate(-288.621 -702.639)"/></g></g><g transform="translate(448.244 387.712)"><path d="M424.35,487.724c0-5.463.219-10.6-.109-15.733-.437-6.337-1.42-12.565-2.076-18.9-.437-4.043-.874-8.085-1.093-12.128-.328-5.135-.437-10.38-.546-15.515,0-2.185-1.2-1.967-2.4-1.2-.874.546-1.42,1.639-2.294,2.185a15.57,15.57,0,0,1-3.824,1.2c-.109-1.639-.109-3.059,1.42-4.152a42.639,42.639,0,0,0,4.152-3.606c5.9-5.681,11.8-11.472,17.7-17.154,3.168-3.059,6.665-5.9,9.943-8.85.983-.874,1.857-1.748,1.093-3.5a6.024,6.024,0,0,1-.109-3.933c.656-2.4-.874-2.294-2.4-2.294-1.2.109-2.294.437-3.5.437-.546,0-1.639-.656-1.53-.874a4.5,4.5,0,0,1,1.093-2.294,11.624,11.624,0,0,1,2.731-.983c2.513-.874,4.261-2.185,2.513-5.244a4.469,4.469,0,0,1,0-2.4c0-.328.437-.983.656-.983a2.3,2.3,0,0,1,1.42.546,13.6,13.6,0,0,1,1.093,2.185c2.076,4.48,2.076,4.48,6.993,3.606a35.982,35.982,0,0,1,4.807-.546c.546,0,.983.437,1.53.765-.328.656-.546,1.639-.983,1.857a38.892,38.892,0,0,1-5.135,1.093c-1.2.219-2.513.437-3.824.546-1.857.109-2.731.765-1.857,2.731a3.624,3.624,0,0,1,0,2.4c-.874,4.043,1.093,6.446,4.48,8.194,4.807,2.622,9.4,5.572,14.2,8.194,6.009,3.278,12.237,6.118,18.246,9.4a43.507,43.507,0,0,1,7.43,5.244c.656.546.437,2.185.656,3.387a8.831,8.831,0,0,1-2.95-.546,36.836,36.836,0,0,1-3.5-2.076c.109,1.42.219,2.841.437,4.261.656,4.807,1.2,9.615,2.185,14.313,1.967,8.85.546,17.918,3.059,26.659.765,2.731.656,5.791,1.093,8.631.546,4.152,1.2,8.194,1.639,12.346.546,5.791-1.093,5.135-5.354,6.009a115.134,115.134,0,0,1-27.424,2.732c-4.48-.109-8.959.546-13.33.437a106.677,106.677,0,0,0-22.835,1.639c-2.841.546-3.168-1.311-3.387-3.168a34.331,34.331,0,0,1-.109-4.917m11.8-5.572c0-.546-.219-1.2,0-1.639.765-1.53,1.311-3.933,2.513-4.37,2.185-.765,4.37,0,5.681,2.731a31.145,31.145,0,0,1,3.168,9.943c.109.765,1.2,1.42,1.857,2.076.437-.656,1.2-1.42,1.2-2.076,0-3.824-.437-7.648-.437-11.472a24.7,24.7,0,0,1,3.169-12.018,5.024,5.024,0,0,1,8.959-.109,19.972,19.972,0,0,1,2.076,6.556c.656,5.354.328,10.707,2.076,15.952.219.546-.765,1.42-1.2,2.185-.656-.437-1.857-.874-1.857-1.42-.656-4.37-.983-8.85-1.748-13.22a47.915,47.915,0,0,0-2.622-8.522c-.656-1.53-2.185-1.42-3.059,0a23.056,23.056,0,0,0-2.185,4.7c-1.967,5.791-.983,11.581-.437,17.481a2.821,2.821,0,0,0,3.168,2.622c4.48-.328,8.959-.437,13.33-.656a.941.941,0,0,0,.328-.874c-.765-2.732-.983-5.463.546-8.194,1.311-2.185,4.589-2.95,6.337-1.42.874.765,2.185,6.556,1.639,7.539a1.482,1.482,0,0,1-1.2.765,1.223,1.223,0,0,1-.874-.765c-.437-1.2-.656-2.4-1.093-3.606a2.384,2.384,0,0,0-1.2-1.311c-.328-.109-.983.656-1.311,1.093-.437.765-1.093,2.076-.765,2.513,1.2,1.42,2.841,3.605,4.152,3.5a137.467,137.467,0,0,0,14.531-2.185c2.294-.437,3.059-1.857,2.731-4.152-.765-5.244-.983-10.707-2.294-15.843-1.857-7.757-1.53-15.624-2.513-23.381-.437-3.5-.656-6.993-1.093-10.489-.656-4.807-1.311-9.506-2.185-14.313a6.1,6.1,0,0,0-1.857-3.5c-2.95-1.967-6.009-3.715-9.178-5.463-8.194-4.48-16.389-8.85-24.474-13.548-1.857-1.093-2.731-.874-3.933.437-2.731,2.841-5.463,5.572-8.3,8.3-3.5,3.387-6.883,6.883-10.6,9.943-2.731,2.294-5.026,4.043-4.261,8.3.765,4.48.437,9.068.656,13.657.109,2.076.328,4.152.546,6.118.656,6.118,1.53,12.237,2.076,18.355.328,3.5.437,7.1.546,10.707.109,5.681,0,11.254.219,16.935,0,.874,1.53,2.076,2.622,2.4s2.513-.437,3.715-.328c1.53,0,1.967-.546,1.967-1.967.328-2.732.437-5.244.874-7.976m7.976,5.791c-.765-2.294-1.42-4.7-2.294-6.993-.328-.765-1.42-1.2-2.076-1.748a15.575,15.575,0,0,0-1.42,3.059,29.666,29.666,0,0,0-.546,5.354c0,1.093.437,2.732,1.093,3.169a5.186,5.186,0,0,0,4.043.219C443.689,490.783,443.907,489.253,444.126,487.942Z" transform="translate(-411.962 -354.537)"/><path d="M533.69,440.136c0,2.185.437,4.37-.219,6.228-.546,1.42-.219,1.311.765,1.748,3.387,1.639,5.791,4.043,5.572,8.194a5.785,5.785,0,0,1-5.791,5.572c-2.732,0-5.572,1.53-8.194-.328a.382.382,0,0,1-.219-.109c-.983,1.093-2.294,1.748-3.387.437a7.333,7.333,0,0,1-1.093-3.5c-.437-3.715-.765-7.539-1.093-11.254a28.779,28.779,0,0,1-.328-5.244c.546-3.606,3.715-4.043,6.555-4.261,2.732-.437,5.681-.765,7.43,2.513m-.109,12.128c-2.076-1.748-7.867-1.53-9.943.328-.219.219-.437.328-.437.546-.328,1.53,1.639,5.135,3.387,5.463a27.48,27.48,0,0,0,6.665.546c2.731-.219,3.715-2.731,2.185-5.026a5.957,5.957,0,0,0-1.857-1.857m-11.472-8.194a12.819,12.819,0,0,0,.546,2.95c.437.765,1.639,1.967,1.967,1.857a30.568,30.568,0,0,0,5.681-3.5c1.093-.874,1.311-2.185-.219-3.5C527.572,439.7,524.075,440.354,522.109,444.069Z" transform="translate(-401.992 -348.468)"/><path d="M599.739,374.033c-.656-4.152-1.2-8.194-1.639-12.237a2.03,2.03,0,0,1,.765-1.42c.765-.109,1.748-.546,1.967,1.2a75,75,0,0,0,1.53,8.631q.656,3.278,1.639,6.556a3.485,3.485,0,0,0,.765.656,3.766,3.766,0,0,0,1.311-1.311c1.093-3.933,2.076-7.867,3.278-11.691a6.482,6.482,0,0,1,1.857-3.387c.874-.656,1.857.219,2.4,1.42,1.748,4.37,3.715,8.631,5.572,12.893a4.279,4.279,0,0,0,.874,1.093,8.564,8.564,0,0,0,.546-1.53v-8.522a55.346,55.346,0,0,1,.546-6.118c0-.328.874-.874,1.311-.765.437,0,1.2.656,1.2.983-.109,5.791-.219,11.581-.546,17.372-.109.983-1.639,2.841-2.076,2.731-1.53-.437-3.5-1.2-4.152-2.4a115.56,115.56,0,0,1-4.37-10.707c-.109-.328-.437-.656-.656-1.093l-.328.983c-.874,3.5-1.967,7.1-2.622,10.6-.546,2.731-2.185,3.278-4.589,3.278-2.513-.109-2.622-2.294-3.387-3.824A15.47,15.47,0,0,1,599.739,374.033Z" transform="translate(-394.728 -355.677)"/><path d="M539.916,385.892c-2.076,3.387-3.606,3.5-5.463.328-1.967-3.387-3.606-6.883-5.354-10.27-.219-.437-.546-.874-.765-1.311l-.328,1.311c-.765,4.37-1.42,8.631-2.185,12.893a2.126,2.126,0,0,1-1.42,1.093c-.546,0-1.53-.328-1.639-.765a72.7,72.7,0,0,1-2.513-8.3c-.765-3.387-1.311-6.883-1.748-10.38a2.225,2.225,0,0,1,.983-1.748c.983-.437,1.53,0,1.639,1.42.437,4.043,1.311,7.976,2.076,11.909a5.016,5.016,0,0,0,.765,1.53,3.045,3.045,0,0,0,.765-1.42c.219-2.4.219-4.807.656-7.211.219-1.2.874-3.059,1.748-3.387a3.331,3.331,0,0,1,4.7,2.076,93.892,93.892,0,0,0,4.261,8.85,9.044,9.044,0,0,0,1.2,1.639,6.061,6.061,0,0,0,.328-1.857c-.109-4.48-.328-8.85-.546-13.33,0-.874-.437-1.857,1.311-1.857,1.53,0,1.42.765,1.42,1.748C539.916,374.42,540.025,380.1,539.916,385.892Z" transform="translate(-402.099 -354.972)"/><path d="M627.8,380.911c.219-6.118.328-12.018.546-17.918a34.718,34.718,0,0,1,1.093-5.681c0-.219.765-.546.983-.437a5.479,5.479,0,0,1,2.076,1.2c3.5,4.261,5.681,9.287,7.976,14.094.219.437.328.983.546,1.311a7.445,7.445,0,0,0,1.311,1.311c.109-.546.219-1.093.328-1.748.437-3.824.874-7.648,1.2-11.581a23.745,23.745,0,0,0-.219-3.933c-.109-.983,0-1.53,1.311-1.53s1.42.546,1.311,1.53c-.328,5.9-.546,11.8-1.2,17.7-.109,1.2-1.53,2.95-2.513,3.059a4.679,4.679,0,0,1-3.606-1.967c-1.857-3.059-3.278-6.446-4.917-9.615a46.783,46.783,0,0,0-2.841-4.152l-.328,4.589c-.219,3.933-.328,7.867-.546,11.8C630.313,380.8,629.657,381.894,627.8,380.911Z" transform="translate(-391.978 -356)"/><path d="M482.34,397.607c-.437-2.513-.765-5.026-1.2-7.43-.874-5.026-1.748-10.052-2.731-15.078a3.813,3.813,0,0,1,3.5-4.589c7.976-.765,9.724,1.967,12.346,8.413,1.311,3.059,1.093,6.883,1.2,10.38,0,2.841-2.731,5.135-6.446,5.681-1.857.219-3.605.328-4.7,2.294-.109.437-1.2.328-1.967.328m1.42-12.346c.219,1.967.328,3.933.546,5.9.109.437.765,1.2,1.311,1.2,4.48.328,8.413-2.731,7.1-7.757a28.346,28.346,0,0,0-3.059-6.993c-1.311-2.185-2.841-4.48-5.9-4.37a3.632,3.632,0,0,0-2.294,1.42C482.121,378.049,483,381.327,483.76,385.261Z" transform="translate(-405.817 -354.668)"/><path d="M581.428,433c3.606.219,6.993.656,9.615,3.059a7.141,7.141,0,0,1,2.4,7.1,6.626,6.626,0,0,1-5.9,5.9c-2.185.328-4.48.437-6.665.546-1.311,0-1.857,0-1.311,1.748a39.915,39.915,0,0,1,1.311,7.211c.109.546-.656,1.2-.983,1.748-.546-.437-1.42-.765-1.53-1.311a41.87,41.87,0,0,1-2.076-7.867c-.546-4.48-.874-8.959-1.093-13.439-.109-2.622.983-3.715,3.606-4.043.765-.219,1.53-.437,2.622-.656m-3.169,9.833c1.42,3.606,2.4,4.37,5.354,3.933a14.813,14.813,0,0,0,4.261-1.311c3.278-1.639,3.715-4.48.765-6.446a21.122,21.122,0,0,0-6.883-2.731c-2.076-.437-4.261,1.42-4.043,2.841C577.932,440.1,578.041,441.194,578.26,442.833Z" transform="translate(-396.849 -348.871)"/><path d="M543.9,386.265V367.254c0-.219.546-.765.765-.656.656.109,1.53.219,1.857.656a77.72,77.72,0,0,1,5.354,6.556c1.42,1.967,2.513,4.261,3.824,6.337.219.328.546.437.874.765,0-.328.219-.765.109-.983-1.857-5.354-.983-10.6.109-15.842.109-.765,1.093-1.42,1.748-2.185a6.115,6.115,0,0,1,.874,2.185c-.219,2.841-.656,5.572-.983,8.3a10.558,10.558,0,0,0,.109,2.622c.437,2.95,1.093,6.009,1.42,8.959.328,2.4-1.093,3.278-3.169,2.076a14.993,14.993,0,0,1-3.715-3.715c-2.076-2.731-3.933-5.681-5.9-8.413a5.047,5.047,0,0,0-.765-.765,4.165,4.165,0,0,0-.328,1.093c.109,4.152.328,8.194.546,12.346,0,1.093.437,2.622-1.42,2.4C544.665,388.778,544.228,387.357,543.9,386.265Z" transform="translate(-399.746 -355.454)"/><path d="M617.248,443.608c0,6.774-5.9,12.893-12.018,12.783-3.278,0-5.572-2.076-6.555-5.572-1.2-4.043-1.42-8.413.983-12.346,1.639-2.622,3.5-4.917,7.211-4.48,1.093.109,2.294-.874,3.606-.983,5.026-.546,5.791.765,6.774,6.118a30.612,30.612,0,0,1,0,4.48m-15.515-1.857a9.9,9.9,0,0,0,.546,8.085c1.53,3.168,3.606,4.152,5.791,2.841,2.731-1.639,5.463-3.5,6.009-6.883a19.593,19.593,0,0,0-.437-7.976c-.656-2.622-3.059-1.2-4.917-1.2C605.011,436.506,603.372,438.691,601.733,441.75Z" transform="translate(-394.756 -348.88)"/><path d="M505.2,369.2c6.337-.109,6.337-.109,8.522,6.118,1.748,4.7,2.513,9.287-.109,13.876-3.168,5.572-11.254,6.665-14.859,1.967-2.294-3.059-1.857-6.774-1.42-10.38.437-3.278,2.4-5.681,4.7-7.976,1.093-.983,1.967-2.294,3.169-3.606m2.731,2.513-4.152,4.152c-2.841,2.841-4.37,6.118-3.606,10.27.437,2.294,4.152,5.463,6.009,4.7,2.841-1.093,5.681-2.731,6.119-6.009C512.954,380.128,511.424,375.758,507.928,371.715Z" transform="translate(-404.091 -354.78)"/><path d="M540.569,414.033c-.219,3.168-.328,6.118-.437,9.068a12.7,12.7,0,0,1-.437,1.967c-.546-.109-1.53-.219-1.639-.437a36.636,36.636,0,0,1,.328-15.405c.328-1.42,0-2.95.219-4.48.109-.765.546-2.076,1.093-2.185a2.883,2.883,0,0,1,2.513.656c1.748,2.294,3.387,4.807,4.917,7.211,1.311,2.185,2.513,4.48,3.715,6.665a1.553,1.553,0,0,1,.219.656l.328-.656c.546-4.917,1.093-9.833,1.53-14.75.109-1.093.109-2.076,1.53-1.53a2.332,2.332,0,0,1,1.2,1.53c-.437,5.244-.983,10.6-1.53,15.842-.109.656.109,1.42,0,2.076-.109.765-.546,2.076-.874,2.185-.874.109-2.294-.109-2.731-.765-2.076-2.841-3.933-6.009-5.9-8.959-.219-.437-.546-.874-.765-1.311l-2.294-4.261c-.219,1.639-.546,3.387-.765,5.026C540.678,412.832,540.678,413.378,540.569,414.033Z" transform="translate(-400.348 -351.865)"/><path d="M557.537,456.284c2.294.328,4.37.874,6.446.983.656,0,2.076-1.53,1.857-2.076-.437-1.42-1.093-3.278-2.294-4.043a45.605,45.605,0,0,0-7.43-3.387c-2.294-.874-5.026-1.748-4.917-4.37.109-2.294,1.53-4.7,2.731-6.774.656-1.2,7.539-1.857,8.631-.983.546.437.765,1.42,1.2,2.185a6.765,6.765,0,0,1-2.076.765c-.328.109-.765-.219-1.2-.328a4.612,4.612,0,0,0-6.009,3.5c-.219,1.093,2.294,2.841,4.37,3.278,3.715.765,6.883,2.294,9.068,5.572a6.753,6.753,0,0,1,.437,6.993,5.934,5.934,0,0,1-5.682,2.95,19.594,19.594,0,0,1-8.522-2.076c-2.294-1.311-2.294-3.169-2.185-5.244,0-.219.546-.656.765-.656a3.2,3.2,0,0,1,1.748.765A26.172,26.172,0,0,1,557.537,456.284Z" transform="translate(-399.071 -348.664)"/><path d="M580.4,377.86c-.219-6.993,3.278-12.018,7.757-16.5,1.42-1.42,5.681-.656,6.665,1.311a22.61,22.61,0,0,1,1.639,5.463c.437,1.639.656,3.278,1.093,4.807,1.2,4.261-.546,7.976-3.169,10.707-3.387,3.606-8.85,2.622-12.346-1.967a15.491,15.491,0,0,1-1.639-3.824m9.615-13.657c-1.748,2.294-3.824,4.37-5.135,6.883-1.311,2.4-1.967,5.026-.219,7.757,2.294,3.5,6.009,4.37,8.085,1.639,1.857-2.513,3.059-5.026,2.185-8.194C593.949,369.229,594.058,365.623,590.016,364.2Z" transform="translate(-396.368 -355.571)"/><path d="M511.323,404.929c-.219,2.95-.546,3.168-2.732,1.748-1.42-.874-2.95-2.076-4.7-.983-1.311.874-3.278,2.513-3.059,3.278.656,2.185,2.841,3.5,5.244,3.824a8.216,8.216,0,0,1,7.1,5.244c1.639,4.043-.328,9.615-4.152,9.943-3.278.328-6.665-1.093-9.943-2.076-.437-.109-.328-2.185-.437-3.278,0-.219.546-.765.656-.765a7,7,0,0,1,2.076,1.42c1.42,1.639,6.228,2.294,7.976.983,1.857-1.42,2.076-3.606.109-5.572a11.314,11.314,0,0,0-4.807-3.059c-3.059-.765-5.9-1.311-6.446-4.917-.546-4.043.546-6.118,3.5-7.539C504.767,401.652,508.7,401.761,511.323,404.929Z" transform="translate(-403.989 -351.72)"/><path d="M639.81,401.945c-2.294-1.2-4.37-2.4-6.446-3.715-2.4-1.53-3.824-4.48-2.4-6.665.874-1.42,3.059-2.4,4.807-2.841a17.643,17.643,0,0,1,6.337,0c.874.109,1.748,1.093,2.4,1.748.219.219,0,1.2-.219,1.311-.437.328-1.2.219-1.748.219-2.185,0-4.48-.328-6.665-.219-.656,0-1.311.983-1.857,1.53.546.656.983,1.53,1.639,1.857,3.715,1.748,7.211,3.715,9.943,6.774,1.53,1.748,2.841,3.715,2.185,5.9-.765,2.294-3.278,3.387-5.572,3.5-3.387.109-6.774-.219-10.161-.437-1.967-.109-1.967-1.639-1.639-2.95a3.521,3.521,0,0,1,2.294-.219c3.059.656,6.009,1.748,9.178.546a4.038,4.038,0,0,0,2.185-1.42c.219-.437-.546-1.53-1.093-2.076A26.614,26.614,0,0,0,639.81,401.945Z" transform="translate(-391.751 -352.997)"/><path d="M531.337,421.43c-.109,1.2-.219,2.185-.219,3.168-.874-.437-2.076-.765-2.4-1.42a19.414,19.414,0,0,1-1.53-5.463c-.109-1.53-.546-2.4-2.185-2.076-1.53.328-3.606-.328-3.824,2.294-.109,1.967-.328,3.933-.546,5.9a6.894,6.894,0,0,1-.874,2.513c-.219.328-.874.437-1.42.437-.109,0-.328-.656-.328-1.093a42.42,42.42,0,0,1,3.824-20.759c.437-1.093.437-2.841,2.622-2.731,1.967.109,2.076,1.857,2.95,2.841.656.765.437,2.185,1.093,2.95a28.642,28.642,0,0,0,3.059,3.278c.328.437.874.874.874,1.311a1.741,1.741,0,0,1-.983,1.311c-1.53.328-2.076.765-1.2,2.4a52.417,52.417,0,0,1,1.093,5.135m-6.446-14.094a8.9,8.9,0,0,0-.983-.219c-.437,1.2-.765,2.294-1.093,3.5a3.433,3.433,0,0,0-.109,1.42,4.516,4.516,0,0,0,2.076.219c.437-.109.765-.983.765-1.42A16.057,16.057,0,0,0,524.891,407.336Z" transform="translate(-402.152 -351.723)"/><path d="M509.158,441.312c2.841,4.7,5.135,9.506,3.715,15.187-1.311,5.354-6.883,8.194-11.581,5.572a5.048,5.048,0,0,1-1.857-1.857,15.336,15.336,0,0,1,.983-15.3c2.076-3.168,5.026-4.152,8.741-3.606m-7.976,9.287c.328,2.185.328,4.48,1.2,6.446a6.487,6.487,0,0,0,3.5,2.841c1.2.328,5.244-4.7,4.807-6.118q-1.147-4.1-2.622-8.194c-.437-1.311-1.42-1.639-2.294-.546C504.242,446.775,502.931,448.523,501.183,450.6Z" transform="translate(-404.01 -348.114)"/><path d="M612.2,407.574c-1.093,5.354-4.807,8.413-9.068,10.6-2.95,1.53-7.32-1.42-8.194-5.791a115.469,115.469,0,0,1-1.639-13.767c-.109-.656.765-1.42,1.093-2.185a9.992,9.992,0,0,0,.983,1.857c2.513,3.278.109,7.32,1.967,10.926,1.2,2.076,1.748,5.135,4.152,5.135,1.967,0,4.37-1.967,5.791-3.606,2.95-3.387,3.059-7.43,2.076-11.691a7.072,7.072,0,0,1-.109-2.622,3.831,3.831,0,0,1,.656-1.53c.656.437,1.857.765,1.857,1.2.328,3.168.437,6.337.656,9.506C612.312,406.263,612.312,406.809,612.2,407.574Z" transform="translate(-395.173 -352.398)"/><path d="M571.339,375.53c.546,3.605,1.093,6.883,1.53,10.27.109.437-.656.983-1.093,1.42-.437-.328-1.2-.765-1.311-1.2-.874-5.681-1.857-11.363-2.294-17.154-.109-1.967-.765-2.622-2.4-3.059-.765-.219-1.311-1.093-1.967-1.639a6.371,6.371,0,0,1,1.967-.874c4.589-.437,9.068-.765,13.657-1.093a6.631,6.631,0,0,1,1.967.546c-.656.656-1.093,1.857-1.857,2.076a31.809,31.809,0,0,1-6.446,1.093c-1.639.109-1.857.874-1.857,2.185C571.339,370.5,571.339,372.907,571.339,375.53Z" transform="translate(-397.904 -355.426)"/><path d="M572.6,416.668c.765-6.774,1.42-13.22,2.185-19.667,0-.437.765-.765,1.093-1.2.328.437.983.874.983,1.311-.328,5.135-.437,10.38-1.2,15.515-.328,1.967.328,1.857,1.53,1.857h7.43a4.581,4.581,0,0,1,2.4.546,3.1,3.1,0,0,1,.983,2.076c0,.437-1.093.983-1.639.983-1.967,0-3.933-.437-5.9-.437a23.681,23.681,0,0,0-4.7.874C574.13,419.072,572.928,418.963,572.6,416.668Z" transform="translate(-397.089 -352.315)"/><path d="M545.068,446.885c.546,3.715,1.093,7.211,1.639,10.707a2.415,2.415,0,0,1,0,1.53,2.872,2.872,0,0,1-1.53.983c-.328.109-.983-.437-1.093-.874a38.888,38.888,0,0,1-1.093-5.135c-.437-4.48-.765-9.068-1.093-13.657,0-.546.546-1.093.874-1.639.546.546,1.639.983,1.748,1.639A54.683,54.683,0,0,1,545.068,446.885Z" transform="translate(-399.932 -348.334)"/><path d="M619.5,394.983a3.04,3.04,0,0,1,1.53-.983,2.336,2.336,0,0,1,.656,1.093l1.639,14.75c.109,1.093.656,2.622-1.311,2.841-1.857.219-1.748-1.093-1.857-2.4C619.828,405.254,619.609,400.228,619.5,394.983Z" transform="translate(-392.747 -352.482)"/><path d="M429.7,427.466c.219-2.731.109-5.135.656-7.43a4.269,4.269,0,0,1,2.622-2.513c1.748-.437,3.824-.656,4.7,1.748a52.921,52.921,0,0,1,2.076,7.1c.546,3.5.765,7.211,1.093,10.707.219,1.639-.437,2.076-2.076,2.185-1.857.109-3.824.765-5.681.983-1.2.109-2.513.546-2.513-1.748.109-3.606-.546-7.1-.874-11.035m7.211-2.076c-.546-1.42-.874-2.841-1.53-4.152-.219-.546-1.093-.765-1.639-1.2-.328.546-.765.983-.765,1.53,0,3.933,0,7.867.109,11.691a9.842,9.842,0,0,0,.328,1.748,2.21,2.21,0,0,0,3.059,1.53,4.006,4.006,0,0,0,1.639-2.731A59.956,59.956,0,0,0,436.911,425.39Z" transform="translate(-410.32 -350.329)"/><path d="M447.246,434.048c-.219-3.933-.437-7.539-.546-11.254a17.138,17.138,0,0,1,.546-4.043c.546-2.731,2.513-3.059,4.807-2.95,2.4.219,3.5,1.42,3.715,3.824.109,2.622.219,5.135.546,7.757.219,1.748.983,3.387.983,5.135.109,4.261,0,4.261-4.261,4.7a5.173,5.173,0,0,0-1.857.109c-3.605.874-3.605.874-3.933-3.278m6.993-8.3a31.944,31.944,0,0,0-1.093-4.37,9.031,9.031,0,0,0-1.857-2.294c-.656.874-1.748,1.748-1.748,2.731a81.526,81.526,0,0,0,.546,10.38,2.3,2.3,0,0,0,4.589,0C454.894,430.224,454.348,428.257,454.239,425.744Z" transform="translate(-408.746 -350.465)"/><path d="M467.7,435.632c-6.118.109-6.118.219-5.791-5.572.219-3.824,0-7.757,2.076-11.363.983-1.748,2.4-2.841,4.152-2.076,1.093.437,2.513,1.748,2.622,2.841.328,3.387.109,6.774.219,10.161a20.988,20.988,0,0,0,0,2.622c.437,3.387.437,3.387-3.278,3.387m-.983-15.187c-2.841,3.168-2.95,6.993-2.513,10.817.109.656,1.53,1.311,2.4,1.53.437.109,1.639-.874,1.639-1.53a48.942,48.942,0,0,0,.546-7.976C468.684,422.084,467.372,420.991,466.717,420.445Z" transform="translate(-407.348 -350.41)"/></g><g transform="translate(412.091 88.249)"><path d="M434.661,243.737a25.8,25.8,0,0,0-8.194-.219,5.96,5.96,0,0,0-3.387,1.093,2.185,2.185,0,0,0-.437,3.168,15.387,15.387,0,0,1,9.615-1.2,8.322,8.322,0,0,1,4.7,2.294,6.232,6.232,0,0,1,1.42,5.463,8.19,8.19,0,0,1-3.387,3.824,8.311,8.311,0,0,1-3.059,1.639c-1.093.219-2.513,0-3.059-.983a4.322,4.322,0,0,1-.437-2.4V251.6c0-.983,0-2.622-.656-3.5a1.746,1.746,0,0,0-2.622-.437c.219,2.4.437,5.463.656,7.867a6.173,6.173,0,0,1-.219,2.841,1.957,1.957,0,0,1-2.294,1.311c-.546,1.857,1.967,3.059,2.731,4.807.437,1.2.109,2.513.328,3.824s1.53,2.622,2.622,1.967c.765-.437.765-1.639.656-2.622-.219-1.42-.328-2.95-.546-4.37,3.715-.328,7.43-1.53,10.052-4.152s3.715-7.43,2.076-10.817A9.92,9.92,0,0,0,434.661,243.737Z" transform="translate(-374.868 -66.972)"/><path d="M463.545,247.9c-2.294.328-4.917.656-6.446-1.093-1.2-1.42-1.2-3.715-2.841-4.589-2.076-1.093-4.152,1.311-5.354,3.278-3.715,6.446-7.539,13.985-7.1,21.415.546.765,1.748-.109,2.076-.983.983-2.185,1.2-4.7,2.076-6.993s2.841-4.48,5.244-4.261c1.2.109,2.513-1.2,3.5-.546a3.2,3.2,0,0,1,.765,1.311,49.6,49.6,0,0,1,1.42,7.867c.546.874,2.076.546,2.622-.437a4.5,4.5,0,0,0,.109-3.168c-.437-2.185-.765-4.261-1.2-6.446-.219-.983.765-1.748,1.748-1.967a11.094,11.094,0,0,0,2.731-.656C463.873,250.418,464.31,248.451,463.545,247.9Zm-10.052,2.076a4.629,4.629,0,0,1-2.622,1.311l-.109.437c-.765-.328-.546-2.076-.219-2.841.437-1.093,1.42-2.4,2.513-1.967C454.04,247.249,454.149,249.216,453.494,249.981Z" transform="translate(-373.05 -67.097)"/><path d="M409.635,217.878c-2.622-3.168-7.976-2.513-10.926.328s-4.152,6.993-5.244,10.926a16.813,16.813,0,0,0-.765,4.589c.219,4.7,5.354,8.413,10.052,7.539s7.976-5.791,7.757-10.489c-.765-.656-1.967-.109-2.622.656a10.544,10.544,0,0,0-1.311,2.731,6.181,6.181,0,0,1-5.244,3.5,5.282,5.282,0,0,1-5.026-3.606,7.1,7.1,0,0,1,0-3.387,21.8,21.8,0,0,1,5.135-10.27c1.2-1.311,3.5-1.093,4.917,0a11.315,11.315,0,0,1,3.059,4.37,1.617,1.617,0,0,0,1.857-1.42,4.394,4.394,0,0,0-.328-2.622A6.773,6.773,0,0,0,409.635,217.878Z" transform="translate(-377.593 -69.52)"/><path d="M482.174,225.447c2.4-3.059,2.4-8.085-.656-10.6-2.732-2.294-6.665-1.967-10.161-1.093a4.629,4.629,0,0,0-2.622,1.311,4.24,4.24,0,0,0-.874,3.059c-.219,2.731-.437,5.354-.656,8.085a4.849,4.849,0,0,0,.219,2.513,33.236,33.236,0,0,1,2.185,11.8,1.683,1.683,0,0,0,2.294-.656,4.538,4.538,0,0,0,.328-2.731c-.219-2.622-.437-5.244-.656-7.757C475.509,229.708,479.77,228.506,482.174,225.447Zm-10.707-.546c-.983-2.622-1.311-6.118.874-7.757,2.513-1.857,6.228,0,7.976,2.622a3.4,3.4,0,0,1-.765,4.043,9.482,9.482,0,0,1-3.824,2.185c-1.2.437-2.841.874-3.715-.109A2.233,2.233,0,0,1,471.467,224.9Z" transform="translate(-370.701 -69.768)"/><path d="M424.554,231.9a4.665,4.665,0,0,1,1.748,3.278,7.766,7.766,0,0,0,1.093,3.606c.874.983,2.731,1.093,3.278-.109a2.434,2.434,0,0,0,0-1.53,17.511,17.511,0,0,0-2.513-6.337c1.42-.656-.874-4.043-1.639-5.572-.656-1.53-.656-3.168-1.2-4.807s-2.076-3.059-3.606-2.622a73.733,73.733,0,0,0-6.009,20.322c-.109,1.093-.109,2.4.983,2.731s1.857-.983,2.185-2.076c.437-1.748.437-3.715,1.311-5.244C420.948,232.229,423.024,230.918,424.554,231.9Zm-3.168-3.715c.437-1.2.874-2.513,1.311-3.715v-.109a2.074,2.074,0,0,1,.874,2.4A1.975,1.975,0,0,1,421.385,228.186Z" transform="translate(-375.467 -69.339)"/><path d="M478.585,259.331c-1.53,1.311-3.168,2.841-5.135,2.841-2.513,0-4.37-2.513-4.589-5.026s.765-4.807,1.748-7.1c.765-1.748,1.857-4.37,3.824-4.589s3.606,2.841,2.622,4.589c2.185.328,3.824-3.278,2.841-5.244a5.334,5.334,0,0,0-5.9-2.185,10.33,10.33,0,0,0-6.665,5.791,21.516,21.516,0,0,0-1.53,9.506,9.065,9.065,0,0,0,1.748,6.009,7.046,7.046,0,0,0,6.556,1.857,19.073,19.073,0,0,0,6.446-2.95c1.857-1.2,4.043-2.95,3.606-5.135C482.19,256.709,480.115,258.02,478.585,259.331Z" transform="translate(-370.826 -67.051)"/><path d="M499.051,215.752c-1.42-1.311-3.5-2.294-5.244-1.53-1.53.656-2.4,2.294-3.169,3.824-1.639,3.5-3.169,7.211-2.731,10.926.546,3.824,4.043,7.43,7.757,6.556a6.975,6.975,0,0,0,3.059-1.639,11.916,11.916,0,0,0,4.261-8.959A12.065,12.065,0,0,0,499.051,215.752Zm-2.95,16.061a4.529,4.529,0,0,1-1.748.328,3.078,3.078,0,0,1-2.185-1.639c-2.185-3.5-.219-8.085,1.857-11.691.219-.328.437-.765.765-.874.765-.437,1.639.109,2.294.656a9.147,9.147,0,0,1,3.169,6.993A7.154,7.154,0,0,1,496.1,231.813Z" transform="translate(-368.785 -69.689)"/><path d="M536.409,209.6c-.765.109-3.606-.109-4.917,10.6-1.748-.546-2.622-2.4-3.606-3.933s-2.622-3.169-4.37-2.622a4.5,4.5,0,0,0,.983,4.152c.874,1.2,2.076,2.185,2.95,3.387a8.382,8.382,0,0,1-.219,9.615c-.765.874.765,2.185,1.857,1.857a4.441,4.441,0,0,0,2.076-2.731c.983-2.513,1.967-4.917,2.841-7.43C535.645,218.45,537.283,213.97,536.409,209.6Z" transform="translate(-365.499 -70.092)"/><path d="M516.266,229.626a2.388,2.388,0,0,1-2.95-1.2,6.715,6.715,0,0,1-.328-3.606c.328-4.043.765-7.976,1.093-12.018-.874.109-1.857.109-2.732.219A63.166,63.166,0,0,0,509.6,225.8c-.109,2.95.546,6.774,3.5,7.43a7.735,7.735,0,0,0,3.5-.437c2.294-.765,4.7-1.42,6.993-2.185a4.755,4.755,0,0,0,2.076-1.093,1.67,1.67,0,0,0,.219-2.185A16.746,16.746,0,0,0,516.266,229.626Z" transform="translate(-366.77 -69.796)"/><path d="M434.7,216.629c0,6.009.219,11.909.546,17.918.109,1.093.219,2.4,1.2,2.95a2.841,2.841,0,0,0,3.168-.437,12.13,12.13,0,0,1,2.95-1.857c.983-.328,2.185,0,3.168-.328,1.093-.219,2.076-1.311,1.639-2.294a1.875,1.875,0,0,0-1.748-.874,7.988,7.988,0,0,0-4.48.765c-.874.437-2.185.874-2.622,0-.109-.219-.109-.328-.219-.546a81.368,81.368,0,0,1-1.2-15.405A2.68,2.68,0,0,0,434.7,216.629Z" transform="translate(-373.704 -69.473)"/><path d="M538.748,218.581c1.311-.109,1.748-1.857,1.857-3.169.328-6.993.546-13.876.874-20.868.328,0,1.967-3.278,3.059-4.807.109-.109-.983-13.767-1.639-14.641-.874-1.2-2.622-1.42-4.152-1.53a124.96,124.96,0,0,0-23.928.765,129.061,129.061,0,0,1,10.161-29.718c-2.731,2.294-16.935-.765-19.994-2.622-1.53-.983-2.185-2.95-3.169-4.48-2.185-3.059-6.337-3.933-10.161-4.261a93.22,93.22,0,0,0-52.772,10.6c.765-5.244,1.53-10.38,2.294-15.624.328-2.076.765-4.37,2.4-5.572,1.748-1.2,4.043-.765,6.009,0s3.933,1.748,6.009,1.53a3.839,3.839,0,0,0,3.5-3.169c.765,1.2,3.387,1.2,5.135.437,4.7-2.185,9.4-4.261,14.094-6.446a2.5,2.5,0,0,0,1.093-.765c.874-1.093-.328-2.731-1.639-3.5-11.254-7.32-27.861-4.589-36.165,5.9-2.294-5.791,3.824-13,9.943-11.691,1.42.328,1.748-1.967,1.2-3.278-.437-1.311-.656-3.5.765-3.606.219,1.857,3.278,2.185,4.261.546a4.1,4.1,0,0,0,0-4.043,4.321,4.321,0,0,0,4.807-.328c1.748-1.42,2.731-3.715,4.589-4.917,1.2-.765,2.622-1.2,3.715-1.967,1.093-.874,1.857-2.513.983-3.606a3.829,3.829,0,0,0-1.857-.983,29.089,29.089,0,0,0-36.165,26.113c-7.32-3.169-15.405-5.463-23.272-3.824-7.867,1.53-15.187,7.757-15.843,15.733,6.228.656,13.657.765,17.591-4.152l.219,5.026a20.134,20.134,0,0,0,9.506-1.639c-1.639.874-.219,3.715,1.639,3.933s3.606-.874,5.463-1.2a8.029,8.029,0,0,1,7.648,2.731c-6.337,7.976-3.715,21.305-11.691,27.533A57.81,57.81,0,0,0,409.5,171.819c-1.857,3.5-4.37,8.194-4.37,8.194-2.294,1.093-16.5,7.1-16.826,8.194-2.95,8.3-5.9,16.717-8.85,25.02-.546,1.639-1.093,3.824.328,4.917a4.862,4.862,0,0,0,2.513.765c5.135.328,10.27.765,15.515,1.093,6.337.437,12.565.874,18.9,1.2C438.121,222.187,537.655,216.833,538.748,218.581ZM458.115,110.524a21.869,21.869,0,0,1,15.405,2.95,20.717,20.717,0,0,0-9.4,4.37c-.656.546-1.639.109-2.294-.546-.546-.656-.874-1.53-1.42-2.185a3.318,3.318,0,0,0-4.043-.656c.109,1.967-.328,4.48-2.185,4.917a4.218,4.218,0,0,1-2.294-.328,17.288,17.288,0,0,0-7.1-.546A23.375,23.375,0,0,1,458.115,110.524Zm4.48,106.964c-5.9.328-11.909.546-17.809.874a5.894,5.894,0,0,1-2.731-.328c-1.639-.765-2.076-2.841-2.4-4.589-1.639-10.27-3.387-20.431-5.026-30.7-.546-.328.546-.874,1.093-.656,8.194,2.841,16.607,5.791,23.163,11.472a55.44,55.44,0,0,1,5.026,5.135c2.294,2.513,4.589,5.135,6.665,7.867a50.515,50.515,0,0,1,3.824,6.009C472.209,216.615,466.965,217.27,462.595,217.489ZM426.867,176.3a16.04,16.04,0,0,1,3.715-1.639,1.088,1.088,0,0,1,.983,1.857.944.944,0,0,1-.328.656,4.626,4.626,0,0,0-.546.765,4.754,4.754,0,0,1-.765.656c-.983.546-2.185,0-3.059-.437A1.076,1.076,0,0,1,426.867,176.3Zm2.294,3.824a11.635,11.635,0,0,1,3.059,3.059c.765,1.2-1.093,2.294-1.857,1.093a11.414,11.414,0,0,0-2.294-2.294C426.867,181.215,427.96,179.357,429.161,180.122Zm2.4-11.363a6.134,6.134,0,0,1-.983,3.387,2.365,2.365,0,0,1-3.059.874l1.639-7.867c.109-.437.219-.983.328-1.42l2.294,1.639A11.8,11.8,0,0,1,431.565,168.759Zm2.95,7.757c.874-.983,33.761-11.581,35.728-7.1q5.244,11.8,11.472,23.272c-3.169,1.53-11.909,5.681-12.674,4.807C464.452,192.141,435.5,176.954,434.515,176.517ZM537,212.9c-.874-1.311-52.772,4.261-54.739,2.731-3.169-1.311-9.068-13.439-8.631-14.422a4.92,4.92,0,0,1,2.076-1.53c28.3-15.405,58.563-5.791,59.437-4.917,1.857,1.748,2.4,4.48,2.513,7.1A47.194,47.194,0,0,1,537,212.9Zm-19.557-33.105A106.719,106.719,0,0,1,537,178.046a4.127,4.127,0,0,1,2.294.437c.765.546,2.622,8.3,1.311,10.27-.219,1.2-.656,3.278-1.748,2.95a101.247,101.247,0,0,0-31.139-4.261c-.546,0-1.093.109-1.53.109l-5.244.656a10.881,10.881,0,0,1-1.2-1.093,11.917,11.917,0,0,1,4.261-2.95A64.416,64.416,0,0,1,517.443,179.795Zm-16.28-33a38.361,38.361,0,0,0,13.876,3.606.992.992,0,0,1,.765.328h2.185c.656,0,.328,1.53.219,1.639.437.109-5.354,18.137-5.9,20.65a3.366,3.366,0,0,1-.983,2.185,9.027,9.027,0,0,1-1.42.765c-3.606,1.2-7.32,2.4-10.926,3.715C499.306,174.222,501.819,149.53,501.163,146.8Zm-13.876-6.665c2.294.328,4.807.983,6.009,2.95a9.82,9.82,0,0,1,.874,3.933l.437,9.287a.657.657,0,0,1,.109.437c0,3.715.219,7.43-.109,11.144,0,1.53.109,3.059.109,4.48.109,5.354.109,11.363-3.715,15.187a9.894,9.894,0,0,1-6.774,2.95,95.175,95.175,0,0,1-8.522-22.726c-.546-2.4-1.311-5.135-3.606-5.9a7.234,7.234,0,0,0-3.059-.109,95.635,95.635,0,0,0-27.97,7.539,7.646,7.646,0,0,1-4.043.983c-1.42-.219-2.731-1.639-2.185-2.95,1.093-3.059.437-6.556.437-9.833-.109-3.278.765-7.1,3.606-8.741A75.928,75.928,0,0,1,487.287,140.134Zm-48.839-37.366a39.451,39.451,0,0,1,7.757-11.035c3.278-3.059,7.539-5.354,12.018-5.463a5.924,5.924,0,0,0,2.622-.983,3.463,3.463,0,0,1,2.731-.328c.874.437,1.2,1.748.437,2.294a6.812,6.812,0,0,0-3.169,5.026,14.55,14.55,0,0,0-3.278-3.059,4.252,4.252,0,0,0-4.261-.109,2.632,2.632,0,0,0-.546,3.933c.656.656-.219,1.857-1.2,1.967s-1.967-.219-2.841.328c-1.639.874-.874,3.387.109,4.917a21.3,21.3,0,0,0-6.993,3.606,8.589,8.589,0,0,0-3.387,6.774c-.109.437-.874.109-1.093-.328C436.154,108.012,437.247,105.171,438.448,102.767Zm-11.691,16.5c-.656,0-1.311,0-1.639-.546a1.889,1.889,0,0,1-.109-1.093c.109-1.311.219-2.513.328-3.824-3.387-.219-6.228,2.4-8.631,4.807a9.354,9.354,0,0,1-1.093-6.883c-.983-1.093-2.95-.874-4.152,0a43.424,43.424,0,0,0-3.278,3.059,8.128,8.128,0,0,1-6.883,1.53c-.219-.109-.437-.109-.656-.328-.328-.437,0-1.093.328-1.42a19.43,19.43,0,0,1,11.691-5.9,31.883,31.883,0,0,1,13.22,1.093c5.026,1.42,10.38,4.261,11.691,9.4C433.969,119.265,430.363,119.265,426.758,119.265Zm6.665,26.222a61.505,61.505,0,0,1,3.824-14.641,55.174,55.174,0,0,1-3.168,16.28c-.328-.109-.546-.219-.656-.546Zm-.874,5.244c.656,0,.765.874.765,1.53-.437,3.824-.765,7.539-1.2,11.363L430.254,161c.765-3.5,1.53-6.883,2.294-10.27Zm-5.681,5.354a125.36,125.36,0,0,1-1.53,14.2,12.093,12.093,0,0,1-.765,2.841A8.066,8.066,0,0,1,419,177.282a26.446,26.446,0,0,1-7.211.328C412.991,176.845,416.16,161.658,426.867,156.085Zm-1.2,61.95a2.233,2.233,0,0,1-1.857.328l-37.257-2.95c-1.2-.109-2.841-.437-3.059-1.639a3.227,3.227,0,0,1,.219-1.42c2.4-6.883,4.807-13.657,7.1-20.541a2.6,2.6,0,0,1,1.311-1.857,146.637,146.637,0,0,1,26.113-8.741c1.2-.219,2.4-.546,3.5.109a2.935,2.935,0,0,1,1.311,2.731.657.657,0,0,1,.109.437c0,3.278-.328,6.665-.328,10.052C423.917,203.722,426.1,217.6,425.665,218.035Zm1.53-33.542a.726.726,0,0,1,.546-.437c.328-.109.546.109.874.219a8.48,8.48,0,0,1,3.606,9.068c-.437,1.2-1.093,2.841-2.294,2.731a1.471,1.471,0,0,1-.983-.546A8.435,8.435,0,0,1,427.195,184.493Zm.328,16.061a1.746,1.746,0,0,1-.437-2.4l.983.983h0A1.122,1.122,0,0,1,427.523,200.554Zm1.748,10.926.109-.109a1.675,1.675,0,0,1-.328-2.076l3.168,3.168a8.939,8.939,0,0,0-2.185,2.731A4.949,4.949,0,0,1,429.271,211.48ZM432,217.707c-.437-.328-.874-.546-1.311-.874a11.925,11.925,0,0,0,4.37-4.043,2.291,2.291,0,0,0,.437-1.2,3.158,3.158,0,0,0-1.2-1.967c-2.076-1.748-4.152-3.606-6.228-5.354a14.521,14.521,0,0,1,2.294-2.841,1.917,1.917,0,0,0,2.95.219,1.786,1.786,0,0,0-1.2-2.622c.219-.656.546-1.311.765-1.967a4.814,4.814,0,0,1,1.2,2.731c.656,3.387,1.311,6.665,1.967,10.052a11.1,11.1,0,0,1,.109,5.354C435.608,216.833,433.75,218.254,432,217.707Z" transform="translate(-378.873 -81.914)"/></g><g transform="translate(63.66 606.202)"><path d="M86.334,625.054c0-.437,0-.765-.109-.874a32.937,32.937,0,0,0-3.387-1.748c-.328-.219-.874-.219-1.093-.437a1.731,1.731,0,0,1-.546-1.311c.437-1.311,1.093-2.622,1.639-3.933.765-1.748,1.53-3.387,2.294-5.026.437-.874.219-1.093-.656-1.42a17.167,17.167,0,0,1-10.161-7.648c-1.42-2.294-2.185-5.135-3.387-7.648-1.2-2.622-1.857-5.572-3.606-7.976-1.2-1.53-2.4-2.95-3.606-4.48-.983-1.311-2.294-2.622-2.731-4.261-.328-1.093-.765-2.185-.983-3.278-.219-.983.656-1.311,1.42-1.311a20.627,20.627,0,0,0,9.4-2.95c1.967-1.093,3.715-2.513,5.572-3.715.219-.109.328-.328.546-.328,1.748.109,2.95-1.093,4.37-1.639a12.725,12.725,0,0,1,10.38.219c2.185.983,4.37,2.185,6.556,3.278a2.369,2.369,0,0,1,.656.765c.874,1.2,1.639,2.076,3.387,1.42,1.53-.546,3.169-.546,4.807-.983a61.686,61.686,0,0,0,7.976-2.513,38.579,38.579,0,0,1,7.867-2.4,6.722,6.722,0,0,1,2.076.219,5.521,5.521,0,0,0,5.026-.765c3.059-2.185,6.118-4.37,9.4-6.337A13.086,13.086,0,0,1,145.115,556c3.606-.109,7.32,0,10.489,2.185a13.547,13.547,0,0,1,3.059,3.059,58.848,58.848,0,0,1,4.37,5.9,13.526,13.526,0,0,1,1.53,4.152c.546,2.185,2.076,3.606,3.169,5.354a20.429,20.429,0,0,0,8.85,7.539,39.866,39.866,0,0,0,6.446,1.748c.874.219,1.857.219,2.731.437.437.109.983.437.983.765,0,.656,0,1.639-.328,1.857-2.294,1.2-2.513,3.059-1.857,5.244a12.274,12.274,0,0,1,.328,3.5c.109,2.841,0,5.682.109,8.522,0,1.311.109,2.731.109,4.043,0,.219.109.437.109.656.219-.109.546-.109.656-.219,1.2-.765,2.294-1.639,3.5-2.294a16.371,16.371,0,0,1,5.9-1.967c1.311-.109,2.513-.656,3.824-.109a12.287,12.287,0,0,1,5.9,4.589c2.185,3.387,4.261,6.883,6.665,10.161a16.448,16.448,0,0,0,4.37,3.824c2.294,1.639,4.807,3.059,7.32,4.589a4.911,4.911,0,0,1,1.311.656c1.42,1.2,1.311,4.043.109,5.791-1.857,2.731-4.7,4.043-7.1,6.009a32.658,32.658,0,0,1-11.035,5.9,28.246,28.246,0,0,1-4.37.983c-2.4.328-4.7.765-7.1.874a28.106,28.106,0,0,1-5.244-.219c-2.841-.437-5.791-.874-8.522-1.53-2.513-.656-4.807-1.748-7.32-2.513-1.857-.656-3.824-.983-5.681.219-.437.328-.983.546-1.2.983a29.551,29.551,0,0,1-9.615,9.833,37.729,37.729,0,0,1-3.715,1.53,2.39,2.39,0,0,0-.546.328,4.755,4.755,0,0,0,.765.437h.437a1.553,1.553,0,0,1,.656.219c-.219.219-.437.546-.765.546-3.059,0-6.228-.109-9.287-.109-3.5,0-6.337-1.53-9.287-3.278a72.4,72.4,0,0,0-6.556-3.169c-1.093-.546-2.294-.765-3.387-1.311a11.27,11.27,0,0,0-6.556-.983,15.931,15.931,0,0,1-5.463-.656,81.793,81.793,0,0,1-8.85-2.513c-3.824-1.42-6.556-4.37-9.068-7.539-1.857-2.4-3.169-5.244-5.681-6.993-.874-.546-1.748-1.093-2.731-1.639-.219-.109-.656.109-.874,0-.328,0-.874,0-1.093-.219a1.048,1.048,0,0,1-.219-.983,26.67,26.67,0,0,1,.983-5.135m43.376,7.32c.328.109.765.219,1.093.328a2.407,2.407,0,0,0,.874.109v-.219a1.553,1.553,0,0,0-.656-.219,5.756,5.756,0,0,1-1.311-.328c-.983-.437-1.857-.765-2.841-1.2-.219-.109-.437.109-.656.109.109.109.328.437.437.437.983.328,2.076.546,3.059.983m63.261-3.059c-1.093-.437-2.076-.983-3.169-1.311a4.407,4.407,0,0,0-1.2,0c.219.328.437.546.656.874.983,1.311,2.076,2.513,3.059,3.824.109.219,0,.656,0,.874-.219-.219-.656-.328-.765-.546-1.2-1.53-2.4-3.059-3.715-4.589a3.11,3.11,0,0,0-2.95-1.093c-1.639.219-3.168.328-4.807.656a3.292,3.292,0,0,0-1.857.874,47.577,47.577,0,0,0-3.5,4.7c-1.748,2.622-3.5,5.354-5.244,7.976-.328.546-.219.874.546.874a18.981,18.981,0,0,1,7.32,1.42,29.536,29.536,0,0,0,4.37,1.53c3.059.656,6.228,1.311,9.4,1.748a47.672,47.672,0,0,0,5.681.546,27.166,27.166,0,0,0,5.135-.437,43.938,43.938,0,0,0,5.463-1.093,19.732,19.732,0,0,0,10.817-7.1,4.92,4.92,0,0,1,.983-1.093c1.967-1.093,2.95-2.95,3.715-5.026.219-.765.219-2.185-.219-2.513a30.228,30.228,0,0,0-5.9-3.059c-3.059-1.093-6.009-2.513-7.976-5.135a58.33,58.33,0,0,1-4.7-7.539,19.656,19.656,0,0,0-4.48-5.463,6.411,6.411,0,0,0-6.993-1.2,64.317,64.317,0,0,0-7.211,3.715,1.455,1.455,0,0,0-.656.983c-.219,1.093-.328,2.294-.656,3.387-.765,3.606-1.967,7.1-4.7,9.943a6.059,6.059,0,0,0-.656.874h1.2a.107.107,0,0,1,.109-.109c1.53-.219,2.95-.546,4.48-.765.656-.109,1.311.109,1.857-.109,2.294-.765,4.589-1.53,6.993-2.294a4.407,4.407,0,0,1,1.2,0c-.328.328-.546.765-.983.874-1.748.546-3.387,1.093-5.135,1.639-.219.109-.328.219-.546.328.219.109.328.219.546.328a9.314,9.314,0,0,1,2.513.328,51.773,51.773,0,0,1,5.463,2.841c1.42.874,2.731,1.857,4.043,2.841a7.923,7.923,0,0,1,.546.983h-1.2c-.109,0-.109-.109-.219-.219-2.185-1.311-4.261-2.731-6.665-4.261m-27.424-53.1a68.044,68.044,0,0,1,.437,8.085,57.6,57.6,0,0,1-1.093,9.724c-.546,2.95-1.42,5.791-2.185,8.631,0,.219-.109.328-.109.546a.985.985,0,0,0,.546-.109c.219-.109.437-.328.656-.437,1.2-.656,2.294-1.42,3.5-2.076.219-.109.765.109,1.093.109a6.1,6.1,0,0,1-.546.874,14.32,14.32,0,0,0-5.354,5.791c-1.748,3.278-3.387,6.556-5.026,9.833A29.65,29.65,0,0,1,149.267,628c-.328.219-.656.765-.546,1.093a1.739,1.739,0,0,0,.983.983c3.168.874,6.337,1.857,9.615.874a73.268,73.268,0,0,0,8.194-2.95,90.745,90.745,0,0,0,8.3-4.807,11.47,11.47,0,0,0,4.589-6.228,48.555,48.555,0,0,0,1.639-5.682,49.138,49.138,0,0,0,.765-6.883c.109-.983-.328-2.076-.328-3.169,0-3.278-.656-6.555.546-9.724.546-1.42.765-3.169,2.731-3.715.109,0,.109-.437.109-.656-.437-.109-.765-.109-1.2-.219-1.311-.328-2.622-.546-4.043-.874a20.144,20.144,0,0,1-12.674-8.085c-.656-.874-1.311-1.967-1.967-2.841-.109-.219-.437-.219-.656-.328a7.519,7.519,0,0,1,.219,1.42M131.24,633.795a31.962,31.962,0,0,1-4.589-1.42c-2.294-1.093-4.48-2.513-6.665-3.715-2.076-1.093-4.261-2.294-6.446-3.278a10.85,10.85,0,0,0-5.9-1.2c-1.639.109-2.95-.874-2.622-1.967.437-1.093,1.53-1.311,2.513-1.748a10.23,10.23,0,0,1,1.748-.437,5.712,5.712,0,0,0-1.748-.656,9.816,9.816,0,0,1-8.085-5.791,10.922,10.922,0,0,0-.874-1.53c-.437.328-.983.656-1.42.983-.109,0-.109,0-.219.109a17.928,17.928,0,0,0-6.446,7.757c-1.093,2.294-1.748,4.7-2.622,7.1-.219.546-.765,1.093-.656,1.53.109.328.874.546,1.42.765l.328.328a22.9,22.9,0,0,1,5.135,5.135,29.984,29.984,0,0,0,7.211,8.085,14.538,14.538,0,0,0,4.917,2.731c2.513.765,5.135,1.53,7.648,2.076,3.387.656,6.993.983,10.052-1.2a16.817,16.817,0,0,0,3.715-3.059c1.53-1.857,2.841-4.043,4.152-6.009a27.684,27.684,0,0,0,1.967-2.95c.219-.437.874-1.311-.546-1.311-.437,0-1.093-.219-1.967-.328m5.681,2.076c-.765,1.42-1.42,2.95-2.294,4.261a24.3,24.3,0,0,1-7.539,8.085,1.091,1.091,0,0,0-.437.546c.328.109.546.328.874.328a12.962,12.962,0,0,1,6.337,2.185c.983.656,1.967,1.311,2.95,1.857,3.387,1.857,6.774,3.715,10.6,4.261a9.96,9.96,0,0,0,3.5.328,24.66,24.66,0,0,0,15.624-12.237c.983-1.639,1.639-3.606,2.622-5.244a82.756,82.756,0,0,1,7.976-11.472c.109-.219.109-.437.219-.656a1.86,1.86,0,0,0-.765.109c-1.311.765-2.622,1.639-3.933,2.4-3.715,2.076-7.867,2.076-11.909,2.513a41.987,41.987,0,0,1-5.244,0c-1.311,0-2.622.219-3.824.109-1.748-.328-3.715-.328-5.354-1.311a1.766,1.766,0,0,0-1.639.109,13.118,13.118,0,0,1-5.026,1.748c-1.2.109-2.4.437-2.731,2.076M65.357,580.476a20.989,20.989,0,0,1,3.169,3.059,88.3,88.3,0,0,0,8.3,8.631c.109.109.219.328.328.437,1.2,1.53,2.185,3.169,3.5,4.589,2.294,2.513,4.48,5.135,5.354,8.522.109.328.546.546.874.874.219-.328.656-.656.765-.983a45.34,45.34,0,0,0,1.2-5.244c.109-1.42.328-3.059-.765-4.37a.924.924,0,0,1,0-.765c1.42-1.311,1.748-3.059,2.4-4.7.437-.983.219-1.42-.874-1.42a10.546,10.546,0,0,1-1.857,0,.726.726,0,0,1-.546-.437c.219-.219.328-.437.546-.437a7.139,7.139,0,0,1,1.53,0,1.386,1.386,0,0,0,.656-.109,2.386,2.386,0,0,0-.328-.546c-.219-.219-.546-.219-.765-.328-1.53-1.093-3.169-2.185-4.7-3.278-.219-.109-.219-.546-.328-.765a1.04,1.04,0,0,1,.765.219c.874.546,1.857,1.2,2.731,1.857.328.219.656.328.983.546a6.4,6.4,0,0,0,.219-1.42,12.779,12.779,0,0,0-.546-2.185,1.552,1.552,0,0,1,.219-.656c.219.219.546.328.656.546l.656,3.606c.109.546,1.42,2.185,1.967,2.185.219,0,.437-.328.546-.546.437-1.311.874-2.622,1.2-3.933.983-4.043,3.059-7.43,5.354-10.817.874-1.2.874-1.311-.546-1.967-2.513-1.093-5.026-2.185-7.539-3.059a10.311,10.311,0,0,0-6.556-.328,13.5,13.5,0,0,1-4.7.437,3.676,3.676,0,0,0-2.4.437c-2.294,1.42-4.589,2.732-6.883,4.152a18.228,18.228,0,0,1-6.665,2.076c-.437.109-.983.219-1.093.546a1.881,1.881,0,0,0,.219,1.311,21.315,21.315,0,0,0,2.95,4.261m53.865,37.8c-1.857-1.311-3.5-2.841-3.387-5.354,0-.765.109-1.639.109-2.4.328-2.841-1.2-5.135-2.4-7.539s-2.731-4.7-4.152-6.993A19.985,19.985,0,0,1,106,583.645c.109-2.076.219-4.261,1.311-6.118.109-.109,0-.328,0-.546-.219.109-.437.109-.546.219-.656.437-1.311.983-1.967,1.42-2.294,1.42-4.807,2.294-6.774,4.261a18.01,18.01,0,0,0-3.824,4.7c-1.2,2.622-2.731,5.135-4.043,7.757a1.253,1.253,0,0,0,.109,1.093c.437.437.983.765,1.42,1.2a31.325,31.325,0,0,1,6.228,10.38c.328.874.437,2.076,1.639,2.4.109,0,.328.437.219.546-.437,2.076.983,3.387,2.294,4.48,2.294,2.076,5.354,2.841,8.085,3.933a9.173,9.173,0,0,0,3.387.546c1.748,0,3.5-.219,5.244-.328a8.27,8.27,0,0,1,1.639.109,3.649,3.649,0,0,0-1.2-1.42m36.492-8.741a27.354,27.354,0,0,0-2.622,2.4,41.813,41.813,0,0,1-10.161,7.211,28.74,28.74,0,0,1-7.867,2.513c-3.169.656-6.118,0-9.178-.437a48.894,48.894,0,0,0-6.883-.656,54.654,54.654,0,0,0-11.144.765,11.027,11.027,0,0,0-1.639.765c-.109,0-.219.328-.109.437a.828.828,0,0,0,.437.219c1.42-.656,2.731-.109,4.043.328a57.738,57.738,0,0,1,10.27,4.589,14.1,14.1,0,0,0,1.748.983c3.5,1.093,6.993,2.4,10.489,3.278a11.968,11.968,0,0,0,7.32-.109c1.2-.437,2.185-1.2,3.387-1.748a20.671,20.671,0,0,0,8.959-6.883,109.422,109.422,0,0,0,5.681-9.833c.874-1.639,1.53-3.5,2.4-5.135a45.307,45.307,0,0,1,2.622-3.715c.109-.219.109-.437.219-.656a1.859,1.859,0,0,0-.765.109,4.7,4.7,0,0,0-1.093.983c-1.967,1.53-4.043,2.95-6.118,4.589m2.076-6.555c.765-2.076,1.53-4.043,2.185-6.118a47.106,47.106,0,0,0,1.2-5.354c.328-1.967.546-3.933.765-5.9.109-1.093.109-2.294.109-3.387-.109-2.841.219-5.791-.328-8.631a89.735,89.735,0,0,0-2.95-9.178,7.061,7.061,0,0,0-.656-2.294c-1.639-2.076-3.387-4.043-6.118-4.48a32.452,32.452,0,0,0-6.446-.765,12.565,12.565,0,0,0-6.118,2.185c-2.622,1.857-5.463,3.606-8.085,5.354-.109.109-.219.328-.328.437.219,0,.328.109.546.109a.819.819,0,0,0,.546-.109,11.755,11.755,0,0,1,6.993-1.093c3.278.328,6.337.983,9.068,2.95a18.194,18.194,0,0,1,6.118,6.446,19.9,19.9,0,0,1,1.967,7.867c.219,2.622.219,5.354.328,7.976a14.387,14.387,0,0,1-.437,3.715c-.983,3.715-1.857,7.32-3.059,10.926a31.309,31.309,0,0,1-2.622,6.228,16.246,16.246,0,0,1-2.513,3.059c-.874.983-1.857,1.967-2.841,2.95-.656.656-1.42,1.2-2.076,1.748-.109.109-.109.219-.219.328h.437c.765-.437,1.53-.765,2.294-1.2,1.967-1.42,3.933-2.841,5.9-4.37a23.013,23.013,0,0,0,4.152-3.824c.874-1.53,1.311-3.606,2.185-5.572m-7.1-32.887c-1.967-2.076-4.7-2.622-7.32-3.169a42.056,42.056,0,0,0-6.337-.874,13.1,13.1,0,0,0-4.152.328c-4.37,1.2-7.648,4.261-10.707,7.539-.109.109-.109.328-.219.546a4.733,4.733,0,0,1,.546.109,13.5,13.5,0,0,1,7.757-.765,7.78,7.78,0,0,1,4.48,1.639.992.992,0,0,0,1.093,0,3.726,3.726,0,0,1,3.387-.219c2.841.874,4.7,2.95,6.228,5.463a11.389,11.389,0,0,1,1.639,5.354,29.373,29.373,0,0,1,.328,5.354,4.692,4.692,0,0,0,.983,3.606c1.857,2.513,3.168,5.244,2.513,8.522-.219.874,0,1.748-.219,2.622-.328,1.093-.874,2.185-1.311,3.278-.219.546-.437,1.093-.765,1.748,1.093,0,1.2-.983,1.42-1.53a13.794,13.794,0,0,0,1.53-4.807c.109-1.748,1.2-3.387,1.639-5.026.656-2.294,1.093-4.589,1.53-6.883a41.625,41.625,0,0,0,.765-7.32,64.163,64.163,0,0,0-.874-7.867,13.958,13.958,0,0,0-3.933-7.648m-11.144,20.541c-1.857,2.513-4.7,4.043-6.228,6.993a27.2,27.2,0,0,0-2.731,5.681,2.244,2.244,0,0,0,0,1.2c.437.983.983,1.857,1.42,2.841l2.294,5.572a17.118,17.118,0,0,1,.874,5.681c0,.437.765,1.093.983.983a23.926,23.926,0,0,0,3.606-1.311,15.021,15.021,0,0,0,6.556-5.681,13.636,13.636,0,0,0,2.841-6.993,24.692,24.692,0,0,1,.109-2.841,8.26,8.26,0,0,0-.874-5.354,42.02,42.02,0,0,0-2.513-4.152,9.375,9.375,0,0,1-1.639-5.354c.109-1.857,0-3.606.109-5.463a4.481,4.481,0,0,0-.109-1.2c-.109-.219-.328-.437-.437-.656-.109.219-.328.437-.437.656a4.7,4.7,0,0,1,0,1.748c-.656,2.841-1.53,5.572-3.824,7.648m-26.55,4.589c-.328-.109-.656-.109-.983-.219a3.662,3.662,0,0,0,0,1.093,11.942,11.942,0,0,0,.546,1.857,23.732,23.732,0,0,0,.765,2.622c.874,1.967,1.967,3.824,2.95,5.682a8.282,8.282,0,0,1,.765,5.135c-.219,1.093-.656,2.294.328,3.278,1.639,1.748,3.278,3.606,5.463,4.589a11.989,11.989,0,0,0,5.9.874,32.047,32.047,0,0,1,4.48-.328c.874,0,1.2-.437,1.093-1.2-.109-1.093-.109-2.294-.328-3.387a12.273,12.273,0,0,0-2.731-6.337c-2.4-2.622-5.026-5.135-7.648-7.539a17.956,17.956,0,0,0-3.606-2.841c-2.185-1.2-4.589-2.076-6.993-3.278m-26.331,33c0,.219-.109.546-.109.765.109-.219.328-.437.328-.656.546-1.639.983-3.387,1.639-5.135,1.093-2.841,2.185-5.791,4.48-7.867,1.42-1.311,2.95-2.513,4.48-3.824.219-.219.656-.656.546-.874a30.875,30.875,0,0,0-2.185-4.7c-1.53-2.622-2.731-5.463-4.917-7.757a7.926,7.926,0,0,0-.983-.546c-.109.328-.109.546-.219.874-.219,1.639-.437,3.387-.765,5.026a33.394,33.394,0,0,1-1.42,4.7c-1.42,3.715-1.857,7.867-4.261,11.254-.219.328-.219.656-.437.983-.437.656-.219.983.437,1.311.983.437,1.967.983,3.059,1.42.219.109.765-.219.874-.546.328-.765.546-1.748.874-2.513,1.2-3.278,3.606-5.681,6.009-7.976a9.193,9.193,0,0,1,2.841-1.639c.109-.109.437,0,.546,0-.109.219-.109.437-.219.546a.828.828,0,0,1-.437.219,14.6,14.6,0,0,0-5.681,5.244,25.428,25.428,0,0,0-4.48,11.691m34.854-43.485c1.639-.765,3.169-1.53,5.026-1.093,1.967.437,1.967.328,2.841-1.53a12.454,12.454,0,0,1,4.261-5.244c.219-.109.546-.437.437-.546,0-.219-.328-.437-.546-.546a22.808,22.808,0,0,0-4.7-1.2,14.188,14.188,0,0,0-9.724,2.622c-2.185,1.53-4.152,3.278-4.589,6.009-.219,1.42-.874,2.95.328,4.152a29.168,29.168,0,0,0,3.5,2.622,2.46,2.46,0,0,0,.546-.546,5.567,5.567,0,0,1,2.622-4.7m-13.22-6.993a6.685,6.685,0,0,0-.546,1.311,21.931,21.931,0,0,0-.437,8.85,20.648,20.648,0,0,0,3.169,7.648c.109.219.328.219.546.328.109-.219.219-.328.219-.546a24.7,24.7,0,0,0,.109-2.841,5.266,5.266,0,0,1,1.53-3.933c.546-.546.437-1.093.328-1.748a10.519,10.519,0,0,1-.437-3.606,9.867,9.867,0,0,1,5.572-6.883,4.819,4.819,0,0,0,2.841-4.043.853.853,0,0,0-.437-.437c-1.42.109-2.841.328-4.152.546-1.42.328-2.841.656-4.261,1.093-.219.109-.437.437-.656.656.328,0,.656.109.874,0l1.967-.328c1.42-.219,2.95-.437,4.37-.546.328,0,.656.328.983.437-.219.219-.546.656-.765.656-2.622.328-5.354.656-7.976.765-1.42,0-2.185.874-2.841,2.622m23.272,14.2c.874-.219,1.748-.874,2.4.328.219.437.219.874.437,1.311,0,.109.109.437.219.437s.437,0,.546-.109c1.311-1.311,2.622-2.731,3.824-4.152a1.253,1.253,0,0,0,.109-1.093c-.437-1.2-1.093-2.4-1.53-3.715-1.2-3.387-4.7-3.933-7.1-1.748-1.2,1.093-2.294,2.076-4.152,1.53-2.513-.656-5.681.656-6.337,3.387-.219.983-.765,2.076.546,2.732l.983.328a33.54,33.54,0,0,0,5.681.656c2.513-.109,4.152-2.076,5.681-3.933.546-.546-.109-1.093-.546-1.093a10.245,10.245,0,0,0-5.354,1.311c-.219.109-.328.546-.546.874.437.109.874.328,1.2.219a13.044,13.044,0,0,0,1.748-.874c.219-.109.656,0,.874,0a2.285,2.285,0,0,1-.437.656,6.336,6.336,0,0,1-1.311,1.093,2.6,2.6,0,0,1-3.387-.874c-.437-.765.109-1.748,1.53-2.294a37.659,37.659,0,0,1,5.026-1.311,2.174,2.174,0,0,1,1.857.874,2.051,2.051,0,0,1-.219,2.076,16.658,16.658,0,0,1-2.4,2.4,7.062,7.062,0,0,0-.874.983,3.6,3.6,0,0,0,1.53,0M94.092,582.88c0,.109-.109.219-.109.328v1.2a6.242,6.242,0,0,0,.874-.765,32.175,32.175,0,0,1,3.278-3.387,62.438,62.438,0,0,1,7.32-4.48c1.2-.656,2.731-.765,3.933-1.53a19.609,19.609,0,0,1,8.194-3.059c1.311-.109,2.622-.219,3.933-.437a1.455,1.455,0,0,0,.983-.656,6.332,6.332,0,0,1,2.731-2.622,7.54,7.54,0,0,0,.874-.328.568.568,0,0,0,.219-.437c0-.109-.109-.219-.219-.328a10.587,10.587,0,0,0-2.513-.328,55.624,55.624,0,0,0-6.118,1.53,78.649,78.649,0,0,1-11.254,3.387,18.207,18.207,0,0,0-8.741,4.807c-1.857,1.967-2.513,4.589-3.387,7.1m36.165,18.574a27.858,27.858,0,0,1,1.42-3.169c.765-1.42,1.967-2.622,1.748-4.48-.109-.983-.656-1.093-1.311-.983-1.53.109-3.059.546-4.589.546a20.925,20.925,0,0,1-4.48-.546,11.731,11.731,0,0,1-3.5-.874c-1.42-.765-2.731-1.748-4.152-2.622-.219-.109-.546-.219-.765-.328a3.025,3.025,0,0,0,.109.983,23.254,23.254,0,0,0,.874,2.95,2.472,2.472,0,0,0,.983,1.311c1.2.546,2.622.983,3.824,1.53a18.461,18.461,0,0,1,8.413,6.555l.765.765.328-.983a1.246,1.246,0,0,0,.328-.656m-53.318-5.026a33.764,33.764,0,0,0-6.009-7.648c-.656-.765-1.42-1.53-2.076-2.185a1.172,1.172,0,0,0-.656-.219c.109.219.109.546.219.656a27.79,27.79,0,0,1,1.748,3.059c1.639,3.824,2.95,7.867,5.681,11.144,1.639,1.967,3.278,4.043,5.681,5.244,1.093.546,2.076,1.311,3.169,1.967.437.219.874.328,1.311.546-.109-.546-.109-.983-.219-1.53a1.606,1.606,0,0,0-.546-.656,18.147,18.147,0,0,1-2.294-1.748c-2.622-2.294-4.261-5.354-6.009-8.631m64.135-9.506a27.111,27.111,0,0,0,1.42-3.824,8.4,8.4,0,0,0,.328-3.278c-.109-1.53-1.42-2.4-2.513-3.278a3.572,3.572,0,0,0-3.715-.546,16.328,16.328,0,0,0-5.9,5.354c-.109.109,0,.437,0,.656.219-.109.546-.109.656-.219a3.784,3.784,0,0,1,4.589-.328c2.4,1.311,3.168,3.824,3.933,6.228a2.571,2.571,0,0,1,.219.874,6.066,6.066,0,0,0,.656-.874,3.966,3.966,0,0,1,.328-.765m21.415,44.141c-.109.109-.219.219-.328.219l-.656.328a2.315,2.315,0,0,0,.765.328,27.064,27.064,0,0,0,2.95-.328,18.072,18.072,0,0,0,3.5-.765c2.4-.983,4.7-2.185,6.993-3.278a8.768,8.768,0,0,0,4.261-3.933,67.054,67.054,0,0,0,2.731-6.446,22.688,22.688,0,0,0,1.42-8.959c0-.219-.219-.437-.328-.656-.109.109-.328.328-.328.437A30.011,30.011,0,0,1,181.5,617.3c-1.093,2.622-2.294,5.135-4.917,6.665-.983.546-1.857,1.311-2.731,1.857-3.715,2.294-7.211,4.37-11.363,5.244m2.513-50.7a31.306,31.306,0,0,0-1.2-8.413,23.75,23.75,0,0,0-3.5-7.539,1.091,1.091,0,0,0-.546-.437,1.859,1.859,0,0,0,.109.765,7.583,7.583,0,0,0,.546,1.42,27.966,27.966,0,0,1,2.622,10.27,54.524,54.524,0,0,1-.437,12.674c-.546,2.622-.874,5.244-1.639,7.757-.874,2.95-2.076,5.791-3.168,8.631a1.386,1.386,0,0,0-.109.656,2.286,2.286,0,0,0,.656-.437,30.122,30.122,0,0,0,3.606-8.413c.765-3.059,1.311-6.228,2.076-9.4.437-2.4,1.2-4.807.983-7.539m34.744,27.1c-.219-.109-.328-.219-.546-.328a5.32,5.32,0,0,0-1.311-.109c.328.219.546.437.874.656a18.514,18.514,0,0,1,6.118,6.556c1.857,3.387,3.5,7.1,6.774,9.615.874.656,1.857,1.311,2.841,1.967.219.109.546,0,.874,0-.109-.109-.219-.328-.437-.437a24.661,24.661,0,0,1-3.169-2.513,89.9,89.9,0,0,1-5.791-8.522c-1.53-2.731-3.169-5.354-6.228-6.883m-70.363-2.076c.109.109.109.328.219.328a2.74,2.74,0,0,0,.765.437c-.109-.328-.109-.656-.328-.874a13.57,13.57,0,0,0-1.857-2.513c-1.639-1.857-3.278-3.824-5.572-4.807-2.622-1.2-5.135-2.4-7.757-3.606a3.378,3.378,0,0,0-.874-.219,2.57,2.57,0,0,0-.874.219c.219.109.437.328.656.437h.219a29.564,29.564,0,0,1,10.052,5.681c1.748,1.529,3.5,3.168,5.354,4.917m-1.967,45.67c2.731,1.2,5.572,2.294,8.3,3.715a27.036,27.036,0,0,0,7.32,3.169c.219,0,.437-.109.656-.109l-.437-.437c-.109-.109-.328-.109-.437-.219-1.967-.983-4.043-1.857-6.009-2.95-2.4-1.2-4.48-3.059-7.1-3.715-1.42-.328-2.731-.765-4.152-1.093-.219,0-.437.109-.765.109.219.219.328.437.546.546a12.105,12.105,0,0,0,2.076.983m.328-4.152a43.167,43.167,0,0,0,8.631-11.8c.109-.219,0-.656,0-.983a2.7,2.7,0,0,0-.983.437,4.911,4.911,0,0,0-.656,1.311c-1.53,2.294-2.95,4.48-4.48,6.774-1.42,2.076-2.95,4.043-5.244,5.135-.219.109-.437.437-.656.546.328,0,.874.219,1.093,0,.765-.328,1.42-.983,2.294-1.42M92.671,567.475c1.639.765,3.278,1.53,4.807,2.294.219.109.546,0,.874,0-.219-.219-.328-.546-.546-.656a61.725,61.725,0,0,0-7.211-3.387c-3.169-1.2-6.446-.656-9.615.328-.437.109-.765.546-1.2.765a7.163,7.163,0,0,0,1.53,0c1.42-.219,2.841-.546,4.261-.765,2.4-.328,4.589.437,7.1,1.42m83.692,77.464c1.093.437,2.294.874,3.387,1.311,2.294.656,4.589,1.311,6.993,1.857,1.748.328,3.5.546,5.354.765a3.472,3.472,0,0,0,.983-.328c-.328-.109-.546-.219-.874-.328-2.294-.437-4.48-.765-6.774-1.2-1.53-.328-3.059-.546-4.589-.983-2.513-.765-4.917-1.748-7.43-2.4a21.21,21.21,0,0,0-4.589-.219c-.219,0-.437.437-.765.765.219,0,.546.219.656.109a13.171,13.171,0,0,1,7.648.656M81.308,601.891c.983,1.093,1.967,2.076,2.95,3.169.109.109.437.109.656.219a1.386,1.386,0,0,0-.109-.656c-.983-1.53-1.967-3.059-2.95-4.48-.765-1.093-1.53-1.967-2.294-3.059-.983-1.42-1.967-2.841-3.059-4.261-.219-.328-.656-.437-.983-.656a3.882,3.882,0,0,0,.437.983c1.639,2.841,3.387,5.791,5.354,8.741m82.927-9.178c.219-1.093.437-2.294.546-3.387,0-.328-.109-.546-.109-.874-.109.219-.219.546-.328.765-.437,2.513-.765,5.026-1.42,7.43a24.505,24.505,0,0,1-2.731,7.1,6.318,6.318,0,0,0-.546,1.53c.437-.437,1.2-.656,1.42-1.2a18.461,18.461,0,0,0,1.639-4.043c.656-2.4,1.093-4.807,1.53-7.32m19.776,6.665c0-1.42-.109-2.95-.219-4.37a3.473,3.473,0,0,0-.328-.983c-.109.328-.219.765-.328,1.093v.328c.219,2.841.328,5.681.546,8.522,0,.328.219.546.219.874.109-.219.328-.546.437-.765s0-.546,0-.765c-.109-1.2-.218-2.4-.328-3.933m38.678,37.585c.328-.437.546-.765.874-1.2a4.431,4.431,0,0,0,1.2-3.824,1.552,1.552,0,0,0-.219-.656c-.109.219-.437.437-.437.765a16.886,16.886,0,0,1-.765,2.513,10.2,10.2,0,0,1-3.606,4.152c-.219.109-.219.328-.437.546.219,0,.656.109.765,0q1.147-.983,2.622-2.294m-78.448-71.237a9.447,9.447,0,0,0-2.513-.656,61.53,61.53,0,0,0-6.337-.328c-.219,0-.328.219-.546.328.219,0,.328.109.546.109,2.076.219,4.261.437,6.337.765a23.277,23.277,0,0,0,2.731.328c.874-.219,0-.437-.219-.546M145.88,584.3c-.109-.219-.219-.328-.328-.546,0,.109-.109.328-.109.437.109,1.967.109,3.824.219,5.791a3.365,3.365,0,0,0,.546,1.311,8.048,8.048,0,0,1,.437-1.53v-.328c-.328-1.639-.546-3.278-.765-5.135m-17.918-17.044a1.859,1.859,0,0,0-.765.109,11.372,11.372,0,0,0-4.589,3.933c-.109.219-.109.437-.219.656.219-.109.546-.109.765-.328a58,58,0,0,0,4.807-4.37m-48.4,39.333-3.606-3.605a.193.193,0,1,0-.219.219,15.937,15.937,0,0,0,6.993,5.572c.109.109.328,0,.437,0-.109-.109-.109-.328-.219-.437a24.561,24.561,0,0,0-3.387-1.748M147.519,631.5c1.311.328,2.622.656,3.824.874.109,0,.328-.219.546-.328-.219-.109-.328-.328-.546-.328-1.093-.437-2.294-.874-3.387-1.311-.328-.109-.656-.437-.765-.328a2.63,2.63,0,0,0-.656.874,9.874,9.874,0,0,1,.983.546m-33.105-39.879c-.219-.546-.546-1.093-.765-1.748a13.009,13.009,0,0,0-.983,1.639,1.72,1.72,0,0,0,.109,1.311,6.6,6.6,0,0,0,1.748.546c-.109-.437-.109-.874-.219-1.311.109-.109.109-.219.109-.437M68.2,583.973c-.546-.546-1.093-.983-1.639-1.53a.657.657,0,0,0-.437-.109.819.819,0,0,0,.109.546c1.093,1.093,2.185,2.294,3.278,3.387.109.109.109.109.219.109v-.437a15.394,15.394,0,0,1-1.53-1.967m-5.354-5.135c-.109-.109-.109-.328-.219-.328-.219-.219-.437-.328-.656-.546a1.859,1.859,0,0,0,.109.765,32.529,32.529,0,0,0,2.185,3.169c.109.219.437.328.656.437-.109-.328-.109-.656-.219-.874a29.808,29.808,0,0,0-1.857-2.622m39.77,0c.874-.437,1.748-.874,2.622-1.42a2.388,2.388,0,0,0,.328-.546.819.819,0,0,0-.546.109c-.874.437-1.857.983-2.731,1.42a6.6,6.6,0,0,0-.874.874,5.329,5.329,0,0,0,1.2-.437m-9.943,9.943c.328-.546.656-1.2.983-1.748.219-.437.328-.983.546-1.53a4.125,4.125,0,0,0-1.093,1.311A7.628,7.628,0,0,0,92.234,589c0,.109.109.219.109.328,0-.219.109-.328.328-.546m-1.639,3.169c.328-.656.765-1.2,1.093-1.857.109-.109,0-.437-.109-.656a1.509,1.509,0,0,0-.328.437c-.109.109-.328.219-.328.328-.109.656-.219,1.311-.328,1.748m8.631-18.574a4.752,4.752,0,0,0,.437-.765,4.735,4.735,0,0,1-.546-.109,6.1,6.1,0,0,0-.546.874c.219,0,.328.109.656,0M84.04,616.969c.109-.328.328-.656.437-.983-.109,0-.219-.109-.328-.109A1.97,1.97,0,0,0,84.04,616.969Z" transform="translate(-59.969 -555.974)"/></g><g transform="translate(77.869 531.09)"><path d="M152.068,513.534a26.038,26.038,0,0,1,2.622-3.824c2.731-2.841,4.37-2.4,7.211-.983,3.387,1.748,4.48,1.53,6.446-1.748.874-1.42,1.639-2.95,2.622-4.261.546-.656,1.748-1.42,2.294-1.2a3.617,3.617,0,0,1,1.639,2.294,25.216,25.216,0,0,1,.328,4.043,8.237,8.237,0,0,0,.656,1.42c.219-.437.765-.765.765-1.2.328-2.4,1.967-4.152,3.715-5.572,2.185-1.857,4.152-1.53,5.9,1.2,1.967,3.059,2.622,6.665,3.059,10.161.656,4.261,1.311,8.522,2.076,12.783a2.2,2.2,0,0,0,2.4,1.967c.765-.109,1.311-.983,1.967-1.53.437-.328.765-.656,1.2-.983a8.15,8.15,0,0,1,.765,1.311c.328,2.513-.765,4.48-2.731,4.807a5.259,5.259,0,0,1-6.118-4.043c-.983-4.37-1.639-8.741-2.4-13.111-.546-2.841-1.093-5.572-1.857-8.3-.437-1.748-1.967-2.185-3.059-.765a24.057,24.057,0,0,0-3.278,5.572c-1.53,3.715-1.311,7.539-.437,11.363.656,2.95,1.2,5.791,1.748,8.741a3.637,3.637,0,0,1-.109,1.53,12.005,12.005,0,0,1-.983,1.53c-.546-.437-1.42-.656-1.639-1.2-.546-1.639-3.5-26.331-4.807-26.222-.328,0-.656.765-.983,1.2a30.425,30.425,0,0,1-2.841,3.715c-2.076,1.967-2.076,2.076-1.2,4.917,1.093,3.5,2.294,6.993,1.311,10.707a8.788,8.788,0,0,1-5.135,6.118c-1.639.765-5.791-.437-7.867-2.841-4.152-5.135-4.917-10.926-3.278-17.591m3.059,12.128a19.874,19.874,0,0,0,1.639,2.513c2.622,3.5,6.118,3.933,8.413-.109,1.53-2.731.437-9.4-1.311-11.472a2.917,2.917,0,0,0-2.185-.109c-1.857.656-3.606.983-5.244-.328-1.2-.983-1.53-.546-1.857.656a17.657,17.657,0,0,0,.546,8.85m6.009-12.237c.983-.656.546-1.2-.219-1.42a3.368,3.368,0,0,0-2.076,0c-.656.109-1.093.656-1.639.983.546.328.983.874,1.53.983A24.617,24.617,0,0,0,161.136,513.425Z" transform="translate(-65.725 -485.922)"/><path d="M105.343,534.663c1.2,3.715,2.4,7.43,3.606,11.035.656,2.185,1.2,4.37,1.857,6.446a1.724,1.724,0,0,1-1.2,2.4c-.219.109-1.311-.874-1.53-1.53-1.748-5.463-3.387-10.817-5.026-16.28-2.294-7.757-4.48-15.405-6.774-23.163a5.327,5.327,0,0,1-.328-.765c-.328.109-.656.219-.765.437a13.81,13.81,0,0,0-1.42,2.841c-1.093,3.824-2.4,7.757-1.639,11.691.437,2.185,2.294,4.152,3.824,5.9,1.967,2.294,1.2,6.337-1.53,7.539-1.748.765-6.665-1.967-6.228-4.807.328-1.748.219-3.605.437-5.354.219-2.513-1.42-4.152-2.731-5.9-2.513-3.059-5.244-6.009-7.976-8.959a11.444,11.444,0,0,0-1.2-.874c-.109.437-.437.983-.328,1.42,1.857,9.615,3.278,19.339,6.446,28.735,1.311,3.933,1.53,8.3,2.185,12.456.109.546-.656,1.311-.983,1.967-.546-.546-1.311-.983-1.42-1.53-1.093-3.933-9.4-44.031-9.615-45.889a1.973,1.973,0,0,1,.437-1.639,2.473,2.473,0,0,1,1.967.109c3.824,2.185,6.665,5.463,9.506,8.741,1.093,1.311,2.076,2.841,3.059,4.261.219.328.656.437,1.093.765.219-.437,4.043-15.952,4.589-16.935a9.394,9.394,0,0,1,1.967-2.185c.656.656,1.53,1.2,1.748,1.857,1.093,3.278,2.076,6.665,3.169,10.052,1.53,5.244,3.169,10.38,4.7,15.624a7.213,7.213,0,0,0,.109,1.53m-11.909,3.059c-.437-1.639-.983-3.278-1.42-5.026-.219.109-.765.219-.765.328.109,1.42.219,2.95.437,4.37C91.795,537.613,92.669,537.722,93.434,537.722Z" transform="translate(-72.974 -485.527)"/><path d="M150.639,542.482c-1.2-2.294-2.4-4.48-3.5-6.665-.219-.437-.437-.765-.656-1.2-.328.328-.765.656-.874,1.093a5.565,5.565,0,0,1-4.807,3.933A5.973,5.973,0,0,1,134.8,536.8c-3.278-5.681-4.48-11.8-2.622-18.137.656-2.513,2.513-4.152,4.917-5.244,2.294-1.093,2.841-.765,2.185-4.043-1.2-5.681-1.639-11.363.109-16.935a12.386,12.386,0,0,1,2.294-4.261c1.42-1.53,3.059-1.2,3.715.874a31.312,31.312,0,0,1,1.311,7.1c.437,8.85,1.2,17.809.874,26.55a21.845,21.845,0,0,0,3.933,13.657c1.639,2.4,3.387,4.807,5.244,7.1a3.532,3.532,0,0,0,2.622.656c2.076-.546,2.841,0,2.513,2.076,0,.328-.219.656-.109.983.437,1.53-.219,1.639-1.53,1.53-4.37-.328-7.43-2.622-9.615-6.228m-15.843-22.4c-1.53,5.244-.546,10.052,1.967,14.75a3.37,3.37,0,0,0,5.572.219,8.568,8.568,0,0,0,1.53-6.446c-.656-3.387-1.857-6.665-2.731-10.052-.656-2.622-2.185-3.169-4.261-1.42-.765.656-1.2,1.857-2.076,2.95m9.068-6.446a6,6,0,0,0,.546-1.857c-.219-6.337-.437-12.674-.765-19.011,0-.437-.546-.983-.765-1.42-.219.328-.656.765-.656,1.093a43.342,43.342,0,0,0,0,13.548A35.268,35.268,0,0,0,143.865,513.638Z" transform="translate(-67.574 -487.228)"/><path d="M110.2,523.64c-.109-5.572.328-10.817,3.5-15.3a15.265,15.265,0,0,1,4.589-3.715c1.748-.983,3.059.328,4.261,1.53a10.708,10.708,0,0,1,1.857,2.513,15.947,15.947,0,0,1,1.093,3.715c.328,2.4.219,4.917.656,7.211.874,5.135,1.857,10.27,3.059,15.3a13.785,13.785,0,0,0,2.622,4.807c.765.983,2.185.983,3.5.546a3.315,3.315,0,0,1,2.294,0c.437.219.765,1.53.437,1.857a4.085,4.085,0,0,1-2.185,1.311c-5.354,1.53-8.959-3.824-9.615-8.85-.109-.437,0-.874-.109-1.311a4.751,4.751,0,0,0-.437-.765c-.219.219-.656.437-.656.656-.328,1.42-.546,2.95-.983,4.261-1.2,3.059-4.917,3.606-8.085,1.311a12.348,12.348,0,0,1-4.48-7.43,43,43,0,0,1-1.311-7.648m11.909,5.791a2.025,2.025,0,0,0,.219-.765c0-3.059.109-6.009,0-9.068a69.666,69.666,0,0,0-.765-9.506c-.437-2.731-2.4-3.278-4.152-1.093a18.41,18.41,0,0,0-3.059,6.009,41.911,41.911,0,0,0-.983,7.43c-.437,4.48.109,8.741,3.169,12.456,1.311,1.639,2.841,1.748,3.824,0A20.035,20.035,0,0,0,122.11,529.431Z" transform="translate(-69.529 -485.649)"/><path d="M214.942,511.914a17.33,17.33,0,0,1,3.387-15.078,7.752,7.752,0,0,1,8.959-2.185,2.4,2.4,0,0,1,1.639,2.841,13.489,13.489,0,0,0,.437,5.135c1.2,4.917,2.185,9.833,5.354,13.985,1.093,1.42,2.4,1.639,3.933,1.857.437.109.983-.546,1.311-.983.437-.437.765-.874,1.2-1.311a6.245,6.245,0,0,1,1.2,1.748c.328,1.42-1.967,4.043-3.5,3.824-2.4-.219-4.589-.983-6.009-3.059a59.413,59.413,0,0,1-2.95-5.9c-.219-.328-.437-.765-.656-1.093a3.418,3.418,0,0,0-.546,1.093c-.437,1.967-.765,3.933-2.4,5.354-3.278,2.841-6.009,1.639-8.413-1.093-1.42-1.093-1.967-3.169-2.95-5.135m11.144-1.42c-.219-3.715-.219-7.32-.656-11.035-.219-2.076-2.185-2.732-3.824-1.639a5.482,5.482,0,0,0-1.53,1.639,20.924,20.924,0,0,0-1.42,14.094,2.991,2.991,0,0,0,3.169,2.513,6.33,6.33,0,0,0,3.387-1.748C225.868,513.334,225.868,511.914,226.087,510.494Z" transform="translate(-59.876 -486.597)"/><path d="M190.3,558.809c1.53-1.42,2.513-.874,3.387.437.546.874.983,1.967,1.53,2.841.219.328.765.437,1.2.765.109-.437.328-.874.219-1.2-1.42-3.387,1.093-7.539,3.387-8.631,1.311-.656,2.185.328,3.169.983,4.261,2.513,6.665,6.556,9.287,10.6,1.967,3.059,3.824,6.118,6.009,8.959,1.748,2.4,3.606,2.513,6.009.874a4.157,4.157,0,0,1,1.639-.546,5.412,5.412,0,0,1,.219,1.857c-.656,3.278-5.135,3.169-7.32,1.857-3.5-2.185-5.572-5.572-7.43-9.178a33.54,33.54,0,0,0-8.085-11.035c-1.639-1.42-3.168-1.093-3.824,1.2-.874,2.841-.219,5.572.546,8.194.546,2.185,2.076,4.043,3.168,6.118.546.983.328,3.059-.546,3.715-.109.109-.765-.328-.983-.656-2.622-3.933-5.135-7.867-7.757-11.8C192.7,562.305,191.5,560.666,190.3,558.809Z" transform="translate(-62.111 -481.157)"/><path d="M208.851,505.938c1.093,4.807,2.185,9.615,3.278,14.2a23.753,23.753,0,0,0,1.857,4.589c.983,1.857,1.639,1.639,2.95.109.437-.546.109-2.513,1.639-1.639.437.219.437,1.53.546,2.4a3.334,3.334,0,0,1-2.076,3.824c-1.639.874-3.169.109-4.37-.874a9.843,9.843,0,0,1-3.606-6.228c-1.093-6.009-2.4-11.909-3.824-17.809-.656-2.622-2.294-2.95-4.043-.983a12.915,12.915,0,0,0-3.387,8.194c-.219,3.606-.437,7.1.546,10.707.109.546-.437,1.42-.656,2.076-.874-.437-2.076.109-2.294-1.53a55.5,55.5,0,0,0-1.639-7.1c-.983-3.715-2.076-7.43-3.059-11.144a4.489,4.489,0,0,1,0-2.4c.109-.546.765-.874,1.2-1.42.437.437,1.093.874,1.2,1.42.437,1.967.765,3.933,1.093,5.791a6.684,6.684,0,0,0,.546,1.311,7.344,7.344,0,0,0,.656-1.311,12.554,12.554,0,0,1,3.824-7.539c3.824-3.606,5.681-2.513,8.194,1.639A13.792,13.792,0,0,1,208.851,505.938Z" transform="translate(-62.088 -486.193)"/><path d="M240.289,569.364c-2.731,1.53-4.917.328-7.211-.874-3.059-1.639-4.152-4.7-5.681-7.43-1.639-2.841-3.387-5.681-5.135-8.522a3.7,3.7,0,0,0-4.37-1.748c-1.093.219-2.076,2.841-1.857,4.589a20.934,20.934,0,0,0,3.5,9.4c.328.437.765.874.765,1.311a3.5,3.5,0,0,1-.437,1.967,1.562,1.562,0,0,1-2.294-.765,32.522,32.522,0,0,0-1.967-3.278c-2.841-3.715-5.791-7.32-8.631-10.926-.109-.109-.328-.219-.437-.328l-.328-1.967c.656,0,1.748-.219,2.076.219,1.311,1.42,2.513,3.059,3.715,4.589.328.437.765.874,1.093,1.311a4.384,4.384,0,0,0,.328-1.639,6.779,6.779,0,0,1,1.748-6.009c1.967-2.294,4.043-2.4,6.446-.874,3.824,2.513,5.572,6.665,7.867,10.38a52.986,52.986,0,0,0,5.354,6.883c.656.765,1.967.983,3.059,1.311,1.2.219,1.2-.874,1.53-1.639a5.133,5.133,0,0,1,.656-.983,2.945,2.945,0,0,1,.874.765C241.818,566.523,241.054,567.835,240.289,569.364Z" transform="translate(-60.639 -481.66)"/><path d="M183.581,559.275c2.513,5.026,5.026,9.833,7.43,14.75a31.871,31.871,0,0,0,5.9,8.3c.109.109.219.109.328.219.219.765.765,1.639.546,2.4-.109.656-2.513.219-3.168-.546a58.578,58.578,0,0,1-7.867-12.456c-3.387-7.539-7.211-14.969-10.707-22.4a2.313,2.313,0,0,1-.328-.765c-.109-.874-.546-1.967.656-2.185.546-.109,1.42.765,1.748,1.42C179.975,551.736,181.723,555.451,183.581,559.275Z" transform="translate(-63.477 -481.732)"/></g><g transform="translate(80.302 13.489)"><path d="M828.336,101.356c-.437-3.933-.765-7.867-4.48-10.6-2.841-2.185-5.791-3.387-9.4-2.95-1.093.109-2.4.874-1.639,1.857,1.42,2.076,0,3.059-1.2,4.152l-1.748,1.748c-1.42,1.093-2.731,2.513-4.261,3.059-4.261,1.42-8.631,2.95-13.33,2.076-4.807-.874-9.068-1.967-11.691-6.665-1.42-2.513-2.95-2.294-4.261.328a28.437,28.437,0,0,1-4.37,6.337c-2.185,3.059-5.026,5.572-8.741,6.228-5.463.983-10.27-2.4-13.876-6.228a.829.829,0,0,1-.219-.437,2.066,2.066,0,0,0-1.093-.874,3.636,3.636,0,0,0-2.841,0c-4.7,4.589-6.009,14.094-2.95,20.1,1.311,2.513,2.841,4.807,5.463,6.228a2.656,2.656,0,0,1,.983,1.967c-.109,1.2-.765,2.294-.874,3.5a45.927,45.927,0,0,0,.219,9.506,25.582,25.582,0,0,0,20.213,19.776c2.185.328,4.37.656,6.555,1.2a18.624,18.624,0,0,1,4.37,1.42c2.076.874,4.261,1.639,5.9,3.059A21.177,21.177,0,0,1,789,171.5c.656.983,1.42,1.53,2.294,1.093a4.853,4.853,0,0,0,1.42-2.294c.656-2.076,1.093-4.261,1.857-6.228a4.065,4.065,0,0,1,2.185-2.076,30.717,30.717,0,0,1,10.926-1.967h.219c3.933-2.185,7.976-4.043,10.926-7.43,3.933-4.37,5.135-10.489,7.43-15.733a11.876,11.876,0,0,1-.109-1.967c0-2.622.328-5.354.328-7.976v-2.841a38.959,38.959,0,0,0-3.606-8.194,1.011,1.011,0,0,1,.219-1.311,13.436,13.436,0,0,0,2.841-4.589,1.137,1.137,0,0,1,1.42-.656A21.948,21.948,0,0,0,828.336,101.356Zm-32.778,2.4a9.1,9.1,0,0,1,1.639-.437c1.2-.109,2.513-.219,3.715-.437a5.484,5.484,0,0,0,1.311-.219c-.328.328-.656.874-.983.983a21.636,21.636,0,0,1-2.841.656,13.306,13.306,0,0,1-2.95,0C795.558,104.2,795.449,103.759,795.558,103.759ZM778.3,95.565c.219.328.437.546.656.874a3.37,3.37,0,0,1-.109,1.53c-.328-.219-.874-.437-.874-.656A12.075,12.075,0,0,1,778.3,95.565ZM762.781,111.08a33.907,33.907,0,0,1,4.37-1.42,9.328,9.328,0,0,0,5.354-3.169,3.232,3.232,0,0,1,.328-.437c.328-.219.656-.546.983-.765a4.429,4.429,0,0,0-.546.983c-2.513,3.606-5.791,5.9-10.27,6.118-.328,0-.546-.328-.874-.546A2.368,2.368,0,0,1,762.781,111.08Zm-.656-2.4c-.219.109-.546.328-.656.219a1.394,1.394,0,0,1-.546-.765A6.359,6.359,0,0,1,762.125,108.676Zm27.206,59.218a4.75,4.75,0,0,1-.437-.765l.983-.328A2.562,2.562,0,0,1,789.33,167.894Zm23.491-11.035c-.983.437-2.076.765-3.059,1.093-.109,0-.219-.109-.328-.109a.828.828,0,0,1,.437-.219c.765-1.2,1.311-2.185,2.841-1.53a3.368,3.368,0,0,0,1.093.109Zm.983-3.059a5.132,5.132,0,0,1-.983-.656c.219,0,.437.109.656.109a5.89,5.89,0,0,0,1.093.328C814.241,153.691,814.023,153.909,813.8,153.8Zm3.169.437c-.328.219-.437.546-.765.656-.219.109-.656.109-.983.219a2.9,2.9,0,0,1,.656-.546,1.553,1.553,0,0,1,.656-.219c.219-.109.219-.219.328-.328l.765-.765a.828.828,0,0,1,.219.437A10.067,10.067,0,0,0,816.973,154.237Zm9.178-51.9c.109,3.278-1.857,6.118-4.261,8.3a.828.828,0,0,1-.437.219,9.166,9.166,0,0,1-1.967,3.059,30.711,30.711,0,0,1,1.967,6.118,13.526,13.526,0,0,1,1.311,3.5,43.4,43.4,0,0,1,.765,9.178,26.484,26.484,0,0,1-4.37,14.094,14.655,14.655,0,0,1-4.261,4.7,27.341,27.341,0,0,1-8.959,3.169,16.889,16.889,0,0,0-2.513.765,35.194,35.194,0,0,1-4.807,1.53,9.922,9.922,0,0,0-4.807,2.841,26.588,26.588,0,0,1-2.731,2.185,6.7,6.7,0,0,0,0,2.95c.219,1.2-1.53,2.076-2.076.874a.381.381,0,0,0-.109-.219h0a20.389,20.389,0,0,1-.765-2.4l-.656-.328a16.938,16.938,0,0,0-10.489-4.261,11.788,11.788,0,0,1-3.5-1.42c-1.093-.437-2.185-1.093-3.278-1.42a33.522,33.522,0,0,1-14.2-8.085,11.6,11.6,0,0,1-3.5-7.1c-.328-2.185-1.2-4.37-.983-6.446.219-2.185-.219-4.589,1.42-6.665a6.83,6.83,0,0,0,1.093-3.059,1.89,1.89,0,0,0-1.2-2.294c-4.589-1.967-6.883-5.9-7.867-10.489-.328-1.748.546-3.715.983-5.572a9.443,9.443,0,0,1,.546-1.639c.437.328.983.437,1.311.874A25.508,25.508,0,0,0,755.9,112.5c2.294,1.311,4.917,2.731,7.539,2.841a10.491,10.491,0,0,0,8.741-3.606c2.513-3.059,4.7-6.337,6.993-9.506.546-.874.765-.983,1.42-.219,3.059,3.5,7.211,4.48,11.472,5.463,3.169.656,6.228.983,9.068-.546a28.012,28.012,0,0,0,6.337-4.261c2.731-2.4,5.244-5.026,7.757-7.648A6.06,6.06,0,0,1,817.3,93.38c.219-.656.874-1.2,1.639-.656,3.169,2.076,6.446,4.807,7.1,8.741,0,.219.109.546.109.765C826.26,101.793,826.151,102.011,826.151,102.339Z" transform="translate(-13.593 -6.616)"/><path d="M84.852,91.073A65.113,65.113,0,0,1,83.1,82.332c-.219-2.4.437-5.026.328-7.43-.328-5.026,1.639-9.4,3.387-13.876,3.278-8.741,8.959-16.17,13.33-24.365,1.53-2.95,3.606-5.463,5.354-8.3,1.42-2.076,4.589-2.841,7.757-.109,3.606,2.95,7.539,5.681,10.926,8.85,2.513,2.513,4.37,5.681,6.446,8.631a26.532,26.532,0,0,1,2.622,3.5C135,52.5,136.2,56.11,138.279,59.17c2.731,3.824,4.152,8.085,5.791,12.455,2.294,6.228,2.622,12.783-.765,18.465-3.606,6.118-8.413,11.254-15.405,13.985a64.278,64.278,0,0,1-15.624,3.933c-9.4.983-17.044-2.513-23.381-9.068-1.967-2.185-2.731-5.244-4.043-7.867m17.591-51.024c-1.311,2.622-2.622,5.354-4.043,7.976A136.9,136.9,0,0,0,89.332,68.02C87.146,74.138,86.054,80.366,87.8,86.7A23.476,23.476,0,0,0,96.543,99.6c4.48,3.278,9.506,5.572,15.078,4.917a58.924,58.924,0,0,0,11.254-2.95,33.549,33.549,0,0,0,6.883-3.387,20.036,20.036,0,0,0,3.933-3.5,4.9,4.9,0,0,0,1.2-1.42,65.64,65.64,0,0,0,3.059-7.648,27.234,27.234,0,0,0,.874-13.876c-1.2-5.463-3.606-10.489-8.085-14.313-3.933-3.387-6.556-7.867-8.959-12.455a43.024,43.024,0,0,0-11.909-13.548c-.546-.437-2.076-.437-2.294,0-1.639,2.731-3.278,5.572-5.135,8.631m37.8,47.418a1.846,1.846,0,0,0,.546.219c.874-.765,2.076-5.9,1.639-6.993a1.508,1.508,0,0,0-.437-.328c-.109.219-.437.437-.437.765-.328,1.967-.765,4.043-1.311,6.337M127.572,47.7c.219.219.546.328.765.546-.328-.874-.656-1.639-.983-2.513a1.154,1.154,0,0,0-.546-.219A9.66,9.66,0,0,1,127.572,47.7Z" transform="translate(-74.472 -12.285)"/><path d="M791.548,79.3c.546,1.42.983,2.841,1.42,4.152.219.437.546.874.765,1.311.219-.437.656-.874.656-1.311.219-2.294.219-4.589.437-6.883a3.9,3.9,0,0,1,.656-2.076c.437-.546,1.42-.765,2.076-1.093a14.569,14.569,0,0,1,0,2.185c-.109.656-.437,1.311-.546,1.967-.328,2.731-.437,5.354-.874,8.085a3.309,3.309,0,0,1-1.639,2.185c-1.2.437-2.513.219-2.732-1.53a11.408,11.408,0,0,0-1.2-2.622,1.091,1.091,0,0,0-.546-.437c0,.219-.109.437-.109.656a12.8,12.8,0,0,1-.437,2.95c-.219.546-.983.983-1.42,1.53-.328-.437-.983-.765-1.093-1.2-.656-3.169-1.311-6.337-1.857-9.4-.109-.328.219-.765.328-1.2.546.219,1.311.328,1.53.656a10.01,10.01,0,0,1,.656,2.731c.109.328.219.765.328,1.093.219-.328.656-.546.656-.874C789.144,77.88,790.237,78.426,791.548,79.3Z" transform="translate(-9.474 -7.942)"/><path d="M749.863,86.091c.765-.656,1.093-1.093.546-2.076a6.965,6.965,0,0,1-.437-2.622,1.71,1.71,0,0,1,.437-1.093c.656.109,1.53.109,1.748.546.874,1.42,1.639,3.059,2.4,4.589a1.554,1.554,0,0,1,.219.656c.109,2.622.219,5.135.437,7.757.109,1.093-.437,1.639-1.42,1.311-.546-.109-.983-.765-1.2-1.311a23.456,23.456,0,0,0-1.2-3.933c-.656-1.2-1.639-.437-2.294.109-.437.328-.546,1.093-.656,1.639-.109.437.109.983,0,1.42-.219.546-.656,1.311-.983,1.311-.546,0-1.42-.437-1.53-.874-.656-3.278-1.093-6.665-1.53-9.943,0-.437.656-.874.983-1.311a12.456,12.456,0,0,1,1.2,1.2c.219.546.219,1.093.437,1.639C747.35,86.637,748.005,86.965,749.863,86.091Z" transform="translate(-13.241 -7.303)"/><path d="M765.492,83.561a14.126,14.126,0,0,1,2.622-2.513c1.2-.765,2.732.437,2.95,1.857.219,2.076.437,4.152.765,6.228.219,1.53-.765,2.4-2.294,2.185a17.786,17.786,0,0,0-3.387-.328,2.826,2.826,0,0,1-2.95-1.967c-1.42-3.606-1.748-7.1.328-10.489.765-1.2,3.933-2.076,5.135-1.311a1.3,1.3,0,0,1,.437,1.2c-.109.328-.656.874-.983.874-2.95.437-4.37,2.841-3.5,5.681a9.032,9.032,0,0,0,.874,2.4,2.11,2.11,0,0,0,1.639.765,2.061,2.061,0,0,0,1.2-1.311,5.209,5.209,0,0,0-.437-2.185s-.437-.109-.546,0C765.6,86.184,765.273,85.419,765.492,83.561Z" transform="translate(-11.606 -7.614)"/><path d="M85.143,46.276c-.765-1.093-1.311-.765-1.967,0-.546.656-1.093.983-.219,1.857A7.178,7.178,0,0,1,84.815,51.3c.219.874-.328,1.857-.656,2.841-.765-.328-1.967-.437-2.185-.983-1.093-2.4-3.606-3.933-4.043-6.883-.219-1.093-1.748-1.967-2.4-3.059a7.765,7.765,0,0,1-.328-2.294,6.965,6.965,0,0,1,2.622.437A17.186,17.186,0,0,1,79.9,43.326c.328.219,1.2.546,1.311.328a5.02,5.02,0,0,0,.765-1.748c0-.328-.546-.656-.546-1.093a19.286,19.286,0,0,1,0-2.513c.983.109,2.513-.219,2.95.328A82.343,82.343,0,0,1,90.168,46.6a2.807,2.807,0,0,1-.656,2.513c-.874.983-1.748.219-2.513-.546C86.344,47.806,85.8,47.041,85.143,46.276Z" transform="translate(-75.2 -11.192)"/><path d="M782.612,82.165a59.331,59.331,0,0,1,.656,6.009,2.629,2.629,0,0,1-1.311,1.748c-1.311.437-.983-.983-1.2-1.639-.328-1.093-.219-2.294-.437-3.387a3.458,3.458,0,0,0-1.093-1.967c-.546-.328-2.513,1.748-2.513,2.622v2.622a1.408,1.408,0,0,1-1.857,1.42c-.328-.109-.656-.874-.656-1.42-.437-2.513-.765-5.135-1.093-7.648a2.665,2.665,0,0,1,0-1.311,5.65,5.65,0,0,1,.656-1.42,8.032,8.032,0,0,1,1.857,1.311,16.884,16.884,0,0,1,1.311,2.4,9.7,9.7,0,0,0,2.4-1.748c.546-.765.437-1.857.874-2.841A7.012,7.012,0,0,1,781.3,75.5c.328.437.983.983,1.093,1.42A43.877,43.877,0,0,0,782.612,82.165Z" transform="translate(-10.59 -7.747)"/><path d="M798.383,80.776c.546-2.294.983-4.589,1.639-6.665a2.924,2.924,0,0,1,2.294-1.311c.546,0,1.311.983,1.748,1.748s.437,1.857.874,2.622a1.989,1.989,0,0,0,1.42,1.093c1.639-.109,1.42,1.42.983,1.748-1.639,1.2-.874,2.731-1.093,4.152a2.669,2.669,0,0,1-.874,1.639c-.874.437-1.639-.109-1.857-1.093-.109-.328,0-.656-.219-.874-.437-.546-1.2-1.311-1.53-1.311a3.887,3.887,0,0,0-1.748,1.53c-.328.437-.219,1.2-.546,1.639a2.633,2.633,0,0,1-1.639.437,2.054,2.054,0,0,1-.437-1.093c.219-1.42.656-2.731.983-4.261m4.043-1.311c-.109-.656-.328-1.2-.437-1.857-.219.109-.546.328-.437.328A4.287,4.287,0,0,0,802.426,79.465Z" transform="translate(-8.333 -7.997)"/><path d="M122.1,19.488c1.093-1.311,2.513-1.53,3.5-.546,1.093,1.093.109,2.294-.874,3.278-1.748,1.53-3.387,3.169-5.244,4.7a6.619,6.619,0,0,1-2.294,1.2c-1.093.219-1.748-.109-1.748-1.42.109-1.53,0-3.059,0-4.589,0-.328-.219-.546-.328-.874-.219.219-.328.437-.546.656-.656.765-1.2,1.639-1.857,2.294a2.469,2.469,0,0,1-1.639.546,1.548,1.548,0,0,1-.765-1.53c.437-2.731.983-5.354,1.53-8.085a1.465,1.465,0,0,1,2.185-1.2c.437.219.437,1.53.546,2.294a4.579,4.579,0,0,1-.437,1.639,3.365,3.365,0,0,1,1.311-.546c.874,0,2.513-.109,2.622.219a15.513,15.513,0,0,1,.437,3.933v1.639a9.975,9.975,0,0,0,1.42-.874C120.572,21.345,121.337,20.471,122.1,19.488Z" transform="translate(-71.952 -13.466)"/><path d="M813.973,71c.656.437,1.42.765,1.42,1.311a11.645,11.645,0,0,1-.983,5.354c-1.093,2.4-1.53,5.135-2.4,7.757a2.828,2.828,0,0,1-1.53,1.639c-1.748.328-2.294-.546-1.53-2.185.219-.437.437-.983.656-1.42.874-1.857,1.311-3.606-.109-5.463a17.038,17.038,0,0,1-2.185-4.48,8.814,8.814,0,0,1,0-2.4c1.093,0,2.185-.219,2.622,1.2a38.671,38.671,0,0,0,1.748,3.715c.109.219.328.437.437.656.109-.219.328-.437.328-.656a14.349,14.349,0,0,1,.109-3.059C812.662,72.2,813.317,71.656,813.973,71Z" transform="translate(-7.425 -8.164)"/><path d="M98.7,33.946c-1.748,1.639-3.933,2.731-5.9,1.967-2.731-1.093-4.152-3.933-4.589-6.883A7.609,7.609,0,0,1,89.3,23.348a3.358,3.358,0,0,1,3.824-1.639c.656.109,1.2.983,1.53,1.639.109.219-.765,1.2-1.311,1.311-2.294.656-3.059,2.185-2.076,4.37a21.015,21.015,0,0,0,1.311,2.731c.437.437,1.311.983,1.857.765A4.405,4.405,0,0,0,96.406,31c.109-.219-.219-.983-.546-1.42-.219-.219-.765-.219-1.2-.219H92.582a9.313,9.313,0,0,1,.328-2.513,1.653,1.653,0,0,1,1.53-.765,8.55,8.55,0,0,1,3.715.546C100.012,27.609,100.23,31.87,98.7,33.946Z" transform="translate(-74.008 -12.737)"/><path d="M101.914,28.142c-1.2,1.639-2.076.656-2.622-.328q-1.8-3.769-3.278-7.539c-.328-.765-.109-2.4.109-2.4.983-.219,2.185-.437,2.731.983.656,1.639,1.53,1.2,2.4.219,1.2-1.53,3.387-2.4,2.841-4.917,0-.109.656-.765.874-.656.656.219,1.53.656,1.639,1.093.546,2.4.983,4.807,1.311,7.32a10.271,10.271,0,0,1,0,3.169c-.109.437-1.093.765-1.639,1.093l-.983-1.639c-.109-.219,0-.437,0-.656-.437-.983-.874-1.967-1.311-3.059a17.452,17.452,0,0,0-2.841,2.841c-.328.437.546,1.53.765,2.4A12.84,12.84,0,0,1,101.914,28.142Z" transform="translate(-73.288 -13.489)"/><path d="M130.178,28.07c-.109.983-.437,1.857-.437,2.622.219,2.294.656,4.589.765,6.883a4.555,4.555,0,0,1-.983,2.622c-.437.437-1.42.437-2.076.546a7.655,7.655,0,0,1-.328-1.53c0-2.185.437-4.48-1.857-5.791a3.991,3.991,0,0,0-1.639-.328c-.765.109-1.53.437-2.4.656A19.5,19.5,0,0,1,121,31.239a2.167,2.167,0,0,1,.656-1.42c1.857-1.967,3.715-3.933,5.681-5.681.656-.546,1.967-.328,3.059-.437a8.1,8.1,0,0,1,.109,2.294A8.07,8.07,0,0,1,130.178,28.07Z" transform="translate(-70.96 -12.543)"/><path d="M133.247,38.48c-.656-2.513-1.2-4.917-1.639-7.32a14.318,14.318,0,0,1,0-3.059c.656.109,1.53-.109,1.857.219a8.133,8.133,0,0,1,1.748,2.95c.328,1.2.328,2.513.546,3.715,0,.328.328.656.437.983.219-.328.546-.546.656-.874a37.742,37.742,0,0,1,1.53-3.715c.328-.546,1.42-.765,2.076-1.093.109.546.546,1.2.437,1.639a18.123,18.123,0,0,1-1.311,3.387c-1.748,3.606-3.5,7.32-5.354,10.926-.219.437-1.311.546-2.076.656-.109,0-.328-.874-.437-1.311a5.651,5.651,0,0,1,1.53-5.026A1.337,1.337,0,0,0,133.247,38.48Z" transform="translate(-69.986 -12.136)"/><path d="M84.356,30.9a27.971,27.971,0,0,1,3.059,3.278,41.022,41.022,0,0,1,3.824,4.807,5.135,5.135,0,0,1,.328,3.169c0,.219-1.093.546-1.639.437a2.61,2.61,0,0,1-1.42-.765C86.65,39.313,84.9,36.8,83.154,34.287,81.952,32.539,82.5,31.009,84.356,30.9Z" transform="translate(-74.523 -11.877)"/><path d="M760.8,92.08a5.768,5.768,0,0,1-1.748.983c-.328,0-.874-.656-.983-1.093-.656-2.513-1.2-4.917-1.748-7.43-.437-1.857-.109-2.95,1.2-2.841a1.382,1.382,0,0,1,1.093.765c.874,3.059,1.639,6.228,2.4,9.4Z" transform="translate(-12.154 -7.174)"/><path d="M789.8,120.445a44.134,44.134,0,0,1,1.2,11.909c-.109,2.294-3.387,6.556-5.572,6.993-2.076.437-5.572-1.967-6.228-4.48-1.42-5.135-1.967-10.38.437-15.405.437-.874,1.857-1.42,2.841-1.967a9.592,9.592,0,0,1,2.513-.765c2.294-.546,3.606-.874,4.48,2.185a4.29,4.29,0,0,0,.328,1.53M786.96,124.6c-.219-1.2-.437-2.513-.765-3.715-.219-.983-.656-1.093-1.42-.437a10.664,10.664,0,0,0-3.606,5.354c-.437,1.967.219,6.883,2.185,8.194a2.058,2.058,0,0,0,1.311.219c.656-.874,1.639-1.857,1.748-2.95A40.081,40.081,0,0,0,786.96,124.6Z" transform="translate(-10.131 -3.963)"/><path d="M762.712,125.4c.328-1.311.546-2.622.874-3.824a1.619,1.619,0,0,1,1.311-.874c.546,0,1.53.437,1.639.874.437,1.639.546,3.387.874,5.026.437,2.4,1.093,4.917,1.53,7.32a4.647,4.647,0,0,1,.219,1.2c.437,3.059,1.093,3.5,3.933,2.513a16.575,16.575,0,0,1,2.294-.328,7.379,7.379,0,0,1,1.53.219c-.109.656-.109,1.53-.437,1.857a10.312,10.312,0,0,1-3.059,1.639c-1.311.328-2.732.328-3.715,1.42a1.455,1.455,0,0,1-.983.656,59.2,59.2,0,0,1-6.228,0c-.328,0-.765-1.093-.765-1.639a2.232,2.232,0,0,1,.874-1.42c.328-.219.983-.109,1.42-.109,1.857-.109,2.185-.546,1.53-2.294a10.363,10.363,0,0,1-.546-2.513,15.953,15.953,0,0,1-.328-3.933c0-1.639-.109-2.4-1.967-1.311-.219.109-1.2-.219-1.2-.437a6.476,6.476,0,0,1,0-2.513C761.62,126.491,762.276,126.054,762.712,125.4Z" transform="translate(-11.668 -3.562)"/><path d="M800.528,123.284c-.328-1.2-.437-2.4-.656-3.606a4.57,4.57,0,0,0-.874-1.311l-.656.983a7.192,7.192,0,0,1-1.639,1.53,8.106,8.106,0,0,1-2.294.765c0-.874-.328-2.076.109-2.622a44.427,44.427,0,0,1,4.48-4.589,1.61,1.61,0,0,1,2.622.983c.983,4.261,1.967,8.631,2.95,12.893.437,1.857.983,2.185,2.841,1.857a1.772,1.772,0,0,1,1.53.765,2.459,2.459,0,0,1,0,1.967c-.874,1.42-2.622,1.639-4.152,1.967-2.4.546-4.917,1.093-7.43,1.42-.437.109-1.311-.656-1.311-.983,0-.765-.765-2.076.874-2.4a26.878,26.878,0,0,0,3.169-.765c1.748-.437,2.076-1.093,1.639-2.95A47.194,47.194,0,0,0,800.528,123.284Z" transform="translate(-8.621 -4.18)"/><path d="M108.841,61.449c-.219-.983-.437-1.748-.656-2.622-.328.656-.765,1.311-1.093,2.076a9.335,9.335,0,0,1-.983,2.622c-.437.546-1.311.656-2.076.874-.219-.437-.546-.983-.437-1.42a10.351,10.351,0,0,1,.765-3.169c1.311-2.841,2.731-5.572,3.933-8.413.656-1.42,1.748-1.2,2.841-.983.328.109.656,1.093.656,1.748l1.311,20.65a35.332,35.332,0,0,0,.874,5.791c.656,2.294,1.639,2.731,3.824,2.185,2.076-.437,4.152-.765,6.337-1.093a2.607,2.607,0,0,1,1.53.219c0,.874.109,2.076-.328,2.4-1.2.874-2.731,1.967-4.152,2.076-4.37.328-8.413,2.294-12.783,2.4-1.639.109-3.169.656-4.917.328-1.2-.328-2.4-.546-2.185-2.185.109-1.42.656-2.294,2.4-2.294a32.6,32.6,0,0,0,4.589-.437c1.53-.219,2.95-2.622,2.622-4.37-.328-1.967-.656-3.933-.874-6.009-.328-3.278-.546-6.556-.874-9.943C109.278,61.995,108.95,61.776,108.841,61.449Z" transform="translate(-72.786 -10.085)"/></g><g transform="translate(75.166 248.517)"><path d="M138.307,310.5c-.765,6.009-1.53,11.691-2.185,17.372-.328,2.731-.546,5.463-.983,8.194-.546,4.37-1.2,8.741-1.857,13.111a3.189,3.189,0,0,1-1.2,1.748c-.656.437-1.42,1.2-1.967-.656-1.967-7.211-4.37-14.2-5.9-21.524-1.53-7.757-3.606-15.405-5.354-23.163-.437-1.748-1.093-2.841-3.169-2.841-2.622-.109-5.354-.546-7.976-.874-4.043-.546-8.085-1.2-12.128-1.748-.874-.109-1.857.219-2.622-.109-1.093-.437-2.513-1.093-2.95-1.967a2.563,2.563,0,0,1,1.857-3.387c1.2-.437,2.513-.874,3.715-1.311,5.463-2.076,10.926-4.261,16.5-6.118,4.043-1.311,5.244-4.043,5.9-7.867,1.53-8.085,3.606-16.061,5.244-24.037.328-1.53-.109-3.168.109-4.7.109-.546.874-1.53,1.42-1.53a2.8,2.8,0,0,1,2.076,1.093c1.53,4.043,2.841,8.3,4.48,12.346,2.622,6.774,7.32,12.565,10.38,19.23.656,1.42,3.5,1.857,5.354,2.513a58.744,58.744,0,0,0,8.631,2.185,26.6,26.6,0,0,0,6.556-.546c.437,0,.874-.656,1.311-.656a12.108,12.108,0,0,1,2.731.546,16.986,16.986,0,0,1-.874,2.513c-1.42,2.622-3.824,3.059-6.556,3.715-2.95.765-5.572,2.95-8.194,4.589-3.059,1.967-6.009,4.043-9.068,6.118-2.841,1.639-3.168,4.589-3.278,7.757m15.187-19.885c-.437.109-.765.437-1.2.437-6.556.765-13.111,1.53-19.557,2.294-.219,0-.437.219-.765.219.219.109.546.219.765.328,2.185,1.2,4.261,2.4,6.446,3.5a2.713,2.713,0,0,0,1.857,0c3.606-1.639,7.1-3.278,10.6-5.026.765-.437,1.42-1.2,2.294-1.748a7.137,7.137,0,0,0,1.53,0c.656-.109,1.42-.328,2.076-.437v-.437a12.944,12.944,0,0,0-2.841-.219c-.437,0-.656.656-1.2,1.093m-20.65,40.972c0-1.2-.109-2.4,0-3.605.546-4.48,1.42-8.85,1.748-13.22.328-3.715-.219-7.539.109-11.254.437-3.933-1.748-5.463-4.589-6.993-1.42-.765-2.076-.546-1.748,1.093.874,5.135.765,10.38,1.639,15.515,1.093,6.228,1.093,12.783,1.53,19.12.109,1.2.328,2.4.546,3.715.218-1.311.437-2.622.765-4.37m-4.807-9.724c-.546-5.244-1.093-10.38-1.53-15.624-.328-3.168-.546-6.337-.874-9.615,0-.219-.219-.437-.437-.656,0,0-.328,0-.328.109-.328,1.093-1.311,2.4-.874,3.168.983,1.967-.109,2.731-1.53,3.278-.983.437-1.2.765-.874,1.748a48.243,48.243,0,0,1,1.53,5.681c1.311,6.118,2.622,12.237,3.933,18.246l2.294,10.161c.109.219.437.437.656.656a2.026,2.026,0,0,0,.219-.765c-.765-5.354-1.311-10.817-2.185-16.389m.983-53.537c-.656-2.622-1.311-5.354-2.076-7.976a16.086,16.086,0,0,0-1.093-2.4,21.218,21.218,0,0,0-.219,2.622c.437,4.7.983,9.4,1.311,14.094.328,4.48.328,9.068.546,13.548,0,.328.219.546.328.874a2.9,2.9,0,0,0,.546-.656c1.2-1.967,2.4-3.824,3.5-5.791.328-.656.874-1.42.765-1.967a17.526,17.526,0,0,0-1.093-3.387c-.765-2.841-1.53-5.791-2.513-8.959m-5.681-4.261c-.656,3.278-1.639,6.556-1.748,9.943-.109,3.606-1.093,6.883-1.748,10.38-.219.983.983,2.513,1.857,3.387.765.765,2.076.983,3.169,1.53-.109-1.093-.109-2.185-.219-3.278v-1.311c-.109-6.446-.328-13-.437-19.448a1.227,1.227,0,0,0-.874-1.2M108.152,298.7c3.933.219,7.976.437,11.909.546.328,0,.874-.109.874-.328.546-1.2.874-2.294,1.311-3.5.109-.219-.328-.656-.546-.765a4.7,4.7,0,0,0-1.748,0,71.68,71.68,0,0,1-16.717,2.294c-1.311,0-2.622.328-3.824.437-.219,0-.328.219-.546.219.109.109.328.437.437.437a16.592,16.592,0,0,0,2.185.656c2.076.109,4.152,0,6.665,0m34.854-9.943c2.076-.109,4.261-.328,6.337-.437a3.473,3.473,0,0,0,.983-.328,5.1,5.1,0,0,0-1.093-.546c-3.168-.656-6.446-1.2-9.615-1.857-5.244-.983-6.337-.656-9.068,3.606a8.149,8.149,0,0,0-.765,1.311c.546,0,1.2.109,1.748.109,3.715-.656,7.43-1.2,11.472-1.857m-28.954,1.311c-2.731.874-5.463,1.748-8.085,2.731-.437.109-.765.546-1.093.765a3.365,3.365,0,0,0,1.311.546,16.959,16.959,0,0,0,2.294-.437c4.043-.656,8.085-1.2,12.128-1.857.328,0,.546-.437.874-.546-.219-.219-.437-.546-.656-.765-2.076-.983-4.152-1.857-6.774-.437m20.868-12.237A42.63,42.63,0,0,0,137,281.659c.109.219.546.328.765.546a3.662,3.662,0,0,0,0-1.093c-1.2-2.622-2.4-5.135-3.606-7.757-.109-.219-.437-.437-.656-.656-.109.328-.328.765-.219.983A19.315,19.315,0,0,0,134.92,277.835Z" transform="translate(-68.709 -226.702)"/><path d="M133.214,364.378c.765-.874,2.185-1.748,1.967-2.4a2.365,2.365,0,0,0-2.841-1.857c-1.857.219-3.824.328-5.681.437a9.382,9.382,0,0,1-1.857-.328c-4.48-1.093-3.5-2.185-3.387-6.337.109-2.513,2.841-4.7,5.463-4.589,2.076.109,4.152.219,6.118.437a1.581,1.581,0,0,1,.983.874c-.219.546-.656,1.311-.983,1.311-1.53.109-3.168-.109-4.7.109a6.016,6.016,0,0,0-2.731,1.093c-.874.656-2.294,1.748-1.2,2.841a6.639,6.639,0,0,0,3.933,1.857c2.294.219,4.589-.437,6.774-.328,2.294.109,3.824,3.715,2.731,6.337-1.311,3.278-4.37,3.824-7.211,4.917a12.457,12.457,0,0,1-4.37.874c-.874,0-2.294-.656-2.513-1.311-.546-1.639.874-1.857,2.076-1.748A13.106,13.106,0,0,0,133.214,364.378Z" transform="translate(-65.801 -217.425)"/><path d="M129.131,241.274a34.453,34.453,0,0,1-.983,3.933,1.611,1.611,0,0,1-1.093.983,2.536,2.536,0,0,1-1.42-.874c-2.513-2.731-4.917-5.463-7.43-8.194-.219-.219-.546-.219-.765-.328a3.233,3.233,0,0,0-.219,1.093v8.85a3.559,3.559,0,0,1-.874,2.076,1.3,1.3,0,0,1-1.42.219c-.219-.109-.328-.874-.328-1.311V234.172c0-.765.546-2.185.765-2.185,1.093,0,2.513,0,3.278.656,2.294,2.185,4.37,4.589,6.556,6.883a4.36,4.36,0,0,0,1.42.765,5.762,5.762,0,0,1-.328-1.311c.109-3.059.219-6.118.546-9.068.109-.546,1.311-.874,1.967-1.311a5.2,5.2,0,0,1,.546,1.53C129.459,233.735,129.35,237.45,129.131,241.274Z" transform="translate(-66.417 -228.6)"/><path d="M168.934,280.381a8.419,8.419,0,0,0,.109,2.95,1.425,1.425,0,0,0,2.294.765,4.469,4.469,0,0,1,2.4,0,8.048,8.048,0,0,1,1.53.437c-.219.656-.328,1.53-.874,1.857a10.818,10.818,0,0,1-2.841.874c-1.093.437-2.622.765-3.059,1.639a3.58,3.58,0,0,0,.765,3.387c.656.656,2.185.656,3.278.437a29.186,29.186,0,0,0,4.37-1.42,3.138,3.138,0,0,1,1.311.219c0,.656.109,1.639-.328,2.076-1.857,2.185-8.631,3.168-11.144,1.639a2.162,2.162,0,0,1-1.093-1.53c.109-3.933.328-7.867.328-11.8,0-.765-.656-1.53-.874-2.294-.328-1.42,0-2.4,1.748-2.622,2.294-.328,4.48-.765,6.774-1.093.437-.109.983.328,1.42.437-.328.656-.437,1.748-.983,1.967-1.311.546-2.841.765-4.261,1.2A3.21,3.21,0,0,0,168.934,280.381Z" transform="translate(-61.751 -224.222)"/><path d="M80.77,297.411c.328,0,.765-.109.765-.328-.109-2.841-.328-5.791-.437-8.631,0-.437,0-1.2.328-1.42a2.723,2.723,0,0,1,1.857-.328c.219,0,.437.874.546,1.311.219,3.168.437,6.228.437,9.4a39.01,39.01,0,0,1-.437,5.026c0,.328-.656.874-.983.874a1.9,1.9,0,0,1-1.2-.656c-1.093-1.093-1.967-2.294-3.059-3.5a7.352,7.352,0,0,0-1.2-.765c-.109.437-.109.874-.219,1.311a25.958,25.958,0,0,1-.656,4.043c-.219.656-1.2.983-1.748,1.42a8.238,8.238,0,0,1-.656-1.42c-1.2-3.606-2.294-7.211-3.387-10.817a8.964,8.964,0,0,1-.219-2.4,5.536,5.536,0,0,1,.765-1.639c.546.437,1.311.874,1.42,1.42.765,2.622,1.2,5.244,1.857,7.867.109.219.328.437.546.765.109-.219.328-.437.328-.656.328-1.093.437-2.95,1.093-3.278C78.476,294.133,79.787,295.553,80.77,297.411Z" transform="translate(-70.5 -223.224)"/></g></g></svg>