<svg xmlns="http://www.w3.org/2000/svg" viewBox="8887.32 976.086 65.006 65.093"><defs><style>.a{fill:#6b625e;}</style></defs><path class="a" d="M64.928,32.55c0,6.661-.189,13.3.054,19.957a12.314,12.314,0,0,1-12.3,12.567c-13.538,0-27.049.054-40.588-.027A12.162,12.162,0,0,1-.012,52.7c.054-13.43-.054-26.861.027-40.318C.069,4.988,5.328.026,12.771.026,26.04.026,39.281.107,52.55,0A12.377,12.377,0,0,1,64.982,12.324C64.793,19.066,64.928,25.808,64.928,32.55ZM14.308,18.257c-2.562,3.83-1.753,7.5,2.265,11.7-1.591-.27-2.859-.512-4.207-.728.566,4.4,3.209,6.8,6.85,8.5-.944.054-1.915.135-3.074.216a6.557,6.557,0,0,0,3.047,4.018,45.14,45.14,0,0,0,4.612,2.1c-3.209,2.724-7.147,3.587-11.327,3.8a1.85,1.85,0,0,0,.674.647,24.142,24.142,0,0,0,20.442,1.079A25.213,25.213,0,0,0,49.5,26.239a2.321,2.321,0,0,1,.917-2.05A39.783,39.783,0,0,0,53.2,21.331l-.243-.162c-1.214.27-2.427.512-3.83.809,1.241-1.51,2.292-2.751,3.344-4.018a4.477,4.477,0,0,0-.351-.378c-.593.243-1.187.512-1.807.755-1.7.674-3.155,1.025-4.908-.458-2.131-1.807-4.854-1.888-7.524-.971a8.628,8.628,0,0,0-5.771,9.061c.081,1.025-.189,1.375-1.241,1.268A25.209,25.209,0,0,1,15.037,19.47,5.783,5.783,0,0,1,14.308,18.257Z" transform="translate(8887.337 976.087)"/></svg>