<svg xmlns="http://www.w3.org/2000/svg" viewBox="1478 4653 60 60.081"><defs><style>.a{fill:#fff;}</style></defs><path class="a" d="M59.928,30.044c0,6.148-.174,12.272.05,18.42a11.366,11.366,0,0,1-11.351,11.6c-12.5,0-24.967.05-37.463-.025A11.226,11.226,0,0,1-.012,48.638c.05-12.4-.05-24.792.025-37.214C.063,4.6,4.917.024,11.787.024,24.034.024,36.256.1,48.5,0A11.424,11.424,0,0,1,59.978,11.375C59.8,17.6,59.928,23.821,59.928,30.044ZM13.206,16.851c-2.365,3.535-1.618,6.92,2.091,10.8-1.469-.249-2.639-.473-3.883-.672.523,4.057,2.962,6.273,6.323,7.841-.871.05-1.767.124-2.838.2a6.052,6.052,0,0,0,2.813,3.709,41.665,41.665,0,0,0,4.257,1.942c-2.962,2.514-6.6,3.311-10.455,3.51a1.707,1.707,0,0,0,.622.6,22.283,22.283,0,0,0,18.868,1A23.272,23.272,0,0,0,45.69,24.219a2.142,2.142,0,0,1,.846-1.892A36.72,36.72,0,0,0,49.1,19.689l-.224-.149c-1.12.249-2.24.473-3.535.747,1.145-1.394,2.116-2.539,3.087-3.709a4.132,4.132,0,0,0-.324-.348c-.548.224-1.1.473-1.668.7-1.568.622-2.912.946-4.53-.423-1.966-1.668-4.481-1.742-6.945-.9a7.963,7.963,0,0,0-5.327,8.364c.075.946-.174,1.269-1.145,1.17a23.268,23.268,0,0,1-14.612-7.169A5.338,5.338,0,0,1,13.206,16.851Z" transform="translate(1478.016 4653.001)"/></svg>